<svg xmlns="http://www.w3.org/2000/svg">
<defs>
<font id="Amethysta-Regular" horiz-adv-x="1085" >
  <font-face 
    font-family="Amethysta"
    font-weight="400"
    font-stretch="normal"
    units-per-em="2048"
    panose-1="2 0 0 0 0 0 0 0 0 0"
    ascent="1638"
    descent="-410"
    x-height="1024"
    cap-height="1475"
    bbox="-127 -563 3464.75 1952"
    underline-thickness="102"
    underline-position="-103"
    unicode-range="U+0020-2212"
  />
<missing-glyph horiz-adv-x="1976" 
d="M1165 532l191 -147q8 2 32 32t23 38q-14 13 -77.5 66.5t-106.5 92.5q26 35 59.5 79t56 73.5t33.5 46.5q-45 39 -76 53l-151 -190q-130 103 -199 149q-41 -47 -53 -80l186 -147l-147 -190q1 -10 31.5 -34t38.5 -22zM1935 1161l-131 -135l-2 2q-5 -484 -493 -817
q0 -9 -2.5 -19t-11.5 -20t-23 -10l-25 -25q117 -40 195 -78q5 0 27 1t34 0t32.5 -4t39.5 -11.5t37 -21.5v-5t-1 -3.5t-1.5 -2t-2.5 -2t-3 -2.5q-25 12 -38 17.5t-35 9t-46 0.5q49 -28 68 -51q4 -5 8 -11q-3 -9 -19 -12q-68 68 -131 66q-13 0 -22.5 -0.5t-21 -4t-15.5 -5
t-21.5 -9.5t-23.5 -10q-2 2 -4.5 2.5t-4 0.5t-2.5 2t-2 7q10 11 20.5 18t17.5 9.5t23.5 7.5t26.5 8q-37 20 -83 37t-70.5 25.5t-24.5 15.5q0 13 23 31q-15 0 -25.5 14t-13.5 25h-55q-61 0 -113 8q-20 -54 -55 -47q-21 -11 -31 -21q11 -7 40.5 -25.5t46 -29t41 -28
t44.5 -33.5q9 -2 34.5 -6.5t39.5 -8.5t35.5 -17.5t37.5 -35.5q0 -5 -1 -6.5t-4 -3.5t-5 -4q-27 24 -44 32.5t-56 14.5q41 -27 55 -80q-4 -10 -16 -8q-53 85 -109 96q-63 9 -143 -10q-6 9 -6 16l10 6t10 5t11.5 4t10.5 3t12 2t11.5 1.5t12.5 1.5t12 1t13.5 0.5t12.5 0.5
q-27 22 -68 48.5t-63 42t-22 25.5q0 7 2.5 10.5t10.5 9t13 9.5q-19 20 -14 66q-82 45 -152 104t-123 125t-86 115t-69 109q-5 10 -8 14q-10 3 -48 16t-50 17t-45 15.5t-47.5 17.5t-42.5 17t-43.5 19t-36.5 19t-37.5 21.5t-30.5 22.5q-15 13 -11 29.5t23 16.5l524 -46
q74 15 160 32t137.5 26.5t110 21.5t92 20.5t69 19t56 21.5t38 24t28.5 30q61 108 125.5 154.5t152.5 46.5q53 0 96 -15v2l152 54q6 0 6 -4v-2l-51 -142l143 6q7 0 4 -6z" />
    <glyph glyph-name=".notdef" horiz-adv-x="1976" 
d="M1165 532l191 -147q8 2 32 32t23 38q-14 13 -77.5 66.5t-106.5 92.5q26 35 59.5 79t56 73.5t33.5 46.5q-45 39 -76 53l-151 -190q-130 103 -199 149q-41 -47 -53 -80l186 -147l-147 -190q1 -10 31.5 -34t38.5 -22zM1935 1161l-131 -135l-2 2q-5 -484 -493 -817
q0 -9 -2.5 -19t-11.5 -20t-23 -10l-25 -25q117 -40 195 -78q5 0 27 1t34 0t32.5 -4t39.5 -11.5t37 -21.5v-5t-1 -3.5t-1.5 -2t-2.5 -2t-3 -2.5q-25 12 -38 17.5t-35 9t-46 0.5q49 -28 68 -51q4 -5 8 -11q-3 -9 -19 -12q-68 68 -131 66q-13 0 -22.5 -0.5t-21 -4t-15.5 -5
t-21.5 -9.5t-23.5 -10q-2 2 -4.5 2.5t-4 0.5t-2.5 2t-2 7q10 11 20.5 18t17.5 9.5t23.5 7.5t26.5 8q-37 20 -83 37t-70.5 25.5t-24.5 15.5q0 13 23 31q-15 0 -25.5 14t-13.5 25h-55q-61 0 -113 8q-20 -54 -55 -47q-21 -11 -31 -21q11 -7 40.5 -25.5t46 -29t41 -28
t44.5 -33.5q9 -2 34.5 -6.5t39.5 -8.5t35.5 -17.5t37.5 -35.5q0 -5 -1 -6.5t-4 -3.5t-5 -4q-27 24 -44 32.5t-56 14.5q41 -27 55 -80q-4 -10 -16 -8q-53 85 -109 96q-63 9 -143 -10q-6 9 -6 16l10 6t10 5t11.5 4t10.5 3t12 2t11.5 1.5t12.5 1.5t12 1t13.5 0.5t12.5 0.5
q-27 22 -68 48.5t-63 42t-22 25.5q0 7 2.5 10.5t10.5 9t13 9.5q-19 20 -14 66q-82 45 -152 104t-123 125t-86 115t-69 109q-5 10 -8 14q-10 3 -48 16t-50 17t-45 15.5t-47.5 17.5t-42.5 17t-43.5 19t-36.5 19t-37.5 21.5t-30.5 22.5q-15 13 -11 29.5t23 16.5l524 -46
q74 15 160 32t137.5 26.5t110 21.5t92 20.5t69 19t56 21.5t38 24t28.5 30q61 108 125.5 154.5t152.5 46.5q53 0 96 -15v2l152 54q6 0 6 -4v-2l-51 -142l143 6q7 0 4 -6z" />
    <glyph glyph-name=".null" horiz-adv-x="0" 
 />
    <glyph glyph-name="nonmarkingreturn" horiz-adv-x="0" 
 />
    <glyph glyph-name="noBreak" horiz-adv-x="0" 
 />
    <glyph glyph-name="space" unicode=" " horiz-adv-x="696" 
 />
    <glyph glyph-name="exclam" unicode="!" horiz-adv-x="559" 
d="M281 225q52 0 88.5 -36.5t36.5 -88.5q0 -53 -36.5 -90t-88.5 -37q-54 0 -90.5 37t-36.5 90t36.5 89t90.5 36zM344 338h-115l-34 1198h184z" />
    <glyph glyph-name="quotedbl" unicode="&#x22;" horiz-adv-x="688" 
d="M141 969l-37 530h166l-41 -530h-88zM428 969l-37 530h166l-41 -530h-88z" />
    <glyph glyph-name="numbersign" unicode="#" horiz-adv-x="1405" 
d="M309 -43l-135 23l148 483h-220v110h252l105 340h-254v111h289l163 535l136 -23l-158 -512h307l164 535l135 -23l-158 -512h269v-111h-301l-105 -340h303v-110h-338l-153 -506l-135 23l147 483h-307zM602 913l-104 -340h305l104 340h-305z" />
    <glyph glyph-name="dollar" unicode="$" horiz-adv-x="1155" 
d="M532 -129v127q-110 1 -199 15.5t-194 45.5v351h49l95 -260q140 -39 249 -39v559q-216 97 -307.5 197.5t-91.5 240.5q0 84 31 151.5t86.5 112t126.5 71t155 34.5v129h93v-125q147 -3 321 -47v-334h-39l-104 248q-107 20 -178 20v-530q235 -113 316 -201.5t81 -237.5
q0 -95 -31.5 -168.5t-87.5 -120t-125.5 -73t-152.5 -35.5v-131h-93zM825 346q0 91 -42 153.5t-158 125.5v-506q89 17 144.5 72t55.5 155zM328 1157q0 -77 41.5 -138.5t162.5 -131.5v475q-97 -16 -150.5 -67.5t-53.5 -137.5z" />
    <glyph glyph-name="percent" unicode="%" horiz-adv-x="1765" 
d="M1114 305q0 -43 14.5 -82t41 -68.5t62 -47t77.5 -17.5t79 18t64.5 48.5t43 70.5t15.5 84t-15.5 84t-42 70t-62.5 47.5t-78 17.5q-41 0 -77.5 -17.5t-63.5 -48t-42.5 -71.5t-15.5 -88zM684 1130q0 91 -57 155.5t-142 64.5q-84 0 -141 -66t-57 -160q0 -87 56 -151t138 -64
q85 0 144 65.5t59 155.5zM825 1130q0 -139 -99.5 -234t-240.5 -95q-145 0 -238 88t-93 227q0 145 95 238.5t238 93.5q148 0 243 -88t95 -230zM1653 311q0 -138 -99.5 -233.5t-240.5 -95.5q-145 0 -238.5 88t-93.5 227q0 145 95 238.5t239 93.5q147 0 242.5 -88t95.5 -230z
M1321 1475l-698 -1522h-134l699 1522h133z" />
    <glyph glyph-name="ampersand" unicode="&#x26;" horiz-adv-x="1540" 
d="M1051 721v41h411v-41l-139 -66q-80 -214 -188 -366l163 -178l211 -70v-41h-383l-127 137q-200 -178 -464 -178q-87 0 -163 22t-136 64t-95 111.5t-35 156.5q0 53 8 95t28 79t43 66t66 62t83.5 59.5t107.5 66.5l-96 107q-104 116 -104 274q0 72 28 139.5t77 120t123.5 84
t160.5 31.5q173 0 273 -96.5t100 -231.5q0 -123 -69.5 -210.5t-238.5 -188.5l371 -405q77 115 145 284zM602 78q192 0 332 129l-416 452q-190 -139 -190 -319q0 -140 72 -201t202 -61zM422 1176q0 -106 61 -172l138 -152q125 83 170 155.5t45 157.5q0 110 -54.5 172
t-140.5 62q-97 0 -158 -68t-61 -155z" />
    <glyph glyph-name="quotesingle" unicode="'" horiz-adv-x="401" 
d="M141 969l-37 530h166l-41 -530h-88z" />
    <glyph glyph-name="parenleft" unicode="(" horiz-adv-x="659" 
d="M573 -428q-183 157 -294 427t-111 615q0 343 111.5 613.5t293.5 429.5l54 -49q-130 -180 -200.5 -441.5t-70.5 -552.5q0 -292 71.5 -552.5t201.5 -440.5z" />
    <glyph glyph-name="parenright" unicode=")" horiz-adv-x="659" 
d="M86 -428l-56 49q130 180 201.5 440.5t71.5 552.5q0 291 -70.5 552.5t-200.5 441.5l54 49q182 -159 293.5 -429.5t111.5 -613.5q0 -345 -111 -615t-294 -427z" />
    <glyph glyph-name="asterisk" unicode="*" horiz-adv-x="852" 
d="M397 1366l-57 315l41 31h94l41 -31l-57 -315h-62zM492 1262l233 -222l-16 -49l-76 -55l-51 2l-140 289zM412 1227l-138 -291h-51l-76 55l-14 49l232 224zM483 1348l283 153l41 -31l29 -88l-17 -49l-317 -43zM354 1292l-319 41l-15 47l29 90l43 29l283 -151z" />
    <glyph glyph-name="plus" unicode="+" horiz-adv-x="1270" 
d="M707 739h460v-131h-460v-467h-140v467h-465v131h465v467h140v-467z" />
    <glyph glyph-name="comma" unicode="," horiz-adv-x="555" 
d="M186 100q0 52 37 88.5t90 36.5q67 0 98 -47.5t31 -120.5q0 -134 -85 -241.5t-212 -143.5l-32 62q85 40 143.5 98t58.5 123l-2 18q-53 0 -90 37t-37 90z" />
    <glyph glyph-name="hyphen" unicode="-" horiz-adv-x="840" 
d="M102 676h635v-123h-635v123z" />
    <glyph glyph-name="period" unicode="." horiz-adv-x="477" 
d="M240 225q52 0 88.5 -36.5t36.5 -88.5q0 -53 -36.5 -90t-88.5 -37q-54 0 -90.5 37t-36.5 90t36.5 89t90.5 36z" />
    <glyph glyph-name="slash" unicode="/" horiz-adv-x="856" 
d="M55 -377h-157l903 1913h157z" />
    <glyph glyph-name="zero" unicode="0" horiz-adv-x="1288" 
d="M637 1403q-70 0 -120.5 -25.5t-86.5 -71t-58.5 -108t-35 -137t-17 -158t-4.5 -170.5q0 -86 4.5 -168.5t17 -156t35 -136t58.5 -108t87 -71t120 -25.5q68 0 118 25t85 70t57.5 107.5t35 136.5t17 157.5t4.5 170.5q0 86 -4.5 169t-17 157.5t-34.5 137t-57.5 108t-85.5 71
t-118 25.5zM625 -41q-137 0 -237.5 58t-159.5 164.5t-87 243.5t-28 308q0 170 32 310t96 247t168.5 166.5t241.5 59.5q109 0 195 -39t143.5 -108t96 -168t55 -214t16.5 -252q0 -169 -31.5 -308t-95 -245t-167 -164.5t-238.5 -58.5z" />
    <glyph glyph-name="one" unicode="1" horiz-adv-x="879" 
d="M94 1221l-22 88l411 190h78v-1380l205 -41v-78h-660v78l267 41v1167z" />
    <glyph glyph-name="two" unicode="2" horiz-adv-x="1157" 
d="M1042 393v-393h-950v131l410 416q272 276 272 559q0 142 -78.5 219.5t-228.5 77.5q-75 0 -170 -21l-107 -297h-61v369q159 62 360 62q102 0 188 -19.5t158 -62t113 -118.5t41 -179q0 -67 -4.5 -110t-23 -103t-55 -117.5t-101 -135.5t-160.5 -173l-336 -336h594l68 231h71
z" />
    <glyph glyph-name="three" unicode="3" horiz-adv-x="1081" 
d="M113 27v381h51l108 -297q98 -43 187 -43q144 0 227.5 73t83.5 232q0 143 -84 232t-213 89h-104v137h102q74 0 129.5 47t81 113t25.5 137q0 273 -273 273q-65 0 -147 -17l-107 -297h-61v369q161 60 334 60q72 0 135 -11t122 -38t101 -68.5t67 -107t25 -148.5
q0 -109 -68 -211.5t-184 -151.5v-8q79 -26 133 -56t98 -76t65.5 -112t21.5 -155q0 -135 -69.5 -229.5t-186 -139.5t-269.5 -45q-171 0 -331 68z" />
    <glyph glyph-name="four" unicode="4" horiz-adv-x="1149" 
d="M721 1516h139v-1045h197v-158h-197v-313h-184v313h-666v162zM164 471h512v762z" />
    <glyph glyph-name="five" unicode="5" horiz-adv-x="1053" 
d="M92 27v381h51l109 -297q96 -43 186 -43q68 0 128 19t108.5 56.5t77 100t28.5 143.5q0 62 -9 115t-35 108.5t-67.5 94.5t-113 63.5t-164.5 24.5q-108 0 -258 -33v715h789v-158h-650v-414q126 25 228 25q109 0 194.5 -29.5t138 -76t87 -109.5t48 -125t13.5 -127
q0 -116 -47 -212t-126 -158.5t-182.5 -97t-217.5 -34.5q-160 0 -316 68z" />
    <glyph glyph-name="six" unicode="6" horiz-adv-x="1212" 
d="M629 68q60 0 116 24t99 73t68.5 123t25.5 173q0 102 -27 173.5t-72 116t-105 65t-126 20.5q-130 0 -284 -72q-2 -17 -3.5 -43.5t-1.5 -61.5q0 -134 16 -243t52 -186.5t95.5 -119.5t146.5 -42zM907 1419q-229 0 -383 -153t-192 -430q187 129 344 129q199 0 332 -134.5
t133 -357.5q0 -154 -69.5 -272.5t-185 -180t-257.5 -61.5q-256 0 -386 181.5t-130 527.5q0 131 29.5 255t89 231t141 188t193.5 127.5t239 46.5q113 0 227 -27l-10 -78q-49 8 -115 8z" />
    <glyph glyph-name="seven" unicode="7" horiz-adv-x="1083" 
d="M971 1401l-488 -1401h-211l527 1315h-619l-43 -211h-106v371h940v-74z" />
    <glyph glyph-name="eight" unicode="8" horiz-adv-x="1149" 
d="M993 1137q0 -95 -70.5 -184.5t-191.5 -161.5q67 -34 109.5 -59t88 -61.5t71 -73.5t41.5 -89t16 -115q0 -80 -34.5 -157t-95.5 -139t-154.5 -100t-203.5 -38q-109 0 -201 36.5t-151 97t-92 137.5t-33 159q0 122 73.5 227.5t219.5 165.5q-131 67 -184.5 153t-53.5 195
q0 91 36.5 166t96.5 122t134.5 72.5t154.5 25.5q201 0 312.5 -103.5t111.5 -275.5zM553 694l-84 43q-99 -54 -142.5 -133t-43.5 -209q0 -144 79 -235.5t207 -91.5q127 0 205 89.5t78 204.5q0 43 -11.5 79.5t-42 79.5t-92 86.5t-153.5 86.5zM346 1155q0 -95 59 -162.5
t220 -148.5l28 -15q72 58 113 136t41 149q0 131 -60.5 211t-177.5 80q-101 0 -162 -67.5t-61 -182.5z" />
    <glyph glyph-name="nine" unicode="9" horiz-adv-x="1212" 
d="M305 55q229 0 383 153t193 431q-186 -129 -344 -129q-199 0 -332 134t-133 357q0 155 69 273.5t185 180t258 61.5q256 0 386 -181.5t130 -527.5q0 -131 -29.5 -255t-89 -231t-141 -188t-193.5 -127.5t-239 -46.5q-120 0 -228 27l10 77q49 -8 115 -8zM584 1407
q-60 0 -114.5 -24t-99 -70t-70.5 -123.5t-26 -175.5q0 -99 26.5 -173t73 -117t104 -64t126.5 -21q131 0 285 72q4 34 4 104q0 137 -16 242t-51 185.5t-96 122.5t-146 42z" />
    <glyph glyph-name="colon" unicode=":" horiz-adv-x="559" 
d="M281 227q25 0 48 -10t40 -27t27 -40t10 -48q0 -26 -9.5 -49t-26.5 -40.5t-40 -27.5t-49 -10q-27 0 -50 10t-40 27t-27 40t-10 50t10 49.5t27 39.5t40 26.5t50 9.5zM281 1036q52 0 88.5 -36.5t36.5 -88.5q0 -53 -36.5 -90t-88.5 -37q-54 0 -90.5 37t-36.5 90t36.5 89
t90.5 36z" />
    <glyph glyph-name="semicolon" unicode=";" horiz-adv-x="637" 
d="M362 1036q52 0 88.5 -36t36.5 -89t-36.5 -90t-88.5 -37q-53 0 -89.5 37t-36.5 90t36.5 89t89.5 36zM227 100q0 52 37 88.5t90 36.5q67 0 98 -47.5t31 -120.5q0 -134 -85 -241.5t-212 -143.5l-32 62q85 40 143.5 98t58.5 123l-2 18q-53 0 -90 37t-37 90z" />
    <glyph glyph-name="less" unicode="&#x3c;" horiz-adv-x="1229" 
d="M92 618v107l983 492v-166l-799 -379l799 -387v-164z" />
    <glyph glyph-name="equal" unicode="=" horiz-adv-x="1272" 
d="M102 889h1067v-123h-1067v123zM102 535h1067v-123h-1067v123z" />
    <glyph glyph-name="greater" unicode="&#x3e;" horiz-adv-x="1229" 
d="M1137 725v-107l-983 -497v164l798 387l-798 379v166z" />
    <glyph glyph-name="question" unicode="?" horiz-adv-x="1014" 
d="M953 1156q-3 -244 -201 -411l-226 -200v-189h-102v244l197 211q59 71 87.5 150t28.5 164q0 147 -94 217.5t-217 59.5q-75 0 -145 -20l-107 -297h-61v370q167 61 351 61q229 0 357.5 -95t131.5 -265zM475 -27q-52 0 -88.5 36.5t-36.5 88.5q0 53 36.5 90t88.5 37
q54 0 90.5 -37t36.5 -90t-36.5 -89t-90.5 -36z" />
    <glyph glyph-name="at" unicode="@" horiz-adv-x="1894" 
d="M1141 266v129l-6 2q-70 -90 -111 -131t-91 -62.5t-120 -21.5q-65 0 -112.5 26.5t-74 73t-39 102.5t-12.5 122q0 70 16 139t50 140t92.5 130.5t136 105t189.5 69t246 18.5v-793q72 0 130 28.5t97 77t65.5 116t38 143t11.5 160.5q0 220 -170 357.5t-441 137.5
q-117 0 -225.5 -34t-199.5 -100t-158.5 -156t-105.5 -208t-38 -251q0 -137 38 -251t105 -194t158 -135.5t196 -81.5t220 -26q180 0 383 86l33 -64q-114 -70 -238 -107.5t-235 -37.5q-129 0 -250 30.5t-230 96t-190 159t-128.5 229.5t-47.5 298q0 186 69.5 349t189.5 278.5
t289 182t361 66.5q224 0 397.5 -82t268 -228t94.5 -331q0 -284 -155.5 -464.5t-411.5 -180.5q-38 0 -61 27t-23 61zM872 330q66 0 124.5 37.5t131.5 132.5v499q-66 0 -126.5 -30t-105 -79.5t-78.5 -111.5t-51 -129t-17 -129q0 -87 35 -138.5t87 -51.5z" />
    <glyph glyph-name="A" unicode="A" horiz-adv-x="1452" 
d="M979 485h-528l-146 -391l168 -53v-41h-477v41l174 72l522 1362h92l535 -1362l164 -72v-41h-512v41l162 53zM707 1169l-215 -577h446l-223 577h-8z" />
    <glyph glyph-name="B" unicode="B" horiz-adv-x="1352" 
d="M1194 1128q0 -119 -64 -201t-172 -130v-11q151 -45 236.5 -142t85.5 -234q0 -193 -141 -301.5t-404 -108.5h-622v41l184 72v1249l-184 72v41h551q280 0 405 -90t125 -257zM492 729v-623h270q99 0 170.5 46.5t104 115t32.5 146.5q0 58 -20 113t-57 100.5t-97 73.5t-133 28
h-270zM492 836h223q134 0 203 78.5t69 197.5q0 123 -68.5 189.5t-226.5 66.5h-200v-532z" />
    <glyph glyph-name="C" unicode="C" horiz-adv-x="1348" 
d="M1255 37q-175 -62 -358 -62q-124 0 -236.5 27.5t-211 87.5t-171 146t-114 210.5t-41.5 274.5q0 188 61 339.5t166.5 248t245.5 147.5t301 51q170 0 344 -55l-2 -381h-41l-125 285q-84 37 -221 37q-80 0 -151 -21t-136.5 -70t-113 -123.5t-75.5 -188.5t-28 -257
q0 -152 44.5 -276.5t121.5 -205t178.5 -124t216.5 -43.5q102 0 193 29l110 329h41z" />
    <glyph glyph-name="D" unicode="D" horiz-adv-x="1550" 
d="M113 1475h620q157 0 287 -47.5t225.5 -138.5t149 -232.5t53.5 -321.5q0 -216 -91 -383.5t-254 -259.5t-372 -92h-618v41l184 72v1249l-184 72v41zM719 1368h-227v-1262h233q101 0 192.5 39t163 113t114 192t42.5 265q0 315 -135 484t-383 169z" />
    <glyph glyph-name="E" unicode="E" horiz-adv-x="1280" 
d="M113 0v41l184 72v1249l-184 72v41h813l190 26l31 -26v-402h-41l-127 295h-487v-563l415 20l39 -14l-20 -133l-434 16v-588h507l127 295h41v-401h-1054z" />
    <glyph glyph-name="F" unicode="F" horiz-adv-x="1198" 
d="M492 113l245 -72v-41h-624v41l184 72v1249l-184 72v41h751l191 26l30 -26v-404h-43l-127 297h-423v-584l415 21l39 -14l-20 -134l-434 17v-561z" />
    <glyph glyph-name="G" unicode="G" horiz-adv-x="1464" 
d="M1321 74q-58 -28 -111.5 -47t-106 -31t-106 -17.5t-110.5 -5.5q-101 0 -196.5 22t-180.5 64.5t-156 106t-122.5 147t-80 185.5t-28.5 223q0 130 31 239t86 196.5t131.5 153t168.5 109.5t195.5 66t212.5 22q183 0 348 -55l-2 -381h-41l-123 283q-99 32 -208 32
q-111 0 -214 -37.5t-182 -116.5t-126.5 -203t-47.5 -296q0 -161 46 -282.5t125.5 -203.5t185.5 -123.5t225 -41.5q104 0 203 29v485l-260 51v62h444l41 -41l-41 -127v-467z" />
    <glyph glyph-name="H" unicode="H" horiz-adv-x="1729" 
d="M1237 113v583h-745v-583l184 -72v-41h-553v41l174 72v1249l-184 72v41h553v-41l-174 -72v-559h745v559l-184 72v41h532v-37l-153 -76v-1249l184 -72v-41h-553v41z" />
    <glyph glyph-name="I" unicode="I" horiz-adv-x="788" 
d="M492 1362v-1249l184 -72v-41h-553v41l174 72v1249l-184 72v41h553v-41z" />
    <glyph glyph-name="J" unicode="J" horiz-adv-x="680" 
d="M455 1362v-1133q0 -193 -106 -315t-326 -184l-7 65q142 81 193 176.5t51 274.5v1116l-184 72v41h553v-41z" />
    <glyph glyph-name="K" unicode="K" horiz-adv-x="1430" 
d="M1403 1475v-48l-197 -73l-444 -557l469 -674l188 -76v-47h-342l-475 707h-121v-594l185 -72v-41h-543v41l174 72v1249l-184 72v41h542v-41l-174 -72v-563l152 28l422 541l-154 59v48h502z" />
    <glyph glyph-name="L" unicode="L" horiz-adv-x="1249" 
d="M1178 0h-1065v41l184 72v1249l-184 72v41h563v-41l-174 -72v-1245h508l127 295h41v-412z" />
    <glyph glyph-name="M" unicode="M" horiz-adv-x="1888" 
d="M1386 1475h400v-41l-174 -72v-1249l184 -72v-41h-502v41l160 72v1147h-12l-471 -1260h-101l-450 1264h-10v-1141l163 -82v-41h-471v41l174 82v1239l-184 72v41h477l4 -95l367 -1065h8z" />
    <glyph glyph-name="N" unicode="N" horiz-adv-x="1587" 
d="M1341 1352v-1352h-94l-727 1073l-125 225h-12l6 -247v-928l164 -82v-41h-471v41l174 82v1239l-184 72v41h440l20 -99l515 -751l159 -263h13l-11 240v750l-164 82v41h472v-41z" />
    <glyph glyph-name="O" unicode="O" horiz-adv-x="1606" 
d="M793 -41q-193 0 -344.5 93.5t-238.5 270.5t-87 410q0 174 54.5 322.5t149 249.5t221.5 158t271 57q143 0 265.5 -56.5t210.5 -157.5t138 -248.5t50 -322.5q0 -174 -54.5 -321t-147.5 -246t-219.5 -154t-268.5 -55zM805 1407q-140 0 -246.5 -86.5t-163.5 -239t-57 -348.5
q0 -298 128 -481.5t339 -183.5q208 0 335.5 185t127.5 482q0 298 -128 485t-335 187z" />
    <glyph glyph-name="P" unicode="P" horiz-adv-x="1268" 
d="M481 600v-487l226 -72v-41h-594v41l184 72v1249l-184 72v41h540q130 0 231 -29.5t170.5 -83.5t105.5 -129.5t36 -167.5q0 -95 -33 -181t-103 -151t-178 -103.5t-259 -38.5q-67 0 -142 9zM682 1370h-201v-663q38 -5 72 -7.5t65 -2.5q112 0 184.5 28t115 76t59 112
t16.5 136q0 161 -80 241t-231 80z" />
    <glyph glyph-name="Q" unicode="Q" horiz-adv-x="1626" 
d="M815 1391q-107 0 -193.5 -48t-147 -135t-93.5 -208t-33 -267q0 -147 33 -266.5t93.5 -204.5t147 -131.5t193.5 -46.5q106 0 191.5 47t146 133t93 205.5t32.5 265.5q0 147 -33 267.5t-94 207t-146 134t-190 47.5zM1503 735q0 -152 -43 -283t-119.5 -224t-178 -154.5
t-220.5 -83.5q75 -163 219 -269l156 21l20 -37l-241 -131q-229 137 -332 403q-138 7 -255.5 62t-203 150.5t-134 235t-48.5 308.5q0 174 56 320t152.5 244t225 152t272.5 54q143 0 266.5 -54t214 -151.5t142 -242.5t51.5 -320z" />
    <glyph glyph-name="R" unicode="R" horiz-adv-x="1444" 
d="M1073 0l-315 618q-29 -4 -59.5 -6t-62.5 -2q-37 0 -75.5 3t-79.5 8v-508l226 -72v-41h-594v41l184 72v1249l-184 72v41h563q130 0 231 -29.5t170.5 -83.5t105.5 -129.5t36 -167.5q0 -135 -69.5 -239.5t-205.5 -159.5l291 -568l147 -57v-41h-309zM705 1370h-224v-643
q41 -5 77.5 -7.5t71.5 -2.5q386 0 386 332q0 161 -80 241t-231 80z" />
    <glyph glyph-name="S" unicode="S" horiz-adv-x="1120" 
d="M252 131q157 -39 262 -39q54 0 106.5 11.5t94 39.5t67 74.5t25.5 116.5q0 46 -13 86.5t-47.5 80.5t-93.5 81.5t-151 91.5q-100 54 -172.5 102.5t-120 100.5t-70 112t-22.5 137q0 377 471 377q167 0 352 -47v-346h-41l-108 254q-106 22 -191 22q-143 0 -223 -54.5
t-80 -168.5q0 -40 11 -76t45 -75t96 -83t163 -100q100 -54 174.5 -100t123.5 -94.5t73.5 -105.5t24.5 -132q0 -120 -40 -200.5t-107.5 -130t-157.5 -70.5t-189 -21q-58 0 -107.5 3.5t-97.5 11t-98 20t-109 29.5v360h52z" />
    <glyph glyph-name="T" unicode="T" horiz-adv-x="1251" 
d="M10 1475l31 26l190 -26h789l190 26l31 -26v-414h-41l-125 305l-348 14v-1267l184 -72v-41h-542v41l174 72v1267l-361 -16l-131 -303h-41v414z" />
    <glyph glyph-name="U" unicode="U" horiz-adv-x="1585" 
d="M827 68q101 0 176 23t133 76t87.5 147t29.5 229v809l-184 82v41h485v-41l-168 -82v-795q0 -305 -138 -451.5t-417 -146.5q-98 0 -176.5 15.5t-150.5 56t-120 105t-76.5 167.5t-28.5 240v819l-185 72v41h553v-41l-174 -72v-793q0 -501 354 -501z" />
    <glyph glyph-name="V" unicode="V" horiz-adv-x="1386" 
d="M465 1475v-41l-164 -60l412 -1071h8l409 1071l-149 60v41h457v-41l-174 -72l-539 -1382h-78l-532 1382l-166 72v41h516z" />
    <glyph glyph-name="W" unicode="W" horiz-adv-x="2021" 
d="M514 1475v-41l-176 -68l278 -1073h9l362 1182h129l336 -1160h8l281 1049l-174 70v41h479v-41l-174 -72l-379 -1382h-94l-379 1153h-6l-357 -1153h-108l-416 1382l-184 72v41h565z" />
    <glyph glyph-name="X" unicode="X" horiz-adv-x="1477" 
d="M913 1415v60h514v-60l-198 -84l-395 -553l448 -649l180 -70v-59h-577v59l180 66l-342 498l-358 -502l174 -62v-59h-525v59l201 78l430 598l-416 606l-184 74v60h561v-60l-160 -74l312 -450l323 452z" />
    <glyph glyph-name="Y" unicode="Y" horiz-adv-x="1268" 
d="M446 1475v-41l-131 -52l344 -680h9l366 678l-135 54v41h420v-41l-154 -72l-436 -797v-452l184 -72v-41h-542v41l174 72v450l-432 799l-164 72v41h497z" />
    <glyph glyph-name="Z" unicode="Z" horiz-adv-x="1276" 
d="M111 1475l30 26l191 -26h821l21 -91l-121 -145l-734 -1122h676l127 295h41v-412l-30 -27l-191 27h-860l-21 90l121 146l723 1122h-629l-124 -295h-41v412z" />
    <glyph glyph-name="bracketleft" unicode="[" horiz-adv-x="664" 
d="M612 -375h-407v2024h407v-113h-233v-1798h233v-113z" />
    <glyph glyph-name="backslash" unicode="\" horiz-adv-x="856" 
d="M958 -377h-157l-903 1913h157z" />
    <glyph glyph-name="bracketright" unicode="]" horiz-adv-x="643" 
d="M31 1649h407v-2024h-407v113h233v1798h-233v113z" />
    <glyph glyph-name="asciicircum" unicode="^" horiz-adv-x="1108" 
d="M522 1483h109l370 -398l-61 -61l-365 326l-362 -326l-61 61z" />
    <glyph glyph-name="underscore" unicode="_" horiz-adv-x="1042" 
d="M-6 -125h1055v-123h-1055v123z" />
    <glyph glyph-name="grave" unicode="`" horiz-adv-x="453" 
d="M33 1556l196 -350l-55 -39l-301 303l12 41z" />
    <glyph glyph-name="a" unicode="a" 
d="M1055 88v-37l-217 -67q-64 -14 -108 14.5t-44 97.5q-130 -121 -305 -121q-145 0 -217 75t-72 188q0 85 38 150.5t97 104.5t141 65t158 36t160 12v96q0 140 -44 195t-146 55q-77 0 -181 -24l-106 -232h-49v285q90 32 190 50t176 18q165 0 254.5 -66.5t89.5 -218.5v-625z
M465 92q57 0 117 27.5t104 75.5v329q-200 -9 -305 -81.5t-105 -184.5q0 -86 55 -126t134 -40z" />
    <glyph glyph-name="b" unicode="b" horiz-adv-x="1180" 
d="M256 -45h-61v1421l-185 72v41l348 72l21 -21v-582q104 91 272 91q83 0 161.5 -37.5t139.5 -105t98 -170.5t37 -224q0 -128 -42.5 -232t-114.5 -169.5t-163.5 -100.5t-193.5 -35q-131 0 -260 60zM578 946q-118 0 -199 -94v-680q50 -57 99.5 -75.5t105.5 -18.5
q93 0 161.5 63t101 159.5t32.5 211.5q0 191 -82.5 312.5t-218.5 121.5z" />
    <glyph glyph-name="c" unicode="c" horiz-adv-x="1006" 
d="M565 -25q-94 0 -179.5 38.5t-150.5 107t-104 170.5t-39 221q0 129 39 233t107.5 170t157.5 101t192 35q147 0 289 -66v-309h-41l-111 268q-60 14 -119 14q-157 0 -232 -116t-75 -330q0 -204 99 -313t272 -109q59 0 106.5 15.5t116.5 54.5l31 -64q-89 -70 -172 -95.5
t-187 -25.5z" />
    <glyph glyph-name="d" unicode="d" horiz-adv-x="1231" 
d="M1169 88v-37l-348 -76l-20 21v96q-120 -117 -283 -117q-83 0 -160 37.5t-136 105t-94.5 170t-35.5 224.5q0 119 40.5 220t109.5 169.5t163 107t199 38.5q95 0 197 -33v362l-185 72v41l349 72l20 -21v-1401zM801 201v694q-93 51 -176 51q-141 0 -232.5 -124.5
t-91.5 -309.5q0 -194 75.5 -312t211.5 -118q125 0 213 119z" />
    <glyph glyph-name="e" unicode="e" horiz-adv-x="1057" 
d="M946 506h-647q1 -112 32 -195t84 -130t116.5 -69t138.5 -22q104 0 223 70l31 -60q-84 -74 -168 -99.5t-191 -25.5q-93 0 -179 39.5t-151 109t-104 170.5t-39 218q0 111 28.5 202.5t75.5 152.5t109.5 103t128 60.5t133.5 18.5q85 0 157.5 -31.5t129 -93t89 -161.5
t32.5 -228zM571 952q-115 0 -183.5 -91t-84.5 -249h477q0 160 -54 250t-155 90z" />
    <glyph glyph-name="f" unicode="f" horiz-adv-x="805" 
d="M451 885v-772l256 -72v-41h-625v41l184 72v768l-194 55v41l194 41v102q0 107 38 193t101.5 139t143 81t166.5 28q31 0 83 -8t79 -19v-305h-41l-142 239q-87 0 -142.5 -44t-78 -114.5t-22.5 -168.5v-123h282l35 -12v-60z" />
    <glyph glyph-name="g" unicode="g" horiz-adv-x="1178" 
d="M383 -39q-98 -60 -98 -190q0 -59 29 -98.5t74 -63t100 -33.5t106 -10q53 0 106.5 10.5t96 31t69.5 51t27 71.5q0 63 -31.5 101t-85.5 60.5t-127 33.5t-156 20q-35 4 -62.5 8t-47.5 8zM584 279q-103 0 -189 32q-63 -42 -63 -106q0 -37 42.5 -59t110.5 -31.5t150 -17.5
t164 -25t150 -46.5t110.5 -89t42.5 -145.5q0 -69 -33 -126t-86.5 -93.5t-125.5 -61.5t-146.5 -36t-151.5 -11q-215 0 -336 74.5t-121 194.5q0 173 191 252q-119 40 -119 149q0 128 156 213q-87 53 -133.5 138t-46.5 180q0 73 29 141.5t82.5 123t137.5 87.5t185 33
q88 0 161 -25h402v-41l-219 -78q90 -105 90 -241q0 -73 -29.5 -141.5t-83 -123t-137 -87.5t-184.5 -33zM358 664q0 -137 60 -210t166 -73q105 0 165 73.5t60 209.5t-60 209t-165 73q-106 0 -166 -73t-60 -209z" />
    <glyph glyph-name="h" unicode="h" horiz-adv-x="1309" 
d="M604 41v-41h-543v41l185 72v1263l-185 72v41l349 72l20 -21v-633q70 66 165 104t187 38q135 0 223.5 -82t88.5 -244v-610l184 -72v-41h-543v41l174 72v549q0 144 -51 200t-176 56q-149 0 -252 -89v-716z" />
    <glyph glyph-name="i" unicode="i" horiz-adv-x="696" 
d="M635 41v-41h-553v41l184 72v751l-184 72v41l348 72l21 -21v-915zM199 1350q0 52 36.5 88.5t90.5 36.5q52 0 88.5 -36.5t36.5 -88.5q0 -54 -36.5 -90.5t-88.5 -36.5q-54 0 -90.5 36.5t-36.5 90.5z" />
    <glyph glyph-name="j" unicode="j" horiz-adv-x="528" 
d="M55 936v41l348 72l21 -21v-962q0 -109 -9.5 -187.5t-34 -148t-67.5 -117.5t-109.5 -86t-160.5 -64l-6 66q40 22 71 49.5t52.5 56.5t36 70.5t23.5 80.5t13 97.5t5.5 110t1.5 129.5v741zM193 1350q0 52 36.5 88.5t89.5 36.5q52 0 88.5 -36.5t36.5 -88.5q0 -54 -36 -90.5
t-89 -36.5t-89.5 36.5t-36.5 90.5z" />
    <glyph glyph-name="k" unicode="k" horiz-adv-x="1192" 
d="M594 41v-41h-533v41l185 72v1263l-185 72v41l349 72l20 -21v-981l90 21l299 352l-131 51v41h436v-41l-172 -68l-293 -344l349 -460v2l174 -72v-41h-305l-375 483h-72v-370z" />
    <glyph glyph-name="l" unicode="l" horiz-adv-x="696" 
d="M614 41v-41h-553v41l185 72v1263l-185 72v41l349 72l20 -21v-1427z" />
    <glyph glyph-name="m" unicode="m" horiz-adv-x="1942" 
d="M614 41v-41h-542v41l184 72v751l-184 72v41l348 72l20 -21v-119q69 66 159.5 103t182.5 37q90 0 163 -42.5t110 -127.5q69 79 168.5 124.5t201.5 45.5q60 0 113 -19t95.5 -57.5t67.5 -102.5t25 -147v-610l185 -72v-41h-543v41l174 72v549q0 143 -49.5 199.5t-167.5 56.5
q-149 0 -252 -97q10 -50 10 -98v-610l174 -72v-41h-532v41l174 72v549q0 143 -49.5 199.5t-167.5 56.5q-142 0 -242 -89v-716z" />
    <glyph glyph-name="n" unicode="n" horiz-adv-x="1319" 
d="M614 41v-41h-542v41l184 72v751l-184 72v41l348 72l20 -21v-121q71 66 166 104t187 38q134 0 222.5 -82t88.5 -244v-610l184 -72v-41h-543v41l175 72v549q0 144 -51.5 200t-176.5 56q-149 0 -252 -89v-716z" />
    <glyph glyph-name="o" unicode="o" horiz-adv-x="1163" 
d="M582 1049q114 0 205 -39t154 -109.5t96.5 -169.5t33.5 -219q0 -119 -33 -218t-96 -170t-154 -110t-206 -39q-116 0 -207 39t-154 110t-96 169.5t-33 218.5t33.5 219t96.5 169.5t154 109.5t206 39zM364 837q-77 -125 -77 -325q0 -99 19.5 -181.5t57 -142t92.5 -92.5
t126 -33t127 33t94.5 92.5t59 142t20.5 181.5q0 98 -20.5 180.5t-59 142t-94.5 93t-127 33.5q-142 0 -218 -124z" />
    <glyph glyph-name="p" unicode="p" horiz-adv-x="1180" 
d="M604 -471v-41h-594v41l185 72v1263l-185 72v41l348 72l21 -21v-102q56 69 120 96t150 27q83 0 161.5 -37.5t140 -105t99 -170.5t37.5 -224q0 -137 -42 -243t-112.5 -168.5t-155.5 -94t-179 -31.5q-119 0 -219 43v-417zM606 946q-63 0 -124 -29t-103 -81v-635
q29 -57 88.5 -90t130.5 -33q43 0 82 14t76 47t64 82t43 123.5t16 167.5q0 194 -72 314t-201 120z" />
    <glyph glyph-name="q" unicode="q" horiz-adv-x="1180" 
d="M555 -512v41l246 72v489q-59 -57 -134 -86t-149 -29q-83 0 -160 37.5t-136 105t-94.5 170t-35.5 224.5q0 103 28 191t76.5 150.5t113.5 107.5t140.5 66.5t155.5 21.5q132 0 254 -58l64 88h61v-1478l184 -72v-41h-614zM588 82q120 0 213 119v651q-50 57 -99.5 75.5
t-105.5 18.5q-94 0 -162.5 -63t-100.5 -159.5t-32 -211.5q0 -194 75.5 -312t211.5 -118z" />
    <glyph glyph-name="r" unicode="r" horiz-adv-x="870" 
d="M676 41v-41h-604v41l184 72v751l-184 72v41l348 72l20 -21v-123q152 144 400 144v-222l-41 -14l-146 80q-45 0 -103 -19.5t-110 -56.5v-704z" />
    <glyph glyph-name="s" unicode="s" horiz-adv-x="954" 
d="M174 338l107 -227q13 -8 32 -14.5t41 -11.5t45 -8t45 -3q51 0 92.5 10.5t71.5 30t46 48t16 64.5q0 47 -38.5 89.5t-108.5 82.5l-107 60q-57 30 -106.5 62t-86.5 70t-58.5 84t-21.5 103q0 69 27 120t77 84.5t120.5 50t156.5 16.5q132 0 264 -43l-4 -289h-41l-106 235
q-38 5 -65.5 8t-45.5 3q-54 0 -93.5 -12.5t-65 -33t-38 -46.5t-12.5 -54q0 -33 12.5 -59.5t37 -50.5t61.5 -47.5t86 -49.5q70 -38 115.5 -62t65.5 -38q157 -105 157 -242q0 -74 -35.5 -129.5t-93 -93t-129.5 -56t-145 -18.5q-38 0 -82 5t-88 14t-84.5 21.5t-71.5 27.5v299
h51z" />
    <glyph glyph-name="t" unicode="t" horiz-adv-x="834" 
d="M399 885v-557q0 -68 10.5 -114t31 -68.5t43.5 -31t55 -8.5q60 0 100.5 10.5t87.5 39.5l31 -64q-141 -117 -309 -117q-98 0 -166 77.5t-68 217.5v615l-186 51v41l194 41l74 276h102v-276h293l35 -12v-60z" />
    <glyph glyph-name="u" unicode="u" horiz-adv-x="1288" 
d="M31 936v41l348 72l20 -21v-666q0 -143 50 -199.5t167 -56.5q138 0 242 87v671l-184 72v41l348 72l20 -21v-889l185 -51v-37l-348 -76l-21 21v119q-69 -66 -160 -103t-182 -37q-60 0 -113 19t-95.5 57.5t-67.5 102.5t-25 147v563z" />
    <glyph glyph-name="v" unicode="v" 
d="M1116 1024v-41l-143 -72v7l-357 -920l-110 -23l-395 936l-142 72v41h490v-41l-156 -61l289 -691l248 693l-148 59v41h424z" />
    <glyph glyph-name="w" unicode="w" horiz-adv-x="1556" 
d="M1087 -25l-296 775l-252 -752l-111 -23l-328 943l-131 65v41h490v-41l-166 -65l219 -674l262 780h109l280 -760l180 654l-167 65v41h411v-41l-135 -68l-254 -917z" />
    <glyph glyph-name="x" unicode="x" horiz-adv-x="1053" 
d="M616 983v41h420v-41l-151 -59l-260 -361l317 -452l180 -70v-41h-526v41l143 45l-239 342l-242 -340l152 -47v-41h-443v41l180 70l291 403h2l-282 404l-176 65v41h510v-41l-127 -47l198 -285l203 283z" />
    <glyph glyph-name="y" unicode="y" horiz-adv-x="1128" 
d="M-41 983v41h530v-41l-155 -61l295 -670l241 674l-147 57v41h436v-41l-184 -72l-328 -911l-225 -537l-170 31l-19 41l318 500l-408 883v-7z" />
    <glyph glyph-name="z" unicode="z" horiz-adv-x="932" 
d="M891 1024v-102l-598 -820h430l117 246h41v-348h-789v102l598 820h-430l-117 -246h-41v348h789z" />
    <glyph glyph-name="braceleft" unicode="{" horiz-adv-x="840" 
d="M154 575v78q94 0 145 110t51 281v240q0 175 90.5 252.5t296.5 77.5h31v-78q-80 -4 -126 -16t-73.5 -41.5t-36 -71.5t-8.5 -115v-196q0 -88 -10 -165.5t-30 -143.5t-55 -111.5t-81 -61.5q176 -60 176 -440v-227q0 -73 8.5 -115t36 -71.5t73.5 -41.5t126 -16v-78h-31
q-206 0 -296.5 78t-90.5 252v270q0 166 -49.5 258t-146.5 92z" />
    <glyph glyph-name="bar" unicode="|" horiz-adv-x="500" 
d="M315 -504l-131 -2v2073h131v-2071z" />
    <glyph glyph-name="braceright" unicode="}" horiz-adv-x="840" 
d="M686 653v-78q-97 0 -146.5 -92t-49.5 -258v-270q0 -174 -90.5 -252t-296.5 -78h-31v78q80 4 126 16t73.5 41.5t36 71.5t8.5 115v227q0 380 176 440q-46 16 -81 61.5t-55 111.5t-30 143.5t-10 165.5v196q0 73 -8.5 115t-36 71.5t-73.5 41.5t-126 16v78h31
q206 0 296.5 -77.5t90.5 -252.5v-240q0 -171 51 -281t145 -110z" />
    <glyph glyph-name="asciitilde" unicode="~" horiz-adv-x="1663" 
d="M1114 592q65 0 170.5 45t190.5 111l34 -37q-9 -12 -25.5 -31t-67 -68t-101 -86.5t-122 -68.5t-136.5 -31q-66 0 -141.5 33.5t-132 73t-124 73t-118.5 33.5q-74 0 -154.5 -35t-200.5 -108l-32 39q10 11 27 29t69 64.5t102.5 82.5t118 65t123.5 29q55 0 110.5 -22
t101.5 -53.5t93 -62.5t103 -53t112 -22z" />
    <glyph glyph-name="uni00A0" unicode="&#xa0;" horiz-adv-x="696" 
 />
    <glyph glyph-name="exclamdown" unicode="&#xa1;" horiz-adv-x="559" 
d="M278 1161q-52 0 -88.5 36.5t-36.5 88.5q0 53 36.5 90t88.5 37q54 0 90.5 -37t36.5 -90t-36.5 -89t-90.5 -36zM215 1048h115l34 -1198h-184z" />
    <glyph glyph-name="cent" unicode="&#xa2;" horiz-adv-x="1057" 
d="M553 -51v149q-185 15 -312.5 163t-127.5 374q0 238 123.5 377.5t316.5 156.5v131h92v-129q130 -6 252 -63v-309h-41l-111 268q-48 11 -100 14v-866q14 -2 45 -2q59 0 106.5 15t116.5 55l31 -64q-138 -109 -299 -119v-151h-92zM319 635q0 -158 61.5 -261t172.5 -141v840
q-234 -53 -234 -438z" />
    <glyph glyph-name="sterling" unicode="&#xa3;" horiz-adv-x="1137" 
d="M1124 231l64 -14q-31 -76 -66 -127t-72.5 -76.5t-73 -35t-79.5 -9.5q-58 0 -144 39t-174.5 78t-152.5 39q-45 0 -109 -29.5t-121.5 -64t-72.5 -39.5l-41 69q219 108 219 361q0 118 -25 258l-126 4v102l108 5q-33 187 -33 313q0 98 34.5 171.5t96 118t139.5 66t171 21.5
q185 0 335 -41v-316h-40l-138 234q-78 12 -131 12q-55 0 -101.5 -9.5t-88.5 -31.5t-66 -64t-24 -100q0 -32 2 -65t6.5 -77t7.5 -68t11 -82t10 -74l350 16l39 -14l-21 -133l-352 8q12 -128 12 -189q0 -130 -39 -221v-4q49 19 94 19q63 0 152.5 -39t170 -78t122.5 -39
q37 0 66.5 22.5t80.5 83.5z" />
    <glyph glyph-name="currency" unicode="&#xa4;" horiz-adv-x="1137" 
d="M184 455l-71 75l166 166q-62 88 -62 215q0 120 62 211l-166 164l75 76l162 -162q94 70 217 70q130 0 219 -70l162 162l76 -76l-166 -162q64 -89 64 -213q0 -125 -62 -217l164 -164l-72 -75l-168 161q-90 -65 -213 -65q-129 0 -219 67zM567 1143q-99 0 -161 -65t-62 -167
q0 -104 62.5 -169.5t164.5 -65.5q101 0 163.5 65.5t62.5 169.5q0 103 -63 167.5t-167 64.5z" />
    <glyph glyph-name="yen" unicode="&#xa5;" horiz-adv-x="1227" 
d="M449 1475v-41l-132 -52l347 -684h2l356 682l-135 54v41h432v-41l-154 -72l-364 -664h221v-123h-289l-4 -10v-71h293v-123h-293v-258l184 -72v-41h-542v41l174 72v258h-283v123h283v69l-6 12h-277v123h209l-358 664l-164 72v41h500z" />
    <glyph glyph-name="brokenbar" unicode="&#xa6;" horiz-adv-x="500" 
d="M315 676h-131v747h131v-747zM184 406h131v-756l-131 -2v758z" />
    <glyph glyph-name="section" unicode="&#xa7;" horiz-adv-x="1126" 
d="M383 -152q125 -30 215 -32q101 -3 155 41.5t54 130.5q0 74 -51.5 121.5t-243.5 156.5q-45 26 -69 41t-64.5 43t-64 53.5t-48 60.5t-36 76.5t-11.5 88.5q0 221 219 348q-88 56 -136 120.5t-48 153.5q0 129 102 208t279 79q132 0 289 -41v-280h-50l-49 192q-110 43 -209 43
q-90 0 -146 -42.5t-56 -123.5q0 -56 51.5 -105.5t208.5 -144.5q203 -121 277.5 -201.5t74.5 -195.5q0 -103 -50 -184t-157 -183q75 -55 109.5 -111.5t34.5 -133.5q0 -66 -24 -123t-70.5 -102t-121 -71t-169.5 -26q-138 0 -332 59v332h47zM580 897l-48 25
q-163 -100 -163 -248q0 -79 54.5 -135t190.5 -136l111 -67q125 143 125 264q0 87 -69.5 156.5t-200.5 140.5z" />
    <glyph glyph-name="dieresis" unicode="&#xa8;" horiz-adv-x="819" 
d="M109 1341q0 24 9 44.5t24.5 35.5t37 24t45.5 9t45 -9t36 -24t23.5 -35.5t8.5 -44.5t-8.5 -45.5t-23.5 -37t-36 -24.5t-45 -9t-45.5 9t-37 24.5t-24.5 37t-9 45.5zM451 1341q0 23 9 43.5t24 36t36 24.5t45 9t45 -9t36.5 -24.5t24.5 -36t9 -43.5q0 -24 -9 -45.5t-24.5 -37
t-36.5 -24.5t-45 -9t-45 9t-36.5 24.5t-24 37t-8.5 45.5z" />
    <glyph glyph-name="copyright" unicode="&#xa9;" horiz-adv-x="1692" 
d="M1456 731q0 85 -19 165t-55.5 150t-89 128t-119.5 100t-146.5 65t-170.5 23q-130 0 -242.5 -48.5t-196 -134t-131.5 -202.5t-48 -254q0 -129 44.5 -244.5t124.5 -203.5t192.5 -139.5t248.5 -51.5q130 0 241.5 50.5t193 138t127.5 205.5t46 253zM1579 731
q0 -149 -57.5 -288t-154.5 -241.5t-234.5 -164.5t-288.5 -62q-201 0 -369.5 100t-265 272t-96.5 376q0 153 58 291.5t157 238.5t237 158.5t291 58.5q154 0 289.5 -58t230 -157t149 -235t54.5 -289zM1100 338q-100 -35 -199 -35q-86 0 -161 25t-135 73.5t-95 129.5t-35 184
q0 205 121.5 319.5t304.5 114.5q97 0 191 -31v-209h-43l-72 138q-58 8 -109.5 6.5t-95 -24t-75 -60t-49 -101t-17.5 -147.5q0 -177 71.5 -250.5t206.5 -73.5q45 0 88 13l58 151h43z" />
    <glyph glyph-name="ordfeminine" unicode="&#xaa;" horiz-adv-x="1018" 
d="M987 606v-35l-203 -63q-61 -12 -110 16t-49 92v2q-121 -116 -265 -116q-134 0 -201 69t-67 174q0 77 33.5 137.5t85.5 97t125 61.5t142.5 35.5t146.5 13.5v88q0 130 -31.5 170.5t-126.5 40.5q-74 0 -168 -23l-82 -195h-61v265q81 31 174 47t166 16q153 0 236 -61.5
t83 -202.5v-582zM428 625q52 0 104.5 22t92.5 62v292q-177 -10 -263 -73t-86 -164q0 -139 152 -139z" />
    <glyph glyph-name="guillemotleft" unicode="&#xab;" horiz-adv-x="969" 
d="M332 594l299 -451l-33 -26l-485 454v45l485 455l33 -27zM686 594l211 -385l-33 -27l-372 391v41l372 392l33 -27z" />
    <glyph glyph-name="logicalnot" unicode="&#xac;" horiz-adv-x="1321" 
d="M1167 313h-114v244h-951v137h1065v-381z" />
    <glyph glyph-name="uni00AD" unicode="&#xad;" horiz-adv-x="922" 
d="M102 676h717v-123h-717v123z" />
    <glyph glyph-name="registered" unicode="&#xae;" horiz-adv-x="1692" 
d="M1456 731q0 85 -19 165t-55.5 150t-89 128t-119.5 100t-146.5 65t-170.5 23q-130 0 -242.5 -48.5t-196 -134t-131.5 -202.5t-48 -254q0 -129 44.5 -244.5t124.5 -203.5t192.5 -139.5t248.5 -51.5q130 0 241.5 50.5t193 138t127.5 205.5t46 253zM1579 731
q0 -149 -57.5 -288t-154.5 -241.5t-234.5 -164.5t-288.5 -62q-201 0 -369.5 100t-265 272t-96.5 376q0 153 58 291.5t157 238.5t237 158.5t291 58.5q154 0 289.5 -58t230 -157t149 -235t54.5 -289zM1053 328l-187 334q-57 -7 -133 4v-267l121 -41v-30h-344v30l100 41v658
l-100 41v30h328q142 0 218.5 -60.5t76.5 -160.5q0 -72 -38.5 -129.5t-111.5 -89.5l166 -295l94 -35v-30h-190zM844 1044h-111v-294q104 -16 164 -0.5t83.5 50t23.5 95.5q0 84 -38 116.5t-122 32.5z" />
    <glyph glyph-name="macron" unicode="&#xaf;" horiz-adv-x="1042" 
d="M-6 1432h1055v-123h-1055v123z" />
    <glyph glyph-name="degree" unicode="&#xb0;" horiz-adv-x="766" 
d="M168 1012q-90 90 -90 215q0 62 24.5 117.5t66 97t97 66t117.5 24.5t117.5 -24.5t97 -66t66 -97t24.5 -117.5t-24.5 -117.5t-66 -97t-97 -66t-117.5 -24.5q-125 0 -215 90zM383 1036q40 0 74.5 14.5t60 40t40.5 60.5t15 76q0 39 -15 73.5t-41 60.5t-60.5 41t-73.5 15
q-41 0 -75.5 -15t-60 -40.5t-40 -60.5t-14.5 -74q0 -42 14 -77t39.5 -60.5t60.5 -39.5t76 -14z" />
    <glyph glyph-name="plusminus" unicode="&#xb1;" horiz-adv-x="1270" 
d="M707 842h460v-131h-460v-344h-140v344h-465v131h465v385h140v-385zM102 193h1065v-132h-1065v132z" />
    <glyph glyph-name="twosuperior" unicode="&#xb2;" horiz-adv-x="727" 
d="M655 903l-2 -254h-575v111l272 295q75 78 99 126t24 109q0 86 -71 118t-195 7l-66 -174h-53v236q72 22 145 32t145.5 5t128 -27.5t90 -72t34.5 -122.5q0 -71 -41.5 -139.5t-149.5 -173.5l-198 -195h323l45 119h45z" />
    <glyph glyph-name="threesuperior" unicode="&#xb3;" horiz-adv-x="795" 
d="M295 1120q82 0 135 50t53 120q0 73 -38 104t-111 31q-61 0 -109 -10l-57 -174h-53v236q151 43 250 43q118 0 188 -57.5t70 -164.5q0 -66 -44.5 -127.5t-115.5 -78.5v-7q194 -26 194 -225q0 -108 -90.5 -170.5t-210.5 -62.5q-126 0 -243 47v235h39l59 -157q62 -27 141 -27
q72 0 116 35t44 108q0 87 -46.5 121.5t-170.5 40.5v90z" />
    <glyph glyph-name="acute" unicode="&#xb4;" horiz-adv-x="479" 
d="M121 1206l196 350l148 -40l12 -46l-301 -303z" />
    <glyph glyph-name="mu" unicode="&#xb5;" horiz-adv-x="1292" 
d="M1241 88v-41l-348 -72l-21 21v121q-71 -67 -165 -104.5t-187 -37.5q-113 0 -198 60q38 -245 170 -465l-21 -41l-192 -41l-31 41l-39 772v610l-184 72v41h368v-662q0 -144 51.5 -200t176.5 -56q146 0 251 89v829h185v-864z" />
    <glyph glyph-name="paragraph" unicode="&#xb6;" horiz-adv-x="1149" 
d="M944 1374v-123h-106v-1417h-123v1417h-146v-1417h-123v844q-146 8 -239.5 104t-93.5 244q0 153 100 250.5t252 97.5h479z" />
    <glyph glyph-name="periodcentered" unicode="&#xb7;" horiz-adv-x="487" 
d="M117 506q0 52 36.5 88.5t90.5 36.5q52 0 88.5 -36.5t36.5 -88.5q0 -54 -36.5 -90.5t-88.5 -36.5q-54 0 -90.5 36.5t-36.5 90.5z" />
    <glyph glyph-name="cedilla" unicode="&#xb8;" horiz-adv-x="702" 
d="M291 0h71l-20 -82q105 -4 165 -57t60 -131q0 -60 -22.5 -104.5t-62 -69.5t-86.5 -36.5t-103 -11.5q-76 0 -150 19v76q61 -9 90 -9q173 0 173 134q0 122 -146 145z" />
    <glyph glyph-name="onesuperior" unicode="&#xb9;" horiz-adv-x="711" 
d="M639 649h-545v78l207 41v567l-201 -57l-28 84l293 137h92v-731l182 -41v-78z" />
    <glyph glyph-name="ordmasculine" unicode="&#xba;" horiz-adv-x="1053" 
d="M92 999q0 112 29.5 204t85.5 158t136.5 102t182.5 36t182.5 -36t137 -102t86 -158t29.5 -204q0 -111 -29.5 -203t-86 -157t-137 -101t-182.5 -36t-183 36t-136.5 101t-85 157t-29.5 203zM272 999q0 -91 16.5 -166t49 -128.5t79.5 -83t109 -29.5q61 0 109.5 29.5t82 83
t51 128.5t17.5 166q0 92 -17.5 167.5t-51 129.5t-82 83.5t-109.5 29.5t-108 -29t-79.5 -83t-49.5 -129.5t-17 -168.5z" />
    <glyph glyph-name="guillemotright" unicode="&#xbb;" horiz-adv-x="969" 
d="M338 143l299 451l-299 450l33 27l485 -455v-45l-485 -454zM72 209l211 385l-211 385l32 27l373 -392v-41l-373 -391z" />
    <glyph glyph-name="onequarter" unicode="&#xbc;" horiz-adv-x="1917" 
d="M700 649h-545v78l207 41v567l-201 -57l-28 84l293 137h92v-731l182 -41v-78zM698 -47h-133l699 1522h133zM1667 888v-586l117 -20v-94h-117v-187h-156v187h-426v116l463 584h119zM1511 302v379l-303 -379h303z" />
    <glyph glyph-name="onehalf" unicode="&#xbd;" horiz-adv-x="1966" 
d="M1833 255l-2 -254h-575v111l272 295q75 78 99 126t24 109q0 86 -71 118t-195 7l-66 -174h-53v236q72 22 145 32t145.5 5t128 -27.5t90 -72t34.5 -122.5q0 -71 -41.5 -139.5t-149.5 -173.5l-198 -195h323l45 119h45zM700 649h-545v78l207 41v567l-201 -57l-28 84l293 137
h92v-731l182 -41v-78zM698 -47h-133l699 1522h133z" />
    <glyph glyph-name="threequarters" unicode="&#xbe;" horiz-adv-x="1835" 
d="M1585 888v-586l117 -20v-94h-117v-187h-156v187h-426v116l463 584h119zM1429 302v379l-303 -379h303zM616 -47h-133l699 1522h133zM315 1120q82 0 135 50t53 120q0 73 -38 104t-111 31q-61 0 -109 -10l-57 -174h-53v236q151 43 250 43q118 0 188 -57.5t70 -164.5
q0 -66 -44.5 -127.5t-115.5 -78.5v-7q194 -26 194 -225q0 -108 -90.5 -170.5t-210.5 -62.5q-126 0 -243 47v235h39l59 -157q62 -27 141 -27q72 0 116 35t44 108q0 87 -46.5 121.5t-170.5 40.5v90z" />
    <glyph glyph-name="questiondown" unicode="&#xbf;" horiz-adv-x="1014" 
d="M61 116q3 244 201 411l226 200v189h102v-244l-197 -211q-59 -71 -87.5 -150t-28.5 -164q0 -147 94 -217.5t217 -59.5q75 0 145 20l107 297h61v-370q-167 -61 -351 -61q-229 0 -357.5 95t-131.5 265zM539 1299q52 0 88.5 -36.5t36.5 -88.5q0 -53 -36.5 -90t-88.5 -37
q-54 0 -90.5 37t-36.5 90t36.5 89t90.5 36z" />
    <glyph glyph-name="Agrave" unicode="&#xc0;" horiz-adv-x="1452" 
d="M979 485h-528l-146 -391l168 -53v-41h-477v41l174 72l522 1362h92l535 -1362l164 -72v-41h-512v41l162 53zM707 1169l-215 -577h446l-223 577h-8zM847 1645l-35 -60l-402 150l-6 41l117 102z" />
    <glyph glyph-name="Aacute" unicode="&#xc1;" horiz-adv-x="1452" 
d="M979 485h-528l-146 -391l168 -53v-41h-477v41l174 72l522 1362h92l535 -1362l164 -72v-41h-512v41l162 53zM707 1169l-215 -577h446l-223 577h-8zM930 1878l117 -102l-6 -41l-401 -150l-35 60z" />
    <glyph glyph-name="Acircumflex" unicode="&#xc2;" horiz-adv-x="1452" 
d="M979 485h-528l-146 -391l168 -53v-41h-477v41l174 72l522 1362h92l535 -1362l164 -72v-41h-512v41l162 53zM707 1169l-215 -577h446l-223 577h-8zM677 1903h115l274 -261v-28l-67 -41l-260 205h-9l-260 -205l-67 41v28z" />
    <glyph glyph-name="Atilde" unicode="&#xc3;" horiz-adv-x="1452" 
d="M979 485h-528l-146 -391l168 -53v-41h-477v41l174 72l522 1362h92l535 -1362l164 -72v-41h-512v41l162 53zM707 1169l-215 -577h446l-223 577h-8zM925 1739q35 3 77.5 19.5t85.5 58.5l39 -41q-19 -28 -44 -59.5t-56 -57.5t-67 -43.5t-78 -17.5q-35 0 -69 14t-66.5 30.5
t-63.5 30.5t-60 14q-45 0 -83.5 -20.5t-92.5 -62.5l-36 47q21 27 47.5 57.5t57 57t64 43.5t69.5 17q35 0 66 -14t62 -30.5t62.5 -30t52 -13.5t33.5 1z" />
    <glyph glyph-name="Adieresis" unicode="&#xc4;" horiz-adv-x="1452" 
d="M979 485h-528l-146 -391l168 -53v-41h-477v41l174 72l522 1362h92l535 -1362l164 -72v-41h-512v41l162 53zM707 1169l-215 -577h446l-223 577h-8zM441 1751q0 25 8.5 46t24.5 37t37 25t47 9q24 0 45.5 -9t37 -25t25 -37t9.5 -46q0 -26 -9.5 -47.5t-25 -37.5t-37 -25
t-45.5 -9q-26 0 -47 9t-37 25t-24.5 37.5t-8.5 47.5zM814 1751q0 25 9.5 46t25.5 37t37.5 25t46.5 9t46.5 -9t37 -25t24.5 -37t9 -46q0 -26 -9 -47.5t-24.5 -37.5t-37 -25t-46.5 -9t-46.5 9t-37.5 25t-25.5 37.5t-9.5 47.5z" />
    <glyph glyph-name="Aring" unicode="&#xc5;" horiz-adv-x="1452" 
d="M979 485h-528l-146 -391l168 -53v-41h-477v41l174 72l522 1362h92l535 -1362l164 -72v-41h-512v41l162 53zM707 1169l-215 -577h446l-223 577h-8zM535 1741q0 43 17 81t46 67t67.5 46t80.5 17t80.5 -17t67.5 -46t46 -67.5t17 -80.5q0 -43 -17 -81.5t-45.5 -68t-67 -46.5
t-81.5 -17q-42 0 -80.5 17t-67.5 46t-46 67.5t-17 82.5zM744 1628q24 0 44.5 8.5t36 23.5t24 35t8.5 44q0 23 -8.5 43t-24 35t-36 23.5t-44.5 8.5q-23 0 -43 -8.5t-35 -23.5t-23.5 -35t-8.5 -43t8.5 -43t23.5 -35t35 -24t43 -9z" />
    <glyph glyph-name="AE" unicode="&#xc6;" horiz-adv-x="1993" 
d="M1010 0v485h-453l-213 -389l219 -55v-41h-532v41l174 72l743 1362h692l191 26l31 -26v-402h-41l-127 295h-490v-563l416 20l39 -14l-21 -133l-434 16v-588h510l127 295h41v-401l-31 -27l-190 27h-651zM1010 1313l-396 -721h396v721z" />
    <glyph glyph-name="Ccedilla" unicode="&#xc7;" horiz-adv-x="1348" 
d="M1255 37q-174 -61 -356 -62l-14 -57q105 -4 165 -57t60 -131q0 -60 -22.5 -104.5t-62 -69.5t-86.5 -36.5t-103 -11.5q-76 0 -150 19v76q61 -9 90 -9q172 0 172 134q0 122 -145 145l25 104q-87 6 -168 25q-112 28 -210.5 88t-171 146t-114 210.5t-41.5 274.5
q0 188 61 339.5t166.5 248t245.5 147.5t301 51q170 0 344 -55l-2 -381h-41l-125 285q-84 37 -221 37q-80 0 -151 -21t-136.5 -70t-113 -123.5t-75.5 -188.5t-28 -257q0 -152 44.5 -276.5t121.5 -205t178.5 -124t216.5 -43.5q102 0 193 29l110 329h41z" />
    <glyph glyph-name="Egrave" unicode="&#xc8;" horiz-adv-x="1280" 
d="M113 0v41l184 72v1249l-184 72v41h813l190 26l31 -26v-402h-41l-127 295h-487v-563l415 20l39 -14l-20 -133l-434 16v-588h507l127 295h41v-401h-1054zM821 1645l-35 -60l-402 150l-6 41l117 102z" />
    <glyph glyph-name="Eacute" unicode="&#xc9;" horiz-adv-x="1280" 
d="M113 0v41l184 72v1249l-184 72v41h813l190 26l31 -26v-402h-41l-127 295h-487v-563l415 20l39 -14l-20 -133l-434 16v-588h507l127 295h41v-401h-1054zM834 1878l117 -102l-6 -41l-401 -150l-35 60z" />
    <glyph glyph-name="Ecircumflex" unicode="&#xca;" horiz-adv-x="1280" 
d="M113 0v41l184 72v1249l-184 72v41h813l190 26l31 -26v-402h-41l-127 295h-487v-563l415 20l39 -14l-20 -133l-434 16v-588h507l127 295h41v-401h-1054zM632 1903h115l274 -261v-28l-67 -41l-260 205h-9l-260 -205l-67 41v28z" />
    <glyph glyph-name="Edieresis" unicode="&#xcb;" horiz-adv-x="1280" 
d="M113 0v41l184 72v1249l-184 72v41h813l190 26l31 -26v-402h-41l-127 295h-487v-563l415 20l39 -14l-20 -133l-434 16v-588h507l127 295h41v-401h-1054zM405 1751q0 25 8.5 46t24.5 37t37 25t47 9q24 0 45.5 -9t37 -25t25 -37t9.5 -46q0 -26 -9.5 -47.5t-25 -37.5t-37 -25
t-45.5 -9q-26 0 -47 9t-37 25t-24.5 37.5t-8.5 47.5zM778 1751q0 25 9.5 46t25.5 37t37.5 25t46.5 9t46.5 -9t37 -25t24.5 -37t9 -46q0 -26 -9 -47.5t-24.5 -37.5t-37 -25t-46.5 -9t-46.5 9t-37.5 25t-25.5 37.5t-9.5 47.5z" />
    <glyph glyph-name="Igrave" unicode="&#xcc;" horiz-adv-x="788" 
d="M492 1362v-1249l184 -72v-41h-553v41l174 72v1249l-184 72v41h553v-41zM615 1645l-35 -60l-402 150l-6 41l117 102z" />
    <glyph glyph-name="Iacute" unicode="&#xcd;" horiz-adv-x="788" 
d="M492 1362v-1249l184 -72v-41h-553v41l174 72v1249l-184 72v41h553v-41zM497 1878l117 -102l-6 -41l-401 -150l-35 60z" />
    <glyph glyph-name="Icircumflex" unicode="&#xce;" horiz-adv-x="889" 
d="M541 1362v-1249l184 -72v-41h-553v41l174 72v1249l-184 72v41h553v-41zM387 1903h115l274 -261v-28l-67 -41l-260 205h-9l-260 -205l-67 41v28z" />
    <glyph glyph-name="Idieresis" unicode="&#xcf;" horiz-adv-x="834" 
d="M515 1362v-1249l184 -72v-41h-553v41l174 72v1249l-184 72v41h553v-41zM112 1751q0 25 8.5 46t24.5 37t37 25t47 9q24 0 45.5 -9t37 -25t25 -37t9.5 -46q0 -26 -9.5 -47.5t-25 -37.5t-37 -25t-45.5 -9q-26 0 -47 9t-37 25t-24.5 37.5t-8.5 47.5zM485 1751q0 25 9.5 46
t25.5 37t37.5 25t46.5 9t46.5 -9t37 -25t24.5 -37t9 -46q0 -26 -9 -47.5t-24.5 -37.5t-37 -25t-46.5 -9t-46.5 9t-37.5 25t-25.5 37.5t-9.5 47.5z" />
    <glyph glyph-name="Eth" unicode="&#xd0;" horiz-adv-x="1597" 
d="M150 1475h620q157 0 287 -47.5t225.5 -138.5t149 -232.5t53.5 -321.5q0 -216 -91 -383.5t-254 -259.5t-372 -92h-618v41l184 72v565h-221v123h221v561l-184 72v41zM756 1368h-228v-567h363v-123h-363v-572h234q101 0 192.5 39t163 113t114 192t42.5 265q0 315 -135 484
t-383 169z" />
    <glyph glyph-name="Ntilde" unicode="&#xd1;" horiz-adv-x="1587" 
d="M1341 1352v-1352h-94l-727 1073l-125 225h-12l6 -247v-928l164 -82v-41h-471v41l174 82v1239l-184 72v41h440l20 -99l515 -751l159 -263h13l-11 240v750l-164 82v41h472v-41zM969 1739q35 3 77.5 19.5t85.5 58.5l39 -41q-19 -28 -44 -59.5t-56 -57.5t-67 -43.5t-78 -17.5
q-35 0 -69 14t-66.5 30.5t-63.5 30.5t-60 14q-45 0 -83.5 -20.5t-92.5 -62.5l-36 47q21 27 47.5 57.5t57 57t64 43.5t69.5 17q35 0 66 -14t62 -30.5t62.5 -30t52 -13.5t33.5 1z" />
    <glyph glyph-name="Ograve" unicode="&#xd2;" horiz-adv-x="1606" 
d="M793 -41q-193 0 -344.5 93.5t-238.5 270.5t-87 410q0 174 54.5 322.5t149 249.5t221.5 158t271 57q143 0 265.5 -56.5t210.5 -157.5t138 -248.5t50 -322.5q0 -174 -54.5 -321t-147.5 -246t-219.5 -154t-268.5 -55zM805 1407q-140 0 -246.5 -86.5t-163.5 -239t-57 -348.5
q0 -298 128 -481.5t339 -183.5q208 0 335.5 185t127.5 482q0 298 -128 485t-335 187zM994 1645l-35 -60l-402 150l-6 41l117 102z" />
    <glyph glyph-name="Oacute" unicode="&#xd3;" horiz-adv-x="1606" 
d="M793 -41q-193 0 -344.5 93.5t-238.5 270.5t-87 410q0 174 54.5 322.5t149 249.5t221.5 158t271 57q143 0 265.5 -56.5t210.5 -157.5t138 -248.5t50 -322.5q0 -174 -54.5 -321t-147.5 -246t-219.5 -154t-268.5 -55zM805 1407q-140 0 -246.5 -86.5t-163.5 -239t-57 -348.5
q0 -298 128 -481.5t339 -183.5q208 0 335.5 185t127.5 482q0 298 -128 485t-335 187zM907 1878l117 -102l-6 -41l-401 -150l-35 60z" />
    <glyph glyph-name="Ocircumflex" unicode="&#xd4;" horiz-adv-x="1606" 
d="M793 -41q-193 0 -344.5 93.5t-238.5 270.5t-87 410q0 174 54.5 322.5t149 249.5t221.5 158t271 57q143 0 265.5 -56.5t210.5 -157.5t138 -248.5t50 -322.5q0 -174 -54.5 -321t-147.5 -246t-219.5 -154t-268.5 -55zM805 1407q-140 0 -246.5 -86.5t-163.5 -239t-57 -348.5
q0 -298 128 -481.5t339 -183.5q208 0 335.5 185t127.5 482q0 298 -128 485t-335 187zM745 1903h115l274 -261v-28l-67 -41l-260 205h-9l-260 -205l-67 41v28z" />
    <glyph glyph-name="Otilde" unicode="&#xd5;" horiz-adv-x="1606" 
d="M793 -41q-193 0 -344.5 93.5t-238.5 270.5t-87 410q0 174 54.5 322.5t149 249.5t221.5 158t271 57q143 0 265.5 -56.5t210.5 -157.5t138 -248.5t50 -322.5q0 -174 -54.5 -321t-147.5 -246t-219.5 -154t-268.5 -55zM805 1407q-140 0 -246.5 -86.5t-163.5 -239t-57 -348.5
q0 -298 128 -481.5t339 -183.5q208 0 335.5 185t127.5 482q0 298 -128 485t-335 187zM959 1739q35 3 77.5 19.5t85.5 58.5l39 -41q-19 -28 -44 -59.5t-56 -57.5t-67 -43.5t-78 -17.5q-35 0 -69 14t-66.5 30.5t-63.5 30.5t-60 14q-45 0 -83.5 -20.5t-92.5 -62.5l-36 47
q21 27 47.5 57.5t57 57t64 43.5t69.5 17q35 0 66 -14t62 -30.5t62.5 -30t52 -13.5t33.5 1z" />
    <glyph glyph-name="Odieresis" unicode="&#xd6;" horiz-adv-x="1606" 
d="M793 -41q-193 0 -344.5 93.5t-238.5 270.5t-87 410q0 174 54.5 322.5t149 249.5t221.5 158t271 57q143 0 265.5 -56.5t210.5 -157.5t138 -248.5t50 -322.5q0 -174 -54.5 -321t-147.5 -246t-219.5 -154t-268.5 -55zM805 1407q-140 0 -246.5 -86.5t-163.5 -239t-57 -348.5
q0 -298 128 -481.5t339 -183.5q208 0 335.5 185t127.5 482q0 298 -128 485t-335 187zM498 1751q0 25 8.5 46t24.5 37t37 25t47 9q24 0 45.5 -9t37 -25t25 -37t9.5 -46q0 -26 -9.5 -47.5t-25 -37.5t-37 -25t-45.5 -9q-26 0 -47 9t-37 25t-24.5 37.5t-8.5 47.5zM871 1751
q0 25 9.5 46t25.5 37t37.5 25t46.5 9t46.5 -9t37 -25t24.5 -37t9 -46q0 -26 -9 -47.5t-24.5 -37.5t-37 -25t-46.5 -9t-46.5 9t-37.5 25t-25.5 37.5t-9.5 47.5z" />
    <glyph glyph-name="multiply" unicode="&#xd7;" horiz-adv-x="1270" 
d="M639 770l326 326l92 -92l-326 -326l332 -330l-98 -98l-332 330l-328 -328l-92 92l328 328l-330 332l98 98z" />
    <glyph glyph-name="Oslash" unicode="&#xd8;" horiz-adv-x="1626" 
d="M358 -109h-153l149 248q-110 101 -170.5 251.5t-60.5 342.5q0 174 56 320t152.5 244t225 152t272.5 54q186 0 332 -88l74 121h154l-121 -199q111 -100 173 -254.5t62 -347.5q0 -174 -56 -318.5t-151.5 -240.5t-222.5 -148.5t-270 -52.5q-194 0 -342 86zM1278 735
q0 284 -117 461l-610 -1018q111 -94 264 -94q210 0 336.5 177.5t126.5 473.5zM815 1391q-213 0 -340 -181t-127 -477q0 -277 111 -450l612 1015q-112 93 -256 93z" />
    <glyph glyph-name="Ugrave" unicode="&#xd9;" horiz-adv-x="1585" 
d="M827 68q101 0 176 23t133 76t87.5 147t29.5 229v809l-184 82v41h485v-41l-168 -82v-795q0 -305 -138 -451.5t-417 -146.5q-98 0 -176.5 15.5t-150.5 56t-120 105t-76.5 167.5t-28.5 240v819l-185 72v41h553v-41l-174 -72v-793q0 -501 354 -501zM998 1645l-35 -60
l-402 150l-6 41l117 102z" />
    <glyph glyph-name="Uacute" unicode="&#xda;" horiz-adv-x="1585" 
d="M827 68q101 0 176 23t133 76t87.5 147t29.5 229v809l-184 82v41h485v-41l-168 -82v-795q0 -305 -138 -451.5t-417 -146.5q-98 0 -176.5 15.5t-150.5 56t-120 105t-76.5 167.5t-28.5 240v819l-185 72v41h553v-41l-174 -72v-793q0 -501 354 -501zM1050 1878l117 -102
l-6 -41l-401 -150l-35 60z" />
    <glyph glyph-name="Ucircumflex" unicode="&#xdb;" horiz-adv-x="1585" 
d="M827 68q101 0 176 23t133 76t87.5 147t29.5 229v809l-184 82v41h485v-41l-168 -82v-795q0 -305 -138 -451.5t-417 -146.5q-98 0 -176.5 15.5t-150.5 56t-120 105t-76.5 167.5t-28.5 240v819l-185 72v41h553v-41l-174 -72v-793q0 -501 354 -501zM823 1903h115l274 -261
v-28l-67 -41l-260 205h-9l-260 -205l-67 41v28z" />
    <glyph glyph-name="Udieresis" unicode="&#xdc;" horiz-adv-x="1585" 
d="M827 68q101 0 176 23t133 76t87.5 147t29.5 229v809l-184 82v41h485v-41l-168 -82v-795q0 -305 -138 -451.5t-417 -146.5q-98 0 -176.5 15.5t-150.5 56t-120 105t-76.5 167.5t-28.5 240v819l-185 72v41h553v-41l-174 -72v-793q0 -501 354 -501zM587 1751q0 25 8.5 46
t24.5 37t37 25t47 9q24 0 45.5 -9t37 -25t25 -37t9.5 -46q0 -26 -9.5 -47.5t-25 -37.5t-37 -25t-45.5 -9q-26 0 -47 9t-37 25t-24.5 37.5t-8.5 47.5zM960 1751q0 25 9.5 46t25.5 37t37.5 25t46.5 9t46.5 -9t37 -25t24.5 -37t9 -46q0 -26 -9 -47.5t-24.5 -37.5t-37 -25
t-46.5 -9t-46.5 9t-37.5 25t-25.5 37.5t-9.5 47.5z" />
    <glyph glyph-name="Yacute" unicode="&#xdd;" horiz-adv-x="1268" 
d="M446 1475v-41l-131 -52l344 -680h9l366 678l-135 54v41h420v-41l-154 -72l-436 -797v-452l184 -72v-41h-542v41l174 72v450l-432 799l-164 72v41h497zM827 1878l117 -102l-6 -41l-401 -150l-35 60z" />
    <glyph glyph-name="Thorn" unicode="&#xde;" horiz-adv-x="1325" 
d="M481 1362v-113h172q260 0 401.5 -111.5t141.5 -297.5q0 -86 -26 -161.5t-80.5 -140t-139 -105.5t-201.5 -58.5t-268 0.5v-262l185 -72v-41h-543v41l174 72v1249l-184 72v41h542v-41zM682 1145h-201v-664q88 -13 158 -9t123.5 15.5t93 37.5t66 55.5t42.5 70.5t22.5 82
t6.5 90q0 160 -80.5 241t-230.5 81z" />
    <glyph glyph-name="germandbls" unicode="&#xdf;" horiz-adv-x="1188" 
d="M41 885v78l199 55v139q0 95 36.5 174t96 128t132 75.5t148.5 26.5q176 0 267.5 -83.5t91.5 -263.5q-174 -82 -236.5 -157.5t-62.5 -188.5q0 -44 22 -86t58 -77.5t79 -72t85.5 -77.5t78.5 -85t58 -102t22 -122q0 -70 -27.5 -126t-73 -90.5t-101 -52.5t-115.5 -18
q-147 0 -293 49v197h80l57 -137q47 -19 111 -19q102 0 147 41.5t45 149.5q0 46 -29 92t-72 82t-93.5 81t-93.5 89.5t-72 108t-29 134.5q0 131 80 245.5t227 180.5q0 64 -16.5 108.5t-46.5 66.5t-64 31t-78 9q-110 0 -175.5 -79t-65.5 -213v-1176h-363v43l185 72v770h-199z
" />
    <glyph glyph-name="agrave" unicode="&#xe0;" 
d="M1055 88v-37l-217 -67q-64 -14 -108 14.5t-44 97.5q-130 -121 -305 -121q-145 0 -217 75t-72 188q0 85 38 150.5t97 104.5t141 65t158 36t160 12v96q0 140 -44 195t-146 55q-77 0 -181 -24l-106 -232h-49v285q90 32 190 50t176 18q165 0 254.5 -66.5t89.5 -218.5v-625z
M465 92q57 0 117 27.5t104 75.5v329q-200 -9 -305 -81.5t-105 -184.5q0 -86 55 -126t134 -40zM393 1556l196 -350l-55 -39l-301 303l12 41z" />
    <glyph glyph-name="aacute" unicode="&#xe1;" 
d="M1055 88v-37l-217 -67q-64 -14 -108 14.5t-44 97.5q-130 -121 -305 -121q-145 0 -217 75t-72 188q0 85 38 150.5t97 104.5t141 65t158 36t160 12v96q0 140 -44 195t-146 55q-77 0 -181 -24l-106 -232h-49v285q90 32 190 50t176 18q165 0 254.5 -66.5t89.5 -218.5v-625z
M465 92q57 0 117 27.5t104 75.5v329q-200 -9 -305 -81.5t-105 -184.5q0 -86 55 -126t134 -40zM439 1206l196 350l148 -40l12 -46l-301 -303z" />
    <glyph glyph-name="acircumflex" unicode="&#xe2;" 
d="M1055 88v-37l-217 -67q-64 -14 -108 14.5t-44 97.5q-130 -121 -305 -121q-145 0 -217 75t-72 188q0 85 38 150.5t97 104.5t141 65t158 36t160 12v96q0 140 -44 195t-146 55q-77 0 -181 -24l-106 -232h-49v285q90 32 190 50t176 18q165 0 254.5 -66.5t89.5 -218.5v-625z
M465 92q57 0 117 27.5t104 75.5v329q-200 -9 -305 -81.5t-105 -184.5q0 -86 55 -126t134 -40zM582 1554l248 -346l-12 -22l-82 -21l-197 226h-8l-199 -226l-76 21l-12 24l244 344h94z" />
    <glyph glyph-name="atilde" unicode="&#xe3;" 
d="M1055 88v-37l-217 -67q-64 -14 -108 14.5t-44 97.5q-130 -121 -305 -121q-145 0 -217 75t-72 188q0 85 38 150.5t97 104.5t141 65t158 36t160 12v96q0 140 -44 195t-146 55q-77 0 -181 -24l-106 -232h-49v285q90 32 190 50t176 18q165 0 254.5 -66.5t89.5 -218.5v-625z
M465 92q57 0 117 27.5t104 75.5v329q-200 -9 -305 -81.5t-105 -184.5q0 -86 55 -126t134 -40zM695 1358q86 15 155 92l43 -37q-4 -7 -10.5 -18.5t-29 -42.5t-45.5 -56t-58.5 -48.5t-69.5 -30.5q-55 -10 -155.5 30t-139.5 33q-40 -7 -72.5 -28t-80.5 -68l-43 43q4 7 11.5 19
t31 43t47 55.5t56.5 47t63 27.5q35 7 75.5 -3.5t71 -27t72 -27t78.5 -3.5z" />
    <glyph glyph-name="adieresis" unicode="&#xe4;" 
d="M1055 88v-37l-217 -67q-64 -14 -108 14.5t-44 97.5q-130 -121 -305 -121q-145 0 -217 75t-72 188q0 85 38 150.5t97 104.5t141 65t158 36t160 12v96q0 140 -44 195t-146 55q-77 0 -181 -24l-106 -232h-49v285q90 32 190 50t176 18q165 0 254.5 -66.5t89.5 -218.5v-625z
M465 92q57 0 117 27.5t104 75.5v329q-200 -9 -305 -81.5t-105 -184.5q0 -86 55 -126t134 -40zM230 1341q0 24 9 44.5t24.5 35.5t37 24t45.5 9t45 -9t36 -24t23.5 -35.5t8.5 -44.5t-8.5 -45.5t-23.5 -37t-36 -24.5t-45 -9t-45.5 9t-37 24.5t-24.5 37t-9 45.5zM572 1341
q0 23 9 43.5t24 36t36 24.5t45 9t45 -9t36.5 -24.5t24.5 -36t9 -43.5q0 -24 -9 -45.5t-24.5 -37t-36.5 -24.5t-45 -9t-45 9t-36.5 24.5t-24 37t-8.5 45.5z" />
    <glyph glyph-name="aring" unicode="&#xe5;" 
d="M1055 88v-37l-217 -67q-64 -14 -108 14.5t-44 97.5q-130 -121 -305 -121q-145 0 -217 75t-72 188q0 85 38 150.5t97 104.5t141 65t158 36t160 12v96q0 140 -44 195t-146 55q-77 0 -181 -24l-106 -232h-49v285q90 32 190 50t176 18q165 0 254.5 -66.5t89.5 -218.5v-625z
M465 92q57 0 117 27.5t104 75.5v329q-200 -9 -305 -81.5t-105 -184.5q0 -86 55 -126t134 -40zM319 1391q0 43 17 81t46 67t67.5 46t80.5 17t80.5 -17t67.5 -46t46 -67.5t17 -80.5q0 -43 -17 -81.5t-45.5 -68t-67 -46.5t-81.5 -17q-42 0 -80.5 17t-67.5 46t-46 67.5t-17 82.5
zM528 1278q24 0 44.5 8.5t36 23.5t24 35t8.5 44q0 23 -8.5 43t-24 35t-36 23.5t-44.5 8.5q-23 0 -43 -8.5t-35 -23.5t-23.5 -35t-8.5 -43t8.5 -43t23.5 -35t35 -24t43 -9z" />
    <glyph glyph-name="ae" unicode="&#xe6;" horiz-adv-x="1640" 
d="M1540 506h-647q1 -112 32 -195t84 -130t116.5 -69t138.5 -22q104 0 223 70l31 -60q-84 -74 -168 -99.5t-191 -25.5q-104 0 -198 48t-162 135q-62 -92 -170 -137.5t-248 -45.5q-145 0 -217 75t-72 188q0 85 38 150.5t97 104.5t141 65t158 36t160 12v96q0 140 -44 195
t-146 55q-77 0 -181 -24l-106 -232h-49v285q90 32 190 50t176 18q100 0 179 -45t122 -119q74 78 166 121t168 43q85 0 157.5 -31.5t129 -93t89 -161.5t32.5 -228zM465 86q100 0 160.5 81t60.5 216v104v37q-395 -16 -395 -266q0 -88 49 -130t125 -42zM1165 952
q-115 0 -183.5 -91t-84.5 -249h477q0 160 -54.5 250t-154.5 90z" />
    <glyph glyph-name="ccedilla" unicode="&#xe7;" horiz-adv-x="995" 
d="M924 96q-83 -65 -158 -91t-166 -30l-14 -57q105 -4 165 -57t60 -131q0 -60 -22.5 -104.5t-62 -69.5t-86.5 -36.5t-103 -11.5q-76 0 -150 19v76q61 -9 90 -9q172 0 172 134q0 122 -145 145l24 104q-88 7 -166.5 48.5t-138.5 109t-95.5 166t-35.5 211.5q0 129 39 233
t107.5 170t157.5 101t192 35q147 0 289 -66v-309h-41l-111 268q-60 14 -119 14q-157 0 -232 -116t-75 -330q0 -204 99 -313t272 -109q59 0 106.5 15.5t116.5 54.5z" />
    <glyph glyph-name="egrave" unicode="&#xe8;" horiz-adv-x="1047" 
d="M946 506h-647q1 -112 32 -195t84 -130t116.5 -69t138.5 -22q104 0 223 70l31 -60q-84 -74 -168 -99.5t-191 -25.5q-93 0 -179 39.5t-151 109t-104 170.5t-39 218q0 111 28.5 202.5t75.5 152.5t109.5 103t128 60.5t133.5 18.5q85 0 157.5 -31.5t129 -93t89 -161.5
t32.5 -228zM571 952q-115 0 -183.5 -91t-84.5 -249h477q0 160 -54 250t-155 90zM434 1556l196 -350l-55 -39l-301 303l12 41z" />
    <glyph glyph-name="eacute" unicode="&#xe9;" horiz-adv-x="1047" 
d="M946 506h-647q1 -112 32 -195t84 -130t116.5 -69t138.5 -22q104 0 223 70l31 -60q-84 -74 -168 -99.5t-191 -25.5q-93 0 -179 39.5t-151 109t-104 170.5t-39 218q0 111 28.5 202.5t75.5 152.5t109.5 103t128 60.5t133.5 18.5q85 0 157.5 -31.5t129 -93t89 -161.5
t32.5 -228zM571 952q-115 0 -183.5 -91t-84.5 -249h477q0 160 -54 250t-155 90zM490 1206l196 350l148 -40l12 -46l-301 -303z" />
    <glyph glyph-name="ecircumflex" unicode="&#xea;" horiz-adv-x="1047" 
d="M946 506h-647q1 -112 32 -195t84 -130t116.5 -69t138.5 -22q104 0 223 70l31 -60q-84 -74 -168 -99.5t-191 -25.5q-93 0 -179 39.5t-151 109t-104 170.5t-39 218q0 111 28.5 202.5t75.5 152.5t109.5 103t128 60.5t133.5 18.5q85 0 157.5 -31.5t129 -93t89 -161.5
t32.5 -228zM571 952q-115 0 -183.5 -91t-84.5 -249h477q0 160 -54 250t-155 90zM622 1554l248 -346l-12 -22l-82 -21l-197 226h-8l-199 -226l-76 21l-12 24l244 344h94z" />
    <glyph glyph-name="edieresis" unicode="&#xeb;" horiz-adv-x="1047" 
d="M946 506h-647q1 -112 32 -195t84 -130t116.5 -69t138.5 -22q104 0 223 70l31 -60q-84 -74 -168 -99.5t-191 -25.5q-93 0 -179 39.5t-151 109t-104 170.5t-39 218q0 111 28.5 202.5t75.5 152.5t109.5 103t128 60.5t133.5 18.5q85 0 157.5 -31.5t129 -93t89 -161.5
t32.5 -228zM571 952q-115 0 -183.5 -91t-84.5 -249h477q0 160 -54 250t-155 90zM271 1341q0 24 9 44.5t24.5 35.5t37 24t45.5 9t45 -9t36 -24t23.5 -35.5t8.5 -44.5t-8.5 -45.5t-23.5 -37t-36 -24.5t-45 -9t-45.5 9t-37 24.5t-24.5 37t-9 45.5zM613 1341q0 23 9 43.5t24 36
t36 24.5t45 9t45 -9t36.5 -24.5t24.5 -36t9 -43.5q0 -24 -9 -45.5t-24.5 -37t-36.5 -24.5t-45 -9t-45 9t-36.5 24.5t-24 37t-8.5 45.5z" />
    <glyph glyph-name="igrave" unicode="&#xec;" horiz-adv-x="741" 
d="M680 41v-41h-553v41l184 72v751l-184 72v41l348 72l21 -21v-915zM242 1556l196 -350l-55 -39l-301 303l12 41z" />
    <glyph glyph-name="iacute" unicode="&#xed;" horiz-adv-x="696" 
d="M635 41v-41h-553v41l184 72v751l-184 72v41l348 72l21 -21v-915zM252 1206l196 350l148 -40l12 -46l-301 -303z" />
    <glyph glyph-name="icircumflex" unicode="&#xee;" horiz-adv-x="731" 
d="M670 41v-41h-553v41l184 72v751l-184 72v41l348 72l21 -21v-915zM420 1554l248 -346l-12 -22l-82 -21l-197 226h-8l-199 -226l-76 21l-12 24l244 344h94z" />
    <glyph glyph-name="idieresis" unicode="&#xef;" horiz-adv-x="745" 
d="M684 41v-41h-553v41l184 72v751l-184 72v41l348 72l21 -21v-915zM83 1341q0 24 9 44.5t24.5 35.5t37 24t45.5 9t45 -9t36 -24t23.5 -35.5t8.5 -44.5t-8.5 -45.5t-23.5 -37t-36 -24.5t-45 -9t-45.5 9t-37 24.5t-24.5 37t-9 45.5zM425 1341q0 23 9 43.5t24 36t36 24.5t45 9
t45 -9t36.5 -24.5t24.5 -36t9 -43.5q0 -24 -9 -45.5t-24.5 -37t-36.5 -24.5t-45 -9t-45 9t-36.5 24.5t-24 37t-8.5 45.5z" />
    <glyph glyph-name="eth" unicode="&#xf0;" horiz-adv-x="1192" 
d="M420 1192l-74 55l98 107q-69 45 -163 88l65 49q122 -47 164 -68l94 103l72 -56l-84 -92q231 -135 359 -355.5t128 -516.5q0 -124 -28.5 -223t-86 -174t-152.5 -115.5t-222 -40.5q-130 0 -230 70t-152 187t-52 261q0 142 49.5 251.5t154 176t252.5 66.5q103 0 199 -52
q-90 234 -291 387zM885 469q0 167 -35 313q-94 72 -225 72q-133 0 -203 -84.5t-70 -273.5q0 -226 70 -337.5t176 -111.5q72 0 125 24t83.5 62t48.5 95.5t24 113.5t6 127z" />
    <glyph glyph-name="ntilde" unicode="&#xf1;" horiz-adv-x="1319" 
d="M614 41v-41h-542v41l184 72v751l-184 72v41l348 72l20 -21v-121q71 66 166 104t187 38q134 0 222.5 -82t88.5 -244v-610l184 -72v-41h-543v41l175 72v549q0 144 -51.5 200t-176.5 56q-149 0 -252 -89v-716zM897 1358q86 15 155 92l43 -37q-4 -7 -10.5 -18.5t-29 -42.5
t-45.5 -56t-58.5 -48.5t-69.5 -30.5q-55 -10 -155.5 30t-139.5 33q-40 -7 -72.5 -28t-80.5 -68l-43 43q4 7 11.5 19t31 43t47 55.5t56.5 47t63 27.5q35 7 75.5 -3.5t71 -27t72 -27t78.5 -3.5z" />
    <glyph glyph-name="ograve" unicode="&#xf2;" horiz-adv-x="1163" 
d="M582 1049q114 0 205 -39t154 -109.5t96.5 -169.5t33.5 -219q0 -119 -33 -218t-96 -170t-154 -110t-206 -39q-116 0 -207 39t-154 110t-96 169.5t-33 218.5t33.5 219t96.5 169.5t154 109.5t206 39zM364 837q-77 -125 -77 -325q0 -99 19.5 -181.5t57 -142t92.5 -92.5
t126 -33t127 33t94.5 92.5t59 142t20.5 181.5q0 98 -20.5 180.5t-59 142t-94.5 93t-127 33.5q-142 0 -218 -124zM451 1556l196 -350l-55 -39l-301 303l12 41z" />
    <glyph glyph-name="oacute" unicode="&#xf3;" horiz-adv-x="1163" 
d="M582 1049q114 0 205 -39t154 -109.5t96.5 -169.5t33.5 -219q0 -119 -33 -218t-96 -170t-154 -110t-206 -39q-116 0 -207 39t-154 110t-96 169.5t-33 218.5t33.5 219t96.5 169.5t154 109.5t206 39zM364 837q-77 -125 -77 -325q0 -99 19.5 -181.5t57 -142t92.5 -92.5
t126 -33t127 33t94.5 92.5t59 142t20.5 181.5q0 98 -20.5 180.5t-59 142t-94.5 93t-127 33.5q-142 0 -218 -124zM506 1206l196 350l148 -40l12 -46l-301 -303z" />
    <glyph glyph-name="ocircumflex" unicode="&#xf4;" horiz-adv-x="1163" 
d="M582 1049q114 0 205 -39t154 -109.5t96.5 -169.5t33.5 -219q0 -119 -33 -218t-96 -170t-154 -110t-206 -39q-116 0 -207 39t-154 110t-96 169.5t-33 218.5t33.5 219t96.5 169.5t154 109.5t206 39zM364 837q-77 -125 -77 -325q0 -99 19.5 -181.5t57 -142t92.5 -92.5
t126 -33t127 33t94.5 92.5t59 142t20.5 181.5q0 98 -20.5 180.5t-59 142t-94.5 93t-127 33.5q-142 0 -218 -124zM639 1554l248 -346l-12 -22l-82 -21l-197 226h-8l-199 -226l-76 21l-12 24l244 344h94z" />
    <glyph glyph-name="otilde" unicode="&#xf5;" horiz-adv-x="1163" 
d="M582 1049q114 0 205 -39t154 -109.5t96.5 -169.5t33.5 -219q0 -119 -33 -218t-96 -170t-154 -110t-206 -39q-116 0 -207 39t-154 110t-96 169.5t-33 218.5t33.5 219t96.5 169.5t154 109.5t206 39zM364 837q-77 -125 -77 -325q0 -99 19.5 -181.5t57 -142t92.5 -92.5
t126 -33t127 33t94.5 92.5t59 142t20.5 181.5q0 98 -20.5 180.5t-59 142t-94.5 93t-127 33.5q-142 0 -218 -124zM752 1358q86 15 155 92l43 -37q-4 -7 -10.5 -18.5t-29 -42.5t-45.5 -56t-58.5 -48.5t-69.5 -30.5q-55 -10 -155.5 30t-139.5 33q-40 -7 -72.5 -28t-80.5 -68
l-43 43q4 7 11.5 19t31 43t47 55.5t56.5 47t63 27.5q35 7 75.5 -3.5t71 -27t72 -27t78.5 -3.5z" />
    <glyph glyph-name="odieresis" unicode="&#xf6;" horiz-adv-x="1163" 
d="M582 1049q114 0 205 -39t154 -109.5t96.5 -169.5t33.5 -219q0 -119 -33 -218t-96 -170t-154 -110t-206 -39q-116 0 -207 39t-154 110t-96 169.5t-33 218.5t33.5 219t96.5 169.5t154 109.5t206 39zM364 837q-77 -125 -77 -325q0 -99 19.5 -181.5t57 -142t92.5 -92.5
t126 -33t127 33t94.5 92.5t59 142t20.5 181.5q0 98 -20.5 180.5t-59 142t-94.5 93t-127 33.5q-142 0 -218 -124zM287 1341q0 24 9 44.5t24.5 35.5t37 24t45.5 9t45 -9t36 -24t23.5 -35.5t8.5 -44.5t-8.5 -45.5t-23.5 -37t-36 -24.5t-45 -9t-45.5 9t-37 24.5t-24.5 37
t-9 45.5zM629 1341q0 23 9 43.5t24 36t36 24.5t45 9t45 -9t36.5 -24.5t24.5 -36t9 -43.5q0 -24 -9 -45.5t-24.5 -37t-36.5 -24.5t-45 -9t-45 9t-36.5 24.5t-24 37t-8.5 45.5z" />
    <glyph glyph-name="divide" unicode="&#xf7;" horiz-adv-x="1272" 
d="M102 739h1065v-131h-1065v131zM510 260q0 53 36.5 89t90.5 36q53 0 89 -36.5t36 -88.5q0 -54 -36 -90.5t-89 -36.5q-54 0 -90.5 36.5t-36.5 90.5zM637 1167q53 0 89 -36.5t36 -88.5q0 -53 -36.5 -90t-88.5 -37q-54 0 -90.5 37t-36.5 90t36.5 89t90.5 36z" />
    <glyph glyph-name="oslash" unicode="&#xf8;" horiz-adv-x="1163" 
d="M92 512q0 242 130 389.5t360 147.5q150 0 268 -72l74 131h147l-123 -217q123 -145 123 -379q0 -242 -130 -389.5t-359 -147.5q-100 0 -187 31l-57 -98h-148l91 160q-92 69 -140.5 183t-48.5 261zM287 512q0 -216 84 -336l395 707q-78 78 -184 78q-141 0 -218 -124
t-77 -325zM883 512q0 141 -43 252l-371 -676q52 -25 113 -25q141 0 221 124.5t80 324.5z" />
    <glyph glyph-name="ugrave" unicode="&#xf9;" horiz-adv-x="1288" 
d="M31 936v41l348 72l20 -21v-666q0 -143 50 -199.5t167 -56.5q138 0 242 87v671l-184 72v41l348 72l20 -21v-889l185 -51v-37l-348 -76l-21 21v119q-69 -66 -160 -103t-182 -37q-60 0 -113 19t-95.5 57.5t-67.5 102.5t-25 147v563zM482 1556l196 -350l-55 -39l-301 303
l12 41z" />
    <glyph glyph-name="uacute" unicode="&#xfa;" horiz-adv-x="1288" 
d="M31 936v41l348 72l20 -21v-666q0 -143 50 -199.5t167 -56.5q138 0 242 87v671l-184 72v41l348 72l20 -21v-889l185 -51v-37l-348 -76l-21 21v119q-69 -66 -160 -103t-182 -37q-60 0 -113 19t-95.5 57.5t-67.5 102.5t-25 147v563zM537 1206l196 350l148 -40l12 -46
l-301 -303z" />
    <glyph glyph-name="ucircumflex" unicode="&#xfb;" horiz-adv-x="1288" 
d="M31 936v41l348 72l20 -21v-666q0 -143 50 -199.5t167 -56.5q138 0 242 87v671l-184 72v41l348 72l20 -21v-889l185 -51v-37l-348 -76l-21 21v119q-69 -66 -160 -103t-182 -37q-60 0 -113 19t-95.5 57.5t-67.5 102.5t-25 147v563zM670 1554l248 -346l-12 -22l-82 -21
l-197 226h-8l-199 -226l-76 21l-12 24l244 344h94z" />
    <glyph glyph-name="udieresis" unicode="&#xfc;" horiz-adv-x="1288" 
d="M31 936v41l348 72l20 -21v-666q0 -143 50 -199.5t167 -56.5q138 0 242 87v671l-184 72v41l348 72l20 -21v-889l185 -51v-37l-348 -76l-21 21v119q-69 -66 -160 -103t-182 -37q-60 0 -113 19t-95.5 57.5t-67.5 102.5t-25 147v563zM318 1341q0 24 9 44.5t24.5 35.5t37 24
t45.5 9t45 -9t36 -24t23.5 -35.5t8.5 -44.5t-8.5 -45.5t-23.5 -37t-36 -24.5t-45 -9t-45.5 9t-37 24.5t-24.5 37t-9 45.5zM660 1341q0 23 9 43.5t24 36t36 24.5t45 9t45 -9t36.5 -24.5t24.5 -36t9 -43.5q0 -24 -9 -45.5t-24.5 -37t-36.5 -24.5t-45 -9t-45 9t-36.5 24.5
t-24 37t-8.5 45.5z" />
    <glyph glyph-name="yacute" unicode="&#xfd;" horiz-adv-x="1128" 
d="M-41 983v41h530v-41l-155 -61l295 -670l241 674l-147 57v41h436v-41l-184 -72l-328 -911l-225 -537l-170 31l-19 41l318 500l-408 883v-7zM518 1206l196 350l148 -40l12 -46l-301 -303z" />
    <glyph glyph-name="thorn" unicode="&#xfe;" horiz-adv-x="1180" 
d="M604 -471v-41h-594v41l185 72v1775l-185 72v41l348 72l21 -21v-614q56 69 120 96t150 27q84 0 163 -37.5t140 -107.5t98 -169.5t37 -222.5q0 -139 -41 -240t-109.5 -167t-156.5 -98t-182 -32q-120 0 -219 43v-417zM606 946q-63 0 -124 -29t-103 -81v-635q29 -57 88.5 -90
t130.5 -33q51 0 101.5 23t90.5 74.5t64.5 134t24.5 202.5q0 95 -18.5 175t-53.5 137.5t-85.5 89.5t-115.5 32z" />
    <glyph glyph-name="ydieresis" unicode="&#xff;" horiz-adv-x="1128" 
d="M-41 983v41h530v-41l-155 -61l295 -670l241 674l-147 57v41h436v-41l-184 -72l-328 -911l-225 -537l-170 31l-19 41l318 500l-408 883v-7zM299 1341q0 24 9 44.5t24.5 35.5t37 24t45.5 9t45 -9t36 -24t23.5 -35.5t8.5 -44.5t-8.5 -45.5t-23.5 -37t-36 -24.5t-45 -9
t-45.5 9t-37 24.5t-24.5 37t-9 45.5zM641 1341q0 23 9 43.5t24 36t36 24.5t45 9t45 -9t36.5 -24.5t24.5 -36t9 -43.5q0 -24 -9 -45.5t-24.5 -37t-36.5 -24.5t-45 -9t-45 9t-36.5 24.5t-24 37t-8.5 45.5z" />
    <glyph glyph-name="dotlessi" unicode="&#x131;" horiz-adv-x="696" 
d="M635 41v-41h-553v41l184 72v751l-184 72v41l348 72l21 -21v-915z" />
    <glyph glyph-name="OE" unicode="&#x152;" horiz-adv-x="2208" 
d="M815 1391q-107 0 -193.5 -48t-147 -135t-93.5 -208t-33 -267q0 -147 33 -266.5t93.5 -204.5t147 -131.5t193.5 -46.5q96 0 174 47t133 132.5t85 205.5t30 266t-30 267t-85.5 207.5t-133 134t-173.5 47.5zM1419 694v-588h508l127 295h41v-401l-31 -27l-190 27h-635v170
q-167 -195 -436 -195q-145 0 -269.5 52t-215.5 148t-143 239.5t-52 318.5q0 174 56 320t152.5 244t225 152t272.5 54q255 0 410 -184v156h614l191 26l31 -26v-402h-41l-127 295h-488v-563l416 20l39 -14l-21 -133z" />
    <glyph glyph-name="oe" unicode="&#x153;" horiz-adv-x="1819" 
d="M364 837q-77 -125 -77 -325q0 -99 19.5 -181.5t57 -142t92.5 -92.5t126 -33t127 33t94.5 92.5t59 142t20.5 181.5q0 98 -20.5 180.5t-59 142t-94.5 93t-127 33.5q-142 0 -218 -124zM582 1049q138 0 241 -55.5t164 -155.5q57 106 148.5 158.5t203.5 52.5q84 0 158 -31.5
t129.5 -95.5t88 -160.5t32.5 -226.5l-29 -29h-647q3 -119 35 -199t83 -128t116.5 -68.5t136.5 -20.5q105 0 223 70l31 -60q-43 -38 -84 -62t-84 -38t-90 -19.5t-101 -5.5q-114 0 -202.5 56t-143.5 159q-63 -103 -166 -159t-243 -56q-116 0 -207 39t-154 110t-96 169.5
t-33 218.5t33.5 219t96.5 169.5t154 109.5t206 39zM1343 952q-57 0 -103.5 -23.5t-80 -67.5t-55 -107t-29.5 -142h477q0 80 -13.5 143t-40 107t-65.5 67t-90 23z" />
    <glyph glyph-name="circumflex" unicode="&#x2c6;" horiz-adv-x="688" 
d="M389 1554l248 -346l-12 -22l-82 -21l-197 226h-8l-199 -226l-76 21l-12 24l244 344h94z" />
    <glyph glyph-name="caron" unicode="&#x2c7;" horiz-adv-x="721" 
d="M319 1227l-247 346l12 22l82 21l201 -225l202 225l76 -21l12 -24l-243 -344h-95z" />
    <glyph glyph-name="ring" unicode="&#x2da;" horiz-adv-x="528" 
d="M57 1391q0 43 17 81t46 67t67.5 46t80.5 17t80.5 -17t67.5 -46t46 -67.5t17 -80.5q0 -43 -17 -81.5t-45.5 -68t-67 -46.5t-81.5 -17q-42 0 -80.5 17t-67.5 46t-46 67.5t-17 82.5zM266 1278q24 0 44.5 8.5t36 23.5t24 35t8.5 44q0 23 -8.5 43t-24 35t-36 23.5t-44.5 8.5
q-23 0 -43 -8.5t-35 -23.5t-23.5 -35t-8.5 -43t8.5 -43t23.5 -35t35 -24t43 -9z" />
    <glyph glyph-name="tilde" unicode="&#x2dc;" horiz-adv-x="852" 
d="M578 1358q86 15 155 92l43 -37q-4 -7 -10.5 -18.5t-29 -42.5t-45.5 -56t-58.5 -48.5t-69.5 -30.5q-55 -10 -155.5 30t-139.5 33q-40 -7 -72.5 -28t-80.5 -68l-43 43q4 7 11.5 19t31 43t47 55.5t56.5 47t63 27.5q35 7 75.5 -3.5t71 -27t72 -27t78.5 -3.5z" />
    <glyph glyph-name="endash" unicode="&#x2013;" horiz-adv-x="1262" 
d="M102 678h1057v-123h-1057v123z" />
    <glyph glyph-name="emdash" unicode="&#x2014;" horiz-adv-x="1958" 
d="M102 676h1753v-123h-1753v123z" />
    <glyph glyph-name="quoteleft" unicode="&#x2018;" horiz-adv-x="555" 
d="M410 1087q0 -52 -37 -88t-90 -36q-67 0 -98 47t-31 120q0 135 85 242t212 144l32 -62q-85 -40 -143.5 -98t-58.5 -123l2 -19q53 0 90 -36.5t37 -90.5z" />
    <glyph glyph-name="quoteright" unicode="&#x2019;" horiz-adv-x="555" 
d="M145 1391q0 52 37 88.5t90 36.5q67 0 98 -47.5t31 -120.5q0 -135 -85 -242t-212 -143l-32 61q85 40 143.5 98t58.5 123l-2 19q-53 0 -90 36.5t-37 90.5z" />
    <glyph glyph-name="quotesinglbase" unicode="&#x201a;" horiz-adv-x="555" 
d="M186 100q0 52 37 88.5t90 36.5q67 0 98 -47.5t31 -120.5q0 -134 -85 -241.5t-212 -143.5l-32 62q85 40 143.5 98t58.5 123l-2 18q-53 0 -90 37t-37 90z" />
    <glyph glyph-name="quotedblleft" unicode="&#x201c;" horiz-adv-x="965" 
d="M410 1087q0 -52 -37 -88t-90 -36q-67 0 -98 47t-31 120q0 135 85 242t212 144l32 -62q-85 -40 -143.5 -98t-58.5 -123l2 -19q53 0 90 -36.5t37 -90.5zM819 1087q0 -52 -36.5 -88t-90.5 -36q-66 0 -97.5 47t-31.5 120q0 135 85 242t212 144l33 -62q-85 -40 -144 -98
t-59 -123l2 -19q54 0 90.5 -36.5t36.5 -90.5z" />
    <glyph glyph-name="quotedblright" unicode="&#x201d;" horiz-adv-x="965" 
d="M555 1391q0 52 36.5 88.5t90.5 36.5q66 0 97.5 -47.5t31.5 -120.5q0 -135 -85 -242t-212 -143l-33 61q86 40 144.5 98t58.5 123l-2 19q-54 0 -90.5 36.5t-36.5 90.5zM145 1391q0 52 37 88.5t90 36.5q67 0 98 -47.5t31 -120.5q0 -135 -85 -242t-212 -143l-32 61
q85 40 143.5 98t58.5 123l-2 19q-53 0 -90 36.5t-37 90.5z" />
    <glyph glyph-name="quotedblbase" unicode="&#x201e;" horiz-adv-x="965" 
d="M723 223q66 0 97.5 -47.5t31.5 -120.5q0 -134 -85 -241.5t-212 -143.5l-33 62q86 40 144.5 98t58.5 123l-2 18q-54 0 -90.5 37t-36.5 90t36.5 89t90.5 36zM186 98q0 52 37 88.5t90 36.5q67 0 98 -47.5t31 -120.5q0 -134 -85 -241.5t-212 -143.5l-32 62q85 40 143.5 98
t58.5 123l-2 18q-53 0 -90 37t-37 90z" />
    <glyph glyph-name="bullet" unicode="&#x2022;" horiz-adv-x="897" 
d="M205 770q0 52 21 99.5t56.5 83t82.5 56.5t100 21q52 0 99 -21t82.5 -56.5t56 -83t20.5 -99.5t-21 -99t-56 -82t-82 -56t-99 -21q-53 0 -100 21t-82.5 56.5t-56.5 82.5t-21 98z" />
    <glyph glyph-name="guilsinglleft" unicode="&#x2039;" horiz-adv-x="702" 
d="M332 594l299 -451l-33 -26l-485 454v45l485 455l33 -27z" />
    <glyph glyph-name="guilsinglright" unicode="&#x203a;" horiz-adv-x="702" 
d="M72 143l299 451l-299 450l32 27l486 -455v-45l-486 -454z" />
    <glyph glyph-name="fraction" unicode="&#x2044;" horiz-adv-x="731" 
d="M14 -47h-133l699 1522h133z" />
    <glyph glyph-name="uni2074" unicode="&#x2074;" horiz-adv-x="823" 
d="M592 1536v-586l117 -20v-94h-117v-187h-156v187h-426v116l463 584h119zM436 950v379l-303 -379h303z" />
    <glyph glyph-name="Euro" unicode="&#x20ac;" horiz-adv-x="1282" 
d="M-16 678h139v55q0 35 2 53h-141v123h155q51 267 237.5 430.5t432.5 163.5q190 0 385 -51l-111 -373h-61v273q-98 41 -227 41q-167 0 -277 -132.5t-143 -351.5h491l-20 -123h-484v-53v-55h443l-21 -123h-409q33 -227 153 -341t306 -114q172 0 362 99l25 -54
q-83 -78 -200 -124t-239 -46q-255 0 -427.5 156.5t-217.5 423.5h-153v123z" />
    <glyph glyph-name="minus" unicode="&#x2212;" horiz-adv-x="1270" 
d="M1167 739v-131h-1065v131h1065z" />
    <glyph glyph-name="foundryicon" horiz-adv-x="3568" 
d="M1253 813q11 -96 17 -190.5t6 -190.5q0 -131 -11.5 -256t-36 -235.5t-62.5 -203t-90 -159.5t-118.5 -104t-148.5 -37q-54 0 -88.5 15t-55 43.5t-28.5 71t-8 97.5q0 51 9 95.5t21 86.5q25 0 52 -4t53.5 -12.5t51.5 -23t46 -35.5q-5 -37 -9.5 -80t-4.5 -86q0 -54 10 -94
q64 41 99.5 96t55.5 125t30 155l22 187q-8 -13 -24.5 -25t-36.5 -12q-75 0 -126 40.5t-83 106.5q-11 -31 -29.5 -63t-47 -58t-67.5 -42.5t-90 -16.5q-79 0 -142.5 24.5t-112 67t-84 101t-58 126t-33 141.5t-10.5 148q0 124 16.5 244.5t52.5 231t93.5 206t140.5 168.5
q46 -10 100 -26.5t100.5 -51t77.5 -94t31 -155.5q0 -76 -36 -136t-68 -88.5t-36 -32t-7 -2.5q-5 0 -5 8q0 5 3 11q2 14 3 28t1 29q0 39 -6 80.5t-15 78.5t-20.5 65.5t-22.5 42.5q-27 -26 -51.5 -86.5t-43 -143t-29.5 -180.5t-11 -198q0 -85 9 -167t28.5 -152.5t50.5 -126
t76 -87.5q40 13 72 39.5t57.5 58.5t43.5 64.5t30 58.5q-22 72 -29.5 152t-7.5 161q0 78 10 131t29 88l40 -8t52.5 -14t54.5 -22t47 -31q-6 -104 -6 -203q0 -112 11 -215.5t42 -202.5q24 6 37.5 39t19.5 78t7.5 93t1.5 84q0 70 -5.5 139t-14 131.5t-17 116t-14.5 93.5
q4 0 8 0.5t9 0.5q27 0 58 -7.5t61 -21t57 -31t46 -37.5zM1286 850q42 -2 75 -5.5t59.5 -10.5t47 -19t37.5 -31q23 -42 41.5 -101t24.5 -140q35 66 58.5 114.5t37.5 90.5q0 13 2.5 31t7 36t10 35t11.5 29q65 -6 118.5 -26t75.5 -58q-8 -45 -13 -97t-5 -106q0 -73 10 -129
q-33 -10 -66 -10q-111 0 -130 133q-8 -21 -21.5 -42t-28 -44t-27.5 -48t-20 -53q0 -66 -4 -133t-20.5 -120.5t-49 -87.5t-89.5 -34q-14 0 -29 3q-6 91 -12 201t-17.5 221t-31 215.5t-52.5 185.5zM2552 113q13 10 28.5 26t29.5 34.5t24 40t12 42.5q-9 39 -15.5 80t-10 81.5
t-5 79t-1.5 72.5q0 65 3 101q-17 -21 -32.5 -62t-27.5 -94t-19.5 -113.5t-7.5 -119.5q0 -46 5.5 -89t16.5 -79zM3154 535q26 37 45.5 92.5t32.5 120t19.5 132.5t6.5 131q0 86 -12 148q-15 -62 -29.5 -137.5t-27 -157t-22 -165.5t-13.5 -164zM2177 690q-28 -85 -41.5 -181.5
t-13.5 -193.5q23 3 40 25t28 54.5t16.5 71.5t5.5 77q0 45 -12 85.5t-23 61.5zM2441 1317q-15 -31 -31 -71t-35 -82.5t-43 -84.5t-54 -76.5t-68 -59t-86 -32.5q14 -28 27.5 -54t25.5 -48q0 -2 2 -4q57 -28 88 -85.5t31 -148.5q0 -52 -11 -105t-33 -98.5t-54 -79t-74 -46.5
q11 -45 24.5 -83t42.5 -57q30 12 53.5 34.5t42.5 50t32.5 56.5t23.5 54v109q4 111 33.5 210t99.5 175q35 0 74 -7.5t71 -19.5q3 7 8.5 29t12 46t13 44.5t12.5 25.5q9 3 20 3q19 0 42.5 -6.5t46 -16t41.5 -21.5t30 -22q-12 -85 -20.5 -188t-8.5 -209q0 -97 9 -188.5
t30 -164.5q2 -1 6 -1q14 0 28.5 14t27 33t23 38.5t17.5 30.5l-6 29q-19 91 -28 187t-9 198q0 109 11 219t32 213t52.5 195t72.5 167q90 -15 149 -43.5t93.5 -75t48.5 -114t14 -160.5q0 -88 -15 -181.5t-44.5 -175t-73 -143.5t-100.5 -88q0 -106 20.5 -191t65.5 -151
q63 48 110.5 131t79.5 215q10 5 18 5q7 0 9.5 -5t3 -11.5t0 -14.5t-0.5 -14q0 -40 -5 -84t-16 -87t-30 -82t-47 -68.5t-66.5 -47t-88.5 -17.5q-75 0 -130.5 32.5t-90.5 92.5q-6 -24 -18 -46.5t-29 -40t-39 -28t-47 -10.5q-29 0 -55 12t-47 30.5t-37 41t-25 43.5
q-5 -21 -19.5 -39.5t-34 -32.5t-41.5 -23t-42 -11q-80 0 -124.5 35.5t-59.5 91.5q-13 -21 -31 -42t-41 -39t-51.5 -30.5t-61.5 -15.5q-74 0 -126.5 28t-85.5 75.5t-48 109.5t-15 131q0 59 5.5 123.5t17 125.5t27.5 113.5t37 87.5q9 1 18 1.5t18 0.5t18 -0.5t18 -1.5
q-10 19 -18.5 40t-14.5 42q-42 9 -81 30t-75.5 50.5t-70 64.5t-64.5 72q-15 13 -44.5 20t-63 13.5t-65.5 16.5t-52 28q-7 6 -7 11q0 10 11 10q1 -2 19.5 -4.5t47 -5.5t62.5 -6t65 -5.5t55.5 -4t34.5 -1.5q74 14 145 27t128.5 25t97.5 23.5t51 22.5q13 45 47 70t72 25
q16 0 29.5 -2.5t25.5 -10.5l35 13q2 0 2 -0.5t1 -0.5h1q-1 -1 -2 -1l-8 -39h35l1 -2h-1zM2148 817q-14 19 -27 42.5t-24 49.5h-31l25 -80q15 -3 29 -5t28 -7z" />
    <glyph glyph-name="grave.case" horiz-adv-x="516" 
d="M414 1645l-35 -60l-402 150l-6 41l117 102z" />
    <glyph glyph-name="acute.case" horiz-adv-x="516" 
d="M358 1878l117 -102l-6 -41l-401 -150l-35 60z" />
    <glyph glyph-name="circumflex.case" horiz-adv-x="727" 
d="M307 1903h115l274 -261v-28l-67 -41l-260 205h-9l-260 -205l-67 41v28z" />
    <glyph glyph-name="dieresis.case" horiz-adv-x="770" 
d="M98 1751q0 25 8.5 46t24.5 37t37 25t47 9q24 0 45.5 -9t37 -25t25 -37t9.5 -46q0 -26 -9.5 -47.5t-25 -37.5t-37 -25t-45.5 -9q-26 0 -47 9t-37 25t-24.5 37.5t-8.5 47.5zM471 1751q0 25 9.5 46t25.5 37t37.5 25t46.5 9t46.5 -9t37 -25t24.5 -37t9 -46q0 -26 -9 -47.5
t-24.5 -37.5t-37 -25t-46.5 -9t-46.5 9t-37.5 25t-25.5 37.5t-9.5 47.5z" />
    <glyph glyph-name="tilde.case" horiz-adv-x="784" 
d="M580 1739q35 3 77.5 19.5t85.5 58.5l39 -41q-19 -28 -44 -59.5t-56 -57.5t-67 -43.5t-78 -17.5q-35 0 -69 14t-66.5 30.5t-63.5 30.5t-60 14q-45 0 -83.5 -20.5t-92.5 -62.5l-36 47q21 27 47.5 57.5t57 57t64 43.5t69.5 17q35 0 66 -14t62 -30.5t62.5 -30t52 -13.5
t33.5 1z" />
    <glyph glyph-name="caron.case" horiz-adv-x="766" 
d="M51 1804v29l68 41l260 -205h8l260 205l68 -41v-29l-275 -260h-114z" />
  </font>
</defs>
</svg>
