<?xml version="1.0" standalone="no"?>
<!DOCTYPE svg PUBLIC "-//W3C//DTD SVG 1.1//EN" "http://www.w3.org/Graphics/SVG/1.1/DTD/svg11.dtd" >
<svg xmlns="http://www.w3.org/2000/svg">
<metadata>
This is a custom SVG webfont generated by Font Squirrel.
Copyright   : Copyright c 2009 by Peter Wiegel   Open Font under Terms of following Free Software LicensesGPL General Public License with fontexception and OFL Open Font License
Designer    : Peter Wiegel
Foundry     : Peter Wiegel
</metadata>
<defs>
<font id="DiscipuliBritannicaBoldRg" horiz-adv-x="528" >
<font-face units-per-em="1000" ascent="800" descent="-200" />
<missing-glyph horiz-adv-x="397" />
<glyph unicode=" "  horiz-adv-x="397" />
<glyph unicode="&#x09;" horiz-adv-x="397" />
<glyph unicode="&#xa0;" horiz-adv-x="397" />
<glyph unicode="!" horiz-adv-x="277" d="M96 150q-1 -2 -2.5 -4.5t-2.5 -7.5q2 7 5 12zM286 696q7 17 23 31.5t37 14.5q32 0 32 -32v-6q0 -4 -2 -8l-194 -549q-7 -17 -23 -31.5t-36 -14.5q-33 0 -33 32q0 3 1 5q0 7 2 12zM118 79q22 0 31 -13.5t9 -29.5q0 -15 -7.5 -29.5t-19 -26t-25 -18.5t-24.5 -7 q-22 0 -31 12.5t-9 29.5q0 15 8 29.5t20 26.5t25 19t23 7z" />
<glyph unicode="&#x22;" horiz-adv-x="195" d="M233 682q0 6 4.5 16.5t12.5 20.5t19 17.5t25 7.5q32 0 32 -42q0 -20 -9.5 -41.5t-21.5 -40t-23.5 -31t-15.5 -15.5l22 13q-8 -17 -22.5 -28t-32.5 -11q-34 0 -34 32q0 17 7 26l14 22q8 11 15.5 24.5t7.5 29.5zM153 681q0 6 4.5 16.5t12.5 20.5t19 17.5t25 7.5 q32 0 32 -42q0 -20 -9.5 -41.5t-21.5 -40t-23.5 -31t-15.5 -15.5l22 13q-8 -17 -22.5 -28t-32.5 -11q-34 0 -34 32q0 17 7 26l14 22q8 11 15.5 24.5t7.5 29.5z" />
<glyph unicode="#" horiz-adv-x="580" d="M180 517q19 33 52 33q34 0 34 -32q0 -9 -5 -19l-13 -25q-1 -1 -1 -2q0 1 -1 0h1l-1 -1l-2 -4q-1 -2 -3 -5q26 2 51.5 2.5t51.5 0.5h9q12 28 20.5 44t16.5 24t16.5 9.5t21.5 1.5q33 0 33 -33q0 -11 -4 -24l-10 -27q52 -6 87.5 -18t35.5 -30q0 -9 -7 -20t-16.5 -20 t-19.5 -15t-16 -6q-7 0 -11 0.5t-9 3.5q-26 7 -81 13q-9 -22 -16 -42l-14 -41h23q39 0 67 -3.5t45 -12.5t25 -26t8 -44q0 -37 -21 -79t-52.5 -78t-67 -60t-64.5 -24q-24 0 -41 11t-28.5 28t-17 39t-6.5 44q-39 -54 -81.5 -89.5t-88.5 -35.5q-67 0 -67 83q0 36 7 72t25 91 q-33 10 -51 32t-18 48q0 33 14 58.5t37.5 45.5t53 34t60.5 24q12 25 21 42t19 33zM189 348l-8 -19l-6 -13l-6 -14.5t-7 -19.5q12 -1 25 -1h28q18 0 28 -0.5t29 0.5q5 10 9 21t9 20q6 12 8.5 18t4.5 10t4 9l6 13h-13q-26 0 -52 -1.5t-52 -5.5zM136 206q-4 -8 -7 -17 q-5 1 -9 1t-9 1zM195 188h-34q-16 0 -32 1q-12 -34 -17 -68t-5 -53q0 -21 -1 -21q12 0 26 11.5t30 31t32.5 45t31.5 53.5h-31zM71 276q5 15 7 20q8 -4 16 -4zM69 306q0 -6 9 -10q1 5 2 8t2 7l4 9l8 16q-25 -13 -25 -30zM353 191q-9 -42 -9 -75q0 -11 1.5 -22.5t4.5 -21.5 t7.5 -16t10.5 -6q9 0 24 11.5t29 29.5t24 39t10 41q0 12 -14.5 16t-53.5 4h-34z" />
<glyph unicode="$" horiz-adv-x="472" d="M475 535q0 -28 -9 -53q-4 -18 -21 -33t-40 -15q-31 0 -31 31q0 12 5 27q1 5 2 8.5t1 8.5q0 36 -31 54l-33 -95l-34 -96q19 -8 37.5 -18t32.5 -23t22.5 -30.5t8.5 -40.5q0 -38 -18.5 -78t-50 -74.5t-73 -59t-86.5 -32.5q-2 -6 -3 -10t-3 -9q-8 -19 -23 -30.5t-35 -11.5 q-32 0 -32 31q0 3 1 6v-3v3q1 6 5 11q-1 -2 -2.5 -4t-2.5 -7q0 7 2 11l6 16q-39 13 -67 45.5t-28 82.5q0 10 2 27t9.5 33.5t21 28.5t36.5 12q32 0 32 -32q0 -8 -1.5 -14.5t-3.5 -13.5q-3 -8 -3 -15q0 -40 35 -57l33 93l35 96q-23 8 -42.5 17.5t-34 23t-22.5 32.5t-8 47 q0 40 20 80t53 73.5t75 57t86 30.5q2 8 5 15t5 15q6 18 22 32t38 14q32 0 32 -32v-6q0 -4 -2 -8l-13 -36q44 -15 67 -47.5t23 -77.5zM264 570q-23 -5 -42.5 -16.5t-33.5 -27.5t-22 -35t-8 -39q0 -17 8.5 -28.5t37.5 -22.5zM286 200q5 18 5 31q0 16 -11 27t-29 19l-15 -40 l-14 -38l-13 -39l-16 -45q31 11 56.5 33.5t36.5 52.5v-1z" />
<glyph unicode="%" horiz-adv-x="662" d="M535 711v-1q19 31 56 31q15 -2 22.5 -11t7.5 -21q0 -14 -12 -31l-275 -404l-276 -404q-12 -17 -23 -23.5t-27 -6.5q-33 0 -33 33q0 14 9 29zM554 385q59 0 94 -42.5t35 -114.5q0 -55 -21 -106t-55 -90.5t-75.5 -63t-81.5 -23.5q-31 0 -55 11.5t-40.5 32.5t-25 49.5 t-8.5 62.5q0 50 20 101t52.5 91.5t74.5 66t86 25.5zM545 290h-2q-3 0 -4 1zM590 202q0 32 -12.5 56t-34.5 32q-2 0 -4.5 0.5t-3.5 0.5q-5 1 -7 1q-21 0 -41.5 -13.5t-36.5 -36.5t-26 -53t-10 -62q0 -38 16.5 -63.5t45.5 -25.5q21 0 41.5 14t36.5 36.5t26 52t10 61.5z M208 741q59 0 94 -42.5t35 -114.5q0 -55 -21 -106t-55 -90.5t-75.5 -63t-81.5 -23.5q-31 0 -55 11.5t-40.5 32.5t-25 49.5t-8.5 62.5q0 50 20 101t52.5 91.5t74.5 66t86 25.5zM199 646h-2q-3 0 -4 1zM244 558q0 32 -12.5 56t-34.5 32q-2 0 -4.5 0.5t-3.5 0.5q-5 1 -7 1 q-21 0 -41.5 -13.5t-36.5 -36.5t-26 -53t-10 -62q0 -38 16.5 -63.5t45.5 -25.5q21 0 41.5 14t36.5 36.5t26 52t10 61.5z" />
<glyph unicode="&#x26;" horiz-adv-x="526" d="M478 35q5 -7 7 -13.5t2 -9.5q0 -8 -6.5 -18t-16 -18.5t-20 -14.5t-17.5 -6q-17 0 -38.5 19.5t-39.5 40.5q-42 -29 -98.5 -45t-139.5 -16q-63 0 -99.5 43.5t-36.5 128.5q0 56 17 98t44 74.5t61.5 57.5t69.5 46q-4 26 -6 53t-2 54q0 51 11 93.5t33.5 73t56.5 47.5t80 17 q25 0 47 -8t38 -23t25.5 -36.5t9.5 -48.5q0 -48 -17 -85.5t-43.5 -67.5t-59.5 -54t-66 -44q15 -51 41.5 -109.5t58.5 -106.5q11 17 22 37l21 41l-1 -1q14 35 29 51t41 16q34 0 34 -33q0 -7 -3 -16t-7.5 -17.5t-8.5 -15t-6 -8.5q-5 -9 -9 -18q-14 -27 -29 -52.5t-32 -49.5 q11 -14 24.5 -28t25.5 -25zM314 61l-8 10l-8 11q10 6 20 14zM137 47q57 0 95 9t66 26q-75 107 -112 238q-26 -15 -47.5 -30.5t-37.5 -34.5t-24.5 -43.5t-8.5 -58.5q2 -54 20 -80t49 -26zM256 588q-2 -14 -3 -28t-1 -28q0 -37 6 -77q24 14 43.5 28.5t34 32t22.5 38t8 45.5 q0 20 -13.5 34t-38.5 14q-20 0 -37.5 -13.5t-20.5 -43.5v-2z" />
<glyph unicode="'" horiz-adv-x="156" d="M164 681q0 6 4.5 16.5t12.5 20.5t19 17.5t25 7.5q32 0 32 -42q0 -20 -9.5 -41.5t-21.5 -40t-23.5 -31t-15.5 -15.5l22 13q-8 -17 -22.5 -28t-32.5 -11q-34 0 -34 32q0 17 6 27l15 21q8 11 15.5 24.5t7.5 29.5z" />
<glyph unicode="(" horiz-adv-x="349" d="M438 741q35 0 35 -32q0 -12 -5.5 -22t-13 -18t-16.5 -13t-16 -7q-81 -19 -146.5 -67t-111.5 -113.5t-71 -142.5t-25 -153q0 -79 27.5 -143t83.5 -107q9 -9 9 -23q0 -8 -6.5 -18.5t-15.5 -19.5t-19.5 -15.5t-18.5 -6.5q-14 0 -23 7q-61 51 -95 126.5t-34 170.5 q0 97 34 194t94.5 178.5t144 141.5t183.5 83h6z" />
<glyph unicode=")" horiz-adv-x="396" d="M-76 -160q-2 0 -2 -0.5t-2 -0.5q-33 0 -33 33q0 25 17 40.5t33 19.5q79 18 144 65t111.5 112t72 142.5t25.5 157.5q0 79 -26.5 141t-78.5 104l1 -1q-15 10 -15 29q0 8 6.5 18t15.5 19t19.5 15.5t18.5 6.5q2 0 6.5 -1t15.5 -6q66 -51 98.5 -128t32.5 -174 q0 -100 -35 -196.5t-96.5 -176.5t-144.5 -138t-178 -80z" />
<glyph unicode="*" horiz-adv-x="334" d="M207 691q4 15 20.5 32.5t39.5 17.5q32 0 32 -34v-6l-13 -54l25 12q13 6 26 11q6 2 10 3.5t11 1.5q32 0 32 -32q0 -20 -12.5 -36t-30.5 -23l-13 -6q-3 -1 -5 -2t-5.5 -3t-13.5 -6l27 -20l27 -18q12 -12 12 -27q0 -8 -6.5 -18.5t-16 -19.5t-20 -15.5t-17.5 -6.5 q-17 0 -24 9l4 -2l-16 11l-10 7l-10 7l-15 11q-2 -9 -5 -19l-4 -17q-5 -18 -23 -34t-38 -16q-31 0 -31 32v6q0 4 2 8q3 12 4 17.5t2.5 9.5t3 9.5t4.5 18.5l-22 -10l-22 -10l1 1q-12 -6 -22 -6q-32 0 -32 40q9 35 40 50l17 8q-8 5 -14.5 10t-14.5 10q-9 3 -14.5 10t-5.5 21 q0 7 6.5 17.5t16 20t20 16.5t17.5 7q15 0 25 -10l-4 2q9 -6 14 -9l8 -6l8 -6q4 -4 13 -10z" />
<glyph unicode="+" horiz-adv-x="515" d="M172 150q-1 -2 -2.5 -4.5t-2.5 -7.5q2 7 5 12zM305 536q6 18 22 32t38 14q32 0 32 -32v-6q0 -4 -2 -8l-52 -148h136q34 0 34 -32q0 -13 -6.5 -24t-16 -19.5t-20 -13t-17.5 -4.5h-143l-26 -74l-26 -74q-6 -18 -22 -32t-38 -14q-32 0 -32 32q0 3 1 5q0 7 2 12l51 145h-135 q-34 0 -34 32q0 15 6.5 26t16 19t20 12t17.5 4h142z" />
<glyph unicode="," horiz-adv-x="254" d="M76 -112q-20 -15 -36 -15q-33 0 -33 35q0 9 5.5 19t14 19.5t17.5 18t16 14.5l2 2l1 2q-1 4 -1 14q0 15 8 29.5t20 26.5t25 19t23 7q15 0 23 -4.5t12 -12t4.5 -16.5t0.5 -17q0 -13 -6 -27t-14.5 -27.5t-17.5 -24.5t-15 -17q-20 -20 -47 -44z" />
<glyph unicode="-" horiz-adv-x="523" d="M93 301q-34 0 -34 32q0 15 6.5 26t16 19t20 12t17.5 4h368q34 0 34 -32q0 -13 -6.5 -24t-16 -19.5t-20 -13t-17.5 -4.5h-368z" />
<glyph unicode="." horiz-adv-x="233" d="M120 79q22 0 31 -13.5t9 -29.5q0 -15 -7.5 -29.5t-19 -26t-25 -18.5t-24.5 -7q-22 0 -31 12.5t-9 29.5q0 15 8 29.5t20 26.5t25 19t23 7z" />
<glyph unicode="/" horiz-adv-x="518" d="M442 695l-1 -1q20 42 58 42q33 0 33 -32q0 -4 -2 -10v-5l-464 -805q-7 -17 -24 -30.5t-35 -13.5q-32 0 -32 33q0 5 0.5 8.5t3.5 9.5z" />
<glyph unicode="0" horiz-adv-x="487" d="M318 603q-16 11 -16 29v6q0 3 1 5q-10 4 -18 4.5t-19 0.5q-41 0 -77 -28t-63 -78.5t-42.5 -119.5t-15.5 -151q0 -46 6 -86.5t18 -71t29.5 -48.5t39.5 -18q34 0 74.5 38t75 97t57.5 129.5t23 135.5q0 109 -73 156zM426 669q0 -8 -5 -18q64 -72 64 -178q0 -58 -16 -119 t-43 -118.5t-62 -108.5t-74 -89t-79 -60.5t-76 -22.5q-38 0 -68 21.5t-50.5 60t-31 91.5t-10.5 117q0 108 26 199t70 157t101 103t120 37q38 0 67 -12t57 -35q6 -8 8 -15t2 -10z" />
<glyph unicode="1" horiz-adv-x="382" d="M296 696q7 17 23 31.5t37 14.5q32 0 32 -32v-6q0 -4 -2 -8l-251 -697q-7 -17 -24 -30.5t-35 -13.5q-32 0 -32 33q0 5 0.5 8.5t3.5 9.5l-2 -3z" />
<glyph unicode="2" horiz-adv-x="509" d="M276 561q-6 -20 -22 -34t-39 -14q-31 0 -31 31q0 3 1 5v-2v2q2 7 5 12q-1 -2 -2.5 -4.5t-2.5 -7.5v5q0 4 2 7q15 38 39 70t54 55.5t63.5 36.5t65.5 13q75 0 120 -44.5t45 -119.5q-1 -46 -21 -92.5t-53.5 -93t-77 -92t-91.5 -88.5l-97 -83l-93 -76h270q34 0 34 -32 q0 -12 -6.5 -23t-16 -19.5t-20 -13t-17.5 -4.5h-375q-35 0 -35 35q0 10 8 22t21 24.5t30 25.5l33 26q6 5 11 8t10 8l128 104q69 57 128 117t98 118t39 108q0 37 -26.5 64t-74.5 27q-38 0 -65 -22t-39 -60v1z" />
<glyph unicode="3" horiz-adv-x="483" d="M195 602q-21 -21 -40 -21q-17 0 -27 8t-10 27q0 13 12.5 29t30 31t36 27t30.5 18q44 19 96 19q42 0 78 -17t62.5 -45.5t42 -65.5t15.5 -77q-2 -53 -29.5 -103.5t-88.5 -85.5q16 -17 25.5 -37t14.5 -40.5t7 -40t2 -35.5v-8q-1 -48 -23 -90t-58.5 -73.5t-83.5 -49.5 t-98 -18q-47 0 -85.5 12.5t-66.5 36t-44.5 57t-17.5 74.5q0 8 5 18.5t13.5 20.5t19.5 16.5t23 6.5q17 0 24 -8t8 -25q1 -27 12.5 -48.5t31.5 -37t46.5 -23.5t56.5 -8q28 0 54 7.5t45.5 21.5t31.5 35.5t12 49.5v8q0 41 -19 91q-15 41 -129 42q-16 0 -22.5 12.5t1.5 26.5 l29 43q2 4 9 7.5t12 3.5q85 0 136.5 29t51.5 89q0 28 -11 52.5t-30 43t-43.5 29t-52.5 10.5t-50.5 -11.5t-44.5 -33.5z" />
<glyph unicode="4" horiz-adv-x="459" d="M161 696v-1q4 16 22 31.5t38 15.5q32 0 32 -32v-6q0 -4 -2 -8l-103 -302h106l54 151l53 151v-1q6 20 22.5 33.5t37.5 13.5q32 0 32 -32v-6q0 -4 -2 -8l-106 -302h120q35 0 35 -33q0 -13 -7 -24t-16.5 -19t-20 -12.5t-17.5 -4.5h-128l-53 -151l-54 -152q-8 -19 -24 -31.5 t-36 -12.5q-31 0 -31 31v4q0 2 2 7v4l106 301h-148q-33 0 -33 34v10q0 4 4 9z" />
<glyph unicode="5" horiz-adv-x="557" d="M117 348q-1 -2 -2.5 -4.5t-2.5 -7.5q2 7 5 12zM159 306q-5 -3 -12 -5q8 1 12 5zM594 741q34 0 34 -32q0 -13 -6.5 -24t-16 -19.5t-20 -13t-17.5 -4.5h-265l-20 -61l-19 -55l-18 -56l-21 -63q35 9 70 14.5t64 5.5q75 0 120.5 -36.5t45.5 -99.5q0 -34 -12 -72.5 t-34.5 -76.5t-54.5 -72.5t-71 -61t-84.5 -42t-95.5 -15.5q-46 0 -93.5 14.5t-93.5 54.5q-11 11 -11 26q0 7 6 17.5t15 20.5t19 16.5t18 6.5q12 0 21 -6q35 -31 73 -45t74 -14q33 0 65.5 11.5t62 33t53.5 51.5t39 67q5 13 7.5 26.5t2.5 25.5q0 41 -28.5 59t-73.5 18 q-32 0 -74 -9.5t-96 -27.5q-5 -2 -12 -2q-2 -1 -5 -1q-31 0 -31 31q0 3 1 5v5q0 4 2 7l58 175l57 175q20 43 57 43h308z" />
<glyph unicode="6" horiz-adv-x="495" d="M73 172q-3 -10 -4 -18t-1 -13q0 -18 8.5 -34.5t24.5 -30t39 -21.5t53 -8q34 0 71.5 12t68.5 33t51 50.5t20 64.5q0 21 -10 38t-26.5 29.5t-39.5 19.5t-48 7q-23 0 -44 -8.5t-40.5 -23t-38 -33t-35.5 -38.5q-10 -11 -21.5 -18.5t-22.5 -7.5h-5zM409 716q10 11 21 18t22 7 q37 0 37 -34q0 -8 -4 -18t-13 -19l1 2l-120 -145l-119 -145q34 12 72 12q35 0 69.5 -10t61.5 -30t43.5 -50.5t16.5 -70.5q0 -54 -29 -104.5t-76 -89t-106 -61.5t-119 -23q-41 0 -76.5 11t-61 32t-40 50.5t-14.5 66.5q0 29 11 64.5t48 82.5z" />
<glyph unicode="7" horiz-adv-x="409" d="M58 648q-35 0 -35 32q0 12 6.5 23t16.5 19.5t20 13.5t18 5h370q35 0 35 -32q0 -15 -10 -29v1l-209 -347l-210 -347q-21 -32 -51 -32q-35 0 -35 32q0 11 1.5 11.5t3.5 5.5v3l388 641h-309z" />
<glyph unicode="8" horiz-adv-x="554" d="M485 584q2 2 3 2.5t3 2.5q-30 33 -63 46t-82 13q-56 0 -87.5 -30t-31.5 -72q0 -24 22 -47.5t52 -43.5l56 33q24 15 45.5 30t41.5 31t41 35zM595 627q3 -6 3.5 -10t0.5 -6q0 -5 -4 -13t-11 -16t-15 -15t-16 -11q-3 -12 -15 -26t-28 -28t-34 -27l-34 -25h1l-8 -6l-8 -5 l-14 -9q-5 -4 -9 -6l-10 -6l-18 -11q23 -16 45 -34.5t39.5 -40t28 -45.5t10.5 -51q0 -31 -17.5 -79t-56 -93t-99.5 -77t-149 -32q-100 0 -151 45.5t-51 122.5q0 52 19 93t50.5 74.5t72 60.5t83.5 50q-29 24 -48 54t-19 65q0 20 11.5 57t39 73.5t73.5 63.5t115 27 q43 0 75.5 -7.5t58 -21.5t46 -34t40.5 -45zM289 357q-4 -2 -7 -4.5t-7 -4.5l-1 1q0 1 -1 1q-2 0 -2 1q-3 2 -7 5t-6 4zM275 348q-8 -5 -16.5 -9t-16.5 -9l-64 -38q-31 -18 -55.5 -39.5t-39 -47t-14.5 -56.5q0 -49 35.5 -75.5t98.5 -26.5q56 0 94.5 17.5t62.5 43t34.5 52.5 t10.5 47q0 21 -11.5 40.5t-29.5 36.5t-40 32l-45 30z" />
<glyph unicode="9" horiz-adv-x="483" d="M282 -4q-8 -17 -24 -29.5t-35 -12.5q-32 0 -32 32q0 3 1 6v-3v3q1 6 5 11q-1 -2 -2.5 -4t-2.5 -7q0 7 2 11l103 289q-43 -17 -86.5 -23.5t-77.5 -6.5q-79 0 -118.5 31.5t-39.5 88.5t24.5 103.5t65 84t94 66.5t110.5 50t114 34.5t106 20.5h9q33 0 33 -32v-5q0 -1 -2 -6v-2 l-108 -308v2q-10 -35 -16 -48zM330 388v1l2 2l-3 -8zM169 356q21 0 47.5 3.5t50 9t41 11t22.5 9.5l88 248q-34 -7 -73.5 -16.5t-78 -22.5t-74.5 -30.5t-63 -40t-43.5 -50t-16.5 -61.5q0 -60 100 -60z" />
<glyph unicode=":" horiz-adv-x="233" d="M120 79q22 0 31 -13.5t9 -29.5q0 -15 -7.5 -29.5t-19 -26t-25 -18.5t-24.5 -7q-22 0 -31 12.5t-9 29.5q0 15 8 29.5t20 26.5t25 19t23 7zM211 410q4 0 11 -2.5t13.5 -7.5t11 -13t4.5 -20q0 -16 -8.5 -31t-20.5 -26t-25 -18t-22 -7q-22 0 -31 12.5t-9 29.5q0 7 6 21 t16 27.5t24 24t30 10.5z" />
<glyph unicode=";" horiz-adv-x="222" d="M44 -112q-20 -15 -36 -15q-33 0 -33 35q0 9 5.5 19t14 19.5t17.5 18t16 14.5l2 2l1 2q-1 4 -1 14q0 15 8 29.5t20 26.5t25 19t23 7q15 0 23 -4.5t12 -12t4.5 -16.5t0.5 -17q0 -13 -6 -27t-14.5 -27.5t-17.5 -24.5t-15 -17q-20 -20 -47 -44zM197 410q4 0 11 -1.5 t13.5 -6.5t11 -13.5t4.5 -21.5q0 -11 -6.5 -25t-17 -27t-24 -21.5t-28.5 -8.5q-22 0 -31 12.5t-9 29.5q0 7 6 21t16 27.5t24 24t30 10.5z" />
<glyph unicode="&#x3c;" horiz-adv-x="405" d="M349 576q17 11 30 11q32 0 32 -37q0 -28 -30 -48l-231 -158l59 -82l58 -81l-2 4q10 -10 10 -25q0 -7 -7 -17.5t-16.5 -20t-20 -16t-17.5 -6.5q-14 0 -21 5.5t-10 14.5l-69 97l-69 97l2 -3q-4 3 -6.5 7.5t-2.5 13.5q0 32 30 52z" />
<glyph unicode="=" horiz-adv-x="547" d="M140 348q-35 0 -35 32q0 12 6.5 23t16.5 19.5t20 13.5t18 5h368q35 0 35 -33q0 -13 -6.5 -24t-16.5 -19t-20.5 -12.5t-17.5 -4.5h-368zM87 257q-35 0 -35 32q0 14 7 25t16.5 19t20 12.5t17.5 4.5h368q34 0 34 -32q0 -13 -6.5 -24t-16 -19.5t-20 -13t-17.5 -4.5h-368z" />
<glyph unicode="&#x3e;" horiz-adv-x="388" d="M84 111q-17 -12 -31 -12q-32 0 -32 34q0 32 30 52l230 157l-59 84l-59 83l-2 2q-1 1 -1 2v1q-2 4 -2 13q0 7 6 17.5t15 20t19.5 16t19.5 6.5q15 0 26 -11l144 -202l-2 3q6 -6 7 -11t1 -15q0 -28 -30 -48z" />
<glyph unicode="?" horiz-adv-x="409" d="M244 648q-44 0 -69 -5t-37.5 -12.5t-15.5 -15t-3 -13.5l1 -3q9 -8 9 -25q0 -14 -7.5 -25t-17 -19t-19.5 -12.5t-16 -4.5q-43 0 -43 61q0 28 13 58t42.5 54t76 39.5t112.5 15.5q140 0 140 -107q0 -29 -14 -63t-38 -71t-56 -76.5t-68 -79.5l-46 -51q-22 -25 -39 -48 t-27.5 -44t-10.5 -39q0 -8 -5 -18.5t-13.5 -20t-19.5 -16.5t-23 -7q-33 0 -33 41q0 30 14 62.5t37 65t52 65.5l58 65l46 50q21 24 39 48q53 72 53 113q0 20 -19.5 29t-52.5 9zM51 79q22 0 31 -13.5t9 -29.5q0 -15 -7.5 -29.5t-19 -26t-25 -18.5t-24.5 -7q-22 0 -31 12.5 t-9 29.5q0 15 8 29.5t20 26.5t25 19t23 7z" />
<glyph unicode="@" horiz-adv-x="716" d="M550 175q21 26 44 26q36 0 36 -35q0 -15 -15 -34q-74 -89 -163 -133t-178 -44q-68 0 -123 23.5t-94 65.5t-60.5 99t-21.5 124q0 61 17.5 120t48.5 111.5t74 97t93 77t106 50.5t113 18q61 0 112.5 -18.5t88.5 -51t58 -78t21 -99.5v-19q-3 -33 -17.5 -70.5t-37 -75t-52 -72 t-62 -61t-67.5 -42t-68 -15.5q-39 0 -60 32q-26 -14 -52.5 -22t-49.5 -8q-116 0 -116 126q0 67 31.5 121t82 93.5t114.5 64.5t129 34h8q33 0 33 -32v-4q0 -2 -2 -7v-2l-96 -273q0 -4 -3 -11q0 -5 1 -11.5t4 -6.5q32 0 65.5 24t60.5 59.5t44 76.5t17 75q0 37 -15.5 70 t-44 57.5t-67.5 38.5t-86 14q-63 0 -123 -28.5t-106.5 -77t-75 -113t-28.5 -136.5q0 -54 18 -99.5t49.5 -78t74 -50.5t90.5 -18q66 0 132.5 32.5t117.5 95.5zM339 267q-1 -1 -1.5 -2t-1.5 -2l75 213q-39 -10 -74.5 -26t-61.5 -39t-41.5 -53.5t-15.5 -67.5q0 -53 43 -56 q26 0 48 7.5t24 14.5z" />
<glyph unicode="A" horiz-adv-x="615" d="M572 164q22 31 57 31q13 -3 20.5 -9.5t7.5 -22.5q0 -12 -10 -29q-29 -44 -61.5 -78t-65.5 -57.5t-64 -35.5t-58 -12q-39 0 -60.5 20t-28.5 49q-41 -28 -86 -44.5t-87 -16.5q-34 0 -63.5 12t-51 37.5t-34 65.5t-12.5 97q0 125 46.5 223t126.5 169.5t187 115.5t229 62h8 q33 0 33 -32v-5q0 -1 -2 -6v-2l-193 -548v-1q-6 -19 -8.5 -34t-2.5 -26q0 -43 25 -43q28 0 69 29.5t79 89.5v1zM318 140q0 1 0.5 2t0.5 3q1 2 1 3l172 489q-91 -19 -168.5 -53.5t-134.5 -88.5t-89 -127.5t-32 -170.5q1 -145 101 -145q22 0 46.5 8.5t45.5 21.5t36.5 28.5 t20.5 30.5v-1z" />
<glyph unicode="B" horiz-adv-x="651" d="M222 697q8 20 24 32.5t36 12.5q31 0 32 -29q67 26 127 26q74 0 118.5 -37t44.5 -114q0 -78 -36 -133t-91 -88q37 -18 60 -48.5t23 -73.5q0 -29 -12 -68t-38 -78q33 5 58.5 21t40.5 39q19 33 50 36q38 0 38 -33q0 -13 -9 -26h1q-42 -73 -103.5 -103.5t-150.5 -30.5h-13 q-7 0 -13 1q-51 -31 -91.5 -41t-82.5 -10q-52 0 -92 20t-65 63l-6 -17l-6 -18q-9 -20 -24 -32.5t-35 -12.5q-32 0 -32 33q0 5 0.5 8.5t3.5 9.5l-2 -3l61 173l62 174zM207 396h3q40 2 91.5 6.5t98 21t78.5 49t32 89.5q0 42 -26 63t-74 21q-63 -4 -129 -38zM115 194 q10 -5 19 -8l-8 -25l-24 33q1 0 1 0.5t2 0.5q1 0 4 -0.5t6 -0.5zM134 186q87 -35 155 -56.5t121 -28.5q13 13 23.5 28.5t17.5 31.5t10.5 30.5t3.5 25.5q0 30 -21 47.5t-54 26t-73.5 10.5t-79.5 2q-21 -2 -33 -2.5t-31 -0.5zM262 44q20 0 40 4t39 13l7 -48q-46 8 -102.5 24.5 t-124.5 44.5l32 32q11 -29 38.5 -48.5t70.5 -21.5z" />
<glyph unicode="C" horiz-adv-x="511" d="M554 556q0 -7 -6.5 -17.5t-15.5 -20t-19.5 -16.5t-18.5 -7q-26 0 -33 28l2 -4q-23 62 -56 95t-76 33q-33 0 -67 -20t-65 -56t-57.5 -85.5t-44.5 -107.5q-14 -48 -21.5 -91t-7.5 -76q0 -84 39 -126t106 -42q32 0 67 9t69.5 26t67.5 41t61 54q11 11 19 17t21 6 q17 0 27 -9.5t10 -26.5q0 -19 -19 -38v1q-38 -40 -81.5 -71.5t-89 -54t-91 -34.5t-87.5 -12q-100 0 -155.5 59t-55.5 177q0 64 15.5 130t42.5 127.5t64 115.5t79 94t88 63.5t92 23.5q69 0 117.5 -45t78.5 -130z" />
<glyph unicode="D" horiz-adv-x="952" d="M793 536q-5 -1 -8.5 -1.5t-8.5 -1.5l-6 21l24 -17q-1 0 -1.5 -0.5t-2.5 -0.5h3zM568 578q-11 -8 -22 -21q-13 15 -18 35zM660 524q-45 0 -72.5 9t-41.5 24q-17 -20 -32 -47t-29 -57.5t-27 -63.5l-25 -66l-43 -109q-22 -56 -46 -100l9 -4l9 -3q62 -24 125 -44.5t121 -20.5 q37 0 70.5 14.5t59 53t40.5 106t15 173.5q0 45 -4.5 80t-12.5 64q-59 -9 -116 -9zM349 333l34 93q18 46 40 87.5t49 77t63 61.5q10 19 27 36t37 29.5t43 19.5t47 7q43 0 84.5 -23t71.5 -84q38 10 63 22t37 19q8 5 10 7.5t16 2.5q36 0 36 -35q0 -14 -11.5 -28t-30 -27 t-43 -24t-49.5 -19q7 -30 10.5 -64t3.5 -76q0 -141 -25 -231.5t-66.5 -143t-96.5 -72.5t-115 -20q-33 0 -68 6.5t-70 17t-70 23.5l-69 26q-11 5 -15 5.5t-15 4.5q-21 -15 -48.5 -28.5t-56 -23.5t-56.5 -16t-50 -6q-90 0 -90 68q0 33 12.5 60t32.5 46.5t44.5 30t47.5 10.5 q35 0 72 -6.5t83 -22.5q23 42 42 91zM106 50h2q2 0 4 1q17 2 34 5.5t33 9.5q-24 8 -44.5 12.5t-35.5 4.5q-17 0 -24 -9.5t-7 -19.5q0 -5 25 -5h5q3 0 8 1zM756 587q-5 10 -11 17.5t-13 14.5l21 2q10 1 21 3zM687 617h22q11 0 23 2q-17 17 -35.5 24t-35.5 7q-23 0 -33.5 -6 t-10.5 -9q0 -6 15.5 -12t54.5 -6z" />
<glyph unicode="E" horiz-adv-x="517" d="M535 614q0 -2 0.5 -2.5t0.5 -2.5q0 -7 -6.5 -17.5t-15.5 -20t-19.5 -16.5t-18.5 -7q-20 0 -31 20q-15 32 -52.5 55t-87.5 24q-27 -2 -50 -11.5t-40 -27.5t-26.5 -43t-9.5 -56q0 -54 48 -82t151 -33q26 -5 26 -33q0 -14 -6.5 -25t-15.5 -18.5t-19.5 -12t-18.5 -4.5 q-17 0 -31.5 0.5t-26.5 1.5q-10 1 -17.5 1.5t-15.5 0.5q-42 0 -72.5 -5t-52 -17t-35.5 -32.5t-23 -51.5q-2 -8 -2 -19q0 -24 15.5 -48t43 -43t65.5 -31t82 -12q52 0 106 28.5t101 92.5q21 28 47 28q36 0 36 -34q0 -13 -12 -31q-35 -48 -74 -81.5t-79 -55t-80 -31t-78 -9.5 q-48 0 -95.5 14.5t-85.5 41t-61.5 63.5t-23.5 82q0 25 7 46q21 64 56.5 108t86.5 66q-40 43 -40 109q0 57 22.5 104.5t58.5 81t80.5 52.5t88.5 19q33 0 63 -9t56 -24.5t46 -36.5t32 -45z" />
<glyph unicode="F" horiz-adv-x="862" d="M498 744q66 0 129 -18.5t114 -49.5l4 -1q46 -29 94 -29q88 0 167 77q19 19 39 19q12 0 24 -12t12 -24q0 -18 -22 -40q-58 -55 -119.5 -84t-127.5 -29q-38 0 -73 11q-16 -59 -32 -109t-32 -93q23 -1 44.5 -1t42.5 -1q29 -5 29 -33q0 -13 -7 -24t-17 -19.5t-20.5 -13 t-17.5 -4.5l-92 2q-22 -47 -41 -80t-39 -62q37 -5 61 -5.5t47 -0.5q132 0 156 41l-1 -1q19 35 52 35q35 0 35 -33q0 -11 -1.5 -12t-3.5 -5v-3q-71 -115 -268 -115q-36 0 -73 3t-79 8q-39 -35 -86 -55t-93 -20q-152 0 -320 199l1 -2q-4 3 -6.5 10t-2.5 15q0 7 5.5 17t14 19 t19 15.5t20.5 6.5h8q128 -38 233.5 -64t193.5 -40q24 30 42 61t37 71l-61 2l-60 2q-35 0 -35 32q0 14 8 25t18.5 19t20.5 12.5t15 4.5l133 -4q18 50 37 109.5t37 130.5q-42 22 -90 34t-99 12q-50 0 -89.5 -13t-68.5 -39q-18 -18 -37 -18q-35 0 -35 38q0 11 7 21.5t18 20.5 q48 37 110 60.5t121 23.5zM327 55q15 0 30 4q-66 12 -145 33q60 -37 115 -37zM378 65q11 3 21 9.5t21 15.5l13 -44q-18 2 -37 5l-39 8q5 1 10 2.5t10 3.5h1z" />
<glyph unicode="G" horiz-adv-x="1013" d="M973 162q19 33 51 33q35 0 35 -32q0 -15 -10 -29v1q-66 -108 -264 -108q-35 0 -73.5 2t-80.5 9q-43 -38 -85.5 -56t-89.5 -18q-44 0 -91.5 16t-95.5 52q-59 -29 -123 -49t-133 -28q-38 0 -38 32q0 25 16.5 40t33.5 19q96 9 176 44q-16 15 -32 33l-34 38l1 -2 q-10 10 -10 25q0 10 7 20.5t16 19.5t19 14.5t16 5.5q1 0 4 -0.5t6 -0.5l90 -26q40 -12 83 -23q33 29 62 60.5t55 68.5q-28 19 -42.5 56t-14.5 88q0 54 12.5 103.5t34.5 87.5t52.5 60.5t65.5 22.5q45 0 67.5 -31.5t22.5 -91.5q0 -50 -15 -102.5t-39 -103.5q35 14 77 45.5 t103 89.5l-3 -2q5 7 17.5 13.5t24.5 6.5q33 0 33 -32q0 -2 -0.5 -4.5t-0.5 -5.5q-38 -134 -78.5 -231.5t-91.5 -165.5q33 -4 59 -5t48 -1q130 0 157 42zM480 56q17 0 32 3l-70 15q-37 8 -75 18h-1q28 -17 58.5 -26.5t55.5 -9.5zM585 46q-17 2 -35.5 5.5t-37.5 7.5 q30 6 61 31zM322 104q-1 0 -3 0.5t-3 0.5l-37 9q-18 5 -29 9l26 42q7 -7 8.5 -9.5t13.5 -12.5q1 1 1.5 1t1.5 1q2 1 4.5 2.5t5.5 3.5zM414 183l22 -6l22 -6q-8 -8 -17 -15.5t-17 -15.5zM567 306q-26 -38 -52.5 -71.5t-56.5 -63.5q45 -11 85 -19t77 -13q34 47 67 111t62 145 q-54 -42 -99.5 -63.5t-82.5 -25.5zM525 391q3 6 6.5 12t6.5 13q7 -10 16 -13zM521 494q0 -26 4 -46.5t13 -31.5q23 47 37 92.5t14 85.5q0 27 -6.5 40.5t-16.5 13.5q-11 0 -19.5 -14t-14 -36.5t-8.5 -50t-3 -53.5z" />
<glyph unicode="H" horiz-adv-x="747" d="M40 569q-18 -13 -33 -13q-32 0 -32 35q0 29 30 49v-1q86 60 144 86.5t97 26.5q51 0 74.5 -32.5t23.5 -90.5q0 -50 -16 -119t-41 -145q47 -18 81 -61t55 -109l88 251l89 251q8 20 24 32.5t36 12.5q32 0 32 -32v-6q0 -4 -2 -8l-201 -568q35 -7 72 -7q45 0 84.5 13t71.5 42 h-1q20 20 39 20q12 0 24 -9.5t12 -26.5q0 -18 -22 -40q-52 -49 -109.5 -69.5t-125.5 -20.5q-38 0 -77 6l-8 -20q-3 -9 -6 -20q-8 -17 -22.5 -29t-34.5 -12q-33 0 -33 34v16q0 29 -3 59q-42 15 -79 34.5t-67 40.5q-7 -16 -12 -30.5t-10 -27.5l-22 -57q-9 -24 -18.5 -39 t-21 -22.5t-28.5 -7.5q-33 0 -33 32q0 6 0.5 9.5t2.5 7.5l21 50q6 17 12.5 33t12.5 33l13 37l15 37q-20 20 -29.5 41t-9.5 39q0 21 9.5 37t24.5 28t33 20t35 13q22 69 37 128.5t15 101.5q0 55 -31 55q-26 0 -69 -21t-112 -68zM263 294q-2 -6 -5 -12.5t-5 -12.5 q-5 4 -9.5 5.5t-9.5 3.5zM316 192q-13 24 -29.5 45t-33.5 32l-2 -6l-2 -6q-2 -4 -3.5 -9t-3.5 -8q32 -25 74 -48zM165 270l-1 -1q0 2 2 6l5 15l8 20v3v-1q1 1 1 2t1 3l24 -33h-6q5 -7 6 -7z" />
<glyph unicode="I" horiz-adv-x="806" d="M46 279q38 -18 82 -33.5t87.5 -27t83.5 -18t70 -6.5h11q1 18 4 36.5t9 42.5t16 55.5t26 76.5q20 58 48 117t61.5 107.5t72 79.5t80.5 32q43 0 63 -28t20 -79q0 -47 -19 -119t-54.5 -152.5t-87.5 -160t-118 -142.5q18 -19 55 -19q25 0 53 9.5t55.5 27t54 41t50.5 51.5 q11 13 21 18t21 7q38 0 38 -34q0 -14 -14 -34q-32 -40 -70.5 -73t-79 -56t-81 -36t-75.5 -13q-36 0 -63 11t-47 35q-35 -20 -69 -29.5t-68 -9.5q-44 0 -87.5 17t-83.5 49t-73.5 77t-56.5 101q-5 5 -5.5 9t-0.5 11q0 10 6.5 20.5t16 19.5t20 14.5t17.5 5.5q1 0 5 -0.5t6 -0.5 zM427 148q-9 -23 -21 -33t-26 -13q-2 8 -2 16v19v10q0 2 0.5 4.5t0.5 5.5zM386 70q-5 15 -6 32q-8 -2 -16 -2h-17h-4q-39 0 -92.5 9.5t-107.5 25.5q38 -42 78.5 -64.5t85.5 -22.5q20 0 38 5t41 17zM440 110l16 15l16 16q1 -11 3.5 -21.5t5.5 -20.5zM471 164v-12q0 -6 1 -11 q47 51 86.5 115t68 128.5t44.5 122.5t16 96q0 43 -15 45q-19 -3 -39 -26.5t-40 -59t-37.5 -78t-32.5 -83t-25 -75t-14 -52.5h1q-14 -70 -14 -110z" />
<glyph unicode="J" horiz-adv-x="609" d="M404 -49q11 -11 11 -25q0 -8 -6.5 -18.5t-15.5 -19.5t-19.5 -15.5t-18.5 -6.5q-14 0 -31 12t-32 26l-4 -12q-2 -6 -4 -13q-26 -74 -55 -124.5t-58.5 -82t-57 -45.5t-50.5 -14q-42 0 -64.5 31.5t-22.5 84.5q0 36 11.5 72.5t38.5 71t70.5 65.5t108.5 57q-77 90 -109 179.5 t-32 172.5q0 73 24.5 139t67 118.5t101 88t127.5 48.5q5 1 10 1h13q52 0 87 -32.5t35 -95.5q0 -40 -16 -84l-43 -122l-40 -118l-42 -118l-43 -123q33 13 67 29t65 32.5t57 33.5t43 33h-1q19 19 39 19q35 0 35 -36q0 -22 -28.5 -48t-70 -51.5t-89 -48.5t-86.5 -39l9 -8l9 -7 q-11 10 -11.5 11.5t3 -2t9 -8.5t7.5 -6zM165 304q18 -113 102 -219l79 224l78 224q5 16 8 30.5t3 25.5q0 30 -15.5 45t-38.5 15q-59 0 -101.5 -30t-69.5 -73.5t-39.5 -91t-12.5 -82.5q0 -37 6 -67zM202 -96q-77 -32 -105.5 -69.5t-28.5 -84.5q0 -19 6.5 -31.5t14.5 -12.5 q9 0 19.5 9t24 30t29.5 55t34 84l-1 -1z" />
<glyph unicode="K" horiz-adv-x="716" d="M40 569q-18 -13 -33 -13q-32 0 -32 35q0 29 30 49v-1q86 60 144 86.5t97 26.5q50 0 74 -31.5t24 -88.5q0 -38 -9.5 -85.5t-24.5 -102.5q81 51 168.5 121.5t178.5 157.5h-1q19 19 38 19q36 0 36 -36q0 -19 -21 -40l-108 -100q-52 -46 -103 -85.5t-101.5 -74.5t-104.5 -67 q12 -59 31 -112t45 -93t57.5 -63.5t69.5 -23.5t84 28.5t102 95.5q22 24 43 24q36 0 36 -34q0 -13 -16 -35q-147 -171 -275 -171q-79 0 -141 63t-101 180l-29 -77l-29 -74q-2 -5 -4.5 -12t-4.5 -12v1q-6 -17 -11.5 -29.5t-12.5 -21.5t-17.5 -13.5t-26.5 -4.5q-33 0 -33 32 q0 6 0.5 9.5t2.5 7.5l21 50l59 155q30 79 54 152t39 135.5t15 105.5q0 26 -6.5 40.5t-23.5 14.5q-26 0 -69 -21t-112 -68z" />
<glyph unicode="L" horiz-adv-x="766" d="M466 443q-75 3 -151.5 23t-157.5 69q-9 3 -15 11.5t-6 19.5q0 7 6.5 17.5t16 20.5t19.5 16.5t17 6.5q2 0 6.5 -0.5t13.5 -5.5q76 -48 151.5 -66.5t144.5 -19.5q30 49 64.5 87.5t70.5 65.5t71 41t65 14q90 0 90 -96q0 -36 -27 -69.5t-71 -60.5t-100.5 -46t-116.5 -26 q-5 -12 -10 -27.5t-12 -33.5l-25 -70q-13 -38 -30.5 -77.5t-40 -79t-50.5 -74.5q34 -15 73 -26.5t74 -11.5q24 0 47.5 5.5t47 19t47.5 36.5t48 58q22 31 56 31q13 -3 20.5 -9.5t7.5 -22.5q0 -14 -11 -32q-68 -98 -140 -138t-144 -40q-53 0 -106.5 16.5t-98.5 37.5 q-39 -25 -80.5 -38.5t-85.5 -13.5q-20 0 -49 7t-55.5 19.5t-45.5 31.5t-19 43q0 26 18 52q26 37 57.5 57t66.5 20q16 0 38.5 -5.5t46 -14l46.5 -17.5l42 -18q7 -3 11 -4.5t13 -5.5q23 26 41.5 58.5t33.5 66t27 65.5l21 58l6 16q3 7 5 13t5 12.5t5 12.5l4 10zM561 537 q27 2 52 6l-15 -21l-14 -23zM757 649q-28 0 -67 -26.5t-77 -79.5q34 6 64 15.5t52.5 20.5t36 23.5t13.5 24.5q0 22 -22 22zM255 34l-21 10l-19 9q23 7 46 21l2 -43l-8 4v-1zM68 81q0 -5 10.5 -11t26.5 -11t33 -8.5t31 -3.5q23 0 46 6q-35 17 -66 28.5t-49 11.5q-8 0 -20 -3 t-12 -9z" />
<glyph unicode="M" horiz-adv-x="1069" d="M40 569q-18 -13 -33 -13q-32 0 -32 35q0 29 30 49v-1q86 60 144 86.5t97 26.5q42 0 64.5 -20.5t29.5 -62.5q66 44 114 64t83 20q81 0 94 -83q68 45 114.5 63.5t81.5 18.5q51 0 75 -32t24 -92q0 -54 -18 -127.5t-45 -154.5q-27 -80 -43 -143.5t-16 -105.5q0 -23 5 -36 t17 -13q26 0 78 31t137 101l-2 -1q17 17 36 17q35 0 35 -36q0 -10 -7 -22t-18 -22q-102 -82 -173 -121t-114 -39q-48 0 -67.5 30t-19.5 84q0 50 17 122.5t46 156.5q25 75 41.5 141t16.5 110q0 27 -7 41.5t-25 14.5q-25 0 -65.5 -18t-103.5 -62q-6 -47 -23.5 -111t-41.5 -135 t-52 -144l-54 -139q-3 -7 -5.5 -13.5t-4.5 -12.5q-13 -32 -24.5 -49t-42.5 -17q-33 0 -33 31q0 10 5 19q5 11 9.5 24.5t9.5 24.5l60 154q30 79 54 151.5t39 135t15 106.5q0 26 -6.5 41t-24.5 15q-24 0 -66 -20t-105 -63q-9 -49 -28 -114.5t-43 -137.5l-50 -143l-50 -132 q-2 -7 -5 -15t-3 -6q-6 -17 -11.5 -30.5t-13 -22.5t-18 -13.5t-26.5 -4.5q-33 0 -33 32q0 6 0.5 9.5t2.5 7.5l21 50l59 155q30 79 54 152t39 135.5t15 105.5q0 26 -6.5 40.5t-23.5 14.5q-26 0 -69 -21t-112 -68z" />
<glyph unicode="N" horiz-adv-x="847" d="M817 179q9 9 19 13t18 4q34 0 34 -37q0 -11 -7 -22t-18 -21q-102 -82 -172.5 -121t-114.5 -39q-50 0 -68.5 30t-18.5 84q0 50 17 122.5t46 156.5q25 75 42 141t17 111q0 32 -9.5 45t-29.5 13q-23 0 -53 -13t-61 -32.5t-61 -41.5l-52 -38q-8 -5 -15 -11 q-11 -48 -28.5 -106t-39.5 -121l-46 -127l-47 -122q-2 -7 -5 -15t-3 -6q-6 -17 -11.5 -30.5t-13 -22.5t-18 -13.5t-26.5 -4.5q-33 0 -33 32q0 6 0.5 9.5t2.5 7.5l21 50l47 124l46 128l39 121.5t28 106.5q0 12 1 21.5t3 18.5q3 16 3 26q0 57 -30 57q-26 0 -69 -21t-112 -68 l1 1q-18 -13 -33 -13q-32 0 -32 35q0 29 30 49v-1q86 60 144 86.5t97 26.5q51 0 73.5 -31.5t23.5 -91.5l59 42q32 22 65 40t65.5 30t62.5 12q55 0 82 -28t27 -99q0 -25 -6 -57.5t-15 -70t-21 -77.5l-23 -80l-21 -73q-11 -35 -19 -67t-12.5 -59t-4.5 -45q0 -23 5 -36t17 -13 q28 0 79.5 31t135.5 101z" />
<glyph unicode="O" d="M233 549q-12 -9 -21 -9q-2 -1 -2.5 -1t-2.5 -1l-6 12q-3 6 -5 12zM360 464q-46 0 -88.5 20t-64.5 54q-19 -8 -43 -40t-45.5 -77.5t-36 -99.5t-14.5 -106q0 -75 28.5 -121.5t85.5 -46.5h9q38 0 70.5 24t58.5 63t46 90t33 105q9 39 9 84q0 14 -1 27t-3 27 q-11 -2 -21.5 -2.5t-22.5 -0.5zM86 524q24 36 50 60t52 37q3 27 15 49.5t29 38.5t36.5 25t38.5 9q26 0 51 -13t47 -35t40.5 -52t31.5 -63q54 25 106 83h-1q20 23 41 23q36 0 36 -36q0 -8 -4 -18t-13 -19v1q-72 -77 -144 -114q2 -14 3 -30t1 -31q0 -53 -12 -109t-34.5 -110 t-53 -102t-68 -84.5t-80.5 -57.5t-89 -21q-97 0 -143.5 59.5t-46.5 174.5q0 50 9.5 97.5t25.5 90.5t35.5 80t40.5 67zM390 525q-4 8 -7 16.5t-8 16.5q5 -1 9 -1h8h4q2 0 7 1q2 0 5 0.5t5 0.5zM280 632q0 -28 27.5 -49t67.5 -25q-20 40 -45 66t-48 26q-1 0 -1.5 -5.5 t-0.5 -12.5z" />
<glyph unicode="P" horiz-adv-x="595" d="M282 742q28 0 31 -24q43 10 79 14t66 4q56 0 95.5 -12.5t65 -33.5t37.5 -49.5t12 -60.5q0 -45 -26.5 -96t-74 -94.5t-114 -72t-145.5 -28.5q-30 0 -64 4t-68 17l-56 -156l-55 -156q-8 -19 -23 -31t-35 -12q-32 0 -32 33q0 5 0.5 8.5t3.5 9.5l-2 -3l66 187l66 187l57 160 l56 160q8 20 24 32.5t36 12.5zM512 631q-17 5 -37 8.5t-43 3.5q-29 0 -67 -5.5t-78 -14.5l-38 -107l-40 -109q35 -13 65 -18.5t61 -5.5q41 0 78 10.5t66.5 28t51.5 40t33 46.5q1 5 2.5 10.5t2.5 9.5l4 14q2 6 2 11q0 30 -17.5 48.5t-46.5 29.5h1z" />
<glyph unicode="Q" horiz-adv-x="675" d="M206 533q-23 -24 -42 -24q-17 0 -27 10.5t-10 24.5q0 13 16 34q68 81 141 123t139 42q43 0 77 -18t58 -49t37 -72.5t13 -88.5q0 -57 -15.5 -117.5t-43 -119.5t-65 -113t-81.5 -96q14 -8 32 -13.5t37 -5.5q21 0 42.5 8.5t42.5 23.5t40.5 36t35.5 45q11 15 24 23.5t32 8.5 q30 -5 30 -33q0 -14 -10 -29q-27 -41 -59 -73t-67 -55t-71 -35t-72 -12q-31 0 -61.5 9.5t-63.5 36.5q-45 -26 -91 -37.5t-97 -11.5q-69 0 -110.5 28.5t-41.5 73.5v9q2 22 18.5 44.5t42 41.5t59 31t69.5 12t63 -6t47.5 -16t37 -24t32.5 -29q37 31 68.5 76t54.5 95.5t35.5 103 t12.5 100.5q0 66 -33 106t-80 48h-6q-88 0 -189 -116h-1zM153 47q49 0 97 17q-20 17 -45 27t-67 10q-26 0 -48 -6t-22 -12q0 -16 25 -26t60 -10z" />
<glyph unicode="R" horiz-adv-x="642" d="M282 742q28 0 31 -24q43 10 79 14t66 4q56 0 95.5 -12.5t65 -33.5t37.5 -49.5t12 -60.5q0 -44 -26 -95t-73.5 -94.5t-113 -72t-144.5 -28.5q-22 0 -44 1.5t-45 6.5q15 -51 35.5 -96t46 -78t56 -52.5t63.5 -19.5q40 0 83.5 27t98.5 92q22 24 43 24q36 0 36 -34 q0 -13 -16 -35q-141 -166 -270 -166q-41 0 -78.5 18.5t-70 52t-59.5 80.5t-47 104l-39 -109l-39 -108q-8 -19 -23 -31t-35 -12q-32 0 -32 33q0 5 0.5 8.5t3.5 9.5l-2 -3l66 187l66 187l57 160l56 160q8 20 24 32.5t36 12.5zM512 631q-17 5 -37 8.5t-43 3.5q-29 0 -67 -5.5 t-78 -14.5l-38 -107l-40 -109q35 -13 65 -18.5t61 -5.5q41 0 78 10.5t66.5 28t51.5 40t33 46.5q1 5 2.5 10.5t2.5 9.5l4 14q2 6 2 11q0 30 -17.5 48.5t-46.5 29.5h1z" />
<glyph unicode="S" horiz-adv-x="1013" d="M972 160q19 35 52 35q35 0 35 -32q0 -15 -10 -29v1q-27 -45 -75.5 -66t-119.5 -21q-30 0 -69 3.5t-79 12.5q-16 -24 -37.5 -44.5t-46 -35t-51.5 -23t-54 -8.5q-51 0 -107.5 23t-110.5 65q-138 -68 -286 -86q-38 0 -38 32q0 25 16.5 40t33.5 19q57 5 107 18t101 36 q-28 28 -54.5 59t-53.5 66l2 -3q-10 10 -10 25q0 10 6.5 20.5t15.5 19t19.5 14t18.5 5.5h8l137 -42q63 -19 126 -36q57 44 102 89.5t84 93.5q-10 40 -14.5 69.5t-5.5 43.5v8q0 40 13.5 77.5t36 66t51 46.5t58.5 19q73 0 73 -77q0 -23 -8.5 -52.5t-23.5 -62.5t-35 -67.5 t-44 -67.5q7 -37 11.5 -76t4.5 -83q0 -24 -2 -49t-7 -48q48 -9 83.5 -13.5t64.5 -4.5q69 0 83 21zM656 74q-8 2 -17 3.5t-18 3.5q5 6 9 13t8 15zM543 46q26 0 45 8t33 27q-39 8 -84 20l-95 26l-10 -9l-8 -6t-9.5 -6.5t-14.5 -8.5q37 -25 73.5 -38t69.5 -13zM332 150l4 2l4 2 q-5 2 -10 3.5t-11 3.5q3 -3 6.5 -5.5t6.5 -5.5zM396 140q-15 4 -20.5 5t-9 2t-8.5 2t-18 5l24 15q13 8 24 16zM495 216q12 -4 23 -7l22 -6l-36 -30zM651 312l-54 -55l-57 -54l59 -16q26 -7 57 -13q2 12 2 25v26q0 22 -2 43t-5 44zM722 476q1 -4 1 -6t1 -4l-45 5l6 10 q4 6 7 9l-3 -5q6 9 11 18l11 19l4 -20l6 -24zM707 558q0 -13 4 -36q20 34 31 63.5t11 50.5q0 10 -6 12q-9 -2 -16.5 -11.5t-12.5 -22.5t-8 -28t-3 -28z" />
<glyph unicode="T" horiz-adv-x="862" d="M314 598q-18 -18 -37 -18q-35 0 -35 38q0 11 7 21.5t18 20.5q48 37 110 60.5t121 23.5q67 0 130.5 -18.5t115.5 -50.5q46 -29 95 -29q88 0 167 77q19 19 39 19q12 0 24 -12t12 -24q0 -18 -22 -40q-58 -55 -119.5 -84t-127.5 -29q-38 0 -73 11q-41 -150 -86 -256t-96 -182 q37 -5 61 -5.5t47 -0.5q132 0 156 41l-1 -1q19 35 52 35q35 0 35 -33q0 -11 -1.5 -12t-3.5 -5v-3q-71 -115 -268 -115q-36 0 -73 3t-79 8q-39 -35 -86 -55t-93 -20q-152 0 -320 199l1 -2q-4 3 -6.5 10t-2.5 15q0 7 5.5 17t14 19t19 15.5t20.5 6.5h8q128 -38 233.5 -64 t193.5 -40q53 69 101 186t90 279q-85 46 -188 46q-50 0 -89.5 -13t-68.5 -39zM327 55q15 0 30 4q-66 12 -145 33q60 -37 115 -37zM378 65q11 3 21 9.5t21 15.5l13 -44q-18 2 -37 5l-39 8q5 1 10 2.5t10 3.5h1z" />
<glyph unicode="U" horiz-adv-x="814" d="M40 594q-18 -13 -33 -13q-32 0 -32 35q0 29 30 49l-1 -1q65 48 112 68.5t80 20.5q45 0 66 -30.5t21 -85.5q0 -48 -17 -122.5t-45 -156.5q-26 -78 -42.5 -144t-16.5 -111q0 -32 10 -44.5t30 -12.5q21 0 47 11.5t54.5 28.5t56.5 37l51 38l23 18q8 6 17 12q10 53 28 115 t41 129.5t50 137.5l53 138q8 17 23 28.5t34 13.5q18 0 25.5 -7.5t7.5 -24.5q0 -5 -1 -9q0 -2 -0.5 -3t-0.5 -2q-36 -89 -68.5 -178.5t-56.5 -169t-38.5 -144.5t-14.5 -104q0 -30 7.5 -46t25.5 -16q29 0 83.5 30.5t140.5 101.5q19 15 34 15q35 0 35 -36q0 -23 -26 -44 q-105 -85 -176.5 -122.5t-117.5 -37.5q-100 0 -100 130l-6 -4l-7 -5h1l-60 -43q-32 -22 -64 -39.5t-64 -29t-62 -11.5q-55 0 -82 27.5t-27 95.5q0 54 17 125.5t46 158.5q26 80 42.5 145.5t16.5 107.5q0 43 -22 43q-19 0 -50 -15.5t-79 -48.5z" />
<glyph unicode="V" horiz-adv-x="662" d="M40 594q-18 -13 -33 -13q-32 0 -32 35q0 29 30 49l-1 -1q65 48 112 68.5t80 20.5q45 0 66 -30.5t21 -85.5q0 -48 -17 -122.5t-45 -156.5q-26 -78 -42.5 -144t-16.5 -111q0 -33 10.5 -45t33.5 -12q30 0 62 12t62 31t55.5 43t41.5 47q24 40 42 85t30.5 93.5t21.5 98 t17 98.5l10 68q6 34 13 67q2 7 6.5 16t13 17t20 13.5t26.5 5.5q39 -16 82 -16q18 0 38 5l43 9q5 2 7.5 2.5t5.5 0.5q32 0 32 -32q0 -25 -17.5 -40t-42 -23.5t-50.5 -11.5t-42 -3h-21q-10 0 -21 2l-4 -28l-4 -29q-13 -83 -29 -167t-48 -160.5t-86 -142t-142 -111.5 q-38 -20 -77.5 -31t-74.5 -11q-54 0 -81 27.5t-27 95.5q0 54 17 125.5t46 158.5q26 80 42.5 145.5t16.5 107.5q0 43 -22 43q-19 0 -50 -15.5t-79 -48.5z" />
<glyph unicode="W" horiz-adv-x="946" d="M40 594q-18 -13 -33 -13q-32 0 -32 35q0 29 30 49l-1 -1q65 48 112 68.5t80 20.5q45 0 66 -30.5t21 -85.5q0 -48 -17 -122.5t-45 -156.5q-26 -78 -42.5 -144t-16.5 -111q0 -32 10.5 -44.5t30.5 -12.5q40 0 74 32t61 78.5t48 98t35 89.5l1 2q1 3 1.5 6t1.5 5v1l120 338v-1 q6 20 22.5 33.5t37.5 13.5q32 0 32 -32v-6q0 -4 -2 -8l-120 -338v-1q-2 -4 -3 -9q-25 -76 -40 -138t-15 -107q0 -33 11 -45t32 -12q46 0 86.5 32.5t72.5 79t54 97t33 87.5q13 49 22.5 103.5t17.5 108.5l10 67q5 34 12 68q2 12 9.5 21.5t16.5 16.5t18 10.5t15 3.5h8 q39 -16 82 -16q18 0 38 5l43 9q5 2 7.5 2.5t5.5 0.5q32 0 32 -32q0 -25 -17.5 -40t-42 -23.5t-50.5 -11.5t-42 -3q-10 0 -21.5 0.5t-19.5 1.5q-3 -17 -5.5 -34.5t-5.5 -34.5q-8 -51 -17.5 -104t-23.5 -106.5t-35.5 -105.5t-52.5 -101q-24 -36 -56.5 -71t-68.5 -62.5t-75 -44 t-77 -16.5q-49 0 -76.5 22t-32.5 76q-36 -43 -80.5 -71t-96.5 -28q-57 0 -88 26t-31 98q0 54 17 125.5t46 158.5q26 80 42.5 145.5t16.5 107.5q0 43 -22 43q-19 0 -50 -15.5t-79 -48.5z" />
<glyph unicode="X" horiz-adv-x="773" d="M83 591q-13 -19 -25 -25t-27 -6q-34 0 -34 33q0 13 11 30q42 60 80 89.5t77 29.5q37 0 70 -22.5t62 -63.5t56.5 -97.5t54.5 -124.5l151 147l151 147h-1q20 20 39 20q35 0 35 -36q0 -20 -21 -41l-324 -315l45 -112q23 -54 46.5 -96.5t48 -69t48.5 -26.5q22 0 47 24.5 t57 86.5q9 17 21.5 27t32.5 10q34 0 34 -32q0 -2 -1.5 -8t-5.5 -15q-27 -53 -52 -89.5t-50 -59.5t-49.5 -33t-50.5 -10q-40 0 -73.5 25.5t-63.5 69.5t-57.5 103.5t-54.5 128.5l-156 -150l-156 -151h1q-20 -20 -39 -20q-35 0 -35 36q0 20 21 40v-1l166 162l167 163 q-21 54 -43.5 105.5t-45 91.5t-45.5 64.5t-46 24.5q-14 0 -30 -12.5t-36 -41.5z" />
<glyph unicode="Y" horiz-adv-x="728" d="M394 45l-22 -14l-21 -14q7 3 14.5 5.5t15.5 5.5l8 2q1 5 5 15zM625 696q7 17 23 31.5t37 14.5q32 0 32 -32v-6q0 -4 -2 -8l-223 -630q29 11 58.5 24t56.5 27t50.5 29t39.5 31h-1q19 19 39 19q35 0 35 -36q0 -15 -16.5 -34t-41.5 -37.5t-54 -35.5t-54 -28l-77 -33 q-34 -15 -71 -28l-12 -30q-6 -15 -11 -31q-27 -74 -56 -124.5t-57.5 -81.5t-56 -45t-50.5 -14q-21 0 -37.5 9t-27.5 25t-17 36t-6 43q0 57 28.5 114t98.5 104q-19 -7 -37 -11t-35 -4q-55 0 -83.5 27.5t-28.5 95.5q0 54 17 125.5t46 158.5q26 80 42.5 145.5t16.5 107.5 q0 43 -22 43q-19 0 -50 -15.5t-79 -48.5l1 1q-18 -13 -33 -13q-32 0 -32 35q0 29 30 49l-1 -1q65 48 112 68.5t80 20.5q45 0 66 -30.5t21 -85.5q0 -48 -17 -122.5t-45 -156.5q-26 -78 -42.5 -144t-16.5 -111q0 -32 10.5 -44.5t31.5 -12.5q23 0 53 12.5t61 31t60 39.5l52 36 q4 3 5 3.5t4 2.5zM352 -73q-75 -32 -104.5 -68.5t-29.5 -83.5q0 -17 6 -30.5t16 -13.5q16 0 42.5 39.5t63.5 138.5l-1 -1z" />
<glyph unicode="Z" horiz-adv-x="581" d="M175 542q-19 -17 -37 -17q-35 0 -35 36q0 17 21.5 39.5t50 43.5t57.5 38l43 25q38 19 72.5 29t67.5 10q42 0 75.5 -15.5t57 -43t36.5 -66.5t13 -85q0 -57 -21 -120t-62 -124.5t-102 -116.5t-142 -95q12 -12 20 -28l71 30q38 16 76 34q45 21 73.5 36t49.5 35q22 17 37 17 q35 0 35 -35q0 -9 -6 -19.5t-15 -20.5t-20 -18.5t-21 -14.5l1 1l-21 -13l-27 -15q-14 -8 -29 -15l-26 -14l-83 -38q-43 -20 -84 -35q-2 -14 -7 -29l-11 -35q-26 -71 -55 -121.5t-58 -82.5t-56.5 -46.5t-50.5 -14.5q-42 0 -64.5 31.5t-22.5 84.5q0 33 10 68.5t34 70t64 65.5 t99 55q-10 5 -22 6t-29 1h-8q-4 0 -9 -1q-6 -1 -12.5 -1.5t-14.5 -0.5q-32 0 -32 31q0 23 17 40t33 21q103 27 178 73t124 101.5t72.5 115.5t23.5 114q-2 64 -33.5 101.5t-81.5 37.5q-46 0 -101 -29t-112 -80zM196 -91l4 12q2 6 4 11q-7 -3 -12 -6t-10 -5l2 2l-8 -4l-6 -3 q-29 -13 -48.5 -30.5t-31.5 -36.5t-17 -38t-5 -36t5.5 -30.5t15.5 -13.5q9 0 19.5 9t24 30t29.5 55t34 84z" />
<glyph unicode="[" horiz-adv-x="393" d="M490 741q34 0 34 -32q0 -13 -6.5 -24t-16 -19.5t-20 -13t-17.5 -4.5h-128l-64 -182l-62 -176l-62 -176l-64 -181h147q35 0 35 -33q0 -14 -7 -25t-16.5 -19t-20 -12.5t-17.5 -4.5l-196 1q-34 0 -34 34v10q0 4 4 9l141 400l142 400q2 12 9.5 21t16.5 15t18 9t14 3h170z" />
<glyph unicode="\" horiz-adv-x="100" d="M-25 680q0 7 5 17.5t13.5 20.5t19.5 17t23 7q28 0 33 -29l51 -811q0 -7 -5 -18t-13 -21t-19 -17.5t-24 -7.5q-31 0 -32 33z" />
<glyph unicode="]" horiz-adv-x="399" d="M9 -161q-35 0 -35 32q0 15 7 26.5t16.5 19.5t20 12t17.5 4h128l64 181l62 175l62 176l64 182q-37 0 -74 0.5t-74 0.5q-35 0 -35 32q0 12 6 23t15 19.5t20 13.5t20 5h196q34 0 34 -34q0 -5 -0.5 -8.5t-3.5 -9.5l2 3l-143 -406l-144 -407v1q-25 -41 -56 -41h-169z" />
<glyph unicode="^" horiz-adv-x="508" d="M112 307q-19 -14 -33 -14q-33 0 -33 34q0 25 28 50l253 193q21 12 31 12q17 0 28 -16l117 -197q4 -8 4.5 -11.5t0.5 -5.5q0 -7 -6.5 -17.5t-15.5 -20t-19.5 -16t-18.5 -6.5q-19 0 -30 20v-2l-25 42l-23 38l-22 37l-25 42z" />
<glyph unicode="_" horiz-adv-x="384" d="M7 -226q-34 0 -34 32q0 15 6.5 26t16 19t20 12t17.5 4h368q34 0 34 -32q0 -13 -6.5 -24t-16 -19.5t-20 -13t-17.5 -4.5h-368z" />
<glyph unicode="`" horiz-adv-x="183" d="M-17 563l1 -2q-9 7 -9 24q0 7 6.5 17.5t16 20.5t19.5 16.5t17 6.5q3 0 10 -2t15 -8l129 -159q5 -9 5.5 -13t0.5 -6q0 -7 -6.5 -17.5t-15.5 -20t-19 -16t-18 -6.5q-11 0 -17 3.5t-11 11.5l2 -2z" />
<glyph unicode="a" horiz-adv-x="439" d="M403 170q21 25 44 25q36 0 36 -34q0 -16 -15 -34q-28 -33 -59 -64.5t-63 -55.5t-62.5 -38.5t-56.5 -14.5q-20 0 -35.5 8.5t-25.5 22.5q-26 -14 -55 -22t-54 -8q-109 6 -109 123q0 69 31 123t81 94t114.5 65t130.5 34h8q33 0 33 -33q0 -5 -0.5 -8.5t-3.5 -9.5l2 3 l-49 -138l-49 -139q-1 -2 -1 -5q0 -7 3 -11t6 -6q28 6 68 39.5t81 83.5zM158 73l75 216q-40 -11 -75 -27.5t-61 -39.5t-41 -52t-15 -65q2 -32 13.5 -44.5t30.5 -12.5q30 0 50.5 9t22.5 15v1z" />
<glyph unicode="b" horiz-adv-x="539" d="M164 -48q-66 4 -103.5 44t-37.5 118v5q-21 -19 -38 -19t-26.5 13t-9.5 24q0 9 9 21.5t22.5 27.5t30.5 30l31 30q8 34 20 67l25 68q2 7 6 16l9 21q16 42 40.5 97t59 104.5t79.5 83.5t102 34q37 0 62.5 -21t25.5 -59q0 -17 -8 -38q-23 -56 -57.5 -108t-77 -100t-90.5 -93 l-97 -87h-1q-5 -5 -7.5 -7t-7.5 -7q-5 -24 -6.5 -43t-1.5 -34q0 -48 20 -70t57 -25h7q18 3 34.5 22t29 48.5t20.5 66.5t8 76q0 9 -0.5 18t-1.5 18q-1 8 -1.5 19t-0.5 22q0 6 4.5 16t13 19.5t19.5 17t23 7.5t18.5 -6t14.5 -17q0 -15 9 -49t24 -68t33.5 -60t37.5 -26 q4 0 10.5 3.5t14.5 8.5l19 10q9 5 17 5q34 0 34 -36q0 -19 -15 -34.5t-35.5 -27t-40.5 -17.5t-29 -6q-29 0 -55 19t-44 44q-15 -42 -36 -76.5t-47 -58.5t-55.5 -37.5t-59.5 -13.5zM97 297l35 33l34 32q-8 -23 -14.5 -44.5t-12.5 -44.5zM261 565q-35 -66 -57.5 -113.5 t-37.5 -89.5l5 5l62 60q31 30 57.5 60.5t48 63.5t36.5 71v2v3q0 2 2 7q-2 3 -8.5 5.5t-12.5 4.5q-26 -2 -50.5 -21.5t-44.5 -57.5z" />
<glyph unicode="c" horiz-adv-x="464" d="M323 285q0 -1 0.5 -1.5t0.5 -1.5q0 -7 -6.5 -17.5t-15.5 -20t-19.5 -16.5t-18.5 -7q-19 0 -30 20q-30 59 -70 59q-18 0 -38 -12t-36.5 -31.5t-27.5 -44.5t-11 -51q2 -54 38.5 -90t92.5 -36q48 0 109 31t140 110q19 19 40 19q35 0 35 -34q0 -11 -5 -20t-14 -20 q-91 -92 -173 -135.5t-158 -43.5q-45 0 -81.5 15.5t-62.5 41.5t-40 61.5t-14 74.5q0 40 20 85t53 83.5t74.5 63.5t84.5 25q79 0 133 -97v-10z" />
<glyph unicode="d" horiz-adv-x="442" d="M406 170q21 25 44 25q36 0 36 -34q0 -16 -15 -34q-28 -33 -59 -64.5t-63 -55.5t-62.5 -38.5t-56.5 -14.5q-20 0 -35.5 8.5t-25.5 22.5q-26 -14 -55 -22t-54 -8q-109 6 -109 123q0 62 28 112.5t73 89t102.5 65.5t116.5 42l54 156l55 154q8 20 24 32.5t36 12.5q32 0 32 -32 v-6q0 -4 -2 -8l-221 -627q-1 -2 -1 -5q0 -7 3 -11t6 -6q28 6 68 39.5t81 83.5zM161 73l75 216q-40 -11 -75 -27.5t-61 -39.5t-41 -52t-15 -65q2 -32 13.5 -44.5t30.5 -12.5q30 0 50.5 9t22.5 15v1z" />
<glyph unicode="e" horiz-adv-x="460" d="M11 186l21 12l20 10q-2 -11 -2.5 -23t-1.5 -23zM108 300q-14 0 -23.5 -7.5t-16 -20.5t-10.5 -29.5t-6 -34.5q80 49 83 82q-2 5 -10 7.5t-17 2.5zM208 252q-18 -31 -56 -65.5t-99 -69.5q11 -38 41.5 -61t78.5 -23q50 0 114.5 31.5t139.5 109.5q21 21 39 21q17 0 27 -12 t10 -24q0 -19 -20 -39q-98 -98 -183 -138.5t-152 -40.5q-46 0 -82 14.5t-61 40.5t-38 62t-13 79q3 41 11.5 86.5t28 83.5t53 62.5t87.5 24.5q45 0 69.5 -22t24.5 -58q0 -14 -4.5 -29.5t-14.5 -32.5h-1z" />
<glyph unicode="f" horiz-adv-x="405" d="M-53 46q5 15 9 29.5t9 28.5q-15 7 -15 31q0 20 21 41l26 26q23 64 50 129.5t57.5 126t63 113.5t66 92.5t66.5 62t65 22.5q7 0 20 -3.5t25.5 -13t21.5 -27.5t9 -47q0 -41 -28 -94t-77 -115.5t-115 -132.5l-144 -145q-6 -18 -11.5 -31.5t-10 -26.5t-8.5 -26.5t-8 -31.5 q46 7 97.5 20.5t98 30.5t84 36t56.5 36h-1q19 19 39 19q35 0 35 -36q0 -20 -26.5 -43t-67 -45.5t-89.5 -42.5t-95 -34l-30 -7l-45 -9q-12 -3 -24.5 -5t-23.5 -4q49 -41 77 -85t28 -91q0 -42 -12.5 -77.5t-33 -61t-45.5 -39.5t-49 -14q-28 0 -49.5 13.5t-36 37t-22 55 t-7.5 67.5q0 23 4.5 62t18.5 97l-18 9l-34 19q-15 9 -15 27q0 10 7 20t17 18.5t21 14t19 5.5q6 -1 11 -1h12q6 0 2.5 -0.5t4.5 0.5zM57 261l41 41l41 42q-11 -27 -21 -55l-19 -54zM341 654q-18 -3 -43 -29t-52 -68.5t-54.5 -97.5t-52.5 -115l69 73q34 37 61 69.5t46 60 t25 47.5v-1q3 11 5 20.5t2 20.5q0 8 -0.5 14t-2.5 6h-3zM5 -84q-3 -11 -4.5 -20.5t-3.5 -20.5q-8 8 -16 14l-16 14zM59 -234q0 24 -17 52.5t-45 56.5q-6 -38 -6 -82q0 -42 14 -69.5t33 -27.5h2q6 4 12.5 22.5t6.5 47.5z" />
<glyph unicode="g" horiz-adv-x="463" d="M428 173q23 23 42 23q36 0 36 -36q0 -14 -17 -34.5t-44.5 -44.5t-61.5 -49l-68 -51l-70 -52q-34 -25 -62 -48l-44 -118q-21 -52 -41.5 -87.5t-43.5 -54.5t-51 -19q-19 0 -34 7.5t-25 19.5t-15.5 26t-5.5 27q0 25 14 53.5t38 59t57.5 62t72.5 62.5q2 6 3.5 9.5t3.5 9.5 q3 10 3.5 11.5t0 1t0 1t4.5 11.5q-18 -6 -31 -7t-28 -1q-109 6 -109 126q0 67 31 120.5t81.5 93t114.5 64.5t130 35h8q33 0 33 -32v-4q0 -2 -2 -7v-2l-97 -276l-8 -24q-2 -6 -3 -8.5t-2 -6.5t-7 -18l20 15l19 15l97 74q44 33 61 52v1zM21 -302q4 0 12.5 19.5t19.5 49.5 q-18 -19 -28 -34t-10 -25q0 -2 1.5 -6t4.5 -4zM126 -166l-40 -34q-19 -17 -33 -33q8 21 16 45l17 49zM159 66q0 1 0.5 2t0.5 3l1 1zM88 48q27 0 47 8t25 15q0 2 2 4q1 1 1 2q2 4 2.5 7.5t2.5 7.5l-1 -1l18 53l17 46q9 22 17 46l19 53q-41 -10 -76 -26.5t-61 -39t-41 -52.5 t-15 -67q0 -29 12 -42.5t31 -13.5z" />
<glyph unicode="h" horiz-adv-x="714" d="M-4 5l11 55q5 28 13 58q-17 -14 -33 -14q-35 0 -35 36q0 10 7.5 22t19.5 25.5t27 26.5l29 28q16 14 27 27q28 93 63.5 180t75.5 154.5t83.5 108t87.5 40.5q10 0 22 -4.5t22.5 -14.5t18 -26.5t7.5 -41.5q0 -54 -37.5 -119t-114.5 -152q14 5 27.5 7.5t26.5 2.5 q45 0 69.5 -28t24.5 -79q0 -20 -2.5 -41.5t-6.5 -41.5l-6 -36q-3 -18 -3 -28q0 -45 16 -73.5t49 -28.5q42 0 92.5 33t103.5 94q10 11 21.5 18t20.5 7q38 0 38 -36q0 -18 -18 -36l1 2q-72 -83 -143.5 -129t-140.5 -46q-64 0 -99 44t-35 125q0 45 15 111q2 5 2.5 15t1.5 21 q0 40 -29 40q-27 0 -60.5 -21.5t-66.5 -60.5t-60.5 -95t-40.5 -125q-2 -7 -7.5 -16t-14 -16.5t-18.5 -13t-22 -5.5q-31 0 -31 32q0 5 -0.5 8t1.5 7zM120 327l78 81q-10 -26 -19 -53t-17 -54zM346 658q-15 0 -32.5 -19.5t-37 -53.5t-39.5 -79.5t-39 -97.5l51 57 q24 28 43 52.5t31.5 45t17.5 35.5q8 27 8 41q0 8 -0.5 13.5t-2.5 5.5z" />
<glyph unicode="i" horiz-adv-x="342" d="M315 183q20 23 44 23q35 0 35 -35q0 -16 -15 -35q-37 -43 -77 -75t-79 -53t-76 -31.5t-68 -10.5q-57 0 -91.5 28.5t-34.5 95.5q0 43 18 93l-1 -1l32 89l31 89q6 16 21 30.5t37 14.5q33 0 33 -33q0 -5 -0.5 -9t-3.5 -10l2 3l-32 -89l-32 -89q-13 -35 -13 -62 q0 -29 16.5 -43.5t43.5 -14.5q44 0 100 30.5t110 93.5v1zM109 600v-1q5 19 22 33.5t37 14.5q33 0 33 -33q0 -2 -0.5 -4.5t-0.5 -5.5l-32 -102q-6 -20 -23 -34t-37 -14q-32 0 -32 32q0 4 0.5 8.5t3.5 10.5l-2 -4z" />
<glyph unicode="j" horiz-adv-x="229" d="M193 173q23 23 42 23q36 0 36 -36q0 -15 -19.5 -37.5t-50.5 -49t-70 -55.5l-76 -57l-54 -39q-27 -19 -47 -36q-23 -58 -47 -109.5t-48 -89.5t-48.5 -60.5t-49.5 -22.5q-18 0 -32 8t-23 20t-13.5 25.5t-4.5 24.5q0 27 15.5 57t42 61.5t62 64t74.5 64.5l24 71l25 73l23 72 l22 65l28 85q13 37 20 55q6 15 22.5 30t36.5 15q32 0 32 -32q0 -8 -6.5 -30t-14.5 -42q-3 -8 -5.5 -16.5t-5.5 -16.5l-36 -110l-43 -126l33 24l23 18l23 17l65 51q30 24 44 40zM-218 -301q4 0 33 65q-35 -35 -35 -56q0 -2 0.5 -5.5t1.5 -3.5zM-102 -160l-46 -40 q-21 -19 -37 -36l20 47l24 58zM91 600v-1q5 18 22.5 33.5t37.5 15.5q32 0 32 -32v-5q0 -1 -2 -6v-1l-31 -102q-6 -20 -23.5 -34t-36.5 -14q-32 0 -32 32q0 4 0.5 8.5t3.5 10.5l-2 -4z" />
<glyph unicode="k" horiz-adv-x="618" d="M437 294v3v-3zM312 306q-28 0 -63.5 -22.5t-69.5 -65.5q39 -3 67 -3q32 0 52 3.5t30.5 9.5t14 13t3.5 13q0 19 -4.5 29.5t-10 15.5t-11 6t-8.5 1zM-8 -1q5 29 10.5 57.5t12.5 57.5q-17 -15 -33 -15q-34 0 -34 36q0 10 7.5 22t19.5 25.5t27 27.5l29 27q16 14 27 27 q28 91 63 178t75 155t83.5 109t88.5 41q32 0 51 -22.5t19 -64.5q0 -55 -38.5 -120t-113.5 -150q14 5 27 7.5t26 2.5q22 0 37.5 -5.5t26.5 -17.5t19 -31.5t15 -47.5v-1q2 -6 2 -10v-9q0 -26 -12.5 -53.5t-40 -50t-71.5 -37t-107 -14.5h-2h-2q11 -36 45 -54t87 -18 q62 0 127 27.5t121 92.5q22 24 44 24q35 0 35 -34q0 -8 -4 -18t-13 -19l1 2q-37 -43 -78.5 -74.5t-85 -52.5t-86.5 -31t-82 -10q-40 0 -75 8.5t-62 25.5t-45 42.5t-24 58.5q-8 -20 -14 -42.5t-11 -45.5q-2 -8 -7.5 -17t-13.5 -16.5t-18 -12.5t-22 -5q-32 0 -32 32 q0 3 -0.5 6t1.5 7zM116 322l41 42l39 42q-10 -26 -19 -54l-19 -56zM342 654q-14 0 -31.5 -19.5t-36.5 -53t-39 -78.5t-39 -97q53 57 92 107.5t49 80.5q8 27 8 40q0 5 -0.5 12.5t-2.5 7.5z" />
<glyph unicode="l" horiz-adv-x="408" d="M374 176q21 25 42 25q17 0 27 -8.5t10 -26.5q0 -13 -16 -35q-36 -42 -75.5 -74t-78.5 -53.5t-76 -32.5t-69 -11q-26 0 -49.5 6.5t-41 21.5t-27.5 38.5t-10 56.5v15q0 7 2 15q-13 -8 -23 -8q-35 0 -35 36q0 10 11 25.5t27 32.5t34 34l34 32l15 44l16 45q30 82 64 155 t71 127t74.5 85.5t73.5 31.5q9 0 21.5 -4t23 -14t18 -27t7.5 -42q0 -38 -19 -82t-57.5 -96.5t-96 -115.5t-134.5 -140l-21 -60q-13 -35 -13 -62q0 -25 15 -41.5t45 -16.5q43 0 100 31t111 93zM162 300l-42 25q23 23 43 45l39 42q-5 -15 -11 -30.5t-11 -30.5zM348 659 q-13 0 -30 -20t-36.5 -53.5t-40 -78.5t-39.5 -95q71 78 110 134t39 94q0 8 -0.5 13.5t-2.5 5.5z" />
<glyph unicode="m" horiz-adv-x="1064" d="M174 3q-1 -2 -2.5 -4t-2.5 -7q1 6 5 11zM32 130q-21 -25 -42 -25q-36 0 -36 35q0 15 15 35q42 49 85 89.5t83 69.5t76 45t66 16q26 0 43.5 -12t25.5 -32q34 25 68 39t66 14q29 0 50 -10.5t33 -36.5q32 22 63.5 34.5t61.5 12.5q45 0 71.5 -26t26.5 -81q0 -20 -2.5 -41.5 t-6.5 -41.5l-6 -37q-3 -17 -3 -27q0 -51 17.5 -76.5t47.5 -25.5q43 0 93.5 32.5t101.5 94.5q21 25 43 25q17 0 27 -8.5t10 -26.5q0 -13 -16 -35q-72 -83 -143.5 -129t-140.5 -46t-101.5 45.5t-32.5 123.5q0 45 15 111h-1q5 25 5 34q0 19 -7.5 30.5t-22.5 11.5q-21 0 -44 -12 t-46 -33q-1 -5 -1 -9.5t-1 -8.5q0 -1 -0.5 -1.5t-0.5 -1.5v-2l-87 -244q-7 -17 -25 -31t-36 -14q-31 0 -31 31v4q0 2 2 7v4l86 239q2 9 3 18t1 14q0 21 -8.5 30.5t-20.5 9.5q-23 0 -52 -17t-58 -47q-1 -2 -0.5 -4t0.5 -4l-86 -241q-10 -18 -25.5 -30.5t-34.5 -12.5 q-32 0 -32 31q0 3 1 6q0 7 2 11l85 236q5 28 5 43q0 20 -6 20q-18 0 -43 -13t-54 -36t-61 -54.5t-65 -68.5z" />
<glyph unicode="n" horiz-adv-x="916" d="M29 126q-21 -21 -40 -21q-35 0 -35 35q0 17 15 35q45 48 90 87.5t86.5 67.5t78 43t63.5 15q32 0 48.5 -21t18.5 -52q46 40 95 64t88 24q52 0 77 -29.5t25 -79.5q0 -21 -3 -40l-6 -40l-6 -36q-2 -17 -2 -28q0 -46 16 -74t49 -28q42 0 91.5 32.5t103.5 94.5q21 25 43 25 q17 0 27 -8.5t10 -26.5q0 -13 -17 -35q-72 -83 -143 -129t-140 -46t-101.5 45.5t-32.5 123.5q0 45 15 111q3 15 3 33q0 42 -35 42q-21 0 -47.5 -12t-54 -35.5t-55 -57t-49.5 -76.5l2 3l-22 -66l-22 -65q-6 -18 -22 -32t-38 -14q-33 0 -33 32q0 3 -0.5 5.5t1.5 6.5 q14 70 51 144l-2 -3q8 25 17 49.5t17 49.5v-2q3 14 5 25t2 20q0 12 -5 12q-17 0 -42 -12.5t-55 -35t-63 -53t-67 -66.5v-1z" />
<glyph unicode="o" horiz-adv-x="515" d="M120 265q-9 -1 -21 -13l-4 18q-2 8 -3 17zM204 111q-38 29 -65.5 65.5t-39.5 75.5q-10 -9 -19 -24.5t-16.5 -33.5t-12 -37t-4.5 -36q0 -32 15.5 -52.5t54.5 -20.5q52 0 87 63zM35 293q17 19 31 31.5t31 20.5q11 33 36 53.5t55 20.5q22 0 47 -14t45.5 -38.5t34 -58 t13.5 -72.5q0 -19 -2.5 -34t-10.5 -39q42 -24 89 -24t77 34l-1 -1q19 24 42 24q17 0 27 -8.5t10 -26.5q0 -9 -4.5 -17t-12.5 -19q-38 -43 -79.5 -61t-85.5 -18q-28 0 -53 4.5t-52 18.5q-35 -58 -83.5 -86t-96.5 -28q-72 0 -105 36.5t-33 103.5q0 56 24.5 108t56.5 90z M232 178q2 8 3 15.5t1 15.5v8q0 4 -1 8q16 -18 36 -33zM183 318q-11 7 -17 7h-4q-18 0 -24.5 14.5t5.5 27.5q-3 -3 -3 -5l47 -18q-4 -8 -4 -18v-8zM183 318q2 -20 16.5 -45t35.5 -48q-4 33 -19.5 57.5t-32.5 35.5z" />
<glyph unicode="p" horiz-adv-x="785" d="M17 116q-21 -16 -35 -16t-24 13t-10 24q0 10 9.5 23.5t24.5 28t34 29.5l35 29l18 15l72 62l71 57q19 14 33 14q15 0 29 -19q39 11 73 15.5t63 4.5q158 0 158 -144q0 -33 -8.5 -64t-23 -58t-32.5 -50.5t-37 -41.5q81 8 152.5 40.5t131.5 94.5q23 23 41 23q36 0 36 -36 q0 -14 -7.5 -23.5t-25.5 -29.5q-42 -44 -91.5 -74.5t-102 -50.5t-107 -29t-107.5 -9q-67 0 -126.5 14t-106.5 40l-62 -173l-61 -173q-7 -17 -24 -31t-35 -14q-32 0 -32 33q0 5 0.5 8.5t3.5 9.5l-2 -3l150 423l24 70l25 71l-59 -51zM191 104q38 -20 72 -32.5t66 -12.5 q35 0 69 25.5t69 86.5q8 34 8 56q0 75 -91 75q-53 0 -130 -20z" />
<glyph unicode="q" horiz-adv-x="607" d="M155 72l18 57l17 50q8 25 17.5 51t23.5 59q-41 -11 -76 -27.5t-60.5 -39.5t-40.5 -52t-15 -65q2 -32 13.5 -44.5t30.5 -12.5q32 0 51 7.5t20 12.5zM76 -70q0 14 11 28q-17 -3 -31 -3q-56 0 -83 33t-27 90q0 69 31.5 123.5t82.5 94.5t115 64.5t130 33.5q40 0 40 -33 q0 -1 -0.5 -1.5t-0.5 -1.5q0 -2 -0.5 -5.5t-0.5 -5.5q-35 -87 -67.5 -178.5t-50.5 -170.5q48 10 99 31.5t98 47t87.5 52.5t67.5 49q18 18 38 18q34 0 34 -36q0 -16 -29 -43t-72.5 -57t-94.5 -58.5t-96 -48.5l-40 -17q-19 -7 -38 -13q38 -27 56.5 -58t18.5 -70 q0 -42 -12.5 -77.5t-33 -61t-45.5 -40t-49 -14.5q-29 0 -50 13.5t-35.5 37t-21.5 55t-7 67.5q0 23 3 53t9 64q0 1 -1 1q-17 7 -26 12t-9 25zM202 -113q-2 -9 -3 -18l-2 -16l-15 8l-16 8zM260 -229q0 44 -63 82q-2 -17 -3 -29.5t-1 -21.5q0 -46 13 -76t34 -30h3q7 5 12 27 t5 48z" />
<glyph unicode="r" horiz-adv-x="521" d="M21 118q-20 -18 -38 -18q-20 0 -27 10t-7 27q0 12 13.5 28t31.5 33h-1q15 15 24 21t17 20q-9 13 -13.5 26t-4.5 34q0 16 6.5 32.5t18.5 30.5t29.5 23t40.5 9q48 -8 48 -57q0 -14 -3.5 -28t-8.5 -29q9 -4 17.5 -6t19.5 -2q15 0 28 4.5t25 12.5l-2 -1q18 12 31 12 q23 0 34 -28q0 -9 -1.5 -15t-3.5 -12q-51 -111 -51 -166q0 -31 24 -31q25 0 49 6.5t50 21.5t57 40t70 61h-1q19 19 38 19q35 0 35 -36q0 -19 -22 -41q-52 -48 -93.5 -79.5t-77 -50t-67.5 -26t-65 -7.5q-90 0 -90 93q0 26 6.5 58t20.5 73q-5 -1 -10 -1h-10q-34 0 -62 11 q-8 -10 -17 -18.5t-20 -17.5v1l-17 -17l-20 -19zM65 311q0 -4 5 -8l18 9zM88 312l22 11q0 -6 2 -10z" />
<glyph unicode="s" horiz-adv-x="597" d="M-32 105h1h-1zM174 193q-6 12 -11 24.5t-8 26.5l-132 -126q-20 -18 -38 -18h-1q74 -27 154 -40q27 8 42 25t15 39q0 15 -6.5 33t-14.5 37v-1zM-32 105q-8 5 -13 14t-5 17q0 20 21 41l211 199h-1q19 19 39 19q35 0 35 -35q-1 -5 -2 -9l-2 -8q-1 -4 -2 -6l-4 -12 q-2 -6 -2 -9q0 -14 5.5 -31.5t13.5 -36.5q10 -26 19 -53.5t9 -53.5q0 -21 -11 -46.5t-30 -48.5h17q83 0 157.5 28t136.5 98v-1q11 13 19.5 19t22.5 6q17 0 27 -11t10 -24q0 -9 -4.5 -17t-12.5 -19q-82 -94 -178 -132.5t-199 -38.5q-34 0 -66 2t-65 8q-20 -5 -38 -7.5 t-35 -2.5q-29 0 -60.5 7.5t-57.5 22t-42.5 34.5t-16.5 44q0 8 5.5 18t14 19t19 15.5t20.5 6.5q1 0 3.5 -0.5t5.5 -0.5z" />
<glyph unicode="t" horiz-adv-x="342" d="M316 183q20 23 43 23q36 0 36 -35q0 -13 -16 -35q-36 -42 -74.5 -73.5t-77 -53.5t-75.5 -33t-69 -11q-28 0 -51.5 7t-41 22t-27.5 38.5t-10 57.5q0 21 4 44t13 48l11 32l9 28l10 27l11 32h-27q-34 0 -34 32q0 15 6.5 26t16 19t20 12t17.5 4h33l51 151l51 151v-1 q4 16 22 31.5t38 15.5q32 0 32 -32v-6q0 -4 -2 -8l-103 -302h159q34 0 34 -32q0 -13 -6.5 -24t-16 -19.5t-20 -13t-17.5 -4.5h-165l-20 -61l-21 -61q-6 -18 -9.5 -34.5t-3.5 -27.5q0 -26 15 -42.5t44 -16.5q45 0 101 30t110 94v1z" />
<glyph unicode="u" horiz-adv-x="608" d="M581 183q20 23 43 23q36 0 36 -35q0 -13 -16 -35q-74 -86 -154 -128t-146 -42q-38 0 -65 13.5t-43 38.5q-41 -24 -81 -38t-78 -14q-27 0 -50.5 6t-41 20.5t-28 37.5t-10.5 58q0 20 3.5 43t14.5 52l-1 -1l32 89l31 89q6 16 21 30.5t37 14.5q33 0 33 -33q0 -5 -0.5 -9 t-3.5 -10l2 3l-63 -177q-14 -40 -14 -65q0 -28 16 -42t41 -14q29 0 60 11t62 31q2 17 5.5 38t11.5 44l33 89l31 89q6 16 21 30.5t37 14.5q33 0 33 -33q0 -5 -0.5 -9t-3.5 -10l2 3l-32 -89l-33 -89q-13 -33 -13 -60q0 -32 17 -46t43 -14q44 0 100.5 30.5t110.5 93.5v1z" />
<glyph unicode="v" horiz-adv-x="770" d="M459 111q-39 31 -68 70t-40 80q-2 -7 -4.5 -14t-5.5 -14q-41 -88 -41 -137q0 -45 41 -48q44 0 71 15.5t47 47.5zM41 142q-20 -30 -47 -30q-36 0 -36 32q0 15 12 33q31 44 70 83.5t79 69t77.5 47t67.5 17.5q26 0 51 -13t36 -43q10 36 35 58.5t57 22.5q22 0 47 -14 t45.5 -38.5t34 -58t13.5 -72.5q0 -20 -3.5 -36.5t-10.5 -37.5q23 -13 45 -18t45 -5q47 0 77 34l-1 -1q19 24 42 24q17 0 27 -8.5t10 -26.5q0 -9 -4.5 -17t-12.5 -19q-38 -43 -79.5 -61t-85.5 -18q-28 0 -54 5.5t-52 18.5q-37 -58 -93 -86.5t-125 -28.5q-57 11 -79 36.5 t-22 76.5q0 67 49 177q4 9 5.5 17t2.5 15q-1 10 -7.5 17t-17.5 7q-15 0 -38.5 -11.5t-51 -32.5t-56 -50t-52.5 -65zM487 178q2 8 3 15.5t1 15.5v8q0 4 -1 8q16 -18 36 -33zM438 318q-11 7 -17 7h-4q-18 0 -24.5 14.5t5.5 27.5q-3 -3 -3 -5l47 -18q-4 -8 -4 -18v-8zM438 318 q2 -20 16.5 -45t35.5 -48q-4 33 -19.5 57.5t-32.5 35.5z" />
<glyph unicode="w" horiz-adv-x="995" d="M681 111q-23 16 -42.5 37.5t-35 45.5t-25 48.5t-11.5 48.5l-32 -111q0 -10 -6 -16q-3 -9 -4 -20t-1 -23q0 -29 13.5 -51t48.5 -22h8q52 0 87 63zM41 142q-20 -30 -47 -30q-36 0 -36 32q0 15 12 33q31 44 70 83.5t79 69t77.5 47t67.5 17.5q36 0 64.5 -22.5t28.5 -70.5 q0 -16 -4 -32.5t-12 -35.5q-21 -47 -30.5 -81.5t-9.5 -58.5q0 -46 26 -46q24 0 58 32t60 97l-1 -2l25 86l25 86q5 15 20 32t40 17q28 0 31 -24q14 22 34.5 35t44.5 13q28 0 53.5 -15.5t45 -41t31 -58.5t11.5 -68q0 -19 -2.5 -34t-10.5 -39q42 -24 89 -24t77 34l-1 -1 q19 24 42 24q17 0 27 -8.5t10 -26.5q0 -9 -4.5 -17t-12.5 -19q-38 -43 -79.5 -61t-85.5 -18q-28 0 -54 5.5t-52 18.5q-38 -59 -85 -87t-95 -28q-43 0 -75.5 15t-49.5 57q-32 -34 -68 -53t-74 -19q-45 0 -69 30.5t-24 83.5q0 34 12.5 79.5t35.5 96.5q7 17 7 32q0 10 -6.5 17 t-17.5 7q-15 0 -38.5 -11.5t-51 -32.5t-56 -50t-52.5 -65zM712 211q0 10 -1 15q8 -9 17 -18t20 -17l-40 -12q4 15 4 32zM659 319q-9 6 -17 6l-3 2q-11 0 -18 7t-7 18l1 3l48 -10q-4 -8 -4 -19v-7zM693 250q4 -7 8 -13l10 -11q-4 32 -19.5 57.5t-32.5 35.5q3 -27 33 -68z" />
<glyph unicode="x" horiz-adv-x="774" d="M24 120q-20 -20 -39 -20q-35 0 -35 36q0 9 7.5 22t19.5 27l26 29l28 28l16 16l12 12l48 51q22 22 43 38.5t42.5 25.5t46.5 9t45.5 -11.5t38.5 -31t35 -45.5l35 -57l76 65l75 65l-2 -1q18 18 36 18q36 0 36 -38q0 -21 -25 -42l-78 -67l-78 -68q14 -25 29.5 -49t32 -42.5 t33.5 -30t34 -11.5q16 0 37 9t44.5 26t48.5 40t49 52q10 11 21.5 18t20.5 7q38 0 38 -36q0 -18 -18 -36l1 2q-72 -83 -141.5 -128.5t-126.5 -45.5q-30 0 -56 12.5t-48.5 34t-42 50t-37.5 59.5l-84 -71l-83 -71l2 1q-18 -18 -37 -18q-14 0 -24.5 10t-10.5 27q0 9 7 20.5 t18 21.5l86 75l87 74l-27 44q-13 21 -26 38t-25 27.5t-22 10.5q-17 0 -41 -24l-59 -62h1l-42 -45l-49 -50h1z" />
<glyph unicode="y" horiz-adv-x="746" d="M416 -25q-2 -3 -3 -7t4 7h-1zM31 127q-22 -22 -42 -22q-36 0 -36 35q0 9 4 17.5t12 18.5q43 48 84.5 88t80 69t74 45t65.5 16q19 0 35 -8.5t27 -22t17 -30t6 -33.5q0 -29 -17 -68q-40 -88 -40 -140q0 -20 11 -30t31 -15q36 1 60.5 14.5t43 39.5t34 65.5t33.5 93.5v-1 l4 16l5 15v-1q8 27 15 46.5t15.5 33t20 20t29.5 6.5q32 0 32 -32q0 -8 -7 -28l-15 -46q-3 -8 -5.5 -16t-5.5 -16l1 1l-18 -56l-16 -49l-18 -54l-25 -72l42 33l40 29l65 49q28 21 40 34h-1q20 23 43 23q35 0 35 -34q0 -15 -22.5 -40t-57 -54.5t-76.5 -61.5l-82 -61l-41 -30 l-36 -27q-25 -61 -48.5 -112.5t-46.5 -89.5t-47.5 -59.5t-51.5 -21.5q-18 0 -32 8t-23.5 19.5t-14.5 25t-5 24.5q0 27 16 57t43 62t62.5 64.5t74.5 64.5l7 20l7 20l-1 -1q2 8 2 8.5t-1 -1.5q-48 -20 -103 -20q-57 4 -81.5 35t-24.5 82q0 32 12 76.5t38 97.5q7 14 7 28 t-8 20.5t-13 6.5q-32 0 -87 -46t-124 -126zM301 -301q1 0 8 16l21 44q-30 -32 -30 -51v-5q0 -4 1 -4zM417 -160l-49 -42q-22 -21 -38 -39l22 51l26 59z" />
<glyph unicode="z" horiz-adv-x="609" d="M574 172q20 23 43 23q35 0 35 -34q0 -15 -15 -34t-40 -41t-56 -46l-65 -47l-66 -49q-32 -22 -61 -47q-6 -18 -18.5 -46.5t-29 -61t-36.5 -65.5t-41.5 -59.5t-43 -43t-41.5 -16.5q-17 0 -30 8t-22 20t-14 25t-5 23q0 26 15.5 56t41.5 61.5t61.5 64t74.5 64.5q-5 13 -27 20 t-71 8q-35 0 -35 31q0 15 8.5 26.5t19.5 19.5t21.5 12t15.5 4q39 0 64 17.5t40 41t21.5 48t8.5 38.5q-5 105 -63 108q-16 0 -42.5 -15.5t-58.5 -40.5t-67 -58l-67 -66q-21 -21 -40 -21q-35 0 -35 35q0 15 16 36q43 46 88 86.5t88 71t80.5 48t66.5 17.5q63 0 95 -44.5 t32 -130.5q0 -14 -5.5 -38.5t-17.5 -53t-30.5 -58t-43.5 -53.5q13 -10 22 -24l21 15q9 8 19 15q9 6 17 12l16 12l26 20q14 10 26 20l62 48q29 23 42 38zM167 -299q5 5 15.5 25.5t23.5 48.5q-20 -22 -32 -39t-12 -29q0 -3 5 -6zM292 -149q-26 -20 -47.5 -39.5t-38.5 -36.5 l25 54l22 51z" />
<glyph unicode="{" horiz-adv-x="238" d="M407 741q34 0 34 -32q0 -13 -6.5 -24t-16 -19.5t-20 -13t-17.5 -4.5q-33 0 -56.5 -11.5t-41.5 -30t-31.5 -42t-25.5 -47.5l-3 -7l-4 -7l-26 -50q-12 -24 -26.5 -46.5t-32 -42.5t-42.5 -37q8 -19 13 -41t5 -45q0 -39 -5 -77l-10 -73q-5 -29 -8.5 -55t-3.5 -44 q0 -24 9 -39.5t35 -19.5q14 -3 21.5 -9.5t7.5 -22.5q0 -13 -7.5 -24t-18 -19.5t-21.5 -13t-18 -4.5q-31 4 -50.5 14t-31 26t-15.5 38.5t-4 50.5q0 25 3.5 52t8.5 56l10 72q5 37 5 68q0 24 -8.5 44.5t-22.5 36.5q-8 5 -9.5 10.5t-1.5 16.5q0 22 14.5 36.5t33.5 19.5h-1 q20 6 36 20t30 33.5t26 42.5l23 44q41 80 91 145q58 75 179 75z" />
<glyph unicode="|" horiz-adv-x="296" d="M263 699q20 42 58 42q33 0 33 -32v-5q0 -1 -2 -6v-2l-286 -811q-7 -17 -24 -31t-35 -14q-32 0 -32 33q0 5 0.5 8.5t3.5 9.5l-2 -3z" />
<glyph unicode="}" horiz-adv-x="339" d="M-115 -160q-34 0 -34 32q0 15 6.5 26t15.5 19t19.5 12t18.5 4q82 0 130 68q52 72 94 157l46 89q22 43 51 74q-12 24 -16 49t-4 54q0 12 0.5 24.5t1.5 25.5t1.5 25t0.5 24q0 21 -1 40.5t-6.5 36t-17.5 29t-33 20.5h2q-25 6 -25 31q0 9 6 20t15 20t20 15t20 6h9 q39 -14 60 -33.5t30.5 -44.5t11.5 -54t2 -60q0 -13 -0.5 -25.5t-1.5 -25.5t-1.5 -25t-0.5 -24q0 -28 5.5 -51t21.5 -39l-4 2q14 -9 14 -28q-3 -36 -37 -52l1 1q-21 -12 -41.5 -48t-42.5 -81q-2 -3 -2.5 -5.5t-2.5 -5.5q-26 -53 -55.5 -101.5t-63.5 -95.5q-75 -102 -212 -105 h-1z" />
<glyph unicode="~" horiz-adv-x="469" d="M143 511l-2 2zM105 489q-6 -19 -22 -34t-37 -15q-33 0 -33 41q7 25 23 48.5t36.5 41t42.5 28t43 10.5q18 0 31.5 -5t25 -12.5t21 -18t19.5 -20.5q14 -17 30.5 -30.5t39.5 -13.5q17 0 29.5 7.5t23.5 36.5q8 17 22.5 30.5t36.5 13.5q32 0 32 -32q0 -15 -7.5 -32t-18.5 -33 t-23 -29t-22 -20q-23 -17 -47.5 -26t-51.5 -9q-45 0 -73 20t-52 45l-18 17q-8 9 -13 13h1q-7 4 -13 4q-8 0 -15.5 -8t-9.5 -16z" />
<glyph unicode="&#xa1;" horiz-adv-x="277" d="M53 9q-1 -2 -2.5 -4.5t-2.5 -6.5q2 7 5 11zM139 6q-7 -17 -23 -31.5t-37 -14.5q-32 0 -32 32q0 3 1 6v4q0 3 2 7l193 546q7 17 23 31.5t36 14.5q33 0 33 -32v-6q0 -4 -2 -8zM307 623q-22 0 -31 13t-9 30q0 15 7.5 29.5t19 26t25 18.5t24.5 7q22 0 31 -12.5t9 -29.5 q0 -15 -8 -29.5t-20 -26.5t-25 -19t-23 -7z" />
<glyph unicode="&#xa2;" horiz-adv-x="477" d="M60 381q0 40 19 83.5t50.5 81t72 63t82.5 28.5l21 60q20 42 58 42q33 0 33 -32v-4q0 -2 -2 -7v-2l-28 -79q33 -25 59 -79q0 -1 0.5 -4t0.5 -4q0 -7 -6.5 -17.5t-15.5 -20t-19.5 -16.5t-18.5 -7q-11 0 -20.5 10t-20.5 24l-39 -106l-39 -110q17 -4 37 -4q32 0 67.5 12.5 t77.5 40.5q4 2 8 5l7 4q-18 -13 -17.5 -21.5t23.5 -10.5q-8 5 -9.5 14.5t3.5 17.5q1 1 1.5 1t1.5 1q-1 -1 -1.5 -1t-1.5 -1q1 2 5 6q19 19 40 19q35 0 35 -34q0 -20 -26.5 -45.5t-66 -48t-86.5 -37.5t-88 -15q-11 0 -22 0.5t-21 2.5l-18 -49q-9 -25 -17 -50q-7 -17 -24 -31 t-35 -14q-32 0 -32 33q0 5 0.5 8.5t3.5 9.5l-2 -3l24 65l23 66q-35 27 -56 68.5t-21 86.5zM266 546q-5 0 -15 -2q3 8 5.5 16t5.5 16l17 -32q-8 2 -13 2zM242 540q-17 -6 -33 -20t-28.5 -32.5t-20 -39.5t-7.5 -41q0 -21 6 -38.5t17 -33.5l37 104l38 105q-3 -1 -7 -3z" />
<glyph unicode="&#xa3;" horiz-adv-x="765" d="M406 522q3 5 10 9.5t13 4.5q22 -1 38 -1h30q13 0 13 -0.5t2 0.5q30 49 64.5 87.5t70.5 65.5t70.5 41t64.5 14q90 0 90 -96q0 -18 -9 -37.5t-24.5 -38t-35.5 -35.5t-42 -29q-8 -5 -17.5 -3t-14.5 10l-19 25q-8 10 -4.5 21.5t14.5 16.5q28 13 43.5 26t15.5 24q0 22 -22 22 q-29 0 -67.5 -25.5t-79.5 -84.5q3 0 6.5 0.5t6.5 0.5q13 1 18.5 1.5t13.5 0.5q15 3 24.5 -7.5t4.5 -25.5l-15 -42q-2 -6 -9 -11.5t-14 -5.5q-43 -2 -61 -3t-28 -2q-5 -12 -10 -27.5t-12 -33.5l-25 -70q-13 -38 -30.5 -77.5t-40 -79t-50.5 -74.5q34 -15 73 -26.5t74 -11.5 q24 0 47.5 5.5t47 19t47.5 36.5t48 58q22 31 56 31q13 -3 20.5 -9.5t7.5 -22.5q0 -14 -11 -32q-68 -98 -140 -138t-144 -40q-53 0 -106.5 16.5t-98.5 37.5q-39 -25 -80.5 -38.5t-85.5 -13.5q-20 0 -49 7t-55.5 19.5t-45.5 31.5t-19 43q0 26 18 52q26 37 57.5 57t66.5 20 q16 0 38.5 -5.5t46 -14l46.5 -17.5l42 -18q7 -3 11 -4.5t13 -5.5q23 26 41.5 58.5t33.5 66t27 65.5l21 58l6 16q3 7 5 13t5 12.5t5 12.5q3 7 3 8.5t-0.5 2t0 2t4.5 7.5h-59q-15 0 -22 11t0 25zM255 34l-21 9l-19 10q23 7 46 21l2 -43l-8 4v-1zM68 81q0 -5 10.5 -11t26.5 -11 t33 -8.5t31 -3.5q23 0 46 6q-35 17 -66 28.5t-49 11.5q-8 0 -20 -3t-12 -9z" />
<glyph unicode="&#xa4;" horiz-adv-x="710" d="M427 575q34 0 63 -17t46 -49l47 33l47 32q17 11 30 11q32 0 32 -37q0 -28 -30 -48l-106 -73v-9q0 -45 -16 -90.5t-40 -82.5q11 -16 24 -33t24 -33l-2 4q10 -10 10 -25q0 -7 -7 -17.5t-16.5 -20t-20 -16t-17.5 -6.5q-14 0 -20.5 6t-9.5 14l-10 14l-8 11l-9 11t-11 15 q-26 -18 -51.5 -26t-52.5 -8q-69 0 -103 56l-58 -40l-59 -40q-17 -12 -30 -12q-32 0 -32 38q0 11 6 24t25 24h-1l62 42l61 42v22q0 37 9.5 75t29.5 72q-11 17 -24 35l-24 33l2 -4q-10 10 -10 25q0 7 7 17.5t16.5 20t20 16t17.5 6.5q17 0 28 -16h-1l17 -25l19 -25 q58 54 126 54zM418 480h-2q-3 0 -4 1zM463 392q0 32 -12.5 56t-34.5 32q-2 0 -4.5 0.5t-3.5 0.5q-5 1 -7 1q-21 0 -41.5 -13.5t-36.5 -36.5t-26 -53t-10 -62q0 -38 16.5 -63.5t45.5 -25.5q21 0 41.5 14t36.5 36.5t26 52t10 61.5z" />
<glyph unicode="&#xa5;" horiz-adv-x="729" d="M394 45l-22 -13l-21 -14q7 2 14.5 4.5t15.5 5.5l8 2q1 5 5 15zM213 -362q-21 0 -37 9t-27.5 24t-17.5 35t-6 42h-39q-35 0 -35 32q0 13 6 24t14.5 18.5t18.5 12.5t18 6q-23 4 -23 31q0 12 6.5 23t16.5 19.5t20 13.5t18 5h59q9 9 19.5 17.5t22.5 16.5q-37 -13 -67 -13 q-55 0 -83.5 27.5t-28.5 95.5q0 54 17 125.5t46 158.5q26 80 42.5 145.5t16.5 107.5q0 43 -22 43q-19 0 -50 -15.5t-79 -48.5l1 1q-18 -13 -33 -13q-32 0 -32 35q0 29 30 49l-1 -1q65 48 112 68.5t80 20.5q45 0 66 -30.5t21 -85.5q0 -48 -17 -122.5t-45 -156.5 q-26 -78 -42.5 -144t-16.5 -111q0 -32 10.5 -44.5t31.5 -12.5t48.5 11t56.5 27.5t57 34.5l51 35h-1q3 2 7 5t7 5l2 1q1 1 3 2.5t4 3.5l93 262l93 263q7 17 23 31.5t37 14.5q32 0 32 -32v-6q0 -4 -2 -8l-223 -630q29 11 58.5 24t56.5 27t50.5 29t39.5 31h-1q19 19 39 19 q35 0 35 -36q0 -15 -16.5 -34t-41.5 -37.5t-54 -35.5t-54 -28l-76 -34q-35 -14 -72 -27q-3 -7 -6 -15l-6 -16h70q35 0 35 -33q0 -12 -6 -22.5t-15 -18.5t-19 -13t-18 -6q23 -5 23 -31q0 -13 -6.5 -24t-16 -19.5t-20 -13t-17.5 -4.5h-93q-37 -60 -78.5 -85t-69.5 -25z M335 -159l-23 -14l3 6v-1q0 1 3 8h-98l22 13q-3 -4 -7 -12h100zM231 -263q4 -6 9 -6t12 4.5t15 12.5h-43q2 -6 7 -12v1zM352 -70l-32 -12q-12 -4 -19.5 -8.5t-12.5 -9.5l-13 -11l-17 44h96z" />
<glyph unicode="&#xa6;" horiz-adv-x="296" d="M186 325q14 0 21.5 -10t2.5 -23l-144 -407q-7 -17 -24 -31t-35 -14q-32 0 -32 33q0 5 0.5 8.5t3.5 9.5l-2 -3l74 210l74 210q2 7 9.5 12t14.5 5h37zM169 332q-14 0 -21.5 10t-2.5 23l118 335q19 41 58 41q33 0 33 -32v-4q0 -2 -2 -7v-2l-122 -347q-2 -7 -9.5 -12 t-14.5 -5h-37z" />
<glyph unicode="&#xa7;" horiz-adv-x="414" d="M411 677q3 -6 3.5 -10t0.5 -6q0 -8 -7 -18.5t-16.5 -19.5t-19.5 -15.5t-16 -6.5q-14 0 -18 4l-8 8l-3 3h1q-14 13 -40 22.5t-63 9.5q-29 0 -42 -10l3 2q-5 -5 -5 -9q0 -12 12 -29.5t30 -37.5t39 -40l39 -36l35 -33q17 -17 30.5 -33.5t22 -32.5t8.5 -31q0 -19 -11.5 -38 t-23.5 -33q-27 -32 -62 -50.5t-71 -26.5q29 -32 49 -64.5t20 -67.5q0 -26 -13 -49.5t-35.5 -41t-52.5 -27.5t-65 -10q-51 0 -87.5 15t-56.5 35l-4 4q-9 7 -9 24q0 7 6.5 17.5t16 20.5t19.5 16.5t17 6.5q15 0 27 -15q15 -13 42.5 -22.5t63.5 -9.5q27 0 37 8q4 3 4 8 q0 10 -12 27.5t-30 37.5t-39 41l-39 38l-35 33q-17 16 -30.5 32t-22 31.5t-8.5 30.5q0 23 11.5 42t22.5 32q26 32 60 50.5t72 26.5q-29 32 -48.5 68.5t-19.5 62.5q0 22 12 45t34 42t52.5 30.5t67.5 11.5q48 0 86 -14t60 -36zM85 350q-2 -2 -2.5 -3.5t-1.5 -3.5l2 9zM305 337 l-2 4q2 2 3.5 4.5t3.5 4.5l-5 -15v2zM197 297q42 0 65.5 11.5t40.5 32.5q-3 6 -11 14.5t-22.5 17t-34.5 14.5t-45 6q-40 0 -65.5 -11.5t-39.5 -31.5q2 -2 6.5 -6t12.5 -12l12 -11q12 -12 35 -18t46 -6z" />
<glyph unicode="&#xa8;" horiz-adv-x="343" d="M231 600v-1q5 19 22 33.5t37 14.5q33 0 33 -33q0 -2 -0.5 -4.5t-0.5 -5.5l-32 -102q-6 -20 -23 -34t-37 -14q-32 0 -32 32q0 4 0.5 8.5t3.5 10.5l-2 -4zM119 600v-1q5 19 22 33.5t37 14.5q33 0 33 -33q0 -2 -0.5 -4.5t-0.5 -5.5l-32 -102q-6 -20 -23 -34t-37 -14 q-32 0 -32 32q0 4 0.5 8.5t3.5 10.5l-2 -4z" />
<glyph unicode="&#xa9;" horiz-adv-x="548" d="M280 613q45 0 88 -19.5t76.5 -52.5t53.5 -76t20 -90q0 -48 -18 -93.5t-49.5 -81.5t-75 -57.5t-94.5 -21.5h-18q-45 0 -88 20t-76 53t-53 76t-20 88v16q0 48 20 91t53.5 76t76.5 52.5t88 19.5h16zM265 526q-32 0 -60 -14t-48.5 -37.5t-32 -53.5t-11.5 -62q0 -30 13 -57 t34.5 -48t49 -33.5t56.5 -12.5h12q30 0 57.5 12.5t48.5 33.5t34 48t13 56v15q0 30 -13 57.5t-34.5 49t-49 34t-55.5 12.5h-14zM385 344q10 -2 15 -11t3 -19q-11 -45 -46 -72t-84 -27q-63 0 -102.5 39.5t-39.5 111.5t39.5 111t104.5 39q48 0 80 -24t44 -62q3 -11 -1.5 -20 t-15.5 -12l-35 -9q-8 -2 -17 2t-13 12q-14 30 -43 30q-23 0 -37.5 -17.5t-14.5 -50.5q0 -32 13 -48.5t35 -16.5q19 0 32 10t17 27q2 11 11 16t20 2z" />
<glyph unicode="&#xaa;" horiz-adv-x="431" d="M534 516q21 25 44 25q36 0 36 -34q0 -16 -15 -34q-28 -33 -59 -64.5t-63 -55.5t-62.5 -38.5t-56.5 -14.5q-20 0 -35.5 8.5t-25.5 22.5q-26 -14 -55 -22t-54 -8q-109 6 -109 123q0 69 31 123t81 94t114.5 65t130.5 34h8q33 0 33 -33q0 -5 -0.5 -8.5t-3.5 -9.5l2 3 l-49 -138l-49 -139q-1 -2 -1 -5q0 -7 3 -11t6 -6q28 6 68 39.5t81 83.5zM289 419l75 216q-40 -11 -75 -27.5t-61 -39.5t-41 -52t-15 -65q2 -32 13.5 -44.5t30.5 -12.5q30 0 50.5 9t22.5 15v1z" />
<glyph unicode="&#xab;" horiz-adv-x="574" d="M521 571q17 11 30 11q32 0 32 -37q0 -28 -30 -48l-231 -158l59 -81l58 -82l-2 4q10 -10 10 -25q0 -7 -7 -17.5t-16.5 -20t-20 -16t-17.5 -6.5q-14 0 -21 5.5t-10 14.5l-69 97l-69 97l2 -3q-4 3 -6.5 7.5t-2.5 13.5q0 32 30 52zM349 576q17 11 30 11q32 0 32 -37 q0 -28 -30 -48l-231 -158l59 -82l58 -81l-2 4q10 -10 10 -25q0 -7 -7 -17.5t-16.5 -20t-20 -16t-17.5 -6.5q-14 0 -21 5.5t-10 14.5l-69 97l-69 97l2 -3q-4 3 -6.5 7.5t-2.5 13.5q0 32 30 52z" />
<glyph unicode="&#xac;" horiz-adv-x="523" d="M93 301q-34 0 -34 32q0 15 6.5 26t16 19t20 12t17.5 4h368q27 0 31.5 -13t4.5 -32q0 -20 -9.5 -41.5t-21.5 -40t-23.5 -31t-15.5 -15.5l22 13q-8 -17 -22.5 -28t-32.5 -11q-34 0 -34 32q0 13 6 25.5t14 23.5l8 12q4 7 7 13h-328z" />
<glyph unicode="&#xad;" horiz-adv-x="523" d="M93 301q-34 0 -34 32q0 15 6.5 26t16 19t20 12t17.5 4h368q34 0 34 -32q0 -13 -6.5 -24t-16 -19.5t-20 -13t-17.5 -4.5h-368z" />
<glyph unicode="&#xae;" horiz-adv-x="572" d="M292 636q46 0 90 -20t78.5 -54t55 -78t20.5 -92q0 -61 -21 -109.5t-57 -82.5t-83.5 -52t-100.5 -18q-47 0 -91 20.5t-78 54.5t-54.5 78.5t-20.5 91.5v17q0 48 21 92t55.5 78t78.5 54t89 20h18zM274 548q-33 0 -61.5 -15t-49.5 -39t-33 -55t-12 -64q0 -34 14.5 -62.5 t38.5 -49.5t54.5 -33t63.5 -12q35 0 64 15t50 39t33 55t12 63q0 30 -13.5 58.5t-35.5 50.5t-50 35.5t-57 13.5h-18zM183 232q-11 0 -18 7t-7 18v245q0 11 7 18t18 7h85q67 0 98 -21t31 -70q0 -25 -11.5 -45.5t-31.5 -33.5l13 -18l13 -21q8 -11 15 -24t15 -24q8 -14 1.5 -26 t-22.5 -12h-48q-5 0 -12.5 4t-9.5 9l-22 39q-17 29 -26.5 40t-22.5 12v-79q0 -11 -7 -18t-18 -7h-40zM248 420h23q19 0 26 3t8 8q-2 5 -9 9t-28 4h-20v-24z" />
<glyph unicode="&#xaf;" horiz-adv-x="0" d="M10 628q-34 0 -34 32q0 15 6.5 26t16 19t20 12t17.5 4h205q34 0 34 -32q0 -13 -6.5 -24t-16 -19.5t-20 -13t-17.5 -4.5h-205z" />
<glyph unicode="&#xb0;" horiz-adv-x="229" d="M146 741q42 0 70 -29t28 -83q0 -39 -16 -74.5t-41 -63t-55.5 -43.5t-58.5 -16q-44 0 -71 29.5t-27 83.5q0 36 15.5 71t40 62.5t55 45t60.5 17.5zM151 603q0 14 -6.5 27.5t-16.5 15.5h1h-5q-1 0 -2 1h-2v1q-11 0 -20.5 -6.5t-16.5 -17.5t-11 -25t-4 -28q0 -19 8.5 -32 t22.5 -13q23 0 37.5 24t14.5 53z" />
<glyph unicode="&#xb1;" horiz-adv-x="494" d="M151 150q-1 -2 -2.5 -4.5t-2.5 -7.5q2 7 5 12zM284 536q6 18 22 32t38 14q32 0 32 -32v-6q0 -4 -2 -8l-52 -148h136q34 0 34 -32q0 -13 -6.5 -24t-16 -19.5t-20 -13t-17.5 -4.5h-143l-26 -74l-26 -74q-6 -18 -22 -32t-38 -14q-32 0 -32 32q0 3 1 5q0 7 2 12l51 145h-135 q-34 0 -34 32q0 15 6.5 26t16 19t20 12t17.5 4h142zM0 19q-34 0 -34 32q0 15 6.5 26t16 19t20 12t17.5 4h368q34 0 34 -32q0 -13 -6.5 -24t-16 -19.5t-20 -13t-17.5 -4.5h-368z" />
<glyph unicode="&#xb2;" horiz-adv-x="509" d="M406 601q-8 -15 -23 -25.5t-34 -10.5q-34 0 -34 33q0 23 10.5 43t26 36.5t33 27.5t30.5 16q15 5 26 6.5t22 1.5q48 0 77.5 -32t29.5 -78q0 -34 -18 -69t-46.5 -68.5t-63.5 -66t-69 -60.5h87q43 0 43 -35q0 -9 -5.5 -19t-14 -18.5t-18.5 -14.5t-18 -6h-204q-40 0 -40 41 q0 10 6.5 20t16 20t20.5 19l20 16q2 1 5 4l69 56q36 30 67 60t51 59t20 52q0 13 -10.5 20t-24.5 7q-7 0 -9 -1q-22 -9 -26 -28l1 7z" />
<glyph unicode="&#xb3;" horiz-adv-x="483" d="M369 639q-18 0 -32 -15l1 -1q-17 -20 -38 -20q-14 0 -28.5 12.5t-14.5 28.5q0 19 15.5 35t36.5 28t42.5 18.5t32.5 6.5q28 0 52.5 -10t42.5 -27.5t28.5 -41.5t10.5 -52t-13 -56.5t-40 -50.5q11 -19 13.5 -41t2.5 -42q-1 -31 -14.5 -57.5t-36 -46.5t-52 -31.5t-61.5 -11.5 q-27 0 -51.5 9t-43.5 24.5t-30 37.5t-11 49q0 10 5.5 20t14 17.5t18.5 12.5t20 5q14 0 21.5 -11t12.5 -27q2 -8 5 -17t7 -12q19 -15 47 -15q21 0 38.5 10t17.5 30v5q0 7 -2.5 17.5t-7.5 24.5q-1 7 -65 9q-16 0 -22.5 12.5t1.5 26.5l27 42q2 4 9 7.5t12 3.5q85 0 85 42 q0 24 -17.5 38t-38.5 14z" />
<glyph unicode="&#xb4;" horiz-adv-x="231" d="M167 604q8 8 18 12t19 4q18 0 26.5 -10t8.5 -27q0 -21 -23 -41l-171 -153q-10 -8 -18.5 -12t-17.5 -4q-34 0 -34 36q0 21 21 42z" />
<glyph unicode="&#xb5;" horiz-adv-x="597" d="M-177 -216q-1 -1 -2.5 -3.5t-2.5 -7.5q2 8 5 11zM31 379q2 5 7.5 10t10.5 6l28 9q1 0 2 0.5t3 0.5q33 0 33 -33q0 -5 -0.5 -9t-3.5 -10l2 3l-63 -177q-14 -40 -14 -65q0 -28 16 -42t41 -14q29 0 60 11t62 31q2 17 5.5 38t11.5 44l32 89l32 89q6 16 21 30.5t37 14.5 q33 0 33 -33q0 -5 -0.5 -9t-3.5 -10l2 3l-33 -89l-32 -89q-13 -33 -13 -60q0 -32 17 -46t43 -14q44 0 100.5 30.5t110.5 93.5q22 24 43 24q36 0 36 -35q0 -13 -16 -35q-74 -86 -154 -128t-146 -42q-38 0 -65 13.5t-43 38.5q-41 -24 -81 -38t-78 -14q-26 0 -49 5.5t-41 20.5 l-38 -108l-38 -107q-8 -17 -22 -29.5t-36 -12.5q-33 0 -33 32q0 2 0.5 3t0.5 3q0 3 2 11z" />
<glyph unicode="&#xb6;" horiz-adv-x="634" d="M282 -4q-8 -17 -24 -29.5t-35 -12.5q-32 0 -32 32q0 3 1 6v-3v3q1 6 5 11q-1 -2 -2.5 -4t-2.5 -7q0 7 2 11l103 289q-43 -17 -86.5 -23.5t-77.5 -6.5q-79 0 -118.5 31.5t-39.5 88.5t24.5 103.5t65 84t94 66.5t110.5 50t114 34.5t106 20.5h9q33 0 33 -32v-5q0 -1 -2 -6v-2 l-108 -308v2q-10 -35 -16 -48zM330 388v1l2 2l-3 -8zM169 356q21 0 47.5 3.5t50 9t41 11t22.5 9.5l88 248q-34 -7 -73.5 -16.5t-78 -22.5t-74.5 -30.5t-63 -40t-43.5 -50t-16.5 -61.5q0 -60 100 -60zM564 705q7 17 23 31.5t37 14.5q32 0 32 -32v-6q0 -4 -2 -8l-251 -697 q-7 -17 -24 -30.5t-35 -13.5q-32 0 -32 33q0 5 0.5 8.5t3.5 9.5l-2 -3z" />
<glyph unicode="&#xb7;" horiz-adv-x="233" d="M211 410q4 0 11 -2.5t13.5 -7.5t11 -13t4.5 -20q0 -16 -8.5 -31t-20.5 -26t-25 -18t-22 -7q-22 0 -31 12.5t-9 29.5q0 7 6 21t16 27.5t24 24t30 10.5z" />
<glyph unicode="&#xb8;" horiz-adv-x="211" d="M35 7q8 15 24 25.5t30 10.5q35 0 35 -31q0 -13 -9 -26l1 1q-6 -11 -11.5 -22.5t-11.5 -22.5q121 -3 121 -92q0 -37 -33 -94t-90 -125q-10 -11 -21 -18t-22 -7q-17 0 -27.5 12t-10.5 24q0 18 19 37l-1 -2q93 106 93 147q0 25 -71 25q-5 0 -7.5 -0.5t-7.5 -0.5 q-5 -1 -13 -1h-14q-33 0 -33 33q0 7 7 25z" />
<glyph unicode="&#xb9;" horiz-adv-x="382" d="M142 711v-1q5 18 20.5 29t35.5 11q34 0 34 -32q0 -6 -0.5 -12t-5.5 -13l-59 -166l-60 -167q-6 -14 -15 -24.5t-26 -14.5q-8 -3 -15 -3q-34 0 -34 35q0 11 3 19z" />
<glyph unicode="&#xba;" horiz-adv-x="530" d="M231 613q-9 -1 -21 -13l-4 18q-2 8 -3 17zM315 459q-38 29 -65.5 65.5t-39.5 75.5q-10 -9 -19 -24.5t-16.5 -33.5t-12 -37t-4.5 -36q0 -32 15.5 -52.5t54.5 -20.5q52 0 87 63zM146 641q17 19 31 31.5t31 20.5q11 33 36 53.5t55 20.5q22 0 47 -14t45.5 -38.5t34 -58 t13.5 -72.5q0 -19 -2.5 -34t-10.5 -39q42 -24 89 -24t77 34l-1 -1q19 24 42 24q17 0 27 -8.5t10 -26.5q0 -9 -4.5 -17t-12.5 -19q-38 -43 -79.5 -61t-85.5 -18q-28 0 -53 4.5t-52 18.5q-35 -58 -83.5 -86t-96.5 -28q-72 0 -105 36.5t-33 103.5q0 56 24.5 108t56.5 90z M343 526q2 8 3 15.5t1 15.5v8q0 4 -1 8q16 -18 36 -33zM294 666q-11 7 -17 7h-4q-18 0 -24.5 14.5t5.5 27.5q-3 -3 -3 -5l47 -18q-4 -8 -4 -18v-8zM294 666q2 -20 16.5 -45t35.5 -48q-4 33 -19.5 57.5t-32.5 35.5z" />
<glyph unicode="&#xbb;" horiz-adv-x="566" d="M256 111q-17 -12 -31 -12q-32 0 -32 34q0 32 30 52l230 157l-59 84l-59 83l-2 2q-1 1 -1 2v1q-2 4 -2 13q0 7 6 17.5t15 20t19.5 16t19.5 6.5q15 0 26 -11l144 -202l-2 3q6 -6 7 -11t1 -15q0 -28 -30 -48zM84 111q-17 -12 -31 -12q-32 0 -32 34q0 32 30 52l230 157 l-59 84l-59 83l-2 2q-1 1 -1 2v1q-2 4 -2 13q0 7 6 17.5t15 20t19.5 16t19.5 6.5q15 0 26 -11l144 -202l-2 3q6 -6 7 -11t1 -15q0 -28 -30 -48z" />
<glyph unicode="&#xbc;" horiz-adv-x="548" d="M373 369q6 15 23 27t31 12q37 0 37 -36v-6q0 -4 -2 -9v3q-1 -2 -1 -3t-1 -3t-1 -3l2 3q-6 -19 -12 -36l-13 -34q-4 -10 -6 -15.5t-3.5 -11l-3.5 -12.5l-7 -19h12q2 4 2.5 8.5t2.5 9.5l19 58q10 29 22 53t27 39t33 15q35 0 35 -34q0 -6 0.5 -10t-3.5 -9l-23 -63l-24 -67 h34q41 0 41 -35q0 -8 -5 -18t-12.5 -18.5t-17.5 -14.5t-20 -6h-54l-4 -16q-2 -8 -5 -17l-14 -45q-8 -24 -17 -44.5t-19 -35t-22 -19.5q-7 -4 -13 -5t-12 -1q-34 0 -34 34q0 13 6 23q8 21 14.5 40.5t14.5 38.5l-1 -1q3 9 5 13.5t3 8.5l4 9l6 17h-46q-2 0 -2.5 -0.5t-2.5 -0.5 q-38 0 -38 38q0 1 0.5 3.5t0.5 4.5zM535 711v-1q19 31 56 31q15 -2 22.5 -11t7.5 -21q0 -14 -12 -31l-275 -404l-276 -404q-12 -17 -23 -23.5t-27 -6.5q-33 0 -33 33q0 14 9 29zM289 705v-1q5 18 20.5 29t35.5 11q34 0 34 -32q0 -6 -0.5 -12t-5.5 -13l-59 -166l-60 -167 q-6 -14 -15 -24.5t-26 -14.5q-8 -3 -15 -3q-34 0 -34 35q0 11 3 19z" />
<glyph unicode="&#xbd;" horiz-adv-x="548" d="M535 711v-1q19 31 56 31q15 -2 22.5 -11t7.5 -21q0 -14 -12 -31l-275 -404l-276 -404q-12 -17 -23 -23.5t-27 -6.5q-33 0 -33 33q0 14 9 29zM289 705v-1q5 18 20.5 29t35.5 11q34 0 34 -32q0 -6 -0.5 -12t-5.5 -13l-59 -167l-60 -166q-6 -14 -15 -24.5t-26 -14.5 q-8 -3 -15 -3q-34 0 -34 35q0 11 3 19zM469 310q-8 -15 -23 -25.5t-34 -10.5q-34 0 -34 33q0 23 10.5 43t26 36.5t33 27.5t30.5 16q15 5 26 6.5t22 1.5q48 0 77.5 -32t29.5 -78q0 -34 -18 -69t-46.5 -68.5t-63.5 -66t-69 -60.5h87q43 0 43 -35q0 -9 -5.5 -19t-14 -18.5 t-18.5 -14.5t-18 -6h-204q-40 0 -40 43q2 18 12.5 29.5t24.5 22.5q1 1 5.5 4.5t7 6t2 1.5t-7.5 -8l24 20l69 56q36 30 66.5 60.5t51 59t20.5 52.5q0 13 -10.5 20t-24.5 7q-7 0 -9 -1q-22 -9 -26 -28l1 7z" />
<glyph unicode="&#xbe;" horiz-adv-x="548" d="M373 369q6 15 23 27t31 12q37 0 37 -36v-6q0 -4 -2 -9v3q-1 -2 -1 -3t-1 -3t-1 -3l2 3q-6 -19 -12 -36l-13 -34q-4 -10 -6 -15.5t-3.5 -11l-3.5 -12.5l-7 -19h12q2 4 2.5 8.5t2.5 9.5l19 58q10 29 22 53t27 39t33 15q35 0 35 -34q0 -6 0.5 -10t-3.5 -9l-23 -63l-24 -67 h34q41 0 41 -35q0 -8 -5 -18t-12.5 -18.5t-17.5 -14.5t-20 -6h-54l-4 -16q-2 -8 -5 -17l-14 -45q-8 -24 -17 -44.5t-19 -35t-22 -19.5q-7 -4 -13 -5t-12 -1q-34 0 -34 34q0 13 6 23q8 21 14.5 40.5t14.5 38.5l-1 -1q3 9 5 13.5t3 8.5l4 9l6 17h-46q-2 0 -2.5 -0.5t-2.5 -0.5 q-38 0 -38 38q0 1 0.5 3.5t0.5 4.5zM535 711v-1q19 31 56 31q15 -2 22.5 -11t7.5 -21q0 -14 -12 -31l-275 -404l-276 -404q-12 -17 -23 -23.5t-27 -6.5q-33 0 -33 33q0 14 9 29zM229 657q-18 0 -32 -15l1 -1q-17 -20 -38 -20q-14 0 -28.5 12.5t-14.5 28.5q0 19 15.5 35 t36.5 28t42.5 18.5t32.5 6.5q15 0 37.5 -6t44 -21t37 -40t15.5 -64q0 -28 -13 -56.5t-40 -50.5q11 -19 13.5 -41t2.5 -42q-1 -31 -14.5 -57.5t-36 -46.5t-52 -31.5t-61.5 -11.5q-27 0 -51.5 9t-43.5 24.5t-30 37.5t-11 49q0 10 5.5 20t14 17.5t18.5 12.5t20 5q14 0 21.5 -11 t12.5 -27q2 -8 5 -17t7 -12q19 -15 47 -15q21 0 38.5 10t17.5 30v5q0 7 -2.5 17.5t-7.5 24.5q-1 7 -65 9q-16 0 -22.5 12.5t1.5 26.5l27 42q2 4 9 7.5t12 3.5q85 0 85 42q0 24 -17.5 38t-38.5 14z" />
<glyph unicode="&#xbf;" horiz-adv-x="409" d="M270 93q-1 2 -1 2.5t-1 2.5q-7 7 -7 24q0 15 6.5 26t16 19t20 12t17.5 4q20 0 31.5 -15t11.5 -47q0 -28 -13.5 -57.5t-43 -53.5t-75.5 -39.5t-112 -15.5q-140 0 -140 107q0 30 14 63.5t37.5 68.5t54.5 73l64 76l48 56l47 58q18 23 26 42t8 35q0 7 5 18t13.5 20.5 t19.5 16.5t23 7q33 0 33 -42q0 -30 -14 -61.5t-36.5 -64t-50.5 -64.5l-59 -65l-45 -51l-41 -49q-54 -75 -54 -113q0 -20 20 -29t53 -9q42 0 67 5t37.5 11.5t16.5 14t4 13.5q0 -2 -0.5 -1.5t-0.5 2.5zM339 617q-22 0 -31 13t-9 30q0 15 7.5 29.5t19 26t25 18.5t24.5 7 q22 0 31 -12.5t9 -29.5q0 -15 -8 -29.5t-20 -26.5t-25 -19t-23 -7z" />
<glyph unicode="&#xc0;" horiz-adv-x="613" d="M572 164q22 31 57 31q13 -3 20.5 -9.5t7.5 -22.5q0 -12 -10 -29q-29 -44 -61.5 -78t-65.5 -57.5t-64 -35.5t-58 -12q-39 0 -60.5 20t-28.5 49q-41 -28 -86 -44.5t-87 -16.5q-34 0 -63.5 12t-51 37.5t-34 65.5t-12.5 97q0 125 46.5 223t126.5 169.5t187 115.5t229 62h8 q33 0 33 -32v-5q0 -1 -2 -6v-2l-193 -548v-1q-6 -19 -8.5 -34t-2.5 -26q0 -43 25 -43q28 0 69 29.5t79 89.5v1zM318 140q0 1 0.5 2t0.5 3q1 2 1 3l172 489q-91 -19 -168.5 -53.5t-134.5 -88.5t-89 -127.5t-32 -170.5q1 -145 101 -145q22 0 46.5 8.5t45.5 21.5t36.5 28.5 t20.5 30.5v-1zM229 869l1 -2q-9 7 -9 24q0 7 6.5 17.5t16 20.5t19.5 16.5t17 6.5q3 0 10 -2t15 -8l129 -159q5 -9 5.5 -13t0.5 -6q0 -7 -6.5 -17.5t-15.5 -20t-19 -16t-18 -6.5q-11 0 -17 3.5t-11 11.5l2 -2z" />
<glyph unicode="&#xc1;" horiz-adv-x="613" d="M572 164q22 31 57 31q13 -3 20.5 -9.5t7.5 -22.5q0 -12 -10 -29q-29 -44 -61.5 -78t-65.5 -57.5t-64 -35.5t-58 -12q-39 0 -60.5 20t-28.5 49q-41 -28 -86 -44.5t-87 -16.5q-34 0 -63.5 12t-51 37.5t-34 65.5t-12.5 97q0 125 46.5 223t126.5 169.5t187 115.5t229 62h8 q33 0 33 -32v-5q0 -1 -2 -6v-2l-193 -548v-1q-6 -19 -8.5 -34t-2.5 -26q0 -43 25 -43q28 0 69 29.5t79 89.5v1zM318 140q0 1 0.5 2t0.5 3q1 2 1 3l172 489q-91 -19 -168.5 -53.5t-134.5 -88.5t-89 -127.5t-32 -170.5q1 -145 101 -145q22 0 46.5 8.5t45.5 21.5t36.5 28.5 t20.5 30.5v-1zM640 972q8 8 18 12t19 4q18 0 26.5 -10t8.5 -27q0 -21 -23 -41l-171 -153q-10 -8 -18.5 -12t-17.5 -4q-34 0 -34 36q0 21 21 42z" />
<glyph unicode="&#xc2;" horiz-adv-x="614" d="M572 164q22 31 57 31q13 -3 20.5 -9.5t7.5 -22.5q0 -12 -10 -29q-29 -44 -61.5 -78t-65.5 -57.5t-64 -35.5t-58 -12q-39 0 -60.5 20t-28.5 49q-41 -28 -86 -44.5t-87 -16.5q-34 0 -63.5 12t-51 37.5t-34 65.5t-12.5 97q0 125 46.5 223t126.5 169.5t187 115.5t229 62h8 q33 0 33 -32v-5q0 -1 -2 -6v-2l-193 -548v-1q-6 -19 -8.5 -34t-2.5 -26q0 -43 25 -43q28 0 69 29.5t79 89.5v1zM318 140q0 1 0.5 2t0.5 3q1 2 1 3l172 489q-91 -19 -168.5 -53.5t-134.5 -88.5t-89 -127.5t-32 -170.5q1 -145 101 -145q22 0 46.5 8.5t45.5 21.5t36.5 28.5 t20.5 30.5v-1zM299 751q-9 -6 -17.5 -10t-15.5 -4q-32 0 -32 35q0 28 28 49l162 118q17 10 30 10q15 0 28 -13l72 -121q3 -6 3.5 -10.5t0.5 -6.5q0 -7 -6.5 -17.5t-15.5 -20t-19.5 -16.5t-18.5 -7q-19 0 -29 18q-8 12 -14 22l-11 19l-12 19q-7 10 -14 23z" />
<glyph unicode="&#xc3;" horiz-adv-x="613" d="M572 164q22 31 57 31q13 -3 20.5 -9.5t7.5 -22.5q0 -12 -10 -29q-29 -44 -61.5 -78t-65.5 -57.5t-64 -35.5t-58 -12q-39 0 -60.5 20t-28.5 49q-41 -28 -86 -44.5t-87 -16.5q-34 0 -63.5 12t-51 37.5t-34 65.5t-12.5 97q0 125 46.5 223t126.5 169.5t187 115.5t229 62h8 q33 0 33 -32v-5q0 -1 -2 -6v-2l-193 -548v-1q-6 -19 -8.5 -34t-2.5 -26q0 -43 25 -43q28 0 69 29.5t79 89.5v1zM318 140q0 1 0.5 2t0.5 3q1 2 1 3l172 489q-91 -19 -168.5 -53.5t-134.5 -88.5t-89 -127.5t-32 -170.5q1 -145 101 -145q22 0 46.5 8.5t45.5 21.5t36.5 28.5 t20.5 30.5v-1zM450 797l-2 2zM412 775q-6 -19 -22 -34t-37 -15q-33 0 -33 41q7 25 23 48.5t36.5 41t42.5 28t43 10.5q18 0 31.5 -5t25 -12.5t21 -18t19.5 -20.5q14 -17 30.5 -30.5t39.5 -13.5q17 0 29.5 7.5t23.5 36.5q8 17 22.5 30.5t36.5 13.5q32 0 32 -32q0 -15 -7.5 -32 t-18.5 -33t-23 -29t-22 -20q-23 -17 -47.5 -26t-51.5 -9q-45 0 -73 20t-52 45l-17 17q-9 9 -14 13h1q-7 4 -13 4q-8 0 -15.5 -8t-9.5 -16z" />
<glyph unicode="&#xc4;" horiz-adv-x="613" d="M572 164q22 31 57 31q13 -3 20.5 -9.5t7.5 -22.5q0 -12 -10 -29q-29 -44 -61.5 -78t-65.5 -57.5t-64 -35.5t-58 -12q-39 0 -60.5 20t-28.5 49q-41 -28 -86 -44.5t-87 -16.5q-34 0 -63.5 12t-51 37.5t-34 65.5t-12.5 97q0 125 46.5 223t126.5 169.5t187 115.5t229 62h8 q33 0 33 -32v-5q0 -1 -2 -6v-2l-193 -548v-1q-6 -19 -8.5 -34t-2.5 -26q0 -43 25 -43q28 0 69 29.5t79 89.5v1zM318 140q0 1 0.5 2t0.5 3q1 2 1 3l172 489q-91 -19 -168.5 -53.5t-134.5 -88.5t-89 -127.5t-32 -170.5q1 -145 101 -145q22 0 46.5 8.5t45.5 21.5t36.5 28.5 t20.5 30.5v-1zM576 865v-1q5 19 22 33.5t37 14.5q33 0 33 -33q0 -2 -0.5 -4.5t-0.5 -5.5l-32 -102q-6 -20 -23 -34t-37 -14q-32 0 -32 32q0 4 0.5 8.5t3.5 10.5l-2 -4zM464 865v-1q5 19 22 33.5t37 14.5q33 0 33 -33q0 -2 -0.5 -4.5t-0.5 -5.5l-32 -102q-6 -20 -23 -34 t-37 -14q-32 0 -32 32q0 4 0.5 8.5t3.5 10.5l-2 -4z" />
<glyph unicode="&#xc5;" horiz-adv-x="613" d="M572 164q22 31 57 31q13 -3 20.5 -9.5t7.5 -22.5q0 -12 -10 -29q-29 -44 -61.5 -78t-65.5 -57.5t-64 -35.5t-58 -12q-39 0 -60.5 20t-28.5 49q-41 -28 -86 -44.5t-87 -16.5q-34 0 -63.5 12t-51 37.5t-34 65.5t-12.5 97q0 125 46.5 223t126.5 169.5t187 115.5t229 62h8 q33 0 33 -32v-5q0 -1 -2 -6v-2l-193 -548v-1q-6 -19 -8.5 -34t-2.5 -26q0 -43 25 -43q28 0 69 29.5t79 89.5v1zM318 140q0 1 0.5 2t0.5 3q1 2 1 3l172 489q-91 -19 -168.5 -53.5t-134.5 -88.5t-89 -127.5t-32 -170.5q1 -145 101 -145q22 0 46.5 8.5t45.5 21.5t36.5 28.5 t20.5 30.5v-1zM559 988q45 0 68 -23.5t23 -65.5q0 -33 -15 -68.5t-38 -64.5t-50.5 -48t-52.5 -19q-20 0 -35.5 9.5t-27 26t-17.5 39t-6 47.5q0 35 12.5 65.5t33 53t48 35.5t57.5 13zM547 893h-4q-2 0 -3 1zM557 873q0 14 -14 20q-2 0 -4.5 0.5t-3.5 0.5l-3 1q-31 0 -31 -48 q0 -20 5 -34.5t13 -19.5h1q8 0 14.5 10t11.5 23.5t8 27t3 19.5z" />
<glyph unicode="&#xc6;" horiz-adv-x="920" d="M603 703q0 -2 -0.5 -3t-0.5 -3zM750 732q32 0 60.5 -8.5t52 -22.5t41 -33.5t26.5 -40.5q17 -23 17 -58q0 -32 -16 -74t-43 -88.5t-63 -95.5t-75.5 -95t-81.5 -87.5t-80 -72.5q20 -6 41 -8t43 -2q52 0 106.5 28.5t101.5 92.5q21 28 47 28q36 0 36 -34q0 -13 -12 -31 q-35 -48 -74 -81.5t-79 -55t-80 -31t-78 -9.5q-39 0 -77 8t-73 28q-26 -13 -47 -18.5t-40 -5.5q-32 0 -53 16.5t-30 45.5q-42 -32 -90.5 -50t-93.5 -18q-34 0 -63.5 12t-51 37.5t-34 65.5t-12.5 97q0 125 46.5 223t126.5 169.5t187 115.5t229 62h8q33 0 33 -32q0 -3 -0.5 -6 t-3.5 -8l-2 -9q32 22 70.5 34t80.5 12zM523 373q-13 12 -23 28l-19 -52q19 13 42 24zM500 401q-11 17 -16 37t-5 42q0 7 0.5 12t3.5 11q4 9 13.5 11t17.5 -1.5t13 -11t2 -17.5zM381 199q14 50 39.5 87.5t60.5 62.5l-70 -199q-2 -14 -3 -26t-1 -20q0 -46 22 -46q5 0 10 1.5 t13 3.5l-8 -43q-35 29 -53 63.5t-18 69.5q0 11 2 22t6 24zM499 88q1 0 9 5h-1q2 1 3 2t3 2q4 -2 7 -4.5t7 -4.5h-28zM722 301q19 23 35.5 45t30.5 44q15 -7 15 -29q0 -14 -6.5 -25t-16 -18.5t-20 -12t-18.5 -4.5h-20zM466 178q0 -19 12 -41t35 -40q48 33 103.5 88t105.5 116 q-11 0 -19.5 0.5t-16.5 1.5q-9 1 -17.5 1.5t-15.5 0.5q-80 0 -122 -24t-61 -81q-2 -6 -3 -11.5t-1 -10.5zM777 394l6 -2q3 -1 5 -2q30 45 48 84t18 68q0 1 -1.5 5.5t-3.5 7.5q-5 9 -7 20q-14 28 -48.5 45.5t-79.5 17.5q-27 0 -52.5 -10t-45.5 -28t-32 -42t-12 -52 q0 -46 48.5 -76t156.5 -36zM319 140v3q1 1 1 2l-1 -6v1zM169 52q22 0 46 8t45.5 21t37.5 29.5t21 32.5l1 5l172 489q-91 -19 -168.5 -53.5t-134.5 -88.5t-89 -127.5t-32 -170.5q1 -145 101 -145z" />
<glyph unicode="&#xc7;" horiz-adv-x="511" d="M554 556q0 -7 -6.5 -17.5t-15.5 -20t-19.5 -16.5t-18.5 -7q-26 0 -33 28l2 -4q-23 62 -56 95t-76 33q-33 0 -67 -20t-65 -56t-57.5 -85.5t-44.5 -107.5q-14 -48 -21.5 -91t-7.5 -76q0 -84 39 -126t106 -42q32 0 67 9t69.5 26t67.5 41t61 54q11 11 19 17t21 6 q17 0 27 -9.5t10 -26.5q0 -19 -19 -38v1q-38 -40 -81.5 -71.5t-89 -54t-91 -34.5t-87.5 -12q-100 0 -155.5 59t-55.5 177q0 64 15.5 130t42.5 127.5t64 115.5t79 94t88 63.5t92 23.5q69 0 117.5 -45t78.5 -130zM192 7q8 15 24 25.5t30 10.5q35 0 35 -31q0 -13 -9 -26l1 1 q-6 -11 -11.5 -22.5t-11.5 -22.5q121 -3 121 -92q0 -37 -33 -94t-90 -125q-10 -11 -21 -18t-22 -7q-17 0 -27.5 12t-10.5 24q0 18 19 37l-1 -2q93 106 93 147q0 25 -71 25q-5 0 -7.5 -0.5t-7.5 -0.5q-5 -1 -12 -1h-15q-33 0 -33 33q0 7 7 25z" />
<glyph unicode="&#xc8;" horiz-adv-x="519" d="M535 614q0 -2 0.5 -2.5t0.5 -2.5q0 -7 -6.5 -17.5t-15.5 -20t-19.5 -16.5t-18.5 -7q-20 0 -31 20q-15 32 -52.5 55t-87.5 24q-27 -2 -50 -11.5t-40 -27.5t-26.5 -43t-9.5 -56q0 -54 48 -82t151 -33q26 -5 26 -33q0 -14 -6.5 -25t-15.5 -18.5t-19.5 -12t-18.5 -4.5 q-17 0 -31.5 0.5t-26.5 1.5q-10 1 -17.5 1.5t-15.5 0.5q-42 0 -72.5 -5t-52 -17t-35.5 -32.5t-23 -51.5q-2 -8 -2 -19q0 -24 15.5 -48t43 -43t65.5 -31t82 -12q52 0 106 28.5t101 92.5q21 28 47 28q36 0 36 -34q0 -13 -12 -31q-35 -48 -74 -81.5t-79 -55t-80 -31t-78 -9.5 q-48 0 -95.5 14.5t-85.5 41t-61.5 63.5t-23.5 82q0 25 7 46q21 64 56.5 108t86.5 66q-40 43 -40 109q0 57 22.5 104.5t58.5 81t80.5 52.5t88.5 19q33 0 63 -9t56 -24.5t46 -36.5t32 -45zM114 873l1 -2q-9 7 -9 24q0 7 6.5 17.5t16 20.5t19.5 16.5t17 6.5q3 0 10 -2t15 -8 l129 -159q5 -9 5.5 -13t0.5 -6q0 -7 -6.5 -17.5t-15.5 -20t-19 -16t-18 -6.5q-11 0 -17 3.5t-11 11.5l2 -2z" />
<glyph unicode="&#xc9;" horiz-adv-x="519" d="M535 614q0 -2 0.5 -2.5t0.5 -2.5q0 -7 -6.5 -17.5t-15.5 -20t-19.5 -16.5t-18.5 -7q-20 0 -31 20q-15 32 -52.5 55t-87.5 24q-27 -2 -50 -11.5t-40 -27.5t-26.5 -43t-9.5 -56q0 -54 48 -82t151 -33q26 -5 26 -33q0 -14 -6.5 -25t-15.5 -18.5t-19.5 -12t-18.5 -4.5 q-17 0 -31.5 0.5t-26.5 1.5q-10 1 -17.5 1.5t-15.5 0.5q-42 0 -72.5 -5t-52 -17t-35.5 -32.5t-23 -51.5q-2 -8 -2 -19q0 -24 15.5 -48t43 -43t65.5 -31t82 -12q52 0 106 28.5t101 92.5q21 28 47 28q36 0 36 -34q0 -13 -12 -31q-35 -48 -74 -81.5t-79 -55t-80 -31t-78 -9.5 q-48 0 -95.5 14.5t-85.5 41t-61.5 63.5t-23.5 82q0 25 7 46q21 64 56.5 108t86.5 66q-40 43 -40 109q0 57 22.5 104.5t58.5 81t80.5 52.5t88.5 19q33 0 63 -9t56 -24.5t46 -36.5t32 -45zM539 947q8 8 18 12t19 4q18 0 26.5 -10t8.5 -27q0 -21 -23 -41l-171 -153 q-10 -8 -18.5 -12t-17.5 -4q-34 0 -34 36q0 21 21 42z" />
<glyph unicode="&#xca;" horiz-adv-x="519" d="M535 614q0 -2 0.5 -2.5t0.5 -2.5q0 -7 -6.5 -17.5t-15.5 -20t-19.5 -16.5t-18.5 -7q-20 0 -31 20q-15 32 -52.5 55t-87.5 24q-27 -2 -50 -11.5t-40 -27.5t-26.5 -43t-9.5 -56q0 -54 48 -82t151 -33q26 -5 26 -33q0 -14 -6.5 -25t-15.5 -18.5t-19.5 -12t-18.5 -4.5 q-17 0 -31.5 0.5t-26.5 1.5q-10 1 -17.5 1.5t-15.5 0.5q-42 0 -72.5 -5t-52 -17t-35.5 -32.5t-23 -51.5q-2 -8 -2 -19q0 -24 15.5 -48t43 -43t65.5 -31t82 -12q52 0 106 28.5t101 92.5q21 28 47 28q36 0 36 -34q0 -13 -12 -31q-35 -48 -74 -81.5t-79 -55t-80 -31t-78 -9.5 q-48 0 -95.5 14.5t-85.5 41t-61.5 63.5t-23.5 82q0 25 7 46q21 64 56.5 108t86.5 66q-40 43 -40 109q0 57 22.5 104.5t58.5 81t80.5 52.5t88.5 19q33 0 63 -9t56 -24.5t46 -36.5t32 -45zM252 723q-9 -6 -17.5 -10t-15.5 -4q-32 0 -32 35q0 28 28 49l162 118q17 10 30 10 q15 0 28 -13l72 -121q3 -6 3.5 -10.5t0.5 -6.5q0 -7 -6.5 -17.5t-15.5 -20t-19.5 -16.5t-18.5 -7q-19 0 -29 18q-8 12 -14 22l-12 19l-12 19q-6 10 -13 23z" />
<glyph unicode="&#xcb;" horiz-adv-x="520" d="M535 614q0 -2 0.5 -2.5t0.5 -2.5q0 -7 -6.5 -17.5t-15.5 -20t-19.5 -16.5t-18.5 -7q-20 0 -31 20q-15 32 -52.5 55t-87.5 24q-27 -2 -50 -11.5t-40 -27.5t-26.5 -43t-9.5 -56q0 -54 48 -82t151 -33q26 -5 26 -33q0 -14 -6.5 -25t-15.5 -18.5t-19.5 -12t-18.5 -4.5 q-17 0 -31.5 0.5t-26.5 1.5q-10 1 -17.5 1.5t-15.5 0.5q-42 0 -72.5 -5t-52 -17t-35.5 -32.5t-23 -51.5q-2 -8 -2 -19q0 -24 15.5 -48t43 -43t65.5 -31t82 -12q52 0 106 28.5t101 92.5q21 28 47 28q36 0 36 -34q0 -13 -12 -31q-35 -48 -74 -81.5t-79 -55t-80 -31t-78 -9.5 q-48 0 -95.5 14.5t-85.5 41t-61.5 63.5t-23.5 82q0 25 7 46q21 64 56.5 108t86.5 66q-40 43 -40 109q0 57 22.5 104.5t58.5 81t80.5 52.5t88.5 19q33 0 63 -9t56 -24.5t46 -36.5t32 -45zM403 860v-1q5 19 22 33.5t37 14.5q33 0 33 -33q0 -2 -0.5 -4.5t-0.5 -5.5l-32 -102 q-6 -20 -23 -34t-37 -14q-32 0 -32 32q0 4 0.5 8.5t3.5 10.5l-2 -4zM291 860v-1q5 19 22 33.5t37 14.5q33 0 33 -33q0 -2 -0.5 -4.5t-0.5 -5.5l-32 -102q-6 -20 -23 -34t-37 -14q-32 0 -32 32q0 4 0.5 8.5t3.5 10.5l-2 -4z" />
<glyph unicode="&#xcc;" horiz-adv-x="807" d="M46 279q38 -18 82 -33.5t87.5 -27t83.5 -18t70 -6.5h11q1 18 4 36.5t9 42.5t16 55.5t26 76.5q20 58 48 117t61.5 107.5t72 79.5t80.5 32q43 0 63 -28t20 -79q0 -47 -19 -119t-54.5 -152.5t-87.5 -160t-118 -142.5q18 -19 55 -19q25 0 53 9.5t55.5 27t54 41t50.5 51.5 q11 13 21 18t21 7q38 0 38 -34q0 -14 -14 -34q-32 -40 -70.5 -73t-79 -56t-81 -36t-75.5 -13q-36 0 -63 11t-47 35q-35 -20 -69 -29.5t-68 -9.5q-44 0 -87.5 17t-83.5 49t-73.5 77t-56.5 101q-5 5 -5.5 9t-0.5 11q0 10 6.5 20.5t16 19.5t20 14.5t17.5 5.5q1 0 5 -0.5t6 -0.5 zM427 148q-9 -23 -21 -33t-26 -13q-2 8 -2 16v19v10q0 2 0.5 4.5t0.5 5.5zM386 70q-5 15 -6 32q-8 -2 -16 -2h-17h-4q-39 0 -92.5 9.5t-107.5 25.5q38 -42 78.5 -64.5t85.5 -22.5q20 0 38 5t41 17zM440 110l16 16l16 15q1 -11 3.5 -21.5t5.5 -20.5zM471 164v-12q0 -6 1 -11 q47 51 86.5 115t68 128.5t44.5 122.5t16 96q0 43 -15 45q-19 -3 -39 -26.5t-40 -59t-37.5 -78t-32.5 -83t-25 -75t-14 -52.5h1q-14 -70 -14 -110zM451 880l1 -2q-9 7 -9 24q0 7 6.5 17.5t16 20.5t19.5 16.5t17 6.5q3 0 10 -2t15 -8l129 -159q5 -9 5.5 -13t0.5 -6 q0 -7 -6.5 -17.5t-15.5 -20t-19 -16t-18 -6.5q-11 0 -17 3.5t-11 11.5l2 -2z" />
<glyph unicode="&#xcd;" horiz-adv-x="807" d="M46 279q38 -18 82 -33.5t87.5 -27t83.5 -18t70 -6.5h11q1 18 4 36.5t9 42.5t16 55.5t26 76.5q20 58 48 117t61.5 107.5t72 79.5t80.5 32q43 0 63 -28t20 -79q0 -47 -19 -119t-54.5 -152.5t-87.5 -160t-118 -142.5q18 -19 55 -19q25 0 53 9.5t55.5 27t54 41t50.5 51.5 q11 13 21 18t21 7q38 0 38 -34q0 -14 -14 -34q-32 -40 -70.5 -73t-79 -56t-81 -36t-75.5 -13q-36 0 -63 11t-47 35q-35 -20 -69 -29.5t-68 -9.5q-44 0 -87.5 17t-83.5 49t-73.5 77t-56.5 101q-5 5 -5.5 9t-0.5 11q0 10 6.5 20.5t16 19.5t20 14.5t17.5 5.5q1 0 5 -0.5t6 -0.5 zM427 148q-9 -23 -21 -33t-26 -13q-2 8 -2 16v19v10q0 2 0.5 4.5t0.5 5.5zM386 70q-5 15 -6 32q-8 -2 -16 -2h-17h-4q-39 0 -92.5 9.5t-107.5 25.5q38 -42 78.5 -64.5t85.5 -22.5q20 0 38 5t41 17zM440 110l16 16l16 15q1 -11 3.5 -21.5t5.5 -20.5zM471 164v-12q0 -6 1 -11 q47 51 86.5 115t68 128.5t44.5 122.5t16 96q0 43 -15 45q-19 -3 -39 -26.5t-40 -59t-37.5 -78t-32.5 -83t-25 -75t-14 -52.5h1q-14 -70 -14 -110zM854 956q8 8 18 12t19 4q18 0 26.5 -10t8.5 -27q0 -21 -23 -41l-171 -153q-10 -8 -18.5 -12t-17.5 -4q-34 0 -34 36 q0 21 21 42z" />
<glyph unicode="&#xce;" horiz-adv-x="807" d="M46 279q38 -18 82 -33.5t87.5 -27t83.5 -18t70 -6.5h11q1 18 4 36.5t9 42.5t16 55.5t26 76.5q20 58 48 117t61.5 107.5t72 79.5t80.5 32q43 0 63 -28t20 -79q0 -47 -19 -119t-54.5 -152.5t-87.5 -160t-118 -142.5q18 -19 55 -19q25 0 53 9.5t55.5 27t54 41t50.5 51.5 q11 13 21 18t21 7q38 0 38 -34q0 -14 -14 -34q-32 -40 -70.5 -73t-79 -56t-81 -36t-75.5 -13q-36 0 -63 11t-47 35q-35 -20 -69 -29.5t-68 -9.5q-44 0 -87.5 17t-83.5 49t-73.5 77t-56.5 101q-5 5 -5.5 9t-0.5 11q0 10 6.5 20.5t16 19.5t20 14.5t17.5 5.5q1 0 5 -0.5t6 -0.5 zM427 148q-9 -23 -21 -33t-26 -13q-2 8 -2 16v19v10q0 2 0.5 4.5t0.5 5.5zM386 70q-5 15 -6 32q-8 -2 -16 -2h-17h-4q-39 0 -92.5 9.5t-107.5 25.5q38 -42 78.5 -64.5t85.5 -22.5q20 0 38 5t41 17zM440 110l16 16l16 15q1 -11 3.5 -21.5t5.5 -20.5zM471 164v-12q0 -6 1 -11 q47 51 86.5 115t68 128.5t44.5 122.5t16 96q0 43 -15 45q-19 -3 -39 -26.5t-40 -59t-37.5 -78t-32.5 -83t-25 -75t-14 -52.5h1q-14 -70 -14 -110zM586 689q-9 -6 -17.5 -10t-15.5 -4q-32 0 -32 35q0 28 28 49l162 118q17 10 30 10q15 0 28 -13l72 -121q3 -6 3.5 -10.5 t0.5 -6.5q0 -7 -6.5 -17.5t-15.5 -20t-19.5 -16.5t-18.5 -7q-19 0 -29 18q-8 12 -14 22l-12 19l-12 19q-6 10 -13 23z" />
<glyph unicode="&#xcf;" horiz-adv-x="807" d="M46 279q38 -18 82 -33.5t87.5 -27t83.5 -18t70 -6.5h11q1 18 4 36.5t9 42.5t16 55.5t26 76.5q20 58 48 117t61.5 107.5t72 79.5t80.5 32q43 0 63 -28t20 -79q0 -47 -19 -119t-54.5 -152.5t-87.5 -160t-118 -142.5q18 -19 55 -19q25 0 53 9.5t55.5 27t54 41t50.5 51.5 q11 13 21 18t21 7q38 0 38 -34q0 -14 -14 -34q-32 -40 -70.5 -73t-79 -56t-81 -36t-75.5 -13q-36 0 -63 11t-47 35q-35 -20 -69 -29.5t-68 -9.5q-44 0 -87.5 17t-83.5 49t-73.5 77t-56.5 101q-5 5 -5.5 9t-0.5 11q0 10 6.5 20.5t16 19.5t20 14.5t17.5 5.5q1 0 5 -0.5t6 -0.5 zM427 148q-9 -23 -21 -33t-26 -13q-2 8 -2 16v19v10q0 2 0.5 4.5t0.5 5.5zM386 70q-5 15 -6 32q-8 -2 -16 -2h-17h-4q-39 0 -92.5 9.5t-107.5 25.5q38 -42 78.5 -64.5t85.5 -22.5q20 0 38 5t41 17zM440 110l16 16l16 15q1 -11 3.5 -21.5t5.5 -20.5zM471 164v-12q0 -6 1 -11 q47 51 86.5 115t68 128.5t44.5 122.5t16 96q0 43 -15 45q-19 -3 -39 -26.5t-40 -59t-37.5 -78t-32.5 -83t-25 -75t-14 -52.5h1q-14 -70 -14 -110zM756 870v-1q5 19 22 33.5t37 14.5q33 0 33 -33q0 -2 -0.5 -4.5t-0.5 -5.5l-32 -102q-6 -20 -23 -34t-37 -14q-32 0 -32 32 q0 4 0.5 8.5t3.5 10.5l-2 -4zM644 870v-1q5 19 22 33.5t37 14.5q33 0 33 -33q0 -2 -0.5 -4.5t-0.5 -5.5l-32 -102q-6 -20 -23 -34t-37 -14q-32 0 -32 32q0 4 0.5 8.5t3.5 10.5l-2 -4z" />
<glyph unicode="&#xd0;" horiz-adv-x="1037" d="M793 536q-5 -1 -8.5 -1.5t-8.5 -1.5l-6 21l24 -17q-1 0 -1.5 -0.5t-2.5 -0.5h3zM568 579q-6 -5 -11.5 -10.5t-10.5 -11.5q-13 15 -18 35zM660 524q-46 0 -73 9t-41 24q-24 -29 -44.5 -69.5t-38.5 -87.5h135q0 7 5 17.5t13 20t19.5 16t24.5 6.5q32 0 32 -34 q0 -39 -23.5 -62t-61 -35.5t-84.5 -17t-95 -5.5q-1 -2 -2 -5t-2 -5q-18 -48 -37.5 -94t-43.5 -88q5 -2 9.5 -3.5t9.5 -3.5q62 -24 125 -44.5t121 -20.5q37 0 70.5 14.5t59 53t40.5 106t15 173.5q0 45 -4.5 80t-12.5 64q-59 -9 -116 -9zM204 334q-1 1 -2 1q1 0 1 -0.5t1 -0.5 zM268 143q20 35 37 76l33 86q-28 -2 -56.5 -2t-46.5 2q1 -2 1 -7q0 -8 -6.5 -18.5t-16 -19.5t-19.5 -15.5t-17 -6.5q-11 0 -19 7.5t-13.5 17t-8.5 19.5t-3 16q0 30 17.5 49t49.5 30t76 15.5t98 6.5q28 77 64 143t96 109q20 41 62.5 67t92.5 26q43 0 84.5 -23t71.5 -84 q38 10 63 22t37 19q8 5 10 7.5t16 2.5q36 0 36 -35q0 -14 -11.5 -28t-30 -27t-43 -24t-49.5 -19q7 -30 10.5 -64t3.5 -76q0 -141 -25 -231.5t-66.5 -143t-96.5 -72.5t-115 -20q-33 0 -68 6.5t-70 17t-70 23.5l-69 26q-11 5 -15 5.5t-15 4.5q-21 -15 -48.5 -28.5t-56 -23.5 t-56.5 -16t-50 -6q-90 0 -90 68q0 33 12.5 60t32.5 46.5t44.5 30t47.5 10.5q35 0 72 -6.5t83 -22.5zM106 50h2q2 0 4 1q17 2 34 5.5t33 9.5q-24 8 -44.5 12.5t-35.5 4.5q-17 0 -24 -9.5t-7 -19.5q0 -5 25 -5h6q2 0 7 1zM756 587q-5 10 -11 17.5t-13 14.5l21 2q10 1 21 3z M687 617h22q11 0 23 2q-17 17 -35.5 24t-35.5 7q-23 0 -33.5 -6t-10.5 -9q0 -6 15.5 -12t54.5 -6z" />
<glyph unicode="&#xd1;" horiz-adv-x="847" d="M817 179q9 9 19 13t18 4q34 0 34 -37q0 -11 -7 -22t-18 -21q-102 -82 -172.5 -121t-114.5 -39q-50 0 -68.5 30t-18.5 84q0 50 17 122.5t46 156.5q25 75 42 141t17 111q0 32 -9.5 45t-29.5 13q-23 0 -53 -13t-61 -32.5t-61 -41.5l-52 -38q-8 -5 -15 -11 q-11 -48 -28.5 -106t-39.5 -121l-46 -127l-47 -122q-2 -7 -5 -15t-3 -6q-6 -17 -11.5 -30.5t-13 -22.5t-18 -13.5t-26.5 -4.5q-33 0 -33 32q0 6 0.5 9.5t2.5 7.5l21 50l47 124l46 128l39 121.5t28 106.5q0 12 1 21.5t3 18.5q3 16 3 26q0 57 -30 57q-26 0 -69 -21t-112 -68 l1 1q-18 -13 -33 -13q-32 0 -32 35q0 29 30 49v-1q86 60 144 86.5t97 26.5q51 0 73.5 -31.5t23.5 -91.5l59 42q32 22 65 40t65.5 30t62.5 12q55 0 82 -28t27 -99q0 -25 -6 -57.5t-15 -70t-21 -77.5l-23 -80l-21 -73q-11 -35 -19 -67t-12.5 -59t-4.5 -45q0 -23 5 -36t17 -13 q28 0 79.5 31t135.5 101zM350 817l-2 2zM312 795q-6 -19 -22 -34t-37 -15q-33 0 -33 41q7 25 23 48.5t36.5 41t42.5 28t43 10.5q18 0 31.5 -5t25 -12.5t21 -18t19.5 -20.5q14 -17 30.5 -30.5t39.5 -13.5q17 0 29.5 7.5t23.5 36.5q8 17 22.5 30.5t36.5 13.5q32 0 32 -32 q0 -15 -7.5 -32t-18.5 -33t-23 -29t-22 -20q-23 -17 -47.5 -26t-51.5 -9q-45 0 -73 20t-52 45l-17 17q-9 9 -14 13h1q-7 4 -13 4q-8 0 -15.5 -8t-9.5 -16z" />
<glyph unicode="&#xd2;" d="M233 549q-12 -9 -21 -9q-2 -1 -2.5 -1t-2.5 -1l-6 12q-3 6 -5 12zM360 464q-46 0 -88.5 20t-64.5 54q-19 -8 -43 -40t-45.5 -77.5t-36 -99.5t-14.5 -106q0 -75 28.5 -121.5t85.5 -46.5h9q38 0 70.5 24t58.5 63t46 90t33 105q9 39 9 84q0 14 -1 27t-3 27 q-11 -2 -21.5 -2.5t-22.5 -0.5zM86 524q24 36 50 60t52 37q3 27 15 49.5t29 38.5t36.5 25t38.5 9q26 0 51 -13t47 -35t40.5 -52t31.5 -63q54 25 106 83h-1q20 23 41 23q36 0 36 -36q0 -8 -4 -18t-13 -19v1q-72 -77 -144 -114q2 -14 3 -30t1 -31q0 -53 -12 -109t-34.5 -110 t-53 -102t-68 -84.5t-80.5 -57.5t-89 -21q-97 0 -143.5 59.5t-46.5 174.5q0 50 9.5 97.5t25.5 90.5t35.5 80t40.5 67zM390 525q-4 8 -7 16.5t-8 16.5q5 -1 9 -1h8h4q2 0 7 1q2 0 5 0.5t5 0.5zM280 632q0 -28 27.5 -49t67.5 -25q-20 40 -45 66t-48 26q-1 0 -1.5 -5.5 t-0.5 -12.5zM170 862l1 -2q-9 7 -9 24q0 7 6.5 17.5t16 20.5t19.5 16.5t17 6.5q3 0 10 -2t15 -8l129 -159q5 -9 5.5 -13t0.5 -6q0 -7 -6.5 -17.5t-15.5 -20t-19 -16t-18 -6.5q-11 0 -17 3.5t-11 11.5l2 -2z" />
<glyph unicode="&#xd3;" d="M233 549q-12 -9 -21 -9q-2 -1 -2.5 -1t-2.5 -1l-6 12q-3 6 -5 12zM360 464q-46 0 -88.5 20t-64.5 54q-19 -8 -43 -40t-45.5 -77.5t-36 -99.5t-14.5 -106q0 -75 28.5 -121.5t85.5 -46.5h9q38 0 70.5 24t58.5 63t46 90t33 105q9 39 9 84q0 14 -1 27t-3 27 q-11 -2 -21.5 -2.5t-22.5 -0.5zM86 524q24 36 50 60t52 37q3 27 15 49.5t29 38.5t36.5 25t38.5 9q26 0 51 -13t47 -35t40.5 -52t31.5 -63q54 25 106 83h-1q20 23 41 23q36 0 36 -36q0 -8 -4 -18t-13 -19v1q-72 -77 -144 -114q2 -14 3 -30t1 -31q0 -53 -12 -109t-34.5 -110 t-53 -102t-68 -84.5t-80.5 -57.5t-89 -21q-97 0 -143.5 59.5t-46.5 174.5q0 50 9.5 97.5t25.5 90.5t35.5 80t40.5 67zM390 525q-4 8 -7 16.5t-8 16.5q5 -1 9 -1h8h4q2 0 7 1q2 0 5 0.5t5 0.5zM280 632q0 -28 27.5 -49t67.5 -25q-20 40 -45 66t-48 26q-1 0 -1.5 -5.5 t-0.5 -12.5zM557 916q8 8 18 12t19 4q18 0 26.5 -10t8.5 -27q0 -21 -23 -41l-171 -153q-10 -8 -18.5 -12t-17.5 -4q-34 0 -34 36q0 21 21 42z" />
<glyph unicode="&#xd4;" d="M233 549q-12 -9 -21 -9q-2 -1 -2.5 -1t-2.5 -1l-6 12q-3 6 -5 12zM360 464q-46 0 -88.5 20t-64.5 54q-19 -8 -43 -40t-45.5 -77.5t-36 -99.5t-14.5 -106q0 -75 28.5 -121.5t85.5 -46.5h9q38 0 70.5 24t58.5 63t46 90t33 105q9 39 9 84q0 14 -1 27t-3 27 q-11 -2 -21.5 -2.5t-22.5 -0.5zM86 524q24 36 50 60t52 37q3 27 15 49.5t29 38.5t36.5 25t38.5 9q26 0 51 -13t47 -35t40.5 -52t31.5 -63q54 25 106 83h-1q20 23 41 23q36 0 36 -36q0 -8 -4 -18t-13 -19v1q-72 -77 -144 -114q2 -14 3 -30t1 -31q0 -53 -12 -109t-34.5 -110 t-53 -102t-68 -84.5t-80.5 -57.5t-89 -21q-97 0 -143.5 59.5t-46.5 174.5q0 50 9.5 97.5t25.5 90.5t35.5 80t40.5 67zM390 525q-4 8 -7 16.5t-8 16.5q5 -1 9 -1h8h4q2 0 7 1q2 0 5 0.5t5 0.5zM280 632q0 -28 27.5 -49t67.5 -25q-20 40 -45 66t-48 26q-1 0 -1.5 -5.5 t-0.5 -12.5zM233 686q-9 -6 -17.5 -10t-15.5 -4q-32 0 -32 35q0 28 28 49l162 118q17 10 30 10q15 0 28 -13l72 -121q3 -6 3.5 -10.5t0.5 -6.5q0 -7 -6.5 -17.5t-15.5 -20t-19.5 -16.5t-18.5 -7q-19 0 -29 18q-8 12 -14 22l-11 19l-12 19q-7 10 -14 23z" />
<glyph unicode="&#xd5;" d="M233 549q-12 -9 -21 -9q-2 -1 -2.5 -1t-2.5 -1l-6 12q-3 6 -5 12zM360 464q-46 0 -88.5 20t-64.5 54q-19 -8 -43 -40t-45.5 -77.5t-36 -99.5t-14.5 -106q0 -75 28.5 -121.5t85.5 -46.5h9q38 0 70.5 24t58.5 63t46 90t33 105q9 39 9 84q0 14 -1 27t-3 27 q-11 -2 -21.5 -2.5t-22.5 -0.5zM86 524q24 36 50 60t52 37q3 27 15 49.5t29 38.5t36.5 25t38.5 9q26 0 51 -13t47 -35t40.5 -52t31.5 -63q54 25 106 83h-1q20 23 41 23q36 0 36 -36q0 -8 -4 -18t-13 -19v1q-72 -77 -144 -114q2 -14 3 -30t1 -31q0 -53 -12 -109t-34.5 -110 t-53 -102t-68 -84.5t-80.5 -57.5t-89 -21q-97 0 -143.5 59.5t-46.5 174.5q0 50 9.5 97.5t25.5 90.5t35.5 80t40.5 67zM390 525q-4 8 -7 16.5t-8 16.5q5 -1 9 -1h8h4q2 0 7 1q2 0 5 0.5t5 0.5zM280 632q0 -28 27.5 -49t67.5 -25q-20 40 -45 66t-48 26q-1 0 -1.5 -5.5 t-0.5 -12.5zM269 766l-2 2zM231 744q-6 -19 -22 -34t-37 -15q-33 0 -33 41q7 25 23 48.5t36.5 41t42.5 28t43 10.5q18 0 31.5 -5t25 -12.5t21 -18t19.5 -20.5q14 -17 30.5 -30.5t39.5 -13.5q17 0 29.5 7.5t23.5 36.5q8 17 22.5 30.5t36.5 13.5q32 0 32 -32q0 -15 -7.5 -32 t-18.5 -33t-23 -29t-22 -20q-23 -17 -47.5 -26t-51.5 -9q-45 0 -73 20t-52 45l-18 18q-8 8 -13 12h1q-7 4 -13 4q-8 0 -15.5 -8t-9.5 -16z" />
<glyph unicode="&#xd6;" d="M233 549q-12 -9 -21 -9q-2 -1 -2.5 -1t-2.5 -1l-6 12q-3 6 -5 12zM360 464q-46 0 -88.5 20t-64.5 54q-19 -8 -43 -40t-45.5 -77.5t-36 -99.5t-14.5 -106q0 -75 28.5 -121.5t85.5 -46.5h9q38 0 70.5 24t58.5 63t46 90t33 105q9 39 9 84q0 14 -1 27t-3 27 q-11 -2 -21.5 -2.5t-22.5 -0.5zM86 524q24 36 50 60t52 37q3 27 15 49.5t29 38.5t36.5 25t38.5 9q26 0 51 -13t47 -35t40.5 -52t31.5 -63q54 25 106 83h-1q20 23 41 23q36 0 36 -36q0 -8 -4 -18t-13 -19v1q-72 -77 -144 -114q2 -14 3 -30t1 -31q0 -53 -12 -109t-34.5 -110 t-53 -102t-68 -84.5t-80.5 -57.5t-89 -21q-97 0 -143.5 59.5t-46.5 174.5q0 50 9.5 97.5t25.5 90.5t35.5 80t40.5 67zM390 525q-4 8 -7 16.5t-8 16.5q5 -1 9 -1h8h4q2 0 7 1q2 0 5 0.5t5 0.5zM280 632q0 -28 27.5 -49t67.5 -25q-20 40 -45 66t-48 26q-1 0 -1.5 -5.5 t-0.5 -12.5zM394 851v-1q5 19 22 33.5t37 14.5q33 0 33 -33q0 -2 -0.5 -4.5t-0.5 -5.5l-32 -102q-6 -20 -23 -34t-37 -14q-32 0 -32 32q0 4 0.5 8.5t3.5 10.5l-2 -4zM282 851v-1q5 19 22 33.5t37 14.5q33 0 33 -33q0 -2 -0.5 -4.5t-0.5 -5.5l-32 -102q-6 -20 -23 -34 t-37 -14q-32 0 -32 32q0 4 0.5 8.5t3.5 10.5l-2 -4z" />
<glyph unicode="&#xd7;" horiz-adv-x="710" d="M630 574q17 11 30 11q32 0 32 -37q0 -28 -30 -48l-231 -158l59 -82l58 -81l-2 4q10 -10 10 -25q0 -7 -7 -17.5t-16.5 -20t-20 -16t-17.5 -6.5q-14 0 -21 6t-10 15l-30 42l-27 38l-28 39l-30 42l-123 -84l-123 -85q-17 -12 -30 -12q-32 0 -32 38q0 11 6 24t25 24h-1 l116 79l115 79l-58 82l-59 81l2 -4q-10 10 -10 25q0 7 7 17.5t16.5 20t20 16t17.5 6.5q17 0 28 -16h-1l31 -43l28 -40l28 -40l31 -43z" />
<glyph unicode="&#xd8;" d="M233 549q-12 -9 -21 -9q-2 -1 -2.5 -1t-2.5 -1l-6 12q-3 6 -5 12zM360 464q-46 0 -88.5 20t-64.5 54q-19 -8 -43 -40t-45.5 -77.5t-36 -99.5t-14.5 -106q0 -75 28.5 -121.5t85.5 -46.5h9q38 0 70.5 24t58.5 63t46 90t33 105q9 39 9 84q0 14 -1 27t-3 27 q-11 -2 -21.5 -2.5t-22.5 -0.5zM86 524q24 36 50 60t52 37q3 27 15 49.5t29 38.5t36.5 25t38.5 9q26 0 51 -13t47 -35t40.5 -52t31.5 -63q54 25 106 83h-1q20 23 41 23q36 0 36 -36q0 -8 -4 -18t-13 -19v1q-72 -77 -144 -114q2 -14 3 -30t1 -31q0 -53 -12 -109t-34.5 -110 t-53 -102t-68 -84.5t-80.5 -57.5t-89 -21q-97 0 -143.5 59.5t-46.5 174.5q0 50 9.5 97.5t25.5 90.5t35.5 80t40.5 67zM390 525q-4 8 -7 16.5t-8 16.5q5 -1 9 -1h8h4q2 0 7 1q2 0 5 0.5t5 0.5zM280 632q0 -28 27.5 -49t67.5 -25q-20 40 -45 66t-48 26q-1 0 -1.5 -5.5 t-0.5 -12.5zM452 695l-1 -1q20 42 58 42q33 0 33 -32q0 -4 -2 -10v-5l-464 -805q-7 -17 -24 -30.5t-35 -13.5q-32 0 -32 33q0 5 0.5 8.5t3.5 9.5z" />
<glyph unicode="&#xd9;" horiz-adv-x="809" d="M40 594q-18 -13 -33 -13q-32 0 -32 35q0 29 30 49l-1 -1q65 48 112 68.5t80 20.5q45 0 66 -30.5t21 -85.5q0 -48 -17 -122.5t-45 -156.5q-26 -78 -42.5 -144t-16.5 -111q0 -32 10 -44.5t30 -12.5q21 0 47 11.5t54.5 28.5t56.5 37l51 38l23 17q8 7 17 13q10 53 28 115 t41 129.5t50 137.5l53 138q8 17 23 28.5t34 13.5q18 0 25.5 -7.5t7.5 -24.5q0 -5 -1 -9q0 -2 -0.5 -3t-0.5 -2q-36 -89 -68.5 -178.5t-56.5 -169t-38.5 -144.5t-14.5 -104q0 -30 7.5 -46t25.5 -16q29 0 83.5 30.5t140.5 101.5q19 15 34 15q35 0 35 -36q0 -23 -26 -44 q-105 -85 -176.5 -122.5t-117.5 -37.5q-100 0 -100 130l-7 -4l-6 -5h1l-61 -43q-31 -22 -63 -39.5t-64 -29t-62 -11.5q-55 0 -82 27.5t-27 95.5q0 54 17 125.5t46 158.5q26 80 42.5 145.5t16.5 107.5q0 43 -22 43q-19 0 -50 -15.5t-79 -48.5zM330 889l1 -2q-9 7 -9 24 q0 7 6.5 17.5t16 20.5t19.5 16.5t17 6.5q3 0 10 -2t15 -8l129 -159q5 -9 5.5 -13t0.5 -6q0 -7 -6.5 -17.5t-15.5 -20t-19 -16t-18 -6.5q-11 0 -17 3.5t-11 11.5l2 -2z" />
<glyph unicode="&#xda;" horiz-adv-x="809" d="M40 594q-18 -13 -33 -13q-32 0 -32 35q0 29 30 49l-1 -1q65 48 112 68.5t80 20.5q45 0 66 -30.5t21 -85.5q0 -48 -17 -122.5t-45 -156.5q-26 -78 -42.5 -144t-16.5 -111q0 -32 10 -44.5t30 -12.5q21 0 47 11.5t54.5 28.5t56.5 37l51 38l23 17q8 7 17 13q10 53 28 115 t41 129.5t50 137.5l53 138q8 17 23 28.5t34 13.5q18 0 25.5 -7.5t7.5 -24.5q0 -5 -1 -9q0 -2 -0.5 -3t-0.5 -2q-36 -89 -68.5 -178.5t-56.5 -169t-38.5 -144.5t-14.5 -104q0 -30 7.5 -46t25.5 -16q29 0 83.5 30.5t140.5 101.5q19 15 34 15q35 0 35 -36q0 -23 -26 -44 q-105 -85 -176.5 -122.5t-117.5 -37.5q-100 0 -100 130l-7 -4l-6 -5h1l-61 -43q-31 -22 -63 -39.5t-64 -29t-62 -11.5q-55 0 -82 27.5t-27 95.5q0 54 17 125.5t46 158.5q26 80 42.5 145.5t16.5 107.5q0 43 -22 43q-19 0 -50 -15.5t-79 -48.5zM587 941q8 8 18 12t19 4 q18 0 26.5 -10t8.5 -27q0 -21 -23 -41l-171 -153q-10 -8 -18.5 -12t-17.5 -4q-34 0 -34 36q0 21 21 42z" />
<glyph unicode="&#xdb;" horiz-adv-x="809" d="M40 594q-18 -13 -33 -13q-32 0 -32 35q0 29 30 49l-1 -1q65 48 112 68.5t80 20.5q45 0 66 -30.5t21 -85.5q0 -48 -17 -122.5t-45 -156.5q-26 -78 -42.5 -144t-16.5 -111q0 -32 10 -44.5t30 -12.5q21 0 47 11.5t54.5 28.5t56.5 37l51 38l23 17q8 7 17 13q10 53 28 115 t41 129.5t50 137.5l53 138q8 17 23 28.5t34 13.5q18 0 25.5 -7.5t7.5 -24.5q0 -5 -1 -9q0 -2 -0.5 -3t-0.5 -2q-36 -89 -68.5 -178.5t-56.5 -169t-38.5 -144.5t-14.5 -104q0 -30 7.5 -46t25.5 -16q29 0 83.5 30.5t140.5 101.5q19 15 34 15q35 0 35 -36q0 -23 -26 -44 q-105 -85 -176.5 -122.5t-117.5 -37.5q-100 0 -100 130l-7 -4l-6 -5h1l-61 -43q-31 -22 -63 -39.5t-64 -29t-62 -11.5q-55 0 -82 27.5t-27 95.5q0 54 17 125.5t46 158.5q26 80 42.5 145.5t16.5 107.5q0 43 -22 43q-19 0 -50 -15.5t-79 -48.5zM352 749q-9 -6 -17.5 -10 t-15.5 -4q-32 0 -32 35q0 28 28 49l162 118q17 10 30 10q15 0 28 -13l72 -121q3 -6 3.5 -10.5t0.5 -6.5q0 -7 -6.5 -17.5t-15.5 -20t-19.5 -16.5t-18.5 -7q-19 0 -29 18q-8 12 -14 22l-12 19l-12 19q-6 10 -13 23z" />
<glyph unicode="&#xdc;" horiz-adv-x="809" d="M40 594q-18 -13 -33 -13q-32 0 -32 35q0 29 30 49l-1 -1q65 48 112 68.5t80 20.5q45 0 66 -30.5t21 -85.5q0 -48 -17 -122.5t-45 -156.5q-26 -78 -42.5 -144t-16.5 -111q0 -32 10 -44.5t30 -12.5q21 0 47 11.5t54.5 28.5t56.5 37l51 38l23 17q8 7 17 13q10 53 28 115 t41 129.5t50 137.5l53 138q8 17 23 28.5t34 13.5q18 0 25.5 -7.5t7.5 -24.5q0 -5 -1 -9q0 -2 -0.5 -3t-0.5 -2q-36 -89 -68.5 -178.5t-56.5 -169t-38.5 -144.5t-14.5 -104q0 -30 7.5 -46t25.5 -16q29 0 83.5 30.5t140.5 101.5q19 15 34 15q35 0 35 -36q0 -23 -26 -44 q-105 -85 -176.5 -122.5t-117.5 -37.5q-100 0 -100 130l-7 -4l-6 -5h1l-61 -43q-31 -22 -63 -39.5t-64 -29t-62 -11.5q-55 0 -82 27.5t-27 95.5q0 54 17 125.5t46 158.5q26 80 42.5 145.5t16.5 107.5q0 43 -22 43q-19 0 -50 -15.5t-79 -48.5zM499 875v-1q5 19 22 33.5 t37 14.5q33 0 33 -33q0 -2 -0.5 -4.5t-0.5 -5.5l-32 -102q-6 -20 -23 -34t-37 -14q-32 0 -32 32q0 4 0.5 8.5t3.5 10.5l-2 -4zM387 875v-1q5 19 22 33.5t37 14.5q33 0 33 -33q0 -2 -0.5 -4.5t-0.5 -5.5l-32 -102q-6 -20 -23 -34t-37 -14q-32 0 -32 32q0 4 0.5 8.5t3.5 10.5 l-2 -4z" />
<glyph unicode="&#xdd;" horiz-adv-x="729" d="M394 45l-22 -14l-21 -14q7 3 14.5 5.5t15.5 5.5l8 2q1 5 5 15zM625 696q7 17 23 31.5t37 14.5q32 0 32 -32v-6q0 -4 -2 -8l-223 -630q29 11 58.5 24t56.5 27t50.5 29t39.5 31h-1q19 19 39 19q35 0 35 -36q0 -15 -16.5 -34t-41.5 -37.5t-54 -35.5t-54 -28l-76 -33 q-35 -15 -72 -28l-12 -30q-6 -15 -11 -31q-27 -74 -56 -124.5t-57.5 -81.5t-56 -45t-50.5 -14q-21 0 -37.5 9t-27.5 25t-17 36t-6 43q0 57 28.5 114t98.5 104q-19 -7 -37 -11t-35 -4q-55 0 -83.5 27.5t-28.5 95.5q0 54 17 125.5t46 158.5q26 80 42.5 145.5t16.5 107.5 q0 43 -22 43q-19 0 -50 -15.5t-79 -48.5l1 1q-18 -13 -33 -13q-32 0 -32 35q0 29 30 49l-1 -1q65 48 112 68.5t80 20.5q45 0 66 -30.5t21 -85.5q0 -48 -17 -122.5t-45 -156.5q-26 -78 -42.5 -144t-16.5 -111q0 -32 10.5 -44.5t31.5 -12.5q23 0 53 12.5t61 31t60 38.5l52 37 q4 3 5 3.5t4 2.5zM352 -73q-75 -32 -104.5 -68.5t-29.5 -83.5q0 -17 6 -30.5t16 -13.5q16 0 42.5 39.5t63.5 138.5l-1 -1zM571 913q8 8 18 12t19 4q18 0 26.5 -10t8.5 -27q0 -21 -23 -41l-171 -153q-10 -8 -18.5 -12t-17.5 -4q-34 0 -34 36q0 21 21 42z" />
<glyph unicode="&#xde;" horiz-adv-x="636" d="M262 555q43 10 82.5 14.5t71.5 4.5q55 0 95 -12.5t65 -34t37 -49.5t12 -59q0 -49 -28 -101t-76.5 -94.5t-114 -69.5t-141.5 -27q-35 0 -70.5 6.5t-74.5 20.5l-28 -78l-27 -78q-8 -19 -23 -31t-35 -12q-32 0 -32 33q0 5 0.5 8.5t3.5 9.5l-2 -3l123 347l122 347 q8 20 24 32.5t36 12.5q32 0 32 -32v-6q0 -4 -2 -8zM149 252q2 -2 4 -2q-2 -6 -3.5 -12t-3.5 -11l-24 33q9 0 14 -2.5t13 -5.5zM468 469q-17 5 -36.5 8t-43.5 3q-32 0 -72 -5.5t-88 -16.5l-37 -104l-38 -104q5 -2 9.5 -4t11.5 -3q63 -22 118 -22q51 0 94.5 14.5t76 38.5 t50.5 55.5t18 64.5q0 53 -64 76z" />
<glyph unicode="&#xdf;" horiz-adv-x="725" d="M181 241q-22 -2 -92 -60q18 -5 37.5 -9t40.5 -7q11 42 11 66q0 8 3 10zM133 -350q-8 -18 -24 -31t-36 -13q-31 0 -31 31v4q0 2 2 7v3q11 29 22 77l25 109q10 45 18 86t21 92q-51 34 -94 80q-8 5 -11 11.5t-3 14.5q-9 -8 -18 -12.5t-20 -4.5q-34 0 -34 35q0 11 6.5 22 t16.5 21l74 61q35 28 65.5 48.5t55 31.5t40.5 11q4 0 2 2l4 -2q25 82 55.5 156t66.5 130t79 88.5t94 32.5q22 0 40.5 -13t31.5 -35.5t20.5 -52t7.5 -63.5q0 -63 -26 -123t-71 -99q38 -26 57 -65t19 -87q0 -18 -4.5 -40t-12.5 -43q88 8 114 43q22 32 57 32q13 -3 20.5 -9.5 t7.5 -22.5q0 -12 -10 -29q-36 -59 -101 -83t-149 -26q-34 -33 -78 -52.5t-96 -19.5q-29 0 -63 6t-63 16l-12 -53q-6 -26 -11 -51l-29 -131q-14 -58 -25 -89v-1zM162 83l6 11l-10 -5zM148 84q0 2 0.5 6t3.5 10l6 -11zM168 94l8 16q6 -6 9 -7zM174 64q-3 0 -9 1t-11 2l8 16z M476 109q4 6 6 10h9h5zM226 154q6 -2 12 -3t13 -2q-1 -2 -1 -4q0 -5 -1 -9.5t-2 -6.5t-1 -3t0 3zM483 648q-35 0 -67.5 -44.5t-62.5 -115.5t-56 -160t-46 -179q63 -12 121.5 -20t109.5 -10q13 28 13 57q0 23 -8.5 45.5t-27 40t-47 28.5t-68.5 11q-16 0 -23 11.5t1 25.5 l26 43q2 5 9.5 9t12.5 4q43 0 71 14.5t44.5 37.5t23.5 50.5t7 54.5q0 48 -10.5 72.5t-22.5 24.5zM225 68l-8 16q32 -17 69 -27.5t74 -10.5q45 0 83 26l13 -46q-60 2 -122 10.5t-128 20.5z" />
<glyph unicode="&#xe0;" horiz-adv-x="444" d="M407 170q21 25 44 25q36 0 36 -34q0 -16 -15 -34q-28 -33 -59 -64.5t-63 -55.5t-62.5 -38.5t-56.5 -14.5q-20 0 -35.5 8.5t-25.5 22.5q-26 -14 -55 -22t-54 -8q-109 6 -109 123q0 69 31 123t81 94t114.5 65t130.5 34h8q33 0 33 -33q0 -5 -0.5 -8.5t-3.5 -9.5l2 3 l-49 -138l-49 -139q-1 -2 -1 -5q0 -7 3 -11t6 -6q28 6 68 39.5t81 83.5zM162 73l75 216q-40 -11 -75 -27.5t-61 -39.5t-41 -52t-15 -65q2 -32 13.5 -44.5t30.5 -12.5q30 0 50.5 9t22.5 15v1zM113 563l1 -2q-9 7 -9 24q0 7 6.5 17.5t16 20.5t19.5 16.5t17 6.5q3 0 10 -2 t15 -8l129 -159q5 -9 5.5 -13t0.5 -6q0 -7 -6.5 -17.5t-15.5 -20t-19 -16t-18 -6.5q-11 0 -17 3.5t-11 11.5l2 -2z" />
<glyph unicode="&#xe1;" horiz-adv-x="443" d="M407 170q21 25 44 25q36 0 36 -34q0 -16 -15 -34q-28 -33 -59 -64.5t-63 -55.5t-62.5 -38.5t-56.5 -14.5q-20 0 -35.5 8.5t-25.5 22.5q-26 -14 -55 -22t-54 -8q-109 6 -109 123q0 69 31 123t81 94t114.5 65t130.5 34h8q33 0 33 -33q0 -5 -0.5 -8.5t-3.5 -9.5l2 3 l-49 -138l-49 -139q-1 -2 -1 -5q0 -7 3 -11t6 -6q28 6 68 39.5t81 83.5zM162 73l75 216q-40 -11 -75 -27.5t-61 -39.5t-41 -52t-15 -65q2 -32 13.5 -44.5t30.5 -12.5q30 0 50.5 9t22.5 15v1zM274 604q8 8 18 12t19 4q18 0 26.5 -10t8.5 -27q0 -21 -23 -41l-171 -153 q-10 -8 -18.5 -12t-17.5 -4q-34 0 -34 36q0 21 21 42z" />
<glyph unicode="&#xe2;" horiz-adv-x="443" d="M407 170q21 25 44 25q36 0 36 -34q0 -16 -15 -34q-28 -33 -59 -64.5t-63 -55.5t-62.5 -38.5t-56.5 -14.5q-20 0 -35.5 8.5t-25.5 22.5q-26 -14 -55 -22t-54 -8q-109 6 -109 123q0 69 31 123t81 94t114.5 65t130.5 34h8q33 0 33 -33q0 -5 -0.5 -8.5t-3.5 -9.5l2 3 l-49 -138l-49 -139q-1 -2 -1 -5q0 -7 3 -11t6 -6q28 6 68 39.5t81 83.5zM162 73l75 216q-40 -11 -75 -27.5t-61 -39.5t-41 -52t-15 -65q2 -32 13.5 -44.5t30.5 -12.5q30 0 50.5 9t22.5 15v1zM117 427q-9 -6 -17.5 -10t-15.5 -4q-32 0 -32 35q0 28 28 49l162 118q17 10 30 10 q15 0 28 -13l72 -121q3 -6 3.5 -10.5t0.5 -6.5q0 -7 -6.5 -17.5t-15.5 -20t-19.5 -16.5t-18.5 -7q-19 0 -29 18q-8 12 -14 22l-11 19l-12 19q-7 10 -14 23z" />
<glyph unicode="&#xe3;" horiz-adv-x="443" d="M407 170q21 25 44 25q36 0 36 -34q0 -16 -15 -34q-28 -33 -59 -64.5t-63 -55.5t-62.5 -38.5t-56.5 -14.5q-20 0 -35.5 8.5t-25.5 22.5q-26 -14 -55 -22t-54 -8q-109 6 -109 123q0 69 31 123t81 94t114.5 65t130.5 34h8q33 0 33 -33q0 -5 -0.5 -8.5t-3.5 -9.5l2 3 l-49 -138l-49 -139q-1 -2 -1 -5q0 -7 3 -11t6 -6q28 6 68 39.5t81 83.5zM162 73l75 216q-40 -11 -75 -27.5t-61 -39.5t-41 -52t-15 -65q2 -32 13.5 -44.5t30.5 -12.5q30 0 50.5 9t22.5 15v1zM118 511l-2 2zM80 489q-6 -19 -22 -34t-37 -15q-33 0 -33 41q7 25 23 48.5 t36.5 41t42.5 28t43 10.5q18 0 31.5 -5t25 -12.5t21 -18t19.5 -20.5q14 -17 30.5 -30.5t39.5 -13.5q17 0 29.5 7.5t23.5 36.5q8 17 22.5 30.5t36.5 13.5q32 0 32 -32q0 -15 -7.5 -32t-18.5 -33t-23 -29t-22 -20q-23 -17 -47.5 -26t-51.5 -9q-45 0 -73 20t-52 45l-17 17 q-9 9 -14 13h1q-7 4 -13 4q-8 0 -15.5 -8t-9.5 -16z" />
<glyph unicode="&#xe4;" horiz-adv-x="443" d="M407 170q21 25 44 25q36 0 36 -34q0 -16 -15 -34q-28 -33 -59 -64.5t-63 -55.5t-62.5 -38.5t-56.5 -14.5q-20 0 -35.5 8.5t-25.5 22.5q-26 -14 -55 -22t-54 -8q-109 6 -109 123q0 69 31 123t81 94t114.5 65t130.5 34h8q33 0 33 -33q0 -5 -0.5 -8.5t-3.5 -9.5l2 3 l-49 -138l-49 -139q-1 -2 -1 -5q0 -7 3 -11t6 -6q28 6 68 39.5t81 83.5zM162 73l75 216q-40 -11 -75 -27.5t-61 -39.5t-41 -52t-15 -65q2 -32 13.5 -44.5t30.5 -12.5q30 0 50.5 9t22.5 15v1zM242 600v-1q5 19 22 33.5t37 14.5q33 0 33 -33q0 -2 -0.5 -4.5t-0.5 -5.5 l-32 -102q-6 -20 -23 -34t-37 -14q-32 0 -32 32q0 4 0.5 8.5t3.5 10.5l-2 -4zM130 600v-1q5 19 22 33.5t37 14.5q33 0 33 -33q0 -2 -0.5 -4.5t-0.5 -5.5l-32 -102q-6 -20 -23 -34t-37 -14q-32 0 -32 32q0 4 0.5 8.5t3.5 10.5l-2 -4z" />
<glyph unicode="&#xe5;" horiz-adv-x="441" d="M407 170q21 25 44 25q36 0 36 -34q0 -16 -15 -34q-28 -33 -59 -64.5t-63 -55.5t-62.5 -38.5t-56.5 -14.5q-20 0 -35.5 8.5t-25.5 22.5q-26 -14 -55 -22t-54 -8q-109 6 -109 123q0 69 31 123t81 94t114.5 65t130.5 34h8q33 0 33 -33q0 -5 -0.5 -8.5t-3.5 -9.5l2 3 l-49 -138l-49 -139q-1 -2 -1 -5q0 -7 3 -11t6 -6q28 6 68 39.5t81 83.5zM162 73l75 216q-40 -11 -75 -27.5t-61 -39.5t-41 -52t-15 -65q2 -32 13.5 -44.5t30.5 -12.5q30 0 50.5 9t22.5 15v1zM245 679q45 0 68 -23.5t23 -65.5q0 -33 -15 -68.5t-38 -64.5t-50.5 -48t-52.5 -19 q-20 0 -35.5 9.5t-27 26t-17.5 39t-6 47.5q0 35 12.5 65.5t33 53t48 35.5t57.5 13zM233 584h-4q-2 0 -3 1zM243 564q0 14 -14 20q-2 0 -4.5 0.5t-3.5 0.5l-3 1q-31 0 -31 -48q0 -20 5 -34.5t13 -19.5h1q8 0 14.5 10t11.5 23.5t8 27t3 19.5z" />
<glyph unicode="&#xe6;" horiz-adv-x="761" d="M258 47q-3 7 -5.5 13.5t-4.5 14.5q-2 -4 -2 -6q-1 -2 -1 -5q0 -10 3.5 -13.5t7.5 -3.5h2zM728 175q20 20 39 20q17 0 27 -12t10 -24q0 -19 -20 -39q-97 -98 -184 -138.5t-157 -40.5q-74 0 -130 41q-22 -12 -44 -20t-42 -8t-35.5 8.5t-25.5 22.5q-26 -14 -55 -22t-54 -8 q-109 6 -109 123q0 69 31 123t81 94t114.5 65t130.5 34h8q29 0 32 -27q19 13 41 20t49 7q20 0 38.5 -6t32.5 -18.5t22 -31.5t8 -45q0 -57 -37.5 -121.5t-97.5 -122.5q30 -15 69 -15q52 0 116 31.5t142 109.5zM352 93q1 -3 7 -9l-34 1q5 5 10.5 9.5t10.5 9.5q4 -8 7 -12z M336 147q0 -22 10 -43q41 39 68.5 83t27.5 80q0 15 -8 24t-25 9q-23 0 -37 -15t-22 -38t-11 -49.5t-3 -50.5zM158 73l75 216q-40 -11 -75 -27.5t-61 -39.5t-41 -52t-15 -65q2 -32 13.5 -44.5t30.5 -12.5q30 0 50.5 9t22.5 15v1z" />
<glyph unicode="&#xe7;" horiz-adv-x="468" d="M327 285q0 -1 0.5 -1.5t0.5 -1.5q0 -7 -6.5 -17.5t-15.5 -20t-19.5 -16.5t-18.5 -7q-19 0 -30 20q-30 59 -70 59q-18 0 -38 -12t-36.5 -31.5t-27.5 -44.5t-11 -51q2 -54 38.5 -90t92.5 -36q48 0 109 31t140 110q19 19 40 19q35 0 35 -34q0 -11 -5 -20t-14 -20 q-91 -92 -173 -135.5t-158 -43.5q-45 0 -81.5 15.5t-62.5 41.5t-40 61.5t-14 74.5q0 40 20 85t53 83.5t74.5 63.5t84.5 25q79 0 133 -97v-10zM164 7q8 15 24 25.5t30 10.5q35 0 35 -31q0 -13 -9 -26l1 1q-6 -11 -11.5 -22.5t-11.5 -22.5q121 -3 121 -92q0 -37 -33 -94 t-90 -125q-10 -11 -21 -18t-22 -7q-17 0 -27.5 12t-10.5 24q0 18 19 37l-1 -2q93 106 93 147q0 25 -71 25q-5 0 -7.5 -0.5t-7.5 -0.5q-5 -1 -12 -1h-15q-33 0 -33 33q0 7 7 25z" />
<glyph unicode="&#xe8;" horiz-adv-x="460" d="M11 186l21 12l20 10q-2 -11 -2.5 -23t-1.5 -23zM108 300q-14 0 -23.5 -7.5t-16 -20.5t-10.5 -29.5t-6 -34.5q80 49 83 82q-2 5 -10 7.5t-17 2.5zM208 252q-18 -31 -56 -65.5t-99 -69.5q11 -38 41.5 -61t78.5 -23q50 0 114.5 31.5t139.5 109.5q21 21 39 21q17 0 27 -12 t10 -24q0 -19 -20 -39q-98 -98 -183 -138.5t-152 -40.5q-46 0 -82 14.5t-61 40.5t-38 62t-13 79q3 41 11.5 86.5t28 83.5t53 62.5t87.5 24.5q45 0 69.5 -22t24.5 -58q0 -14 -4.5 -29.5t-14.5 -32.5h-1zM-75 563l1 -2q-9 7 -9 24q0 7 6.5 17.5t16 20.5t19.5 16.5t17 6.5 q3 0 10 -2t15 -8l129 -159q5 -9 5.5 -13t0.5 -6q0 -7 -6.5 -17.5t-15.5 -20t-19 -16t-18 -6.5q-11 0 -17 3.5t-11 11.5l2 -2z" />
<glyph unicode="&#xe9;" horiz-adv-x="459" d="M11 186l21 12l20 10q-2 -11 -2.5 -23t-1.5 -23zM108 300q-14 0 -23.5 -7.5t-16 -20.5t-10.5 -29.5t-6 -34.5q80 49 83 82q-2 5 -10 7.5t-17 2.5zM208 252q-18 -31 -56 -65.5t-99 -69.5q11 -38 41.5 -61t78.5 -23q50 0 114.5 31.5t139.5 109.5q21 21 39 21q17 0 27 -12 t10 -24q0 -19 -20 -39q-98 -98 -183 -138.5t-152 -40.5q-46 0 -82 14.5t-61 40.5t-38 62t-13 79q3 41 11.5 86.5t28 83.5t53 62.5t87.5 24.5q45 0 69.5 -22t24.5 -58q0 -14 -4.5 -29.5t-14.5 -32.5h-1zM288 604q8 8 18 12t19 4q18 0 26.5 -10t8.5 -27q0 -21 -23 -41 l-171 -153q-10 -8 -18.5 -12t-17.5 -4q-34 0 -34 36q0 21 21 42z" />
<glyph unicode="&#xea;" horiz-adv-x="460" d="M11 186l21 12l20 10q-2 -11 -2.5 -23t-1.5 -23zM108 300q-14 0 -23.5 -7.5t-16 -20.5t-10.5 -29.5t-6 -34.5q80 49 83 82q-2 5 -10 7.5t-17 2.5zM208 252q-18 -31 -56 -65.5t-99 -69.5q11 -38 41.5 -61t78.5 -23q50 0 114.5 31.5t139.5 109.5q21 21 39 21q17 0 27 -12 t10 -24q0 -19 -20 -39q-98 -98 -183 -138.5t-152 -40.5q-46 0 -82 14.5t-61 40.5t-38 62t-13 79q3 41 11.5 86.5t28 83.5t53 62.5t87.5 24.5q45 0 69.5 -22t24.5 -58q0 -14 -4.5 -29.5t-14.5 -32.5h-1zM37 427q-9 -6 -17.5 -10t-15.5 -4q-32 0 -32 35q0 28 28 49l162 118 q17 10 30 10q15 0 28 -13l72 -121q3 -6 3.5 -10.5t0.5 -6.5q0 -7 -6.5 -17.5t-15.5 -20t-19.5 -16.5t-18.5 -7q-19 0 -29 18q-8 12 -14 22l-11 19l-12 19q-7 10 -14 23z" />
<glyph unicode="&#xeb;" horiz-adv-x="460" d="M11 186l21 12l20 10q-2 -11 -2.5 -23t-1.5 -23zM108 300q-14 0 -23.5 -7.5t-16 -20.5t-10.5 -29.5t-6 -34.5q80 49 83 82q-2 5 -10 7.5t-17 2.5zM208 252q-18 -31 -56 -65.5t-99 -69.5q11 -38 41.5 -61t78.5 -23q50 0 114.5 31.5t139.5 109.5q21 21 39 21q17 0 27 -12 t10 -24q0 -19 -20 -39q-98 -98 -183 -138.5t-152 -40.5q-46 0 -82 14.5t-61 40.5t-38 62t-13 79q3 41 11.5 86.5t28 83.5t53 62.5t87.5 24.5q45 0 69.5 -22t24.5 -58q0 -14 -4.5 -29.5t-14.5 -32.5h-1zM201 602v-1q5 19 22 33.5t37 14.5q33 0 33 -33q0 -2 -0.5 -4.5 t-0.5 -5.5l-32 -102q-6 -20 -23 -34t-37 -14q-32 0 -32 32q0 4 0.5 8.5t3.5 10.5l-2 -4zM89 602v-1q5 19 22 33.5t37 14.5q33 0 33 -33q0 -2 -0.5 -4.5t-0.5 -5.5l-32 -102q-6 -20 -23 -34t-37 -14q-32 0 -32 32q0 4 0.5 8.5t3.5 10.5l-2 -4z" />
<glyph unicode="&#xec;" horiz-adv-x="352" d="M325 183q20 23 44 23q35 0 35 -35q0 -16 -15 -35q-37 -43 -77 -75t-79 -53t-76 -31.5t-68 -10.5q-57 0 -91.5 28.5t-34.5 95.5q0 43 18 93l-1 -1l32 89l31 89q6 16 21 30.5t37 14.5q33 0 33 -33q0 -5 -0.5 -9t-3.5 -10l2 3l-32 -89l-32 -89q-13 -35 -13 -62 q0 -29 16.5 -43.5t43.5 -14.5q44 0 100 30.5t110 93.5v1zM-29 602l1 -2q-9 7 -9 24q0 7 6.5 17.5t16 20.5t19.5 16.5t17 6.5q3 0 10 -2t15 -8l129 -159q5 -9 5.5 -13t0.5 -6q0 -7 -6.5 -17.5t-15.5 -20t-19 -16t-18 -6.5q-11 0 -17 3.5t-11 11.5l2 -2z" />
<glyph unicode="&#xed;" horiz-adv-x="353" d="M325 183q20 23 44 23q35 0 35 -35q0 -16 -15 -35q-37 -43 -77 -75t-79 -53t-76 -31.5t-68 -10.5q-57 0 -91.5 28.5t-34.5 95.5q0 43 18 93l-1 -1l32 89l31 89q6 16 21 30.5t37 14.5q33 0 33 -33q0 -5 -0.5 -9t-3.5 -10l2 3l-32 -89l-32 -89q-13 -35 -13 -62 q0 -29 16.5 -43.5t43.5 -14.5q44 0 100 30.5t110 93.5v1zM224 642q8 8 18 12t19 4q12 0 19.5 -5t12 -12.5t6 -15.5t1.5 -14q0 -2 -0.5 -2.5t-0.5 -3.5q0 -4 -3 -10.5t-6 -8.5l-189 -159q-10 -8 -18 -12t-17 -4q-34 0 -34 36q0 21 21 42z" />
<glyph unicode="&#xee;" horiz-adv-x="350" d="M325 183q20 23 44 23q35 0 35 -35q0 -16 -15 -35q-37 -43 -77 -75t-79 -53t-76 -31.5t-68 -10.5q-57 0 -91.5 28.5t-34.5 95.5q0 43 18 93l-1 -1l32 89l31 89q6 16 21 30.5t37 14.5q33 0 33 -33q0 -5 -0.5 -9t-3.5 -10l2 3l-32 -89l-32 -89q-13 -35 -13 -62 q0 -29 16.5 -43.5t43.5 -14.5q44 0 100 30.5t110 93.5v1zM30 425q-9 -6 -17.5 -10t-15.5 -4q-32 0 -32 35q0 28 28 49l162 118q17 10 30 10q15 0 28 -13l72 -121q3 -6 3.5 -10.5t0.5 -6.5q0 -7 -6.5 -17.5t-15.5 -20t-19.5 -16.5t-18.5 -7q-19 0 -29 18q-8 12 -14 22l-11 19 l-12 19q-7 10 -14 23z" />
<glyph unicode="&#xef;" horiz-adv-x="351" d="M325 183q20 23 44 23q35 0 35 -35q0 -16 -15 -35q-37 -43 -77 -75t-79 -53t-76 -31.5t-68 -10.5q-57 0 -91.5 28.5t-34.5 95.5q0 43 18 93l-1 -1l32 89l31 89q6 16 21 30.5t37 14.5q33 0 33 -33q0 -5 -0.5 -9t-3.5 -10l2 3l-32 -89l-32 -89q-13 -35 -13 -62 q0 -29 16.5 -43.5t43.5 -14.5q44 0 100 30.5t110 93.5v1zM172 602v-1q5 19 22 33.5t37 14.5q33 0 33 -33q0 -2 -0.5 -4.5t-0.5 -5.5l-32 -102q-6 -20 -23 -34t-37 -14q-32 0 -32 32q0 4 0.5 8.5t3.5 10.5l-2 -4zM87 600v-1q5 19 22 33.5t37 14.5q33 0 33 -33q0 -2 -0.5 -4.5 t-0.5 -5.5l-32 -102q-6 -20 -23 -34t-37 -14q-32 0 -32 32q0 4 0.5 8.5t3.5 10.5l-2 -4z" />
<glyph unicode="&#xf0;" horiz-adv-x="781" d="M330 419q-8 -15 -16.5 -28t-29.5 -16q18 -21 18 -65q0 -20 -5 -49l-11 -60q-7 -35 -13 -68.5t-6 -49.5q0 -35 6 -35q13 0 32.5 16t41.5 42t44.5 59t41.5 66q-33 54 -55 106.5t-32 103.5q-5 -5 -9.5 -11t-6.5 -11zM-2 103q-12 -6 -21 -6q-32 0 -32 34q0 40 41 57 q15 6 40 30l55 52h-1l42 42q22 20 43 37t40 28t36 13q-2 8 -2 16q0 29 9.5 51t24 37.5t32.5 25t35 15.5q3 39 20.5 76t43 66t55.5 46.5t57 17.5q25 0 46 -14.5t36 -40t23.5 -60t8.5 -74.5v-4v-4q7 5 11 9l9 9q10 11 21 19.5t27 8.5q33 0 33 -32q0 -14 -9 -27h1 q-37 -66 -108 -86q-14 -49 -35 -97l-43 -92l2 3q40 -57 79.5 -87t73.5 -30q16 0 29 7t24 19q10 11 20.5 18t21.5 7q17 0 27 -11t10 -24t-17 -35q-62 -74 -140 -74q-94 0 -184 109q-28 -44 -60 -81t-63.5 -64t-61 -42.5t-53.5 -15.5q-71 0 -71 102q0 27 6.5 67.5t14.5 78.5 l11 54q4 24 4 32v1q-13 -10 -34 -31l-46 -45l-36 -35l-35.5 -32t-33 -27t-28.5 -18zM439 477l4 -17l4 -17h-3q-9 2 -16 2.5t-15 1.5zM521 436l4 16l4 15l29 -30q-5 -1 -12 -1h-13h-12zM467 299l10 22l10 23q10 -21 24 -42zM447 443q8 -25 17.5 -49.5t22.5 -49.5 q10 22 18.5 45t15.5 47q-20 0 -38.5 2.5t-35.5 4.5zM408 542h11q7 0 13 -1v-6v-5q0 -4 1 -9zM536 508q1 6 1 11v9v3q6 -1 12 -1h12zM478 537q14 -2 29 -3.5t30 -2.5q0 21 -4 42t-10 37.5t-14.5 27t-18.5 10.5q-11 0 -21 -10.5t-18 -26.5t-13 -35t-6 -35q11 -1 23 -1.5 t23 -2.5z" />
<glyph unicode="&#xf1;" horiz-adv-x="913" d="M29 126q-21 -21 -40 -21q-35 0 -35 35q0 17 15 35q45 48 90 87.5t86.5 67.5t78 43t63.5 15q32 0 48.5 -21t18.5 -52q46 40 95 64t88 24q52 0 77 -29.5t25 -79.5q0 -21 -3 -40l-6 -40l-6 -36q-2 -17 -2 -28q0 -46 16 -74t49 -28q42 0 91.5 32.5t103.5 94.5q21 25 43 25 q17 0 27 -8.5t10 -26.5q0 -13 -17 -35q-72 -83 -143 -129t-140 -46t-101.5 45.5t-32.5 123.5q0 45 15 111q3 15 3 33q0 42 -35 42q-21 0 -47.5 -12t-54 -35.5t-55 -57t-49.5 -76.5l2 3l-22 -66l-22 -65q-6 -18 -22 -32t-38 -14q-33 0 -33 32q0 3 -0.5 5.5t1.5 6.5 q14 70 51 144l-2 -3q8 25 17 49.5t17 49.5v-2q3 14 5 25t2 20q0 12 -5 12q-17 0 -42 -12.5t-55 -35t-63 -53t-67 -66.5v-1zM355 511l-2 2zM317 489q-6 -19 -22 -34t-37 -15q-33 0 -33 41q7 25 23 48.5t36.5 41t42.5 28t43 10.5q18 0 31.5 -5t25 -12.5t21 -18t19.5 -20.5 q14 -17 30.5 -30.5t39.5 -13.5q17 0 29.5 7.5t23.5 36.5q8 17 22.5 30.5t36.5 13.5q32 0 32 -32q0 -15 -7.5 -32t-18.5 -33t-23 -29t-22 -20q-23 -17 -47.5 -26t-51.5 -9q-45 0 -73 20t-52 45l-18 17q-8 9 -13 13h1q-7 4 -13 4q-8 0 -15.5 -8t-9.5 -16z" />
<glyph unicode="&#xf2;" horiz-adv-x="516" d="M121 265q-9 -1 -21 -13l-4 18q-2 8 -3 17zM205 111q-38 29 -65.5 65.5t-39.5 75.5q-10 -9 -19 -24.5t-16.5 -33.5t-12 -37t-4.5 -36q0 -32 15.5 -52.5t54.5 -20.5q52 0 87 63zM36 293q17 19 31 31.5t31 20.5q11 33 36 53.5t55 20.5q22 0 47 -14t45.5 -38.5t34 -58 t13.5 -72.5q0 -19 -2.5 -34t-10.5 -39q42 -24 89 -24t77 34l-1 -1q19 24 42 24q17 0 27 -8.5t10 -26.5q0 -9 -4.5 -17t-12.5 -19q-38 -43 -79.5 -61t-85.5 -18q-28 0 -53 4.5t-52 18.5q-35 -58 -83.5 -86t-96.5 -28q-72 0 -105 36.5t-33 103.5q0 56 24.5 108t56.5 90z M233 178q2 8 3 15.5t1 15.5v8q0 4 -1 8q16 -18 36 -33zM184 318q-11 7 -17 7h-4q-18 0 -24.5 14.5t5.5 27.5q-3 -3 -3 -5l47 -18q-4 -8 -4 -18v-8zM184 318q2 -20 16.5 -45t35.5 -48q-4 33 -19.5 57.5t-32.5 35.5zM149 563l1 -2q-9 7 -9 24q0 7 6.5 17.5t16 20.5t19.5 16.5 t17 6.5q3 0 10 -2t15 -8l129 -159q5 -9 5.5 -13t0.5 -6q0 -7 -6.5 -17.5t-15.5 -20t-19 -16t-18 -6.5q-11 0 -17 3.5t-11 11.5l2 -2z" />
<glyph unicode="&#xf3;" horiz-adv-x="516" d="M121 265q-9 -1 -21 -13l-4 18q-2 8 -3 17zM205 111q-38 29 -65.5 65.5t-39.5 75.5q-10 -9 -19 -24.5t-16.5 -33.5t-12 -37t-4.5 -36q0 -32 15.5 -52.5t54.5 -20.5q52 0 87 63zM36 293q17 19 31 31.5t31 20.5q11 33 36 53.5t55 20.5q22 0 47 -14t45.5 -38.5t34 -58 t13.5 -72.5q0 -19 -2.5 -34t-10.5 -39q42 -24 89 -24t77 34l-1 -1q19 24 42 24q17 0 27 -8.5t10 -26.5q0 -9 -4.5 -17t-12.5 -19q-38 -43 -79.5 -61t-85.5 -18q-28 0 -53 4.5t-52 18.5q-35 -58 -83.5 -86t-96.5 -28q-72 0 -105 36.5t-33 103.5q0 56 24.5 108t56.5 90z M233 178q2 8 3 15.5t1 15.5v8q0 4 -1 8q16 -18 36 -33zM184 318q-11 7 -17 7h-4q-18 0 -24.5 14.5t5.5 27.5q-3 -3 -3 -5l47 -18q-4 -8 -4 -18v-8zM184 318q2 -20 16.5 -45t35.5 -48q-4 33 -19.5 57.5t-32.5 35.5zM310 604q8 8 18 12t19 4q18 0 26.5 -10t8.5 -27 q0 -21 -23 -41l-171 -153q-10 -8 -18.5 -12t-17.5 -4q-34 0 -34 36q0 21 21 42z" />
<glyph unicode="&#xf4;" horiz-adv-x="516" d="M121 265q-9 -1 -21 -13l-4 18q-2 8 -3 17zM205 111q-38 29 -65.5 65.5t-39.5 75.5q-10 -9 -19 -24.5t-16.5 -33.5t-12 -37t-4.5 -36q0 -32 15.5 -52.5t54.5 -20.5q52 0 87 63zM36 293q17 19 31 31.5t31 20.5q11 33 36 53.5t55 20.5q22 0 47 -14t45.5 -38.5t34 -58 t13.5 -72.5q0 -19 -2.5 -34t-10.5 -39q42 -24 89 -24t77 34l-1 -1q19 24 42 24q17 0 27 -8.5t10 -26.5q0 -9 -4.5 -17t-12.5 -19q-38 -43 -79.5 -61t-85.5 -18q-28 0 -53 4.5t-52 18.5q-35 -58 -83.5 -86t-96.5 -28q-72 0 -105 36.5t-33 103.5q0 56 24.5 108t56.5 90z M233 178q2 8 3 15.5t1 15.5v8q0 4 -1 8q16 -18 36 -33zM184 318q-11 7 -17 7h-4q-18 0 -24.5 14.5t5.5 27.5q-3 -3 -3 -5l47 -18q-4 -8 -4 -18v-8zM184 318q2 -20 16.5 -45t35.5 -48q-4 33 -19.5 57.5t-32.5 35.5zM152 427q-9 -6 -17.5 -10t-15.5 -4q-32 0 -32 35 q0 28 28 49l162 118q17 10 30 10q15 0 28 -13l72 -121q3 -6 3.5 -10.5t0.5 -6.5q0 -7 -6.5 -17.5t-15.5 -20t-19.5 -16.5t-18.5 -7q-19 0 -29 18q-8 12 -14 22l-12 19l-12 19q-6 10 -13 23z" />
<glyph unicode="&#xf5;" horiz-adv-x="515" d="M120 265q-9 -1 -21 -13l-4 18q-2 8 -3 17zM204 111q-38 29 -65.5 65.5t-39.5 75.5q-10 -9 -19 -24.5t-16.5 -33.5t-12 -37t-4.5 -36q0 -32 15.5 -52.5t54.5 -20.5q52 0 87 63zM35 293q17 19 31 31.5t31 20.5q11 33 36 53.5t55 20.5q22 0 47 -14t45.5 -38.5t34 -58 t13.5 -72.5q0 -19 -2.5 -34t-10.5 -39q42 -24 89 -24t77 34l-1 -1q19 24 42 24q17 0 27 -8.5t10 -26.5q0 -9 -4.5 -17t-12.5 -19q-38 -43 -79.5 -61t-85.5 -18q-28 0 -53 4.5t-52 18.5q-35 -58 -83.5 -86t-96.5 -28q-72 0 -105 36.5t-33 103.5q0 56 24.5 108t56.5 90z M232 178q2 8 3 15.5t1 15.5v8q0 4 -1 8q16 -18 36 -33zM183 318q-11 7 -17 7h-4q-18 0 -24.5 14.5t5.5 27.5q-3 -3 -3 -5l47 -18q-4 -8 -4 -18v-8zM183 318q2 -20 16.5 -45t35.5 -48q-4 33 -19.5 57.5t-32.5 35.5zM150 511l-2 2zM112 489q-6 -19 -22 -34t-37 -15 q-33 0 -33 41q7 25 23 48.5t36.5 41t42.5 28t43 10.5q18 0 31.5 -5t25 -12.5t21 -18t19.5 -20.5q14 -17 30.5 -30.5t39.5 -13.5q17 0 29.5 7.5t23.5 36.5q8 17 22.5 30.5t36.5 13.5q32 0 32 -32q0 -15 -7.5 -32t-18.5 -33t-23 -29t-22 -20q-23 -17 -47.5 -26t-51.5 -9 q-45 0 -73 20t-52 45l-17 17q-9 9 -14 13h1q-7 4 -13 4q-8 0 -15.5 -8t-9.5 -16z" />
<glyph unicode="&#xf6;" horiz-adv-x="516" d="M121 265q-9 -1 -21 -13l-4 18q-2 8 -3 17zM205 111q-38 29 -65.5 65.5t-39.5 75.5q-10 -9 -19 -24.5t-16.5 -33.5t-12 -37t-4.5 -36q0 -32 15.5 -52.5t54.5 -20.5q52 0 87 63zM36 293q17 19 31 31.5t31 20.5q11 33 36 53.5t55 20.5q22 0 47 -14t45.5 -38.5t34 -58 t13.5 -72.5q0 -19 -2.5 -34t-10.5 -39q42 -24 89 -24t77 34l-1 -1q19 24 42 24q17 0 27 -8.5t10 -26.5q0 -9 -4.5 -17t-12.5 -19q-38 -43 -79.5 -61t-85.5 -18q-28 0 -53 4.5t-52 18.5q-35 -58 -83.5 -86t-96.5 -28q-72 0 -105 36.5t-33 103.5q0 56 24.5 108t56.5 90z M233 178q2 8 3 15.5t1 15.5v8q0 4 -1 8q16 -18 36 -33zM184 318q-11 7 -17 7h-4q-18 0 -24.5 14.5t5.5 27.5q-3 -3 -3 -5l47 -18q-4 -8 -4 -18v-8zM184 318q2 -20 16.5 -45t35.5 -48q-4 33 -19.5 57.5t-32.5 35.5zM278 600v-1q5 19 22 33.5t37 14.5q33 0 33 -33 q0 -2 -0.5 -4.5t-0.5 -5.5l-32 -102q-6 -20 -23 -34t-37 -14q-32 0 -32 32q0 4 0.5 8.5t3.5 10.5l-2 -4zM166 600v-1q5 19 22 33.5t37 14.5q33 0 33 -33q0 -2 -0.5 -4.5t-0.5 -5.5l-32 -102q-6 -20 -23 -34t-37 -14q-32 0 -32 32q0 4 0.5 8.5t3.5 10.5l-2 -4z" />
<glyph unicode="&#xf7;" horiz-adv-x="439" d="M9 301q-34 0 -34 32q0 15 6.5 26t16 19t20 12t17.5 4h368q34 0 34 -32q0 -13 -6.5 -24t-16 -19.5t-20 -13t-17.5 -4.5h-368zM168 249q22 0 31 -13.5t9 -29.5q0 -15 -8 -29.5t-19.5 -26t-25 -19t-23.5 -7.5q-22 0 -31 13t-9 30q0 15 8 29.5t20 26.5t25 19t23 7zM156 165 q-11 0 -16 8t-5 17t5 17t16 8l3 1q10 0 15.5 -8t5.5 -17t-5.5 -17t-15.5 -8zM259 580q4 0 11 -2.5t13.5 -7.5t11 -13t4.5 -20q0 -14 -7.5 -28.5t-19 -26.5t-25 -19.5t-24.5 -7.5q-22 0 -31 12.5t-9 29.5q0 6 5 19.5t15 28t24 25t32 10.5z" />
<glyph unicode="&#xf8;" horiz-adv-x="517" d="M275 407l-2 -2q20 42 58 42q33 0 33 -32q0 -4 -2 -10v-6l-49 -81q2 -3 2 -4.5t2 -5.5q6 -17 9.5 -34.5t3.5 -37.5q0 -19 -2.5 -34t-10.5 -39q42 -24 89 -24t77 34l-1 -1q19 24 42 24q17 0 27 -8.5t10 -26.5q0 -9 -4.5 -17t-12.5 -19q-38 -43 -79.5 -61t-85.5 -18 q-28 0 -53 4.5t-52 18.5q-35 -57 -83 -85t-96 -29l-8 -12l-8 -14q-7 -17 -24 -31t-35 -14q-32 0 -32 33q0 5 0.5 8.5t4.5 11.5l21 36q-15 9 -25 19q-33 37 -33 103q0 56 24.5 108t56.5 90q17 19 31 31.5t31 20.5q11 33 36 53.5t55 20.5q17 0 36 -8t37 -23zM122 265 q-9 -1 -22 -14q-5 18 -6 37zM135 182q-25 34 -35 69q-9 -10 -18.5 -25t-16.5 -33t-11.5 -36.5t-4.5 -35.5q0 -34 16 -56v-1q0 -1 0.5 -1t0.5 -1h1l35 58l35 59q0 1 -1 1.5t-1 1.5zM194 120l-19 -32l-20 -32q27 13 51 55l-6 4q-3 2 -6 5zM119 48q21 0 36 8 q-8 -12 -14.5 -23.5t-13.5 -22.5l-21 38h13zM208 293l-1 1q2 4 4 7t4 7l1 -25q-1 2 -3.5 4.5t-4.5 6.5v-1zM185 326q0 -7 1 -11q-13 10 -18 10h-4l23 16q-2 -8 -2 -15zM207 294q-5 7 -10.5 12t-10.5 9q3 -17 12 -36zM177 244l11 17l10 18q2 -5 5 -9t6 -9q1 -1 10 -13z M234 178q2 8 3 15.5t1 15.5q0 13 -2 24.5t-7 22.5l45 -3q-8 -14 -11.5 -21t-11.5 -21q5 -5 11 -9.5t11 -9.5z" />
<glyph unicode="&#xf9;" horiz-adv-x="609" d="M584 183q20 23 43 23q36 0 36 -35q0 -13 -16 -35q-74 -86 -154 -128t-146 -42q-38 0 -65 13.5t-43 38.5q-41 -24 -81 -38t-78 -14q-27 0 -50.5 6t-41 20.5t-28 37.5t-10.5 58q0 20 3.5 43t14.5 52l-1 -1l31 89l32 89q6 16 21 30.5t37 14.5q33 0 33 -33q0 -5 -0.5 -9 t-3.5 -10l2 3l-63 -177q-14 -40 -14 -65q0 -28 16 -42t41 -14q29 0 60 11t62 31q2 17 5.5 38t11.5 44l32 89l32 89q6 16 21 30.5t37 14.5q33 0 33 -33q0 -5 -0.5 -9t-3.5 -10l2 3l-33 -89l-32 -89q-13 -33 -13 -60q0 -32 17 -46t43 -14q44 0 100.5 30.5t110.5 93.5v1z M97 563l1 -2q-9 7 -9 24q0 7 6.5 17.5t16 20.5t19.5 16.5t17 6.5q3 0 10 -2t15 -8l129 -159q5 -9 5.5 -13t0.5 -6q0 -7 -6.5 -17.5t-15.5 -20t-19 -16t-18 -6.5q-11 0 -17 3.5t-11 11.5l2 -2z" />
<glyph unicode="&#xfa;" horiz-adv-x="612" d="M584 183q20 23 43 23q36 0 36 -35q0 -13 -16 -35q-74 -86 -154 -128t-146 -42q-38 0 -65 13.5t-43 38.5q-41 -24 -81 -38t-78 -14q-27 0 -50.5 6t-41 20.5t-28 37.5t-10.5 58q0 20 3.5 43t14.5 52l-1 -1l31 89l32 89q6 16 21 30.5t37 14.5q33 0 33 -33q0 -5 -0.5 -9 t-3.5 -10l2 3l-63 -177q-14 -40 -14 -65q0 -28 16 -42t41 -14q29 0 60 11t62 31q2 17 5.5 38t11.5 44l32 89l32 89q6 16 21 30.5t37 14.5q33 0 33 -33q0 -5 -0.5 -9t-3.5 -10l2 3l-33 -89l-32 -89q-13 -33 -13 -60q0 -32 17 -46t43 -14q44 0 100.5 30.5t110.5 93.5v1z M363 604q8 8 18 12t19 4q18 0 26.5 -10t8.5 -27q0 -21 -23 -41l-171 -153q-10 -8 -18.5 -12t-17.5 -4q-34 0 -34 36q0 21 21 42z" />
<glyph unicode="&#xfb;" horiz-adv-x="609" d="M582 183q20 23 43 23q36 0 36 -35q0 -13 -16 -35q-74 -86 -154 -128t-146 -42q-38 0 -65 13.5t-43 38.5q-41 -24 -81 -38t-78 -14q-27 0 -50.5 6t-41 20.5t-28 37.5t-10.5 58q0 20 3.5 43t14.5 52l-1 -1l31 89l32 89q6 16 21 30.5t37 14.5q33 0 33 -33q0 -5 -0.5 -9 t-3.5 -10l2 3l-63 -177q-14 -40 -14 -65q0 -28 16 -42t41 -14q29 0 60 11t62 31q2 17 5.5 38t11.5 44l32 89l32 89q6 16 21 30.5t37 14.5q33 0 33 -33q0 -5 -0.5 -9t-3.5 -10l2 3l-33 -89l-32 -89q-13 -33 -13 -60q0 -32 17 -46t43 -14q44 0 100.5 30.5t110.5 93.5v1z M152 427q-9 -6 -17.5 -10t-15.5 -4q-32 0 -32 35q0 28 28 49l162 118q17 10 30 10q15 0 28 -13l72 -121q3 -6 3.5 -10.5t0.5 -6.5q0 -7 -6.5 -17.5t-15.5 -20t-19.5 -16.5t-18.5 -7q-19 0 -29 18q-8 12 -14 22l-12 19l-12 19q-6 10 -13 23z" />
<glyph unicode="&#xfc;" horiz-adv-x="608" d="M582 183q20 23 43 23q36 0 36 -35q0 -13 -16 -35q-74 -86 -154 -128t-146 -42q-38 0 -65 13.5t-43 38.5q-41 -24 -81 -38t-78 -14q-27 0 -50.5 6t-41 20.5t-28 37.5t-10.5 58q0 20 3.5 43t14.5 52l-1 -1l31 89l32 89q6 16 21 30.5t37 14.5q33 0 33 -33q0 -5 -0.5 -9 t-3.5 -10l2 3l-63 -177q-14 -40 -14 -65q0 -28 16 -42t41 -14q29 0 60 11t62 31q2 17 5.5 38t11.5 44l32 89l32 89q6 16 21 30.5t37 14.5q33 0 33 -33q0 -5 -0.5 -9t-3.5 -10l2 3l-33 -89l-32 -89q-13 -33 -13 -60q0 -32 17 -46t43 -14q44 0 100.5 30.5t110.5 93.5v1z M292 600v-1q5 19 22 33.5t37 14.5q33 0 33 -33q0 -2 -0.5 -4.5t-0.5 -5.5l-32 -102q-6 -20 -23 -34t-37 -14q-32 0 -32 32q0 4 0.5 8.5t3.5 10.5l-2 -4zM180 600v-1q5 19 22 33.5t37 14.5q33 0 33 -33q0 -2 -0.5 -4.5t-0.5 -5.5l-32 -102q-6 -20 -23 -34t-37 -14 q-32 0 -32 32q0 4 0.5 8.5t3.5 10.5l-2 -4z" />
<glyph unicode="&#xfd;" horiz-adv-x="743" d="M416 -25q-2 -3 -3 -7t4 7h-1zM31 127q-22 -22 -42 -22q-36 0 -36 35q0 9 4 17.5t12 18.5q43 48 84.5 88t80 69t74 45t65.5 16q19 0 35 -8.5t27 -22t17 -30t6 -33.5q0 -29 -17 -68q-40 -88 -40 -140q0 -20 11 -30t31 -15q36 1 60.5 14.5t43 39.5t34 65.5t33.5 93.5v-1 q2 8 4.5 16t4.5 15v-1q8 27 15 46.5t15.5 33t20 20t29.5 6.5q32 0 32 -32q0 -8 -7 -28l-15 -46q-3 -8 -5.5 -16t-5.5 -16l1 1l-18 -56l-16 -49l-18 -55l-25 -71l42 33l40 29l65 49q28 21 40 34h-1q20 23 43 23q35 0 35 -34q0 -15 -22.5 -40t-57 -54.5t-76.5 -61.5l-82 -61 l-41 -30l-36 -27q-25 -61 -48.5 -112.5t-46.5 -89.5t-47.5 -59.5t-51.5 -21.5q-18 0 -32 8t-23.5 19.5t-14.5 25t-5 24.5q0 27 16 57t43 62t62.5 64.5t74.5 64.5l7 20l7 20l-1 -1q2 8 2 8.5t-1 -1.5q-48 -20 -103 -20q-57 4 -81.5 35t-24.5 82q0 32 12 76.5t38 97.5 q7 14 7 28t-8 20.5t-13 6.5q-32 0 -87 -46t-124 -126zM301 -301q1 0 9 16l20 44q-30 -32 -30 -51v-6q0 -3 1 -3zM417 -160l-49 -42q-22 -21 -38 -39l22 51l26 59zM566 606q8 8 18 12t19 4q18 0 26.5 -10t8.5 -27q0 -21 -23 -41l-171 -153q-10 -8 -18.5 -12t-17.5 -4 q-34 0 -34 36q0 21 21 42z" />
<glyph unicode="&#xfe;" horiz-adv-x="706" d="M174 331l-32 30q14 5 26.5 17t25.5 26l6 6l-10 -28l-10 -29v1zM347 659q-13 0 -30 -19t-36.5 -53t-40.5 -79.5t-40 -97.5q3 3 6 6.5t6 6.5q66 75 102 128t36 89q0 8 -0.5 13.5t-2.5 5.5zM443 666q0 -52 -36 -119t-115 -154q11 1 20.5 1.5t19.5 0.5q157 0 157 -143 q0 -33 -8.5 -64t-23 -58t-32.5 -50.5t-37 -41.5q81 8 152.5 40.5t131.5 94.5q23 23 41 23q36 0 36 -36q0 -14 -7.5 -23.5t-25.5 -29.5q-42 -44 -91.5 -74.5t-102.5 -50.5t-108 -29t-107 -9q-65 0 -122.5 12.5t-104.5 37.5l-93 -339v1q-5 -19 -21.5 -34t-38.5 -15 q-32 0 -32 35q0 1 0.5 3t0.5 4l114 415q2 12 7 21q4 14 4.5 16.5t0.5 3.5t1 4.5t6 19.5q-29 -24 -41 -24q-17 0 -26.5 12t-9.5 24q0 9 8 21.5t21 26.5t29 29l31 30h-1l16 15l13 13l10 35q5 17 10 36q0 4 -0.5 7t4.5 8q29 85 63 156.5t70 123.5t73.5 81.5t73.5 29.5t53 -25 t17 -62zM362 293q-23 9 -57 9q-47 0 -117 -17l-9 -10l-10 -9l-19 -20l-19 -70l-20 -71q38 -20 72.5 -33t66.5 -13q35 0 69 25.5t69 86.5q8 34 8 57q0 48 -35 65h1z" />
<glyph unicode="&#xff;" horiz-adv-x="746" d="M416 -25q-2 -3 -3 -7t4 7h-1zM31 127q-22 -22 -42 -22q-36 0 -36 35q0 9 4 17.5t12 18.5q43 48 84.5 88t80 69t74 45t65.5 16q19 0 35 -8.5t27 -22t17 -30t6 -33.5q0 -29 -17 -68q-40 -88 -40 -140q0 -20 11 -30t31 -15q36 1 60.5 14.5t43 39.5t34 65.5t33.5 93.5v-1 q2 8 4.5 16t4.5 15v-1q8 27 15 46.5t15.5 33t20 20t29.5 6.5q32 0 32 -32q0 -8 -7 -28l-15 -46q-3 -8 -5.5 -16t-5.5 -16l1 1l-18 -56l-16 -49l-18 -55l-25 -71l42 33l40 29l65 49q28 21 40 34h-1q20 23 43 23q35 0 35 -34q0 -15 -22.5 -40t-57 -54.5t-76.5 -61.5l-82 -61 l-41 -30l-36 -27q-25 -61 -48.5 -112.5t-46.5 -89.5t-47.5 -59.5t-51.5 -21.5q-18 0 -32 8t-23.5 19.5t-14.5 25t-5 24.5q0 27 16 57t43 62t62.5 64.5t74.5 64.5l7 20l7 20l-1 -1q2 8 2 8.5t-1 -1.5q-48 -20 -103 -20q-57 4 -81.5 35t-24.5 82q0 32 12 76.5t38 97.5 q7 14 7 28t-8 20.5t-13 6.5q-32 0 -87 -46t-124 -126zM301 -301q1 0 9 16l20 44q-30 -32 -30 -51v-6q0 -3 1 -3zM417 -160l-49 -42q-22 -21 -38 -39l22 51l26 59zM516 572v-1q5 19 22 33.5t37 14.5q33 0 33 -33q0 -2 -0.5 -4.5t-0.5 -5.5l-32 -102q-6 -20 -23 -34t-37 -14 q-32 0 -32 32q0 4 0.5 8.5t3.5 10.5l-2 -4zM404 572v-1q5 19 22 33.5t37 14.5q33 0 33 -33q0 -2 -0.5 -4.5t-0.5 -5.5l-32 -102q-6 -20 -23 -34t-37 -14q-32 0 -32 32q0 4 0.5 8.5t3.5 10.5l-2 -4z" />
<glyph unicode="&#x152;" horiz-adv-x="1045" d="M233 549q-12 -9 -21 -9q-2 -1 -2.5 -1t-2.5 -1l-6 12q-3 6 -5 12zM360 464q-46 0 -88.5 20t-64.5 54q-19 -8 -43 -40t-45.5 -77.5t-36 -99.5t-14.5 -106q0 -75 28.5 -121.5t85.5 -46.5h9q38 0 70.5 24t58.5 63t46 90t33 105q9 39 9 84q0 14 -1 27t-3 27 q-11 -2 -21.5 -2.5t-22.5 -0.5zM86 524q24 36 50 60t52 37q3 27 15 49.5t29 38.5t36.5 25t38.5 9q26 0 51 -13t47 -35t40.5 -52t31.5 -63q54 25 106 83h-1q20 23 41 23q36 0 36 -36q0 -8 -4 -18t-13 -19v1q-72 -77 -144 -114q2 -14 3 -30t1 -31q0 -53 -12 -109t-34.5 -110 t-53 -102t-68 -84.5t-80.5 -57.5t-89 -21q-97 0 -143.5 59.5t-46.5 174.5q0 50 9.5 97.5t25.5 90.5t35.5 80t40.5 67zM390 525q-4 8 -7 16.5t-8 16.5q5 -1 9 -1h8h4q2 0 7 1q2 0 5 0.5t5 0.5zM280 632q0 -28 27.5 -49t67.5 -25q-20 40 -45 66t-48 26q-1 0 -1.5 -5.5 t-0.5 -12.5zM1063 614q0 -2 0.5 -2.5t0.5 -2.5q0 -7 -6.5 -17.5t-15.5 -20t-19.5 -16.5t-18.5 -7q-20 0 -31 20q-15 32 -52.5 55t-87.5 24q-27 -2 -50 -11.5t-40 -27.5t-26.5 -43t-9.5 -56q0 -54 48 -82t151 -33q26 -5 26 -33q0 -14 -6.5 -25t-15.5 -18.5t-19.5 -12 t-18.5 -4.5q-17 0 -31.5 0.5t-26.5 1.5q-10 1 -17.5 1.5t-15.5 0.5q-42 0 -72.5 -5t-52 -17t-35.5 -32.5t-23 -51.5q-2 -8 -2 -19q0 -24 15.5 -48t43 -43t65.5 -31t82 -12q52 0 106 28.5t101 92.5q21 28 47 28q36 0 36 -34q0 -13 -12 -31q-35 -48 -74 -81.5t-79 -55t-80 -31 t-78 -9.5q-48 0 -95.5 14.5t-85.5 41t-61.5 63.5t-23.5 82q0 25 7 46q21 64 56.5 108t86.5 66q-40 43 -40 109q0 57 22.5 104.5t58.5 81t80.5 52.5t88.5 19q33 0 63 -9t56 -24.5t46 -36.5t32 -45z" />
<glyph unicode="&#x153;" horiz-adv-x="975" d="M122 265q-9 -1 -21 -13l-4 18q-2 8 -3 17zM206 111q-38 29 -65.5 65.5t-39.5 75.5q-10 -9 -19 -24.5t-16.5 -33.5t-12 -37t-4.5 -36q0 -32 15.5 -52.5t54.5 -20.5q52 0 87 63zM37 293q17 19 31 31.5t31 20.5q11 33 36 53.5t55 20.5q22 0 47 -14t45.5 -38.5t34 -58 t13.5 -72.5q0 -19 -2.5 -34t-10.5 -39q42 -24 89 -24t77 34l-1 -1q19 24 42 24q17 0 27 -8.5t10 -26.5q0 -9 -4.5 -17t-12.5 -19q-38 -43 -79.5 -61t-85.5 -18q-28 0 -53 4.5t-52 18.5q-35 -58 -83.5 -86t-96.5 -28q-72 0 -105 36.5t-33 103.5q0 56 24.5 108t56.5 90z M234 178q2 8 3 15.5t1 15.5v8q0 4 -1 8q16 -18 36 -33zM185 318q-11 7 -17 7h-4q-18 0 -24.5 14.5t5.5 27.5q-3 -3 -3 -5l47 -18q-4 -8 -4 -18v-8zM185 318q2 -20 16.5 -45t35.5 -48q-4 33 -19.5 57.5t-32.5 35.5zM528 186l21 12l20 10q-2 -11 -2.5 -23t-1.5 -23zM625 300 q-14 0 -23.5 -7.5t-16 -20.5t-10.5 -29.5t-6 -34.5q80 49 83 82q-2 5 -10 7.5t-17 2.5zM725 252q-18 -31 -56 -65.5t-99 -69.5q11 -38 41.5 -61t78.5 -23q50 0 114.5 31.5t139.5 109.5q21 21 39 21q17 0 27 -12t10 -24q0 -19 -20 -39q-98 -98 -183 -138.5t-152 -40.5 q-46 0 -82 14.5t-61 40.5t-38 62t-13 79q3 41 11.5 86.5t28 83.5t53 62.5t87.5 24.5q45 0 69.5 -22t24.5 -58q0 -14 -4.5 -29.5t-14.5 -32.5h-1z" />
<glyph unicode="&#x178;" horiz-adv-x="729" d="M394 45l-22 -14l-21 -14q7 3 14.5 5.5t15.5 5.5l8 2q1 5 5 15zM625 696q7 17 23 31.5t37 14.5q32 0 32 -32v-6q0 -4 -2 -8l-223 -630q29 11 58.5 24t56.5 27t50.5 29t39.5 31h-1q19 19 39 19q35 0 35 -36q0 -15 -16.5 -34t-41.5 -37.5t-54 -35.5t-54 -28l-76 -33 q-35 -15 -72 -28l-12 -30q-6 -15 -11 -31q-27 -74 -56 -124.5t-57.5 -81.5t-56 -45t-50.5 -14q-21 0 -37.5 9t-27.5 25t-17 36t-6 43q0 57 28.5 114t98.5 104q-19 -7 -37 -11t-35 -4q-55 0 -83.5 27.5t-28.5 95.5q0 54 17 125.5t46 158.5q26 80 42.5 145.5t16.5 107.5 q0 43 -22 43q-19 0 -50 -15.5t-79 -48.5l1 1q-18 -13 -33 -13q-32 0 -32 35q0 29 30 49l-1 -1q65 48 112 68.5t80 20.5q45 0 66 -30.5t21 -85.5q0 -48 -17 -122.5t-45 -156.5q-26 -78 -42.5 -144t-16.5 -111q0 -32 10.5 -44.5t31.5 -12.5q23 0 53 12.5t61 31t60 38.5l52 37 q4 3 5 3.5t4 2.5zM352 -73q-75 -32 -104.5 -68.5t-29.5 -83.5q0 -17 6 -30.5t16 -13.5q16 0 42.5 39.5t63.5 138.5l-1 -1zM391 944v-1q5 19 22 33.5t37 14.5q33 0 33 -33q0 -2 -0.5 -4.5t-0.5 -5.5l-32 -102q-6 -20 -23 -34t-37 -14q-32 0 -32 32q0 4 0.5 8.5t3.5 10.5 l-2 -4zM279 944v-1q5 19 22 33.5t37 14.5q33 0 33 -33q0 -2 -0.5 -4.5t-0.5 -5.5l-32 -102q-6 -20 -23 -34t-37 -14q-32 0 -32 32q0 4 0.5 8.5t3.5 10.5l-2 -4z" />
<glyph unicode="&#x2c6;" horiz-adv-x="292" d="M40 427q-9 -6 -17.5 -10t-15.5 -4q-32 0 -32 35q0 28 28 49l162 118q17 10 30 10q15 0 28 -13l72 -121q3 -6 3.5 -10.5t0.5 -6.5q0 -7 -6.5 -17.5t-15.5 -20t-19.5 -16.5t-18.5 -7q-19 0 -29 18q-8 12 -14 22l-12 19l-12 19q-6 10 -13 23z" />
<glyph unicode="&#x2dc;" horiz-adv-x="469" d="M143 511l-2 2zM105 489q-6 -19 -22 -34t-37 -15q-33 0 -33 41q7 25 23 48.5t36.5 41t42.5 28t43 10.5q18 0 31.5 -5t25 -12.5t21 -18t19.5 -20.5q14 -17 30.5 -30.5t39.5 -13.5q17 0 29.5 7.5t23.5 36.5q8 17 22.5 30.5t36.5 13.5q32 0 32 -32q0 -15 -7.5 -32t-18.5 -33 t-23 -29t-22 -20q-23 -17 -47.5 -26t-51.5 -9q-45 0 -73 20t-52 45l-18 17q-8 9 -13 13h1q-7 4 -13 4q-8 0 -15.5 -8t-9.5 -16z" />
<glyph unicode="&#x2013;" horiz-adv-x="518" d="M50 301q-34 0 -34 32q0 15 6.5 26t16 19t20 12t17.5 4h368q34 0 34 -32q0 -13 -6.5 -24t-16 -19.5t-20 -13t-17.5 -4.5h-368z" />
<glyph unicode="&#x2014;" horiz-adv-x="683" d="M78 301q-34 0 -34 32q0 15 6.5 26t16 19t20 12t17.5 4h500q34 0 34 -32q0 -13 -6.5 -24t-16 -19.5t-20 -13t-17.5 -4.5h-500z" />
<glyph unicode="&#x2018;" horiz-adv-x="178" d="M80 691q2 7 7 16t12.5 16.5t18 12.5t22.5 5q32 0 32 -32q0 -5 -1 -9t-2 -9v-5q0 -18 9 -36.5t12 -21.5q2 -2 4.5 -8.5t2.5 -9.5v-4q0 -7 -6 -17.5t-15 -20t-20 -16.5t-20 -7q-3 0 -9.5 3t-8.5 5q-12 14 -21 31q-8 14 -14.5 34t-5.5 44v4q0 6 0.5 13t2.5 14v-2z" />
<glyph unicode="&#x2019;" horiz-adv-x="156" d="M164 681q0 6 4.5 16.5t12.5 20.5t19 17.5t25 7.5q32 0 32 -42q0 -20 -9.5 -41.5t-21.5 -40t-23.5 -31t-15.5 -15.5l22 13q-8 -17 -22.5 -28t-32.5 -11q-34 0 -34 32q0 17 6 27l15 21q8 11 15.5 24.5t7.5 29.5z" />
<glyph unicode="&#x201a;" horiz-adv-x="215" d="M13 37q0 6 4.5 16.5t12.5 20.5t19 17.5t25 7.5q32 0 32 -42q0 -20 -9.5 -41.5t-21.5 -39.5t-23.5 -31t-15.5 -16l22 13q-8 -17 -22.5 -28t-32.5 -11q-34 0 -34 32q0 17 7 27l14 21q8 11 15.5 24.5t7.5 29.5z" />
<glyph unicode="&#x201c;" horiz-adv-x="260" d="M159 691q2 7 7 16t12.5 16.5t18 12.5t22.5 5q32 0 32 -32q0 -5 -1 -9t-2 -9v-5q0 -18 9 -36.5t12 -21.5q2 -2 4.5 -8.5t2.5 -9.5v-4q0 -7 -6 -17.5t-15 -20t-20 -16.5t-20 -7q-3 0 -9.5 3t-8.5 5q-12 14 -21 31q-8 14 -14.5 34t-5.5 44v4q0 6 0.5 13t2.5 14v-2zM74 691 q2 7 7 16t12.5 16.5t18 12.5t22.5 5q32 0 32 -32q0 -5 -1 -9t-2 -9v-5q0 -18 9 -36.5t12 -21.5q2 -2 4.5 -8.5t2.5 -9.5v-4q0 -7 -6 -17.5t-15 -20t-20 -16.5t-20 -7q-3 0 -9.5 3t-8.5 5q-12 14 -21 31q-8 14 -14.5 34t-5.5 44v4q0 6 0.5 13t2.5 14v-2z" />
<glyph unicode="&#x201d;" horiz-adv-x="156" d="M254 681q0 6 4.5 16.5t12.5 20.5t19 17.5t25 7.5q32 0 32 -42q0 -20 -9.5 -41.5t-21.5 -40t-23.5 -31t-15.5 -15.5l22 13q-8 -17 -22.5 -28t-32.5 -11q-34 0 -34 32q0 17 6 27l15 21q8 11 15.5 24.5t7.5 29.5zM164 681q0 6 4.5 16.5t12.5 20.5t19 17.5t25 7.5 q32 0 32 -42q0 -20 -9.5 -41.5t-21.5 -40t-23.5 -31t-15.5 -15.5l22 13q-8 -17 -22.5 -28t-32.5 -11q-34 0 -34 32q0 17 7 26l14 22q8 11 15.5 24.5t7.5 29.5z" />
<glyph unicode="&#x201e;" horiz-adv-x="263" d="M103 37q0 6 4.5 16.5t12.5 20.5t19 17.5t25 7.5q32 0 32 -42q0 -20 -9.5 -41.5t-21.5 -39.5t-23.5 -31t-15.5 -16l22 13q-8 -17 -22.5 -28t-32.5 -11q-34 0 -34 32q0 17 7 27l14 21q8 11 15.5 24.5t7.5 29.5zM13 37q0 6 4.5 16.5t12.5 20.5t19 17.5t25 7.5q32 0 32 -42 q0 -20 -9.5 -41.5t-21.5 -39.5t-23.5 -31t-15.5 -16l22 13q-8 -17 -22.5 -28t-32.5 -11q-34 0 -34 32q0 17 7 26l14 22q8 11 15.5 24.5t7.5 29.5z" />
<glyph unicode="&#x2022;" horiz-adv-x="233" d="M179 443q30 0 50 -11t32.5 -28t18 -37.5t5.5 -39.5q0 -5 0.5 -8.5t-1.5 -8.5v-7q-28 -59 -59 -83t-72 -24q-12 0 -30 4t-35.5 15.5t-30 33t-12.5 56.5q0 27 12 52t30.5 44t42.5 30.5t48 11.5h1z" />
<glyph unicode="&#x2026;" horiz-adv-x="471" d="M120 79q22 0 31 -13.5t9 -29.5q0 -15 -7.5 -29.5t-19 -26t-25 -18.5t-24.5 -7q-22 0 -31 12.5t-9 29.5q0 15 8 29.5t20 26.5t25 19t23 7zM353 79q22 0 31 -13.5t9 -29.5q0 -15 -7.5 -29.5t-19 -26t-25 -18.5t-24.5 -7q-22 0 -31 12.5t-9 29.5q0 15 8 29.5t20 26.5t25 19 t23 7zM238 82q22 0 31 -13.5t9 -29.5q0 -15 -7.5 -29.5t-19 -26t-25 -18.5t-24.5 -7q-22 0 -31 12.5t-9 29.5q0 15 8 29.5t20 26.5t25 19t23 7z" />
<glyph unicode="&#x2039;" horiz-adv-x="405" d="M349 576q17 11 30 11q32 0 32 -37q0 -28 -30 -48l-231 -158l59 -82l58 -81l-2 4q10 -10 10 -25q0 -7 -7 -17.5t-16.5 -20t-20 -16t-17.5 -6.5q-14 0 -21 5.5t-10 14.5l-69 97l-69 97l2 -3q-4 3 -6.5 7.5t-2.5 13.5q0 32 30 52z" />
<glyph unicode="&#x203a;" horiz-adv-x="388" d="M84 111q-17 -12 -31 -12q-32 0 -32 34q0 32 30 52l230 157l-59 84l-59 83l-2 2q-1 1 -1 2v1q-2 4 -2 13q0 7 6 17.5t15 20t19.5 16t19.5 6.5q15 0 26 -11l144 -202l-2 3q6 -6 7 -11t1 -15q0 -28 -30 -48z" />
<glyph unicode="&#x20ac;" horiz-adv-x="538" d="M46 207q0 -4 1 0h-1zM368 125q21 25 42 25q17 0 27 -8.5t10 -26.5q0 -15 -15 -34.5t-35.5 -38t-40.5 -33.5t-30 -21h1q-56 -33 -110 -33q-42 0 -73.5 18.5t-53 51t-32.5 78t-11 99.5q0 5 -0.5 5.5t-0.5 -0.5h-37q-35 0 -35 32q0 15 7 26.5t16.5 19.5t20 12t17.5 4h21 q4 23 9.5 45t13.5 46h-24q-36 0 -36 32q0 13 6 24t15.5 19.5t20.5 13.5t20 5h36q24 54 59.5 100.5t76.5 81t83 54t79 19.5q52 0 92 -32t60 -95l1 -10q0 -7 -6 -17t-15 -19.5t-20 -16t-20 -6.5q-11 0 -19 10t-17 25l-18 27q-9 15 -15 22q-20 19 -49 19q-41 0 -91 -41 t-91 -121h200q34 0 34 -32q0 -13 -6.5 -24.5t-16 -19.5t-20 -13t-17.5 -5h-213q-8 -20 -14 -42.5t-9 -48.5h145q34 0 34 -32q0 -13 -6.5 -24.5t-16 -19.5t-20 -13t-17.5 -5h-124q4 -69 30.5 -114.5t72.5 -45.5q30 0 61.5 20t63.5 58z" />
<glyph unicode="&#x2122;" horiz-adv-x="1134" d="M422 419q-1 -2 -2 -3.5t-3 -3.5q5 5 5 7zM590 718q27 17 48 23.5t39 6.5q40 0 60 -28q29 17 49.5 22.5t37.5 5.5q41 0 59 -28q26 16 48.5 22.5t39.5 6.5q38 0 54 -25.5t16 -58.5q0 -26 -10 -63.5t-22 -78.5l-20 -69q-9 -32 -9 -50q0 -2 -2 -4q22 10 84 60q20 14 31 14 q10 0 25 -11t15 -31q0 -19 -20 -39q-55 -44 -92.5 -63.5t-64.5 -19.5q-34 0 -50 21t-16 56q0 23 10 61l21 76l20 73q10 36 10 56q0 3 2 4q-8 -2 -23.5 -9t-35.5 -21q-4 -24 -13 -54.5t-21 -64.5l-26 -69l-27 -70l-1 -2l-3 -9q-5 -14 -9.5 -23t-10 -15t-14.5 -8.5t-23 -2.5 q-36 0 -36 36q0 10 3.5 19.5t7.5 17.5q1 2 1.5 4t2.5 5l29 75q14 38 25.5 72.5t18.5 64.5t7 50q0 4 4 5q-18 -2 -61 -32q-7 -41 -28 -97l-42 -114l-15 -40l-14 -39q-8 -15 -20.5 -21t-31.5 -6q-34 0 -34 33q0 5 2.5 13.5t6.5 18.5q2 4 3 8t3 8l29 75q15 38 26.5 73t19 65 t7.5 50q0 3 4 4q-6 -1 -15.5 -4t-20.5 -11q-27 -20 -55 -28.5t-55 -8.5h-10q-5 0 -9 1q-15 -52 -32 -93t-36 -76h9q37 0 53 7.5t24 14.5q8 5 12.5 9.5t20.5 4.5q41 0 41 -36q0 -22 -14 -39t-37 -29t-52 -18t-58 -6q-17 0 -33.5 1t-35.5 3q-20 -16 -44.5 -25.5t-47.5 -9.5 q-45 0 -89.5 25t-90.5 82q-9 12 -9 25q0 8 5 17t13 16.5t17 12t18 4.5l7 1l110 -29q48 -13 90 -21q23 30 41.5 77t37.5 116q-31 14 -69 14t-63 -20l2 1q-17 -17 -36 -17q-10 0 -25 12.5t-15 29.5q0 19 17.5 34.5t41.5 26.5t49.5 17t42.5 6q34 0 70 -10t65 -28q14 -10 32 -10 q26 0 54 18zM300 359q-19 3 -40 7.5t-46 11.5q-2 1 -5.5 1.5t-5.5 1.5l21 44q14 -11 28 -16t25 -5q9 0 22 5z" />
<glyph unicode="&#xe000;" horiz-adv-x="395" d="M0 395h395v-395h-395v395z" />
<glyph unicode="&#xfb01;" horiz-adv-x="747" d="M720 183q20 23 44 23q35 0 35 -35q0 -16 -15 -35q-37 -43 -77 -75t-79 -53t-76 -31.5t-68 -10.5q-57 0 -91.5 28.5t-34.5 95.5q0 43 18 93l-1 -1l31 89l32 89q6 16 21 30.5t37 14.5q33 0 33 -33q0 -5 -0.5 -9t-3.5 -10l2 3l-32 -89l-32 -89q-13 -35 -13 -62 q0 -29 16.5 -43.5t43.5 -14.5q44 0 100 30.5t110 93.5v1zM514 600v-1q5 19 22 33.5t37 14.5q33 0 33 -33q0 -2 -0.5 -4.5t-0.5 -5.5l-32 -102q-6 -20 -23 -34t-37 -14q-32 0 -32 32q0 4 0.5 8.5t3.5 10.5l-2 -4zM-53 46q5 15 9 29.5t9 28.5q-15 7 -15 31q0 20 21 41l26 26 q23 64 50 129.5t57.5 126t63 113.5t66 92.5t66.5 62t65 22.5q7 0 20 -3.5t25.5 -13t21.5 -27.5t9 -47q0 -41 -28 -94t-77 -115.5t-116 -132.5l-143 -145q-6 -18 -11.5 -31.5t-10 -26.5t-8.5 -26.5t-8 -31.5q46 7 97.5 20.5t98 30.5t84 36t56.5 36h-1q19 19 39 19 q35 0 35 -36q0 -20 -26.5 -43t-67 -45.5t-89.5 -42.5t-95 -34l-30 -7l-45 -9q-12 -3 -24.5 -5t-23.5 -4q49 -41 77 -85t28 -91q0 -42 -12.5 -77.5t-33 -61t-45.5 -39.5t-49 -14q-28 0 -49.5 13.5t-36 37t-22 55t-7.5 67.5q0 23 4.5 62t18.5 97l-18 9l-34 19q-15 9 -15 27 q0 10 7 20t17 18.5t21 14t19 5.5q6 -1 11 -1h12q6 0 2 0v-1q1 1 5 1zM57 261l41 41l41 42q-11 -27 -21 -54l-19 -55zM341 654q-18 -3 -43 -29t-52 -68.5t-54.5 -97.5t-52.5 -115l69 74q34 36 61 68.5t46 60t25 47.5v-1q3 11 5 20.5t2 20.5q0 8 -0.5 14t-2.5 6h-3zM5 -84 q-3 -11 -4.5 -20.5t-3.5 -20.5q-8 8 -16 15l-16 13zM59 -234q0 24 -17 52.5t-45 56.5q-6 -38 -6 -82q0 -42 14 -69.5t33 -27.5h2q6 4 12.5 22.5t6.5 47.5z" />
<glyph unicode="&#xfb02;" horiz-adv-x="813" d="M779 176q21 25 42 25q17 0 27 -8.5t10 -26.5q0 -13 -16 -35q-36 -42 -75.5 -74t-78.5 -53.5t-76 -32.5t-69 -11q-26 0 -49.5 6.5t-41 21.5t-27.5 38.5t-10 56.5v15q0 7 2 15q-13 -8 -23 -8q-35 0 -35 36q0 10 11 25.5t27 32.5t35 35l33 31l15 45l16 44q30 82 64 155 t71 127t74.5 85.5t73.5 31.5q9 0 21.5 -4t23 -14t18 -27t7.5 -42q0 -38 -19 -82t-57.5 -96.5t-96 -115.5t-134.5 -140l-21 -60q-13 -35 -13 -62q0 -25 15 -41.5t45 -16.5q43 0 100 31t111 93zM567 300l-42 25q23 23 43 45l39 42q-5 -15 -11 -30.5t-11 -30.5zM753 659 q-13 0 -30 -20t-36.5 -53.5t-40 -78.5t-39.5 -95q71 78 110 134t39 94q0 8 -0.5 13.5t-2.5 5.5zM-53 46q5 15 9 29.5t9 28.5q-15 7 -15 31q0 20 21 41l26 26q23 64 50 129.5t57.5 126t63 113.5t66 92.5t66.5 62t65 22.5q7 0 20 -3.5t25.5 -13t21.5 -27.5t9 -47 q0 -41 -28 -94t-77 -115.5t-116 -132.5l-143 -145q-6 -18 -11.5 -31.5t-10 -26.5t-8.5 -26.5t-8 -31.5q46 7 97.5 20.5t98 30.5t84 36t56.5 36h-1q19 19 39 19q35 0 35 -36q0 -20 -26.5 -43t-67 -45.5t-89.5 -42.5t-95 -34l-30 -7l-45 -9q-12 -3 -24.5 -5t-23.5 -4 q49 -41 77 -85t28 -91q0 -42 -12.5 -77.5t-33 -61t-45.5 -39.5t-49 -14q-28 0 -49.5 13.5t-36 37t-22 55t-7.5 67.5q0 23 4.5 62t18.5 97l-18 9l-34 19q-15 9 -15 27q0 10 7 20t17 18.5t21 14t19 5.5q6 -1 11 -1h12q6 0 2 0v-1q1 1 5 1zM57 261l41 41l41 42q-11 -27 -21 -54 l-19 -55zM341 654q-18 -3 -43 -29t-52 -68.5t-54.5 -97.5t-52.5 -115l69 74q34 36 61 68.5t46 60t25 47.5v-1q3 11 5 20.5t2 20.5q0 8 -0.5 14t-2.5 6h-3zM5 -84q-3 -11 -4.5 -20.5t-3.5 -20.5q-8 8 -16 15l-16 13zM59 -234q0 24 -17 52.5t-45 56.5q-6 -38 -6 -82 q0 -42 14 -69.5t33 -27.5h2q6 4 12.5 22.5t6.5 47.5z" />
<glyph unicode="&#xfb03;" horiz-adv-x="1152" d="M1125 183q20 23 44 23q35 0 35 -35q0 -16 -15 -35q-37 -43 -77 -75t-79 -53t-76 -31.5t-68 -10.5q-57 0 -91.5 28.5t-34.5 95.5q0 43 18 93l-1 -1l32 89l31 89q6 16 21 30.5t37 14.5q33 0 33 -33q0 -5 -0.5 -9t-3.5 -10l2 3l-32 -89l-32 -89q-13 -35 -13 -62 q0 -29 16.5 -43.5t43.5 -14.5q44 0 100 30.5t110 93.5v1zM919 600v-1q5 19 22 33.5t37 14.5q33 0 33 -33q0 -2 -0.5 -4.5t-0.5 -5.5l-32 -102q-6 -20 -23 -34t-37 -14q-32 0 -32 32q0 4 0.5 8.5t3.5 10.5l-2 -4zM352 46q5 15 9 29.5t9 28.5q-15 7 -15 31q0 20 21 41l26 26 q23 64 50 129.5t57.5 126t63 113.5t66 92.5t66.5 62t65 22.5q7 0 20 -3.5t25.5 -13t21.5 -27.5t9 -47q0 -41 -28 -94t-77 -115.5t-115 -132.5l-144 -145q-6 -18 -11.5 -31.5t-10 -26.5t-8.5 -26.5t-8 -31.5q46 7 97.5 20.5t98 30.5t84 36t56.5 36h-1q19 19 39 19 q35 0 35 -36q0 -20 -26.5 -43t-67 -45.5t-89.5 -42.5t-95 -34l-30 -7l-45 -9q-12 -3 -24.5 -5t-23.5 -4q49 -41 77 -85t28 -91q0 -42 -12.5 -77.5t-33 -61t-45.5 -39.5t-49 -14q-28 0 -49.5 13.5t-36 37t-22 55t-7.5 67.5q0 23 4.5 62t18.5 97l-18 9l-35 19q-14 9 -14 27 q0 10 7 20t17 18.5t21 14t19 5.5q6 -1 12 -1h11q6 0 3 0l-1 -1q1 1 5 1zM462 261l41 41l41 42q-11 -27 -21 -54l-19 -55zM746 654q-18 -3 -43 -29t-52 -68.5t-54.5 -97.5t-52.5 -115l70 74q33 36 60 68.5t46 60t25 47.5v-1q3 11 5 20.5t2 20.5q0 8 -0.5 14t-2.5 6h-3z M410 -84q-3 -11 -4.5 -20.5t-3.5 -20.5q-8 8 -16 15l-16 13zM464 -234q0 24 -17 52.5t-45 56.5q-6 -38 -6 -82q0 -42 14 -69.5t33 -27.5h2q6 4 12.5 22.5t6.5 47.5zM-53 46q5 15 9 29.5t9 28.5q-15 7 -15 31q0 20 21 41l26 26q23 64 50 129.5t57.5 126t63 113.5t66 92.5 t66.5 62t65 22.5q7 0 20 -3.5t25.5 -13t21.5 -27.5t9 -47q0 -41 -28 -94t-77 -115.5t-116 -132.5l-143 -145q-6 -18 -11.5 -31.5t-10 -26.5t-8.5 -26.5t-8 -31.5q46 7 97.5 20.5t98 30.5t84 36t56.5 36h-1q19 19 39 19q35 0 35 -36q0 -20 -26.5 -43t-67 -45.5t-89.5 -42.5 t-95 -34l-30 -7l-45 -9q-12 -3 -24.5 -5t-23.5 -4q49 -41 77 -85t28 -91q0 -42 -12.5 -77.5t-33 -61t-45.5 -39.5t-49 -14q-28 0 -49.5 13.5t-36 37t-22 55t-7.5 67.5q0 23 4.5 62t18.5 97l-18 9l-34 19q-15 9 -15 27q0 10 7 20t17 18.5t21 14t19 5.5q6 -1 11 -1h12q6 0 2 0 v-1q1 1 5 1zM57 261l41 41l41 42q-11 -27 -21 -54l-19 -55zM341 654q-18 -3 -43 -29t-52 -68.5t-54.5 -97.5t-52.5 -115l69 74q34 36 61 68.5t46 60t25 47.5v-1q3 11 5 20.5t2 20.5q0 8 -0.5 14t-2.5 6h-3zM5 -84q-3 -11 -4.5 -20.5t-3.5 -20.5q-8 8 -16 15l-16 13zM59 -234 q0 24 -17 52.5t-45 56.5q-6 -38 -6 -82q0 -42 14 -69.5t33 -27.5h2q6 4 12.5 22.5t6.5 47.5z" />
<glyph unicode="&#xfb04;" horiz-adv-x="1218" d="M1184 176q21 25 42 25q17 0 27 -8.5t10 -26.5q0 -13 -16 -35q-36 -42 -75.5 -74t-78.5 -53.5t-76 -32.5t-69 -11q-26 0 -49.5 6.5t-41 21.5t-27.5 38.5t-10 56.5v15q0 7 2 15q-13 -8 -23 -8q-35 0 -35 36q0 10 11 25.5t27 32.5l34 35l34 31l16 45l15 44q30 82 64 155 t71 127t74.5 85.5t73.5 31.5q9 0 21.5 -4t23 -14t18 -27t7.5 -42q0 -38 -19 -82t-57.5 -96.5t-96 -115.5t-134.5 -140l-21 -60q-13 -35 -13 -62q0 -25 15 -41.5t45 -16.5q43 0 100 31t111 93zM972 300l-42 25q23 23 43 45l39 42q-5 -15 -11 -30.5t-11 -30.5zM1158 659 q-13 0 -30 -20t-36.5 -53.5t-40 -78.5t-39.5 -95q71 78 110 134t39 94q0 8 -0.5 13.5t-2.5 5.5zM352 46q5 15 9 29.5t9 28.5q-15 7 -15 31q0 20 21 41l26 26q23 64 50 129.5t57.5 126t63 113.5t66 92.5t66.5 62t65 22.5q7 0 20 -3.5t25.5 -13t21.5 -27.5t9 -47 q0 -41 -28 -94t-77 -115.5t-115 -132.5l-144 -145q-6 -18 -11.5 -31.5t-10 -26.5t-8.5 -26.5t-8 -31.5q46 7 97.5 20.5t98 30.5t84 36t56.5 36h-1q19 19 39 19q35 0 35 -36q0 -20 -26.5 -43t-67 -45.5t-89.5 -42.5t-95 -34l-30 -7l-45 -9q-12 -3 -24.5 -5t-23.5 -4 q49 -41 77 -85t28 -91q0 -42 -12.5 -77.5t-33 -61t-45.5 -39.5t-49 -14q-28 0 -49.5 13.5t-36 37t-22 55t-7.5 67.5q0 23 4.5 62t18.5 97l-18 9l-35 19q-14 9 -14 27q0 10 7 20t17 18.5t21 14t19 5.5q6 -1 12 -1h11q6 0 3 0l-1 -1q1 1 5 1zM462 261l41 41l41 42 q-11 -27 -21 -54l-19 -55zM746 654q-18 -3 -43 -29t-52 -68.5t-54.5 -97.5t-52.5 -115l70 74q33 36 60 68.5t46 60t25 47.5v-1q3 11 5 20.5t2 20.5q0 8 -0.5 14t-2.5 6h-3zM410 -84q-3 -11 -4.5 -20.5t-3.5 -20.5q-8 8 -16 15l-16 13zM464 -234q0 24 -17 52.5t-45 56.5 q-6 -38 -6 -82q0 -42 14 -69.5t33 -27.5h2q6 4 12.5 22.5t6.5 47.5zM-53 46q5 15 9 29.5t9 28.5q-15 7 -15 31q0 20 21 41l26 26q23 64 50 129.5t57.5 126t63 113.5t66 92.5t66.5 62t65 22.5q7 0 20 -3.5t25.5 -13t21.5 -27.5t9 -47q0 -41 -28 -94t-77 -115.5t-116 -132.5 l-143 -145q-6 -18 -11.5 -31.5t-10 -26.5t-8.5 -26.5t-8 -31.5q46 7 97.5 20.5t98 30.5t84 36t56.5 36h-1q19 19 39 19q35 0 35 -36q0 -20 -26.5 -43t-67 -45.5t-89.5 -42.5t-95 -34l-30 -7l-45 -9q-12 -3 -24.5 -5t-23.5 -4q49 -41 77 -85t28 -91q0 -42 -12.5 -77.5 t-33 -61t-45.5 -39.5t-49 -14q-28 0 -49.5 13.5t-36 37t-22 55t-7.5 67.5q0 23 4.5 62t18.5 97l-18 9l-34 19q-15 9 -15 27q0 10 7 20t17 18.5t21 14t19 5.5q6 -1 11 -1h12q6 0 2 0v-1q1 1 5 1zM57 261l41 41l41 42q-11 -27 -21 -54l-19 -55zM341 654q-18 -3 -43 -29 t-52 -68.5t-54.5 -97.5t-52.5 -115l69 74q34 36 61 68.5t46 60t25 47.5v-1q3 11 5 20.5t2 20.5q0 8 -0.5 14t-2.5 6h-3zM5 -84q-3 -11 -4.5 -20.5t-3.5 -20.5q-8 8 -16 15l-16 13zM59 -234q0 24 -17 52.5t-45 56.5q-6 -38 -6 -82q0 -42 14 -69.5t33 -27.5h2q6 4 12.5 22.5 t6.5 47.5z" />
</font>
</defs>
</svg>
