<?xml version="1.0" standalone="no"?>
<!DOCTYPE svg PUBLIC "-//W3C//DTD SVG 1.1//EN" "http://www.w3.org/Graphics/SVG/1.1/DTD/svg11.dtd" >
<svg xmlns="http://www.w3.org/2000/svg" xmlns:xlink="http://www.w3.org/1999/xlink" version="1.1">
<metadata>
Created by FontForge 20150318 at Mon Jun  1 15:48:54 2015
 By uniteet7
Generated by Fontographer 3.5(c)P.Rempel www.pangea.ca/~prempel
</metadata>
<defs>
<font id="PR-CelticNarrow" horiz-adv-x="307" >
  <font-face 
    font-family="PR Celtic Narrow"
    font-weight="400"
    font-stretch="normal"
    units-per-em="1000"
    panose-1="0 0 0 0 0 0 0 0 0 0"
    ascent="800"
    descent="-200"
    x-height="421"
    cap-height="451"
    bbox="-181 -763 1255 900"
    underline-thickness="20"
    underline-position="-123"
    unicode-range="U+0020-2122"
  />
<missing-glyph horiz-adv-x="800" 
d="M50 0v800h700v-800h-700zM700 50v700h-600v-700h600z" />
    <glyph glyph-name=".notdef" horiz-adv-x="800" 
d="M50 0v800h700v-800h-700zM700 50v700h-600v-700h600z" />
    <glyph glyph-name=".null" horiz-adv-x="0" 
 />
    <glyph glyph-name="nonmarkingreturn" 
 />
    <glyph glyph-name="space" unicode=" " 
 />
    <glyph glyph-name="exclam" unicode="!" 
d="M52 696q-15 0 -23.5 8.5t-8.5 20.5q0 10 8 13q64 27 99 60q95 89 97 90l22 -31q0 -94 -13 -202t-26 -220.5t-13 -196.5q0 -42 -17 -42q-19 0 -19 52v28t1 33q0 128 -16 210q-25 131 -91 177zM172 -9q20 17 61 40q32 18 33 19l-29 9l-45 49l-1 13l-19 -2l-41 -33l-49 -21
l24 -7l52 -67h14z" />
    <glyph glyph-name="quotedbl" unicode="&#x22;" horiz-adv-x="415" 
d="M58 483l31 20q32 30 42 40.5t40 45.5l19 56v80l-12 36l-50 -1q-6 -2 -28 -26q-16 -17 -25 -25q-30 -6 -39.5 -8.5t-16.5 -7.5l10 -13l32 -7v-18l15 -6q3 -5 6 -14t4 -14v-14q0 -29 -10 -61q-8 -6 -24 -29t-23 -31zM269 483q24 18 35 27q21 16 36 26l39 53l17 56v80
q-5 19 -6.5 22.5t-8.5 12.5h-47l-43 -46q-15 -7 -25.5 -9.5t-39.5 -6.5l9 -18q14 -5 19 -9t30 -26l10 -24v-14q0 -29 -10 -61q-17 -20 -24 -30t-20 -36z" />
    <glyph glyph-name="numbersign" unicode="#" horiz-adv-x="581" 
d="M150 8l-7 -21l45 6v16l12 146l164 1l-11 -148l-7 -21l45 6v16l11 146h76l16 -5l20 41l-22 -5l-88 -1l14 167h101l17 -5l19 40l-22 -4h-113l11 147l6 20l-44 -5v-17l-11 -145h-164l11 147l6 20l-44 -5v-17l-12 -145h-75l-17 4l-19 -40l21 5l88 1l-13 -167h-101l-17 5
l-20 -41l23 5l112 1zM215 352l165 1l-14 -167l-164 -1z" />
    <glyph glyph-name="dollar" unicode="$" horiz-adv-x="376" 
d="M204 119q-6 7 -8 15.5t-7 59.5q21 4 32 7q21 7 43 14q10 14 24 20q25 24 31 32t36 54l5 52l-20 45q-14 12 -27.5 20.5t-62.5 35.5l-56 16l-8 19l3 126q36 -4 50.5 -5.5t34.5 -8.5q0 -5 5.5 -28.5t8.5 -46.5l7 4l9 71l36 62q-48 0 -95 -1.5t-51 -1.5q-3 12 -3 16t8 25h-43
q5 -12 6 -18.5t1 -29.5q-7 -7 -21 -12q-3 -1 -47 -17q-21 -18 -43 -41q-13 -14 -21 -19q-2 -2 -7 -13t-6 -15v-56q12 -15 37 -40q18 -18 21 -26l43 -8l54 -25q0 -10 -1 -69t-1 -106q-9 2 -25 5.5t-30 4.5l-28 19q-8 16 -10 24l2 42h-14l-22 -106l-24 -25q66 -6 94 -6h57
q-5 -41 -7.5 -52t-7.5 -17q6 -1 13 -1q9 0 35 5zM186 391l35 3l72 -38l8 -16v-35v-23q-4 -11 -6 -18l-35 -25l-71 -16zM80 543q-11 14 -16 22q0 14 4 22q9 16 16 29q21 8 25 13l56 5l3 -130q-7 -4 -12 -1q-40 15 -46 18t-30 22z" />
    <glyph glyph-name="percent" unicode="%" horiz-adv-x="746" 
d="M248 607q-14 -7 -30 -20l-22 -18q-5 12 -18.5 25.5t-27.5 18.5q10 5 19 10q15 9 31 22q8 -2 25 -21.5t23 -16.5zM288 771q40 -29 57 -66q14 -31 14 -71v-16q-2 -12 -2 -17q0 -47 -45 -98q-55 -62 -134 -62q-73 0 -113 63q-31 49 -31 105q0 45 22.5 87t71.5 69
q16 13 39 19t50 6q45 0 71 -19zM312 601q0 61 -26 92q-15 16 -21 22q-14 13 -29 21t-31.5 13t-36.5 5q-23 0 -37 -10q-28 -21 -38.5 -48t-10.5 -57q0 -17 2 -28.5t3 -21.5t13 -32t30 -42q13 -14 37.5 -24t47.5 -10q51 0 76 39q9 14 15 35.5t6 45.5zM599 206
q-13 -7 -29.5 -21.5t-21.5 -17.5q-13 32 -45 46q9 4 18 9q17 10 31 22q7 -2 24 -21.5t23 -16.5zM641 369q40 -30 57 -66q14 -30 14 -72v-19q-2 -9 -2 -12q-5 -50 -47 -98q-54 -62 -133 -62q-73 0 -113 63q-31 48 -31 104q0 46 22.5 87.5t71.5 69.5q36 25 90 25q45 0 71 -20z
M665 200q0 29 -6.5 52.5t-20.5 38.5q-8 9 -22 23t-25 20q-18 9 -34.5 14t-36.5 5q-21 0 -37 -11q-28 -20 -38.5 -47t-10.5 -57q0 -17 2 -28.5t2 -15.5q8 -42 44 -81q30 -33 86 -33q23 0 43 9.5t33 29.5q8 12 14.5 36t6.5 45zM434 568q-10 0 -10 9q0 6 5 8q42 16 84 67
q18 22 32 23l10 -20q0 -60 -82 -157q-78 -84 -155 -167q-87 -95 -94 -146q-3 -25 -9 -25t-6 32q0 16 62 101q57 78 115 157q63 89 63 111q0 12 -15 7z" />
    <glyph glyph-name="ampersand" unicode="&#x26;" horiz-adv-x="603" 
d="M231 -2l49 18q45 32 46 33q16 12 33 30l24 1l13 -25l29 -19h60q23 11 34 19t54 44l2 19l-34 -12q-11 2 -14 3t-22 12l-85 93l-56 37l-56 -3q-34 -23 -67 -45l-26 -34l3 -11h20l18 13l38 -3l56 -64l-14 -11q-15 -6 -28.5 -10t-47.5 -4q-38 5 -49 8t-36 13l-25 23
q-7 20 -10 25.5t-11 15.5l-3 42q8 8 11 15.5t7 23.5l51 60l54 39l4 22l-72 32q-12 14 -17 23t-20 44q4 22 5.5 31t8.5 19q20 14 27.5 17.5t32.5 11.5h52q7 -4 28 -24.5t28 -26.5q7 5 13 23q1 2 17 57l19 18q4 11 4 20l-109 -11l-80 -27l-92 -74l-38 -49q0 -27 -5 -60
q8 -16 11 -29l30 -28q13 -7 24.5 -12.5t27.5 -10.5q-4 -12 -4 -15l-31 -22q-32 -29 -43.5 -41t-23.5 -29l-8 -34q-7 -5 -8.5 -19.5t-1.5 -36.5q14 -44 17.5 -53t13.5 -26l14 -4q5 -10 7.5 -14t20.5 -18l32 -4z" />
    <glyph glyph-name="quotesingle" unicode="'" horiz-adv-x="181" 
d="M70 404q28 26 49 48q37 39 40 41l14 52v80l-12 35l-41 5q-10 -6 -13.5 -7.5t-11.5 -3.5l-27 -35l-57 -18l-2 -13q7 -4 20 -10q5 -2 10 -5l31 -42v-56l-47 -71l-7 -24q18 3 26 7q15 10 28 17z" />
    <glyph glyph-name="parenleft" unicode="(" horiz-adv-x="484" 
d="M446 -39q-77 9 -146 89q-85 99 -85 243q0 105 51 200l120 154q1 4 1.5 7t0.5 4q0 9 -10 9q-7 -1 -13 -1q-53 -47 -106 -93q-71 -62 -106 -123q-49 -85 -49 -190q0 -118 47 -209q33 -64 145 -165q29 21 68 40.5t82 34.5z" />
    <glyph glyph-name="parenright" unicode=")" horiz-adv-x="470" 
d="M45 600q80 -8 149 -88q85 -97 85 -242q0 -106 -51 -201q-60 -76 -120 -153q-1 -4 -1.5 -7.5t-0.5 -4.5q0 -8 9 -8h14q52 46 105 92q70 62 105 124q48 84 48 191q0 108 -37 191q-28 64 -80 118q-1 1 -72 65q-30 -23 -70 -43q-34 -17 -83 -34z" />
    <glyph glyph-name="asterisk" unicode="*" horiz-adv-x="695" 
d="M557 359q-12 -8 -35 -25q-51 -38 -60 -44l-24 74q26 0 68 -2.5t51 -2.5zM395 365q8 -25 16.5 -51.5t13.5 -49.5l-81 -56l-96 65q13 44 32 91zM236 364l-24 -66l-81 61q50 4 71 4.5t34 0.5zM296 407q6 17 16 40q28 65 29 69l39 -110zM381 184l57 40l26 -89zM304 184
q-32 -20 -51 -31.5t-50 -27.5l30 107zM424 407q-20 64 -41 133t-35 126l-98 -258q-40 0 -126 1t-131 1q52 -37 104 -74.5t99 -80.5q-21 -67 -37.5 -117t-46.5 -129l232 150q56 -39 113 -78q64 -45 106 -78q-14 55 -39 123q-4 12 -47 122q12 15 71 55q81 53 163 107
q-71 0 -143 -1z" />
    <glyph glyph-name="plus" unicode="+" horiz-adv-x="825" 
d="M341 0h142q-14 54 -23 148.5t-9 188.5q214 0 337 -33v142q-59 -16 -147 -25t-191 -9q0 97 9 188.5t24 149.5h-142q15 -56 24 -150t9 -187q-107 0 -191.5 8.5t-144.5 24.5v-142q50 14 147 25q34 4 189 18q0 -109 -8.5 -197t-24.5 -150z" />
    <glyph glyph-name="comma" unicode="," horiz-adv-x="166" 
d="M75 -99l4 15q11 8 18 16q16 20 29 36l15 42v60l-9 32l-26 4l-23 -7l-22 -30l-53 -17q2 -3 11.5 -8.5t21.5 -14.5l17 -30v-42l-8 -22l-11 -7l-7 -23l-15 -16q-2 -4 -2 -11q9 1 28.5 9.5t31.5 13.5z" />
    <glyph glyph-name="hyphen" unicode="-" horiz-adv-x="601" 
d="M63 165q-3 -2 -6 -3t-8 -1q-4 0 -5 3t5 12q34 19 64 58q57 72 71 72q6 1 11 1q30 0 80 -7q128 -18 157 -18q34 0 48 6q36 15 69 46q6 3 13 6q3 -6 3 -19q0 -16 -4.5 -30t-16.5 -23q-29 -23 -43 -48q-22 -39 -36.5 -42.5t-40.5 -3.5q-39 0 -129 14t-124 14t-51 -10
q-21 -14 -48 -23q-4 -1 -9 -4z" />
    <glyph glyph-name="period" unicode="." horiz-adv-x="174" 
d="M100 -19q22 42 29.5 53t36.5 46q-6 10 -16 15q-19 9 -36 16l-39 32h-17q-10 -13 -12 -17t-6 -22q-6 -6 -12.5 -13.5t-14.5 -20.5l-5 -22l7 -17q21 -21 29.5 -27.5t36.5 -22.5h19z" />
    <glyph glyph-name="slash" unicode="/" horiz-adv-x="440" 
d="M281 492q-12 0 -12 11q0 7 5 9q47 19 98 83q20 25 37 25l10 -22q0 -74 -94 -190q-90 -101 -180 -201q-100 -114 -107 -176q-5 -31 -11 -31q-7 0 -7 40q0 19 72 122q67 94 134 189q72 106 72 133q0 12 -17 8z" />
    <glyph glyph-name="zero" unicode="0" horiz-adv-x="548" 
d="M285 4q32 13 48.5 21.5t34.5 18.5q18 15 29.5 28t68.5 79l38 85l19 95v117q-5 24 -7 35l-12 60q-7 5 -15 18t-39 69l-56 41q-11 4 -22.5 8t-38.5 11h-62l-70 -24l-73 -63q-24 -31 -33 -43q-13 -16 -24 -24q-9 -25 -14.5 -39t-12.5 -26q-8 -31 -11.5 -50.5t-7.5 -47.5
l4 -155l32 -90l29 -47q13 -15 27 -30q11 -12 28 -27q23 -12 46 -20h94zM205 113q-11 14 -13 17q-6 7 -18 11l-50 92l-24 106l4 132l29 75l36 49l60 20h39l50 -21l42 -30l45 -55l33 -80q5 -28 11 -56q4 -29 4 -90l-19 -84l-29 -71l-42 -37q-19 -5 -30.5 -6t-56.5 -1
q-27 7 -37 11.5t-34 17.5z" />
    <glyph glyph-name="one" unicode="1" horiz-adv-x="195" 
d="M181 -5l5 8l-36 32q-8 47 -9.5 52.5t-4.5 7.5q0 163 -3 227t-5 107q0 95 -1 127t-2 60q-12 3 -17 3q-3 0 -14 -6l-29 -63l-14 -7l-8 -29l-34 -38l2 -25q6 2 16.5 2t17.5 1q6 -24 6 -44q0 -120 -2 -181q-6 -182 -6 -200l-24 -23l2 -16q36 0 79 2.5t81 2.5z" />
    <glyph glyph-name="two" unicode="2" horiz-adv-x="441" 
d="M136 4q24 -4 68.5 -10t66.5 -9h60h15q21 0 28 1t15 4q4 28 15.5 70t16.5 50l-23 3q-8 -8 -18.5 -15t-31.5 -18h-99l-66 15l3 19q74 77 81 85q27 29 36 47q5 6 26 33q17 22 24 27l38 67q2 17 3 63t1 58q-3 16 -8 25t-36 59l-60 37q-28 4 -55 8q-7 2 -11 7q-11 0 -14 -1
t-11 -9q-15 -4 -31 -6.5t-25 -3.5l-45 -26l-43 -41q-6 -20 -7.5 -23.5t-9.5 -10.5l-5 -85l11 -9l49 -2l1 31l-19 32v38q10 9 27.5 19.5t22.5 15.5l42 -4l57 -27l43 -47q4 -12 6 -24t4 -23v-20q0 -35 -1 -42.5t-9 -45.5l-37 -76l-76 -99q-68 -65 -72 -69q-24 -24 -63 -71
q0 -17 1 -19.5t7 -6.5q7 0 30 7q45 14 78 22z" />
    <glyph glyph-name="three" unicode="3" horiz-adv-x="493" 
d="M268 -25q5 2 24.5 9.5t31.5 10.5l54 34l51 52l37 95l4 84l-11 40q-16 23 -26 34t-30 32l-57 38l-48 16l3 28q19 33 39 66l66 79l3 23l-71 -21h-21q-35 0 -42.5 1t-44.5 9l-52 -4l-47 -42q-50 -27 -61.5 -34t-25.5 -21v-14q10 -4 21 -7l24 20l46 18q39 0 85 -9.5t61 -11.5
l-2 -20q-31 -45 -51 -70.5t-39 -50.5l-6 -28l100 -15l60 -42l30 -38l8 -95q-6 -24 -10 -32t-25 -41q-3 -4 -18 -19q-9 -9 -32 -31l-52 -14l-66 10l-33 15l-55 52l-5 33l-25 -4l-6 -47l-31 -47l98 -41h147z" />
    <glyph glyph-name="four" unicode="4" horiz-adv-x="569" 
d="M435 -27l-19 31l-13 2l-18 52l-2 66l20 6l17 25q35 19 63 32q48 22 55 28l5 25q-11 3 -15 3q-9 -2 -19 -4q-14 -14 -20 -18t-36 -20h-17h-11h-19q-16 4 -27 7q-7 72 -8.5 125.5t-1.5 272.5l-29 -3l-39 -80q-5 -4 -14 -18q-25 -37 -34 -47q-40 -73 -64 -112.5t-49 -80.5
q-35 -51 -61.5 -84.5t-52.5 -65.5l33 -2l75 17h67.5t88.5 -7l1 -79q-4 -10 -6 -19.5t-4 -18.5l-18 -20l2 -15q27 0 82 1t88 1zM174 269q23 29 37 55q11 20 33 64l15 7l21 49q5 -3 10 -5t14 -5q-2 -3 -3 -13t-6 -16l6 -179l-143 -3z" />
    <glyph glyph-name="five" unicode="5" horiz-adv-x="470" 
d="M296 -5l53 33q9 13 19 26q25 33 33 46l29 94v95l-24 60l-40 50q-25 15 -33.5 19t-46.5 18h-62.5t-39.5 -3l-56 -42l-8 24l3 89l18 12q45 0 97.5 -2.5t71.5 -2.5q10 4 14.5 8t18.5 20l106 64l-1 31l-20 -4l-19 -20l-28 -9q-3 -4 -12.5 -5t-53.5 -1q-67 13 -121 20l-51 -16
q-4 -5 -9.5 -15.5t-9.5 -18.5l-14 -9l-19 -33l-13 -9q0 -14 7 -24l4 -170q19 2 37 7t39 11q45 -6 50.5 -7.5l38.5 -10.5q7 -8 12 -12t17 -8q17 -18 25.5 -30t26.5 -44q3 -14 6.5 -28t3.5 -29v-14q0 -27 -1 -32.5t-9 -37.5q-2 -1 -30 -35q-12 -14 -22 -22q-23 -8 -35.5 -9
t-26.5 -1q-22 5 -39 11q-39 15 -41 15v14l-17 5l-33 47l-20 56h-15l-2 -52l-29 -56l-4 -29q39 -16 45 -18.5t9 -7.5q19 -7 34 -11.5t42 -10.5q70 0 86.5 2t58.5 12z" />
    <glyph glyph-name="six" unicode="6" horiz-adv-x="491" 
d="M279 -10l81 35q38 35 49 47t42 52l18 56v85q-4 13 -13 26q-16 21 -31 40l-61 42l-51 17h-53q-12 -4 -27.5 -8t-23.5 -6q-41 -27 -57.5 -40t-37.5 -33l-6 46l8 117l22 77q7 8 13.5 15.5t14.5 19.5l57 17l56 -4q7 -3 16 -7t18 -6l43 -35l40 -72l7 65l20 29l-3 19
q-21 10 -56 23q-23 9 -33 13h-71q-23 -6 -41 -11t-61 -21l-37 -28l-37 -46l-38 -85l-18 -66q-5 -53 -5 -94l10 -93l26 -57q56 -78 65 -91q21 -13 31.5 -18.5t48.5 -19.5h75zM194 70l-63 86l-18 67v37q1 2 35 50q13 19 22 25q11 1 24 8q42 -4 55.5 -4.5t29.5 -0.5l47 -33
l33 -37q8 -23 15 -42.5t21 -49.5l4 -62l-29 -61l-39 -15h-71z" />
    <glyph glyph-name="seven" unicode="7" horiz-adv-x="448" 
d="M160 -5h70l1 16l-32 42v75q7 42 15 76q16 66 17 75q28 67 55 127q39 87 57 125q22 30 49 63t36 47l-33 3q-40 -11 -54.5 -13t-67.5 -7q-20 3 -36.5 5t-80.5 9l-98 -3q-2 -8 -3 -15.5t-1 -13.5q-4 -2 -8.5 -12.5t-25.5 -65.5l4 -22q2 1 8 2.5t11 2.5l8 14q27 10 33.5 13
t9.5 7q16 2 21 2q7 0 44 -1t57 -1q2 -4 16.5 -7t63.5 -10l-2 -19l-95 -184q-4 -4 -24.5 -53t-26.5 -59q-15 -73 -23 -132q-3 -1 -15.5 -36t-15.5 -39l10 -16l14 -5q9 3 19.5 5.5t22.5 4.5z" />
    <glyph glyph-name="eight" unicode="8" horiz-adv-x="480" 
d="M245 -25q5 3 13 5.5t15 4.5q60 33 69 38.5t47 34.5q13 25 18 32t23 24l29 85l-6 56q-6 12 -8 17q-6 12 -7 17l-47 45l-38 15l-4 19q9 1 14 4q13 8 27 16l45 50l10 52q-6 21 -6 43l-25 56l-23 26l-56 29h-122l-48 -20l-106 -96l-19 -62l5 -46l26 -50q12 -11 43 -30
q26 -16 27 -19l-17 -21l-39 -19l-45 -48l-19 -67q0 -43 3 -56q6 -15 12 -29q20 -26 34 -39.5t34 -30.5l27 -11q9 -9 21 -13q2 -1 42 -12h51zM170 74l-69 82v80q13 30 19.5 40.5t18.5 26.5q6 2 10 4q8 5 11 7l90 -14l56 -22l62 -49q2 -17 6 -32t9 -31q0 -37 -3 -54
q-6 -23 -11 -44q-7 -12 -9.5 -14.5t-20.5 -15.5q-30 -8 -42.5 -9t-23.5 -1zM189 399l-50 49l-14 52l4 65l10 19l21 7q83 0 101 -1.5t22 -8.5l28 -8l38 -40l12 -42q3 -13 3 -40l-18 -50q-11 -14 -17 -19t-18 -12l-25 -4q-3 2 -54 16q-22 6 -43 17z" />
    <glyph glyph-name="nine" unicode="9" horiz-adv-x="508" 
d="M304 -10q11 7 33.5 18.5t33.5 16.5q22 24 35 41q17 21 32 44l36 98q4 13 6 26l4 26v36q0 61 -1 73.5t-9 74.5q-9 14 -19 42q-15 42 -20 52l-15 5q-6 14 -13 22l-23 23q-24 12 -38 17.5t-56 18.5h-71l-80 -33q-47 -35 -58 -45t-25 -28l-33 -103q0 -37 1 -45.5t9 -38.5
l55 -77l51 -29l37 -10h82q27 5 32.5 7t40.5 17l39 39l18 5q2 -11 2 -23v-24q-14 -70 -19.5 -94.5t-17.5 -70.5l-35 -38q-17 -8 -23.5 -9.5t-29.5 -5.5l-56 12l-31 19q-12 16 -15.5 20l-31.5 36l-21 46l-16 -3l-9 -67l-20 -46q2 -8 4 -15q33 -17 49.5 -24t62.5 -21h16
q27 0 41 2q33 7 66 13zM219 285l-70 70q-14 26 -18 36.5t-17 52.5q0 44 2 54.5t12 37.5q8 9 13 12.5t22 10.5q11 1 27 2.5t26 1.5q6 0 15.5 -1.5t16.5 -2.5q8 -3 18 -9q5 -3 19 -11l56 -49q20 -38 25 -51t15 -48v-37l-21 -19l-21 -39q-24 -13 -31 -16t-33 -9z" />
    <glyph glyph-name="colon" unicode=":" horiz-adv-x="201" 
d="M113 16q17 17 28 25.5t52 33.5l-24 8q-13 20 -16 24t-32 37q-5 -2 -18 -5q-3 -3 -27 -19q-13 -8 -25 -19q-25 -6 -30 -8t-12 -8l37 -5q27 -36 33.5 -46t8.5 -20zM103 224q53 32 65.5 41t17.5 18l-21 8l-44 59l-23 -4q-10 -9 -23 -17t-66 -38l37 -3l28 -43l14 -6l6 -15h9z
" />
    <glyph glyph-name="semicolon" unicode=";" horiz-adv-x="208" 
d="M94 -99q2 14 5 19q11 8 22 21q2 3 37 44l18 53v75q-2 6 -5.5 19t-5.5 21l-32 5l-29 -9q-8 -10 -15 -19t-13 -19l-66 -21q2 -3 14.5 -10.5t26.5 -18.5l22 -37v-53l-10 -27l-14 -9l-9 -29l-19 -20q-2 -5 -2 -14q11 2 21 6q27 12 54 23zM104 280l95 64l-34 10q-6 7 -19 26
q-8 12 -18 26q-14 4 -15 4q-9 -2 -19 -4q-18 -17 -31 -26q-26 -17 -48 -32l29 -8l46 -60h14z" />
    <glyph glyph-name="less" unicode="&#x3c;" horiz-adv-x="395" 
d="M308 683q6 3 10 3q16 0 24 -42q-51 -117 -89 -163q-20 -24 -126 -113q66 -64 118 -138q58 -81 86 -156q-20 -57 -39 -113q-27 93 -65 160q-33 57 -85 113q-31 33 -111 106q152 110 192 176q9 15 85 167z" />
    <glyph glyph-name="equal" unicode="=" horiz-adv-x="601" 
d="M53 130q-3 -2 -6 -3t-8 -1q-4 0 -5 3t5 12q34 19 64 58q57 72 71 72q6 1 11 1q30 0 80 -7q128 -18 157 -18q34 0 48 6q36 15 69 46q6 3 13 6q3 -6 3 -19q0 -16 -4.5 -30t-16.5 -23q-29 -23 -43 -48q-22 -39 -36.5 -42.5t-40.5 -3.5q-39 0 -129 14t-124 14t-51 -10
q-21 -14 -48 -23q-4 -1 -9 -4zM53 130q-3 -2 -6 -3t-8 -1q-4 0 -5 3t5 12q34 19 64 58q57 72 71 72q6 1 11 1q30 0 80 -7q128 -18 157 -18q34 0 48 6q36 15 69 46q6 3 13 6q3 -6 3 -19q0 -16 -4.5 -30t-16.5 -23q-29 -23 -43 -48q-22 -39 -36.5 -42.5t-40.5 -3.5
q-39 0 -129 14t-124 14t-51 -10q-21 -14 -48 -23q-4 -1 -9 -4zM53 355q-3 -2 -6 -3t-8 -1q-4 0 -5 3t5 12q34 19 64 58q57 72 71 72q6 1 11 1q30 0 80 -7q128 -18 157 -18q34 0 48 6q36 15 69 46q6 3 13 6q3 -6 3 -19q0 -16 -4.5 -30t-16.5 -23q-29 -23 -43 -48
q-22 -39 -36.5 -42.5t-40.5 -3.5q-39 0 -129 14t-124 14t-51 -10q-21 -14 -48 -23q-4 -1 -9 -4z" />
    <glyph glyph-name="greater" unicode="&#x3e;" horiz-adv-x="395" 
d="M89 15q-6 -3 -10 -3q-17 0 -25 41q50 116 89 163q22 27 126 114q-65 63 -118 138q-58 81 -86 155q6 20 25 70q9 24 15 43q28 -96 64 -160q33 -59 84 -113q23 -25 112 -105q-151 -110 -192 -178q-11 -18 -84 -165z" />
    <glyph glyph-name="question" unicode="?" horiz-adv-x="451" 
d="M82 594q31 26 61.5 38.5t57.5 12.5q29 0 52 -11t45 -33.5t36.5 -57.5t14.5 -68q0 -24 -9 -43t-92 -127q-58 -75 -58 -148q8 -12 12 -17q13 -16 16 -19q7 -2 11 -2q11 0 21.5 4t27.5 17q2 6 5 12q3 15 3 26q0 10 -3 12q-19 14 -19 56q0 17 6 29q27 58 54 88q38 42 77 84
q30 50 30 102q0 47 -26 77q-30 34 -66.5 48.5t-78.5 14.5q-37 0 -74.5 -11.5t-65.5 -29.5q-50 -31 -77 -80q-23 -41 -23 -81q0 -22 7.5 -35.5t19.5 -13.5q17 0 37 27q7 10 7 22q0 13 -12.5 39t-12.5 38q0 9 3.5 15.5t12.5 14.5zM239 -37q14 12 39 26q34 19 36 21l-23 7
l-36 39l-1 11l-15 -2l-33 -26l-39 -17l19 -6l42 -53h11z" />
    <glyph glyph-name="at" unicode="@" horiz-adv-x="608" 
d="M346 397q-7 3 -16 3q-14 0 -14 -17q0 -16 -41 -55t-41 -46q0 -9 0.5 -20t12.5 -7q15 27 38 27q11 0 17 -5q15 -12 15 -37q0 -37 -36 -100q-41 -64 -49 -78q-1 -2 -0.5 -6.5t2.5 -9.5q29 -18 55 -18q31 0 54 24q17 17 25 42q2 -2 23 -38q17 -30 25 -31q6 0 11 1t5 6
q0 21 35 60q25 25 34 35q17 17 37 52t29 62q7 29 7 59q0 83 -53 136t-140 64q-48 0 -119 -30q-59 -25 -89 -48q-54 -44 -93 -102q-53 -79 -53 -150v-13q2 -9 2 -13q28 -112 78 -158q42 -39 123 -46q8 0 26 -1t27 -1q33 0 47 5t30 18q-29 -7 -60 -7q-104 0 -164 88
q-53 78 -53 187q0 100 69.5 162.5t167.5 62.5q32 0 61.5 -6.5t59.5 -20.5q45 -32 69 -73.5t24 -90.5q0 -34 -14 -73l-20 -36q-14 -21 -29 -21q-4 0 -10 2q-35 18 -72 125q-22 68 -43 137zM354 133q-23 -17 -36 -17t-21 17q9 18 13 27q15 31 18 37z" />
    <glyph glyph-name="A" unicode="A" horiz-adv-x="743" 
d="M134 -171q14 0 34 1.5t45 2.5q-6 10 -8 12t-14 10v38q15 37 25 61t25 47q7 0 17 1t20 1h11q16 -8 30 -18q20 -14 40 -29h42q77 24 97.5 31t41.5 18l-2 18h-43q-26 11 -45.5 22t-25.5 14h-50q-31 -12 -54 -18.5t-69 -16.5q1 6 16 39q24 53 42 97q7 11 37 78q17 36 48 100
l16 6q2 -11 10 -28q26 -53 33 -67q3 -1 27 -57.5t29 -58.5q19 -53 36 -93q25 -58 41 -101q5 -21 11 -45.5t8 -43.5l-16 -5v-22l56 6l180 -4l4 8q-11 8 -23.5 14t-32.5 14l-50 50q-29 46 -42 69t-66 124q-41 95 -66 160q-28 71 -83 221q-1 1 -12 31q-4 10 -15 34q-6 3 -15 3
q-1 -2 -21 -66q-13 -43 -42 -129q-25 -47 -55 -98q-15 -26 -20 -39q-4 -4 -18 -30q-8 -15 -10 -17q-6 -17 -15 -34t-13 -27q-23 -41 -56 -96q-19 -32 -29 -54q-14 -24 -32 -51t-24 -39l-45 -47l-4 -23q6 -2 18 -2q47 13 56.5 16.5t19.5 11.5z" />
    <glyph glyph-name="B" unicode="B" horiz-adv-x="638" 
d="M164 -206l71 -5l24 -10h117q1 2 38 17q20 8 46 22l130 123l19 29v41l-25 72q-19 20 -22.5 25.5t-6.5 16.5l-99 33v18q6 7 22 19q24 60 26.5 65.5t9.5 9.5l5 51l-6 63q-33 29 -43.5 37t-26.5 17q-39 8 -62.5 9t-51.5 1q-13 -7 -26.5 -13.5t-24.5 -10.5q-4 -5 -21 -14.5
t-22 -13.5q0 16 1 32q5 80 5 195l-6 16l-29 -4q-38 -32 -58 -46.5t-118 -79.5l-1 -18l71 3q17 -12 23.5 -18t15.5 -17q5 -30 7 -58.5t2 -152.5q0 -97 -6 -170q-13 -158 -13 -232l-14 -31l-14 -10l-7 -29q20 2 32 6q35 11 38 12zM230 360q15 3 20 6q10 9 19 15q15 0 29 -0.5
t55 -4.5l57 -35l19 -71q-13 -39 -18 -51.5t-18 -33.5l-29 -27q-21 -12 -27 -16t-12 -11q-51 -14 -76.5 -23t-28.5 -9q4 30 7 99t3 162zM249 -119q-8 5 -12 9l-9 9l-10 24q0 33 -0.5 65.5t-1.5 65.5q13 3 32 12q56 26 63 29q35 0 70 -6l62 -18l31 -28l31 -59v-75
q-5 -5 -16.5 -22.5t-22.5 -26.5q-28 -10 -40 -12.5t-55 -2.5z" />
    <glyph glyph-name="C" unicode="C" horiz-adv-x="607" 
d="M509 -204l120 78q4 11 4 15q0 2 -6.5 1.5t-15.5 -0.5q-54 -30 -117 -47q-89 0 -125.5 7t-107.5 41q-14 8 -50 52q-40 49 -53.5 81t-21 71.5t-7.5 82.5t39.5 108t67.5 74q53 14 91 19t93 5q23 0 52 -22t29 -43q0 -9 -2.5 -31.5t-2.5 -24.5q0 -13 13 -13q15 0 15 13t2 31.5
t5.5 47t22.5 60t39 63.5h-11q-16 -7 -17 -7h-45.5t-43.5 1q-64 0 -107 -7t-96 -31.5t-86 -50.5q-35 -32 -52 -46q-38 -32 -71 -93t-33 -110q0 -83 7.5 -128.5t20.5 -72.5q17 -34 63 -79q42 -41 58 -45q53 -17 93.5 -26t72.5 -9q58 0 163 35z" />
    <glyph glyph-name="D" unicode="D" horiz-adv-x="745" 
d="M255 -90q-6 22 -11 46t-5 80q0 120 4.5 179t9.5 118l8 37l30 31l34 14h58l56 -21q48 -39 55 -45.5t47 -48.5q10 -19 20.5 -37.5t23.5 -38.5l24 -79v-90q-4 -17 -7.5 -30t-11.5 -35q-10 -18 -25.5 -43t-30.5 -47q-41 -23 -53.5 -29.5t-27.5 -10.5h-77q-59 22 -81 30
q-29 11 -40 20zM161 -215l33 15h75q8 -4 15 -6l14 -4h88l57 14q2 2 65 39q40 23 101 62q16 17 32 39t34 46l36 106l-1 124l-16 80l-39 60q-20 17 -35 33q-6 7 -36 41q-55 26 -109 52l-131 7l-103 -32q-23 -12 -39.5 -24t-68.5 -56q-30 -12 -42 -17q-22 -9 -28 -15l-29 -3
q2 -17 5 -25q41 -4 63 -5.5t34 -1.5l18 -48l14 -98v-300q-3 -3 -5 -7.5t-9 -25.5l-34 -29l3 -21h38z" />
    <glyph glyph-name="E" unicode="E" horiz-adv-x="597" 
d="M435 -249q26 5 66 25q31 17 60.5 31.5t49.5 28.5q2 1 42 35l-7 8l-27 -5q-27 -17 -28 -18q-22 -13 -52 -13q-3 -3 -8 -4q-31 -11 -125 -11q-29 0 -51 10q-28 14 -55 27q-29 11 -63.5 44t-47.5 61.5t-21.5 51.5t-18.5 57l201 2q64 0 101 -10t40 -11q6 -10 10 -14
q13 -15 19 -15q3 0 10 17q2 5 6 17q2 12 9 28q23 53 26 61q-8 -2 -56 -20q-39 -15 -84 -15q-41 0 -134 -4t-139 -4q-10 9 -14 13q-8 8 -8 11q0 37 20 86q7 18 39 80q5 10 20.5 25.5t22.5 17.5q26 9 51.5 18t53.5 9l98 -3q9 0 27 -12q9 -6 26 -20q4 -2 11.5 -12.5t7.5 -14.5
q0 -11 -1 -36t-1 -30l25 13q0 10 1.5 21.5t3.5 26.5q0 16 10 45l14 40q2 9 18 25q25 24 27 27q-7 11 -14 11q-5 0 -12 -4.5t-8 -4.5q-8 0 -45.5 5t-66.5 5q-41 0 -85.5 -15t-83.5 -27t-106.5 -62.5t-88.5 -85.5q-38 -71 -42 -81q-14 -33 -14 -52v-60q0 -74 8 -107
q12 -50 51 -98q36 -45 56 -61.5t42 -24.5q36 -15 72.5 -23t76.5 -8z" />
    <glyph glyph-name="F" unicode="F" horiz-adv-x="612" 
d="M143 -706l15 2l5 16l41 767q116 0 144 -2q85 -6 112 -6l104 -38l6 50l24 35l6 27l-140 -31q-100 -10 -138 -10q-26 0 -41 2q-52 7 -73 7l-3 75l59 120q15 14 24.5 21.5t31.5 20.5l77 18l103 -4q17 -6 30.5 -13t29.5 -15l18 -46q-3 -8 -4.5 -14.5t-1.5 -25.5v-12l7 -4
l16 14q8 25 10 36t9 59l20 50l33 35l3 22q-4 1 -12 1q-7 0 -55.5 -1.5t-88.5 -1.5l-80 -9l-104 -38l-56 -37q-20 -21 -27 -28q-19 -18 -33 -22v69.5t1 75.5q-14 4 -21 4q-23 -18 -46 -46q-15 -19 -48 -34q-24 -14 -29 -17q-11 -7 -53 -27q-5 -6 -9 -12l9 -12q27 0 37 -1.5
t35 -10.5l16 -28q2 -14 20 -182.5t18 -182.5v-117v-81v-59v-44v-36v-30v-25v-23v-20v-18v-17v-15v-14v-13v-12q0 -19 -0.5 -38.5t-0.5 -40.5v-13z" />
    <glyph glyph-name="G" unicode="G" horiz-adv-x="682" 
d="M511 -488q6 8 19 29.5t15 27.5q19 55 32.5 85.5t27.5 60.5q5 13 12 36t7 34l10 10l24 150l3 118q0 9 -7 20q-10 15 -41 48h-15q-12 -7 -23 -15q-29 -24 -36 -30q-23 -20 -45 -39q-28 -26 -40 -44l4 -25q13 -2 21 -2q5 0 10.5 3.5t14.5 21t12.5 19t5.5 1.5q10 3 12 2
q5 -2 11 -9q2 -2 6 -8q0 -8 8.5 -29t8.5 -27q0 -29 -1.5 -41.5t-5.5 -22.5q-24 -7 -54.5 -17t-38.5 -10h-48q-73 11 -103 22q-7 3 -33 18q-9 4 -15 7q-34 20 -69 62q-11 13 -14 17q-18 24 -27.5 59.5t-15.5 69t-6 65.5q0 54 17.5 99.5t59.5 86.5q13 14 40 25q16 7 44 14
q29 10 54.5 16t46.5 6q26 0 43 -7.5t32 -27.5q16 -14 26 -23q20 -19 20 -28q3 -17 3.5 -43.5t0.5 -50.5l24 3q2 3 3 7q8 28 8 93q0 15 9 38q4 9 18 38q4 6 16 16q30 23 33.5 30.5t4 11t0.5 7.5q-15 0 -55 1t-63 1q-57 0 -97.5 -3.5t-73 -15t-76.5 -32.5q-25 -12 -75 -40
q-30 -17 -72 -60q-46 -47 -57 -73t-24 -61q-16 -45 -16 -59q0 -66 2 -103t12 -67q13 -32 31 -61l20 -28q18 -19 44 -41q36 -30 47.5 -32t48.5 -15t52 -13q21 0 44 -1l46 -2q24 0 42 3q57 11 93 28l52 30q5 0 5 -15q0 -5 -0.5 -9.5t-1.5 -8.5q0 -60 -9 -101q-12 -45 -24 -91
l-10 -10l-14 -56q-1 -4 -14.5 -17.5t-13.5 -20.5l2 -16q7 0 12.5 1.5t13.5 9.5z" />
    <glyph glyph-name="H" unicode="H" horiz-adv-x="705" 
d="M525 -364q1 5 3 11t1 11q-7 4 -13 7q-13 6 -13 16v48q4 42 51 107q69 95 71 99q17 14 25 31q15 32 21 77q3 27 5 50t2 43q0 38 -6.5 74t-23.5 68q-20 38 -42.5 65t-47.5 41q-21 9 -65.5 21.5t-66.5 12.5q-43 0 -84 -24q-33 -21 -66 -41q-6 -4 -21 -27q-10 -15 -17 -30
q0 76 1 105q5 144 5 219q0 2 -2 7t-4 11q-9 0 -24 -4q-5 -1 -14 -4q-10 -1 -29 -21q-11 -12 -22 -23q-22 -11 -61 -36q-35 -22 -55 -36q0 -4 -0.5 -8.5t0.5 -6.5q4 -11 17 -11q11 0 17 1q26 4 34 4q13 0 23 -7t11 -15q5 -22 9.5 -43.5t4.5 -36.5q0 -34 6 -142t6 -168
q0 -70 -5.5 -117t-20.5 -80l-17 -61q-3 -9 -16 -23.5t-11 -19.5q3 -6 12 -6t25.5 8t34.5 16q15 3 26 3q15 0 40 -5t32 -5v18q-1 1 -14 10.5t-13 16.5q0 8 -7 39t-7 46q0 43 3 130t3 128q0 42 15 71q31 41 66 57.5t78 16.5q17 0 26 -1t34 -4.5t64 -42.5q35 -36 45 -65
q13 -33 20 -56q12 -39 12 -65q0 -42 -2 -65q-6 -70 -6 -85q0 -25 -23 -62q-18 -27 -36 -55q-10 -21 -21 -45q-14 -33 -17.5 -44.5t-3.5 -25.5q0 -10 1 -24t3 -30q0 -11 8.5 -17t19.5 -6t16 5z" />
    <glyph glyph-name="I" unicode="I" horiz-adv-x="308" 
d="M285 -209q6 -2 11 -1t5 4t-6 8q-10 8 -14 11q-21 13 -32 33t-14 52q0 52 -2 97q-7 158 -7 166q0 50 5 117t11 147q0 18 -3 26l-24 -1q-37 -36 -96.5 -70.5t-104.5 -45.5v-14q2 -2 40.5 -5t61.5 -12q7 -3 14 -19q4 -8 8 -24q4 -33 7.5 -73.5t3.5 -67.5l2 -259
q0 -20 -19 -38q-25 -24 -27 -27t-2.5 -13t-1.5 -16q9 -2 49.5 17t74.5 19q16 0 28.5 -2t31.5 -9z" />
    <glyph glyph-name="J" unicode="J" horiz-adv-x="298" 
d="M258 278l2 102q0 15 -2 42t-2 39q0 2 -4 4t-8 2q-5 0 -8 -3q-10 -20 -100 -70q-44 -20 -87 -40q-2 -8 -2 -10q0 -11 15 -11q6 0 21 2t24 2q19 0 33 -8t19 -27.5t9 -53.5t7 -63q0 -3 5.5 -13.5t5.5 -15.5q0 -7 -8 -24q-1 -2 -4 -7q3 -14 5.5 -30t2.5 -28t5 -50
q0 -15 1 -30q2 -28 2 -41q3 -42 6 -42v-12q0 -32 -1.5 -57.5t-7 -60t-11.5 -87.5q-1 -13 -1 -27q-6 -7 -9 -12q-20 -32 -30 -64t-30 -48q-10 -8 -28 -15q-10 -3 -39 -17q-19 -9 -22 -5.5t-7 -0.5t-4 -12q0 -22 29 -22q34 0 63 20.5t52 58.5q30 53 40.5 80t21.5 83q2 9 4 23
q13 66 19 116q2 20 8 113l2 32l10 85v125q0 28 1 45.5t2 32.5z" />
    <glyph glyph-name="K" unicode="K" horiz-adv-x="655" 
d="M755 -215l-2 24q-14 -6 -22 -7t-40 -1l-60 27q-46 31 -137 149q-97 126 -104 179q62 55 109 100q40 40 81 80t86 79q3 6 5 12t-2 6t-70 -10q-40 -6 -62 -6h-31q-15 3 -22 4q-8 1 -47.5 -26.5t-63.5 -31.5q-10 -11 -10 -20q0 -6 5 -13q27 8 50 16.5t33 8.5q6 0 21.5 -3
t36.5 -8q-10 -48 -116 -145q-83 -77 -153 -123l-2 75q0 82 5 186q12 250 12 312q-4 0 -7 1q-17 -1 -20 -6q-15 -30 -86 -70q-62 -35 -98 -43q-8 -1 -8 -9q0 -11 10 -14q30 0 67.5 -8.5t44.5 -24.5q4 -10 5.5 -42.5t1.5 -101.5q0 -104 -2 -177.5t-4 -167.5q-10 -91 -18 -128
q-3 -13 -6 -27q-3 -1 -12 -14q-7 -14 -13 -28q15 5 29.5 8.5t26.5 3.5q10 1 17.5 1.5t11.5 0.5q22 0 36 -1.5t33 -4.5q8 0 10 2t-11 21t-17 44t-8 75.5t-4 80.5q6 11 22 28q20 20 33 20q14 0 20 -20q59 -104 122 -183q81 -101 158 -147q44 0 89 17.5t77 49.5z" />
    <glyph glyph-name="L" unicode="L" horiz-adv-x="345" 
d="M368 -221l80 39l50 36l18 27l-5 7q-9 0 -17.5 -3.5t-37.5 -20.5q-13 -4 -33.5 -9.5t-37.5 -9.5l-74 16q-4 6 -9.5 8t-60.5 20l-13 15q-5 14 -10 54t-5 62q0 9 1 10q0 129 5 240.5t12 228t7 151.5l-30 3l-137 -99l-42 -16l-4 -29l79 -1q4 -5 7 -6.5t17 -6.5l15 -89
l-4 -418q-2 -19 -5 -47t-9 -98q-10 -17 -15.5 -26t-15.5 -17l-4 -19q34 9 45 11q26 6 68 6q11 -4 30.5 -9.5t30.5 -9.5h104z" />
    <glyph glyph-name="M" unicode="M" horiz-adv-x="1041" 
d="M875 -335q-9 2 -16 6q-12 7 -16 8q-5 14 -5 19.5v8.5q0 39 35 82l96 146q18 34 28 75t14 89q1 7 1 20v21q0 54 -3.5 82.5t-10.5 45.5q-23 54 -42 78t-68 62q-29 5 -64 9t-60 4t-55 -3q-68 -31 -96 -69q-33 -55 -65 -109q-68 86 -117.5 122.5t-97.5 36.5q-35 0 -76 -17
q-31 -13 -91 -48q-64 -79 -91 -142t-27 -128q0 -56 22.5 -154t27.5 -121q8 -3 14 -3q24 5 48.5 8.5t52.5 3.5q11 -4 42.5 -9.5t47.5 -5.5q8 0 10 1q0 6 -3 11t-14 20q-26 9 -64 56q-27 35 -54 69q-31 66 -40.5 126.5t-9.5 151.5q2 1 26.5 45.5t33.5 55.5q27 13 48.5 20
t36.5 7q25 0 80 -16q31 -17 67 -64q40 -52 47.5 -101.5t10 -124.5t2.5 -166q0 -17 -10 -40t-12 -30l-5 -24q6 -1 10 -1h5q14 0 40 9q26 0 39 -1t33 -8q12 -2 15 -2q9 0 14 8q-15 9 -33 64q-21 62 -21 199q0 26 2.5 73.5t2.5 57.5q7 26 27 68.5t34 52.5q23 16 64 27t84 11
q21 0 70 -41q46 -38 49 -47q12 -36 25 -71q15 -46 15 -80v-46q0 -41 -2 -61q-5 -30 -8 -52q-6 -33 -17 -55q-17 -30 -31 -57q-3 -3 -22 -37t-25 -38q-5 -15 -8 -29.5t-3 -26.5q0 -19 7 -34q5 -17 7.5 -23t13.5 -11q21 0 28 7t7 29z" />
    <glyph glyph-name="N" unicode="N" horiz-adv-x="677" 
d="M622 -269q0 46 -1 65.5t-2 34.5q0 7 3 18q-3 27 -3 49q0 34 1 77t2 85l22 390q-13 4 -30 4q-21 -14 -26.5 -19.5t-15.5 -19.5q-29 -18 -67 -43q-25 -16 -32 -24q2 -7 5 -10l72 -10l12 -14l17 -85l1 -281q-9 8 -16 14t-19 14q-2 6 -36 46q-85 99 -91 109q-7 4 -58 78
q-58 83 -115 166q-15 28 -18 35t-18 45l-22 -1l-34 -21q-14 -14 -26 -23q-23 -17 -24 -19q-20 -10 -45 -22q-35 -17 -70 -31l-1 -20q50 -5 87 -5q8 -6 11.5 -11t18.5 -31l18 -116v-302q-17 -27 -23 -35t-24 -25l4 -15l38 3q8 5 19.5 10t22.5 9q24 -3 46.5 -5t46.5 -2l-4 18
l-21 14q-4 9 -7.5 22.5t-5.5 23t-9 88.5q-3 32 -12 87q0 50 1 68.5t8 100.5l22 -4l88 -98q49 -62 70 -91q15 -21 27 -42q5 -4 41.5 -54t41.5 -53q13 -22 37 -57q36 -53 61 -98q18 4 21 5.5t11 7.5z" />
    <glyph glyph-name="O" unicode="O" horiz-adv-x="758" 
d="M441 -215l108 49q40 28 47.5 34t42.5 37q27 36 41 58t40 70l18 73l-4 90q-5 22 -7 33l-12 56l-39 55q-28 32 -39.5 42.5t-45.5 37.5q-27 14 -38.5 18.5t-51.5 19.5h-126q-26 -3 -48.5 -11.5t-45.5 -17.5q-51 -28 -55 -30q-22 -13 -67 -43l-83 -85q-4 -13 -14 -30
q-15 -27 -23 -45l-10 -56v-117l15 -65q12 -19 28 -40.5t31 -42.5l52 -51q10 -6 21 -13t22 -12l92 -23h33q54 0 65.5 1t52.5 8zM318 -135q-26 13 -51 26q-9 4 -19 4q-3 9 -6 13.5t-16 15.5q-4 1 -7 1.5t-8 3.5q-34 64 -68 127l-15 60v75q8 16 9.5 22t8.5 41l55 89
q8 4 21.5 12.5t21.5 13.5l66 14q39 0 49.5 -1t56.5 -9l57 -18l57 -39q3 -4 22 -25q13 -15 26 -28l38 -62l19 -85v-66q-6 -25 -8.5 -36t-10.5 -34q-26 -49 -34 -63.5t-22 -30.5l-26 -18q-14 -3 -55 -13q-30 -7 -66 -7zM441 73l28 8q5 4 8 8t6 9l-38 21l-36 42h-15l-51 -37
l-39 -16q15 -7 21 -11.5t25 -22.5q5 -10 13.5 -20t16.5 -19q8 0 20 8q22 16 41 30z" />
    <glyph glyph-name="P" unicode="P" horiz-adv-x="735" 
d="M188 -713q0 91 10 169q16 125 19 160q11 131 11 313q12 34 21.5 164.5t9.5 265.5q9 6 15 9t27 13l52 9q26 0 56 -5q29 -9 54 -19q16 -6 26 -8q14 -12 33 -25q28 -18 36 -24q3 -14 8 -22q1 -1 19 -27q5 -14 13 -43.5t10 -35.5v-61q-8 -5 -15 -26q-12 -38 -22 -73
q-4 -3 -18 -22q-20 -26 -49 -59l-71 -29h-70l-48 20l-29 28q-12 4 -18 4q-5 0 -19 -3v-27l47 -30l53 -10h92l72 25l86 61q49 66 55 75t39 66l8 38l-2 145l-10 20q-8 16 -16 35q-18 15 -36.5 28t-67.5 42l-65 18q-68 0 -87 -1t-68 -7q-1 -1 -29.5 -11t-65.5 -26v53
q-5 -1 -14.5 -2t-16.5 -1q-45 -30 -58 -39q-21 -15 -55 -41q-38 -13 -46 -17t-26 -18l-4 -27l76 2l18 -8l11 -19q17 -85 18 -100q6 -66 6 -166l8 -591q0 -38 1.5 -89.5t1.5 -53.5z" />
    <glyph glyph-name="Q" unicode="Q" horiz-adv-x="805" 
d="M418 48l28 23l19 4l51 40l-31 18l-47 55l-10 -3q-1 -2 -9 -7q-17 -11 -34 -28q-27 -11 -42 -17t-18 -13l34 -5l50 -65zM193 -2q-42 87 -42 165q0 49 16.5 95.5t50.5 91.5q71 51 161 51q41 0 77 -10t70 -33q78 -55 113 -112t35 -125q0 -43 -14.5 -95t-41.5 -113l-39 -39
l-71 -29q-123 0 -180.5 28.5t-134.5 124.5zM869 -443q7 3 23.5 8t23.5 7q51 39 60.5 48t39.5 44q0 11 -1 14t-10 17l-27 -4q-3 -18 -4.5 -22t-5.5 -13q-7 -4 -21 -8q-27 -9 -64 -19h-43q-11 5 -47 13t-55 14q-2 3 -21 10t-22 10q-24 5 -64 18q-128 41 -185 59v20q17 2 39 10
q36 15 69 28q21 14 42.5 29.5t63.5 48.5q23 25 47 50q17 20 32 54q8 20 22 48q7 14 7 18q0 11 6 42t6 47q0 19 -3 40q-9 62 -9 63q0 10 -8.5 30t-14.5 35q-9 28 -39 62t-58.5 50.5t-64.5 29.5q-45 16 -75 16q-55 0 -95.5 -2.5t-69.5 -11.5q-164 -54 -231 -153
q-63 -93 -63 -263l12 -70q15 -31 31.5 -57t32.5 -52l39 -42q66 -34 137 -50l-5 -18l-57 -25l-78 -62l3 -23q17 6 20 8t19 18l32 9h108l95 -24q14 -5 139 -50q61 -22 114 -39q15 -8 23.5 -10.5t36.5 -2.5z" />
    <glyph glyph-name="R" unicode="R" horiz-adv-x="510" 
d="M206 359q2 2 7 9q1 2 7 11q17 11 29.5 14t40.5 6q53 -12 61 -15q34 -13 45 -40q6 -15 6 -54q0 -38 -6 -49q-18 -34 -37 -51q-28 -21 -50 -40q-56 -18 -114 -40zM741 -489q11 11 23.5 18t96.5 50l7 18l-60 -6q-150 61 -273 230q-105 144 -165 327l49 27l37 43q15 32 30 65
q13 34 13 71q0 19 -16 48q-11 17 -14.5 25t-43 23t-55.5 15q-30 0 -39.5 -1t-36.5 -8q-27 -14 -35 -19t-25 -19l-21 2q-2 9 -5 21.5t-3 14.5l-37 -5q-16 -12 -27.5 -20.5t-29.5 -26.5l-127 -64v-15q24 -4 47.5 -6t47.5 -4q6 -8 10.5 -20.5t19.5 -63.5q0 -33 9 -173
q5 -78 5 -173l-12 -56q-13 -23 -19 -30t-23 -23l10 -15h19q13 4 26 11t25 12h99l1 11q-10 7 -14.5 12.5t-14.5 21.5l-17 107l-8 127q16 6 21 9.5t22 16.5l33 -6l5 -24q29 -63 32.5 -69.5t10.5 -11.5q32 -67 74 -131q35 -54 88 -122q6 -7 100 -125l79 -78l53 -15z" />
    <glyph glyph-name="S" unicode="S" horiz-adv-x="536" 
d="M233 -583q65 14 82 19t56 19q7 10 21 18q25 14 48 26l10 -4l11 24q29 23 34 28t32 37q27 47 33.5 60t12.5 34q3 3 5.5 14t8.5 57l-4 150q-33 55 -72 112l-28 9l-6 18q-19 16 -50 33q-45 25 -49 28l-180 72l-52 43q-1 3 -18 36q-9 17 -20 44q2 18 3.5 25t9.5 21
q12 9 24 16q16 10 51 25h126l68 -31l15 -56l-5 -43l17 -2l15 21q6 28 11.5 59.5t8.5 49.5l49 74l-4 10q-14 -4 -78 -8t-162 -4l-122 -52l-88 -78l-27 -56l-4 -70l17 -42q24 -29 29 -33t40 -31q133 -63 158 -74t40 -15q46 -34 67.5 -52t60.5 -54l38 -71l19 -60v-113l-25 -64
l-67 -70l-93 -57l-62 -18l-93 4q-85 25 -103.5 31.5t-29.5 13.5q-17 26 -20 32t-12 34h-28l-2 -37q7 -11 12 -18q10 -12 14 -17q14 -7 40 -19q33 -16 77 -34q21 -5 40 -8q3 0 40 -6h60z" />
    <glyph glyph-name="T" unicode="T" horiz-adv-x="679" 
d="M411 -262q7 1 23 6t33 7q103 57 140 75l69 59q-4 20 -4 29l-32 -15q-4 -7 -10 -15t-23 -24q-31 -15 -55.5 -23.5t-47.5 -15.5h-112q-7 6 -49 17q-25 7 -49 16q-1 2 -29 23q-17 13 -45 37l-1 14h-14q-1 6 -15 27q-9 14 -20 33q-2 11 -12 61t-12 62l4 64l20 71l35 67
q14 3 22 9q15 13 27 23l3 19l168 -16h112l57 10l30 14t31 13q19 17 38 35q7 6 24 19q7 18 8 32l-24 -1l-29 -24l-50 -18l-127 -4q-188 26 -229 32.5t-61 13.5q-159 2 -181 2q-7 0 -27 -2q-36 -21 -49 -29.5t-53 -37.5l-21 -34v-19q11 -3 21 -6l37 37l29 9h89l159 -21l-3 -14
l-56 -47l-75 -99l-38 -104v-99l20 -88q32 -56 39.5 -67t42.5 -53q17 -8 19.5 -9.5t13.5 -12.5l113 -38h126z" />
    <glyph glyph-name="U" unicode="U" horiz-adv-x="761" 
d="M419 -232l66 17q29 18 39.5 26.5t41.5 39.5l18 8q-3 -27 -4 -35.5t-1 -30.5l10 -14q11 0 61 3t75 3l1 11l-22 20l-20 37l-14 108l-4 145q0 150 3.5 214t8.5 125q-5 5 -23 9q-24 -14 -53 -35q-45 -33 -64 -46q-32 -11 -60 -23q-14 -6 -24 -9q-2 -5 -3 -11.5t-1 -11.5
q17 -5 37.5 -5h45.5l23 -9q9 -14 12 -21t11 -39l16 -216l-10 -90l-47 -63q-19 -9 -38 -19l-117 -5q-25 7 -37 11t-35 16q-25 19 -31.5 25.5t-43.5 47.5q-12 28 -21 57.5t-19 65.5v85q15 59 23 102l39 67q22 30 29 40q11 15 31 31l12 32q-14 0 -25 -5q-2 -1 -31 -15l-140 -6
q-45 -29 -89 -57l-10 -20q10 -2 19 -2h19q9 6 19.5 8.5t41.5 6.5q10 -4 20.5 -6t53.5 -7l-7 -24q-2 -1 -21 -28q-13 -17 -26 -32q-4 -14 -15 -39q-20 -46 -36 -92l-5 -95l18 -94l33 -61q19 -22 33 -34q2 -1 41 -34q34 -12 38.5 -14t12.5 -10l56 -8z" />
    <glyph glyph-name="V" unicode="V" horiz-adv-x="913" 
d="M469 -295q0 9 5 20.5t33 69.5l47 126q7 6 14 21q11 22 42 93l77 129l43 51q39 36 58 54q32 29 93 79q4 11 11 18t43 39l6 24q-17 -2 -32 -2q-6 0 -50 1.5t-92 1.5l-35 -9q-7 -7 -52 -33q-21 -12 -31 -20v-24q9 -2 17 0.5t35 15.5q10 1 29.5 3t22.5 2q36 0 36 -27
q0 -13 -5 -27q-11 -7 -51 -48t-48 -45q-3 -10 -14 -27q-15 -23 -75 -110q-8 -25 -12.5 -36t-31.5 -66l-37 -54h-15q-8 10 -26 46.5t-22 38.5q-20 45 -41.5 84.5t-28.5 43.5q-2 4 -16 27q-8 13 -14 29l-27 32l-8 24q-12 6 -33 27q-35 38 -68 72l-1 14q-6 0 -10.5 0.5
t-4.5 14.5q-10 3 -17 8.5t-31 26.5q-20 9 -28.5 12t-31.5 8l-47 -39l-48 -19l-31 -26l-1 -19l32 8q25 -3 35 -6t50 -19q27 -22 46 -41q3 -3 56 -59q51 -64 71.5 -92.5t86.5 -127.5l3 -20h15q0 -14 13 -47t19 -38q15 -34 24 -60.5t38 -119.5z" />
    <glyph glyph-name="W" unicode="W" horiz-adv-x="1181" 
d="M434 -282l54 120q11 35 22 62t14 36q14 19 33 62t33 73q8 2 21 2q13 -17 16 -24t6 -24q3 -2 23 -44.5t23 -44.5q19 -39 36 -82q10 -26 14 -30q3 -15 11 -37q14 -37 23 -68l17 -1l18 30q5 21 21 59l86 204l66 113l84 112q35 34 97 90q47 43 97 89l6 23q-38 -7 -67 -9.5
t-168 -2.5l-51 -32l-34 -10l-16 -16l-6 -23l42 3q6 5 11.5 8t21.5 10q15 0 76 -5q24 -2 46 -2l-16 -38l-91 -88l-74 -113q-19 -40 -45 -90q-20 -38 -30 -61q-14 -21 -19 -26.5t-16 -12.5q-9 9 -40 66q-50 92 -98 180v33l50 56l169 155l-2 24q-6 -4 -11 -6.5t-12 -4.5
l-207 -7q-27 -17 -36.5 -22.5t-33.5 -13.5q-14 -10 -19 -16q-10 -14 -19 -25l43 -1l22 13q31 3 38.5 3.5t14.5 0.5q18 0 38.5 -2t41.5 -4l-5 -25l-94 -105l-16 4q-6 12 -9.5 16t-22.5 22q-24 31 -42 51q-28 30 -56 61l-79 53l-29 5l-27 -32q-19 -8 -53 -28q-27 -16 -45 -22
l-1 -24l29 3q4 4 9 4l41 -4l70 -33l63 -65l80 -106l5 -24l-86 -171q-8 -2 -15 -4t-12 -5q-17 38 -66 132q-52 99 -58 114h-14l-4 37l-17 5l-26 32l-13 33h-15l-2 15q-15 13 -53.5 52.5t-70.5 68.5q-23 10 -35.5 14.5t-30.5 7.5l-33 -32q-31 -14 -42.5 -21t-51.5 -34l-5 -19
l33 8l52 -5l43 -18q16 -11 43.5 -38.5t46.5 -45.5q30 -37 50 -65q27 -38 82 -117l4 -25l99 -188q14 -41 21 -62q13 -39 20 -64z" />
    <glyph glyph-name="X" unicode="X" horiz-adv-x="790" 
d="M109 -371q23 37 36 56t41 54q29 43 54 76q38 49 39 55q17 17 41 47q41 52 74 88l20 4l19 -26h13l2 -14q21 -21 50 -54q84 -96 117 -131l29 -19h46q11 13 24.5 22.5t105.5 67.5l3 15q-36 -6 -70 -6l-34 9l-101 81q-15 22 -42 56q-35 43 -78 95v19l90 96q42 33 75 56
q26 30 68 67q34 30 58 53l-4 8q-10 -1 -17 -1q-11 1 -59 2t-124 1l-27 -8q-6 -15 -9 -18l-63 -29l-33 -32l-5 -20l85 27l85 4q9 -1 9 -6q0 -11 7 -11l-169 -170l-91 113l-21 42l-22 8q-11 10 -13.5 14.5t-2.5 14.5q-10 6 -16.5 12.5t-20.5 23.5l-14 2l-6 13q-12 13 -20 19.5
t-27 17.5q-7 -1 -21 -2t-35 -1l-9 -16l-52 -21l-55 -43v-14q9 -1 20 -1h16q12 3 19 4l52 -26v-15l14 -2q74 -72 96 -92q17 -15 25 -19l5 -14l97 -102v-15l-127 -150l-95 -131q-10 -23 -35 -62t-35 -57l3 -15h15z" />
    <glyph glyph-name="Y" unicode="Y" horiz-adv-x="719" 
d="M407 -753q0 184 5 259q8 70 11 110v42.5t1 34.5q0 18 -3 56l9 17q0 33 3 78q7 104 7 130q7 19 18 40t17 35q2 1 19 34q12 23 34 60l72 88q32 26 87 80q69 67 119 114l-3 23l-26 -20h-127q-7 -4 -12.5 -7.5t-21.5 -16.5q-7 -4 -21 -9.5t-25 -9.5l-22 -26v-15q13 0 19 2
t40 15q4 1 26.5 4.5t34.5 3.5l-2 -15q-50 -57 -63.5 -71t-45.5 -42q-8 -13 -14.5 -24t-25.5 -32l-79 -147q-12 -7 -20 -8l-6 33q-12 24 -18 34q-12 20 -14 32q-4 2 -51 75q-30 47 -47 70l-121 127l-4 14q-20 4 -23 5.5t-6 7.5q-17 6 -25 7t-37 1l-18 -22l-97 -55l-6 -19
l57 8l84 -33l51 -37l4 -14l97 -103l18 -30q6 -10 25 -31l62 -122l22 -74q0 -94 4 -214l8 -240t4 -213q19 3 26 10z" />
    <glyph glyph-name="Z" unicode="Z" horiz-adv-x="787" 
d="M761 -358q36 13 46.5 18t31.5 18q4 7 16 18q36 33 45 43l-1 34h-25l-14 -32l-70 -28h-89q-113 33 -185 77q-45 31 -90 61q-44 24 -116 24q-23 6 -46 6l1 14q129 125 241 230q28 26 131 121q41 38 44 43q19 16 77 62q36 29 61 52l4 28l-29 -6q-16 -14 -26 -19.5t-39 -17.5
l-140 3q-70 12 -142 23.5t-161 24.5h-83l-40 -13q-37 -26 -52.5 -38.5t-46.5 -41.5l-3 -42l24 2l29 35l41 18q34 0 163 -17q181 -24 307 -38q-2 -15 -5 -20q-36 -33 -51 -45q-11 -9 -21 -14q-7 -12 -8 -16l-307 -280q-34 -25 -57 -44q-66 -55 -132 -111l-1 -14l28 3
q13 11 22.5 15.5t47.5 16.5h41.5t20.5 -4q21 0 45.5 -4.5t30.5 -5.5q67 -22 148 -73q39 -25 63 -32q1 -1 24 -8.5t26 -11.5q39 -10 59 -13t79 -9z" />
    <glyph glyph-name="bracketleft" unicode="[" horiz-adv-x="154" 
d="M51 -177v966l120 6l20 5v-39h-17l-88 -5v-904l53 -9q24 -4 31 -4.5t16 -0.5v-38z" />
    <glyph glyph-name="backslash" unicode="\" horiz-adv-x="373" 
d="M64 784v16h-47l13 -25l279 -959v-16h48l-13 25z" />
    <glyph glyph-name="bracketright" unicode="]" horiz-adv-x="154" 
d="M147 -177v966l-120 6l-20 5v-39h17l88 -5v-904l-53 -9q-24 -4 -32.5 -4.5t-14.5 -0.5v-38z" />
    <glyph glyph-name="asciicircum" unicode="^" horiz-adv-x="395" 
d="M57 605q-6 -15 17 -23q51 34 72 61q10 13 50 86q29 -47 61.5 -83t67.5 -57q24 13 49 27q-58 26 -96 71q-23 27 -70 108q-43 -92 -63 -116q-12 -14 -88 -74z" />
    <glyph glyph-name="underscore" unicode="_" horiz-adv-x="771" 
d="M-11 -128q-8 -2 -10 -2q-5 0 -5 2.5t4 8.5q29 16 60 58q28 38 36 39t19.5 1h20.5q84 0 144 -1q299 -5 319 -5h31q115 0 132 7q26 11 52 35l10 4q2 -6 2 -14q0 -13 -3.5 -23.5t-12.5 -16.5q-21 -17 -40 -54q-6 -12 -16 -14t-33 -3t-54 -1q-59 0 -167 3q-252 7 -310 7
q-59 0 -92.5 -2t-43.5 -8q-17 -11 -36 -18q-3 -1 -7 -3z" />
    <glyph glyph-name="grave" unicode="`" horiz-adv-x="220" 
d="M1 680l72 100l140 -188l-28 -20z" />
    <glyph glyph-name="a" unicode="a" horiz-adv-x="344" 
d="M124 -30l24 24q8 19 12 27q1 1 14 25l20 4l5 -27l31 -53q10 1 20 1q8 3 11 4q11 15 13 19t5 19q15 22 20 28t22 24l4 14l4 14h-38q-16 22 -24 34q-16 22 -18 39q-21 45 -43 112q-26 79 -41 113h-31l-104 -122v-28l23 -1q7 6 14 11.5t13 13.5h15l15 -19q8 -21 9 -26.5
t1 -25.5l-31.5 -46.5t-24.5 -32.5q-6 -17 -20 -40q-23 -38 -28 -49v-27l54 -30zM96 88l4 33l35 43l15 -15l16 -61q-7 -6 -13.5 -8t-29.5 -4z" />
    <glyph glyph-name="b" unicode="b" horiz-adv-x="373" 
d="M115 65q-6 45 -10.5 110.5t-4.5 173.5l66 -1q10 -9 14 -13.5t11 -13.5l5 -56l-10 -24l-50 -47l-3 -23q20 0 37 4t25 4q27 -16 30.5 -19t10.5 -15l12 -37v-43l-17 -35q-18 -5 -22 -10h-34zM153 -74q24 8 33 12q32 16 69 34q56 60 66.5 73t24.5 38l9 38v43q0 21 -1 29.5
t-4 21.5l-57 50l-28 4l1 20l24 22l9 48q-2 8 -6 23t-5 22l-33 26l-24 6h-35q-34 0 -48.5 -9t-37.5 -46q0 109 2.5 149.5t8.5 68.5l-7 49l-30 -3q-12 -16 -34 -47t-32 -47l2 -18q8 -1 17 -1q6 0 21 4q4 -36 4 -61t3 -36q-2 -2 -9.5 -102t-19.5 -212q0 -23 1 -70t1 -71
q24 -24 36.5 -35t29.5 -23h49z" />
    <glyph glyph-name="c" unicode="c" horiz-adv-x="313" 
d="M146 -55q21 17 38 33q24 24 36 35l19 28l6 33q-6 -2 -14.5 -3.5t-12.5 -2.5l-23 -24q-9 0 -12 1q-13 6 -27 13q-6 9 -9 13q-6 7 -32 27l-5 17h-20q-5 16 -7.5 25.5t-3.5 13.5q4 47 5.5 56t16.5 79l55 35h43q5 -12 7 -19.5t7 -44.5q8 4 15 4q22 59 30 79q21 50 22 58
l19 23l-1 17q-13 0 -23.5 -0.5t-43.5 -4.5q-25 -8 -43 -17.5t-48 -27.5l-42 -46q-13 -25 -18.5 -34.5t-20.5 -27.5l-4 -28q-3 -2 -9 -12q-15 -25 -20 -30q-6 -42 -7 -52.5t-1 -35.5q-3 -3 -3 -10q0 -14 3 -37.5t5 -41.5q24 -29 33 -38t54 -51z" />
    <glyph glyph-name="d" unicode="d" horiz-adv-x="341" 
d="M179 -55l82 86l37 52l20 47l7 69l-4 84q-14 39 -21 55t-32 68q-12 8 -53 68q-3 5 -129 190l3 42l-19 -1q-9 -11 -19 -30q-29 -53 -36 -62v-62q4 -1 8 -5q15 -27 54 -85.5t61 -96.5q-26 -51 -36 -68.5t-31 -44.5q-6 -27 -7.5 -31t-9.5 -16q-7 -29 -10 -60q0 -52 1 -65.5
t8 -47.5h13l2 -15l73 -69zM118 133q0 15 -2 50.5t-2 39.5l41 108h14q13 -18 36 -59q20 -37 36 -63q4 -11 9 -22.5t11 -22.5v-16q0 -14 -0.5 -25t-9.5 -49l-23 -29l-17 -1q-17 17 -55 51q-28 25 -38 38z" />
    <glyph glyph-name="e" unicode="e" horiz-adv-x="314" 
d="M146 -34q8 13 13 17l44 33l37 58l-1 24q-14 -6 -18 -9t-11 -13q-16 -5 -25 -6t-16 -1l-81 80q-7 22 -7 34q0 10 3 36q5 1 13 1t67 -11q8 -25 10 -32t4 -28q14 4 18 4q6 9 7 13.5t5 32.5l35 56l-159 -9q0 23 3 31q8 17 14 31l63 40l30 -3q7 -16 10 -28.5t6 -33.5l14 3
q5 5 10.5 19t29.5 86l35 63l-33 7q-41 -8 -61 -15t-41 -16q-14 -11 -22 -17t-19 -17l-45 -56l-54 -121l-10 -43v-93q13 -22 22 -47l15 -5l2 -15l68 -52z" />
    <glyph glyph-name="f" unicode="f" horiz-adv-x="361" 
d="M95 -183q5 23 14.5 194.5t9.5 207.5q33 -6 69 -6q10 -7 16 -14.5t11 -13.5l3 -36q16 4 25 4l5 46q15 16 22 25t19 31l-165 -9l2 43l18 21l64 38l28 1q5 -14 13 -36t11 -34l16 14q5 30 13 52.5t15 42.5q2 1 17 28q9 16 24 38l-75 1l-34 -9q-7 -8 -12.5 -12t-52.5 -30
q-8 -10 -15 -19t-12 -19q-4 -1 -11 -11.5t-9 -10.5l4 59q-3 7 -8 7q-6 0 -10 -9q-21 -37 -43 -66.5t-44 -45.5q-2 -5 -3.5 -12.5t-3.5 -16.5l57 15q4 -26 6 -142t2 -318z" />
    <glyph glyph-name="g" unicode="g" horiz-adv-x="414" 
d="M105 -391l56 25l49 38l66 70q16 40 16.5 41.5t6.5 23.5q12 57 13.5 76t1.5 79q-9 32 -18.5 57t-19.5 52l-47 60l-1 14h-15l-20 48l31 27q20 31 26 44t13 35l-12 80q22 -4 34 -5t45 -1l106 63l3 14l-85 3l-14 10h-66q-12 -12 -23 -24q-8 -5 -20 -10.5t-18 -8.5q-8 2 -21 2
q-9 0 -35 -1t-52 -1l-60 -45l-36 -70l-6 -42l8 -45l94 -102l28 -17q4 -11 12.5 -21t64.5 -73l43 -80l10 -48q-5 -2 -6 -4q-4 -8 -4 -56l-19 -42l-45 -40l-56 -28l-65 4q-36 18 -49 23t-55 17l-18 38q-2 14 -2 18q0 6 2 19t4 33h-19l-21 -67q-7 -12 -15 -24q-4 -7 -13 -26
q-9 -6 -28 -28q-23 -27 -34 -38l-1 -19q9 3 26 10.5t26 7.5l50 -39l70 -27h114zM100 266q-4 9 -11 20t-15 23l-1 39l56 6q19 -8 23 -10.5t14 -14.5q5 -15 6 -26t1 -54q-6 -17 -9 -21.5t-8 -7.5l-3 3z" />
    <glyph glyph-name="h" unicode="h" horiz-adv-x="316" 
d="M188 -121q1 1 10 17t15 21l36 138q2 1 8 2.5t11 2.5l-14 5q2 15 11 61q15 78 29 163q4 4 6.5 29t2.5 126q-12 33 -15.5 41t-14.5 26h-24l-99 -115q0 43 -2 94q-5 127 -5 160q-8 45 -15 90l-24 3l-39 -48l-42 -31l-9 -29q30 6 57 6q4 -13 12 -20q0 -29 4 -72q9 -96 9 -119
q0 -30 -6.5 -164t-6.5 -240l-12 -36l18 -3q7 16 9 24.5t2 43.5l11 14q0 35 5 72q13 96 13 134l17 74q14 18 20.5 25.5t26.5 24.5q13 0 23 -8q7 -47 15 -93q0 -35 -4 -86q-9 -115 -9 -143q-3 -3 -5.5 -17t-8.5 -77q-14 -36 -22 -58t-8 -41z" />
    <glyph glyph-name="i" unicode="i" horiz-adv-x="120" 
d="M41 495l57 85l2 28q0 5 -5 12q-7 -2 -12.5 -3t-13.5 -1l-14 -13q-1 -8 -1.5 -14t-3.5 -15q-5 -8 -14.5 -30t-12.5 -26l-3 -37q4 4 11 8t10 6zM88 -6q0 125 8 216q18 204 18 269q0 10 -8 10q-6 0 -15.5 -10.5t-20.5 -30.5t-16 -27t-13.5 -15t-9.5 -10l-18 -15
q-7 -17 -8 -22l56 5q0 -1 4 -17.5t4 -28.5l2 -334z" />
    <glyph glyph-name="j" unicode="j" horiz-adv-x="164" 
d="M34 -344l34 46l8 47q4 3 5.5 12.5t10.5 103.5q13 133 27 265q0 37 2 63q7 89 7 102l1 46q-1 4 1 33.5t0 30.5v54.5t1 54.5l-10 5q-17 -30 -26 -45q-5 -8 -17.5 -23.5t-23.5 -24.5q-18 -12 -29 -20q-5 -5 -5 -9q3 -6 3 -9q6 0 17 3t17 3q8 0 22 -6v-442l-14 -4l8 -28
q-2 -2 -10 -82q-4 -41 -9 -73q-5 -4 -7 -7q-5 -15 -11 -32q-8 -9 -22 -19l-34 -2q0 -19 1 -24t9 -19h44zM54 529q6 11 31 50q12 18 20 35l-5 27q-4 1 -8.5 7t-9.5 6q-7 0 -17 -6q-4 -19 -7.5 -34t-9.5 -19q-6 -22 -9 -30q-6 -15 -11 -30q1 -5 -2 -16t-3 -15q4 -3 10 3t21 22
z" />
    <glyph glyph-name="k" unicode="k" horiz-adv-x="353" 
d="M286 -119q16 15 23.5 25.5t21.5 35.5l60 67v27l-26 3q-8 -6 -14.5 -11.5t-12.5 -12.5q-8 2 -15 4q-7 11 -50 112q-29 69 -72 162v38q7 13 12.5 18.5t21.5 18.5q5 18 7 23l26 39l17 46q-34 14 -43.5 17t-55.5 15q-12 -7 -20 -8l-36 -37l-4 305l-27 -5l-80 -89l2 -24l53 5
q5 -65 9.5 -231.5t4.5 -439.5l21 5l9 169q5 6 8 22h14l20 -65q25 -65 41 -101.5t32 -71.5q3 -2 7 -12q10 -27 21 -54zM128 381q2 6 6 9q5 1 17 2.5t19 1.5q9 0 35 -6q0 -11 -4 -20l-20 -23q-6 -20 -20 -42q-4 -6 -10 -20q-5 -4 -12 -14.5t-13 -13.5q0 22 1 64t1 62z" />
    <glyph glyph-name="l" unicode="l" horiz-adv-x="238" 
d="M141 -10q20 19 30.5 27t52.5 37l2 22l-46 9l-55 48q-7 17 -9.5 29t-9.5 68q0 78 4.5 160.5t9.5 162.5t5 147q-12 4 -25 4q-12 -17 -22 -39q-11 -6 -37 -21q-15 -9 -30 -14v-20l58 -4l-5 -183q0 -77 -14 -164t-14 -176l8 -43q9 -3 19 -9q15 -10 18 -11v-14l29 -16h31z" />
    <glyph glyph-name="m" unicode="m" horiz-adv-x="399" 
d="M291 -185l9 42q2 1 13 33q6 17 11 24q9 64 12 81t12 36q10 43 16.5 81t11.5 87l4 160l-15 56q-10 6 -14.5 7t-19.5 1q-6 -5 -20 -21q-38 -46 -46 -53l-12 49q-8 12 -10.5 14.5t-14.5 10.5l-24 -3l-60 -75l-14 56l-25 3l-87 -101v-14l27 -3l33 12l11 -52l2 -322l18 3
l17 181q6 9 10 22q0 26 4 80t4 83l14 15h21q8 -28 9.5 -32t4.5 -7q6 -56 7 -82t1 -122q-4 -34 -9 -58q-15 -75 -16 -87q4 -6 6.5 -7t13.5 -1q7 15 15 30l38 193l9 125q6 29 8 35.5t9 14.5h24l15 -84q-2 -1 -1 -30.5t1 -80.5l-18 -205l-28 -90q-2 -11 -2 -33z" />
    <glyph glyph-name="n" unicode="n" horiz-adv-x="293" 
d="M170 -168l15 22q11 36 28 96q31 108 47 171q8 82 9.5 92.5t4.5 12.5q4 42 5 71t1 118l-26 46l-28 -6q-17 -16 -27.5 -27.5t-52.5 -64.5l-15 1q-5 46 -6.5 55t-6.5 21l-22 -1l-56 -75l-26 -19v-24q15 3 29 5.5t32 4.5q8 -45 9.5 -55t1.5 -25v-291q8 -4 15 0q6 51 8 66.5
t6 18.5q5 54 11 109q3 41 3 144q8 14 15 25t20 25h24l21 -50q0 -50 -2.5 -131.5t-2.5 -97.5q-6 -52 -11 -82q-9 -54 -12 -77q-14 -35 -17.5 -46.5t-7.5 -34.5z" />
    <glyph glyph-name="o" unicode="o" horiz-adv-x="325" 
d="M149 -36l59 49q3 7 32 53q16 26 39 64q4 20 16 56.5t16 51.5q0 57 -2 74q-5 23 -9 39h-15l-2 14q-27 26 -38.5 36.5t-33.5 27.5q-8 -2 -18.5 -3t-18.5 -1l-79 -74l-47 -91l-9 -31q-3 -2 -10.5 -26.5t-13.5 -34.5l3 -99q7 -10 10 -28h13l2 -15l45 -45l32 -17h29zM149 80
l-51 50l-19 33q-3 23 -3 28q0 6 5 9l9 56q22 54 25.5 61t10.5 13h23q48 -39 60.5 -50t26.5 -27l14 -43l-37 -136q-16 -14 -19.5 -16t-7.5 1z" />
    <glyph glyph-name="p" unicode="p" horiz-adv-x="356" 
d="M90 -351l16 67q0 46 19 180q10 71 10 127q7 5 10.5 88.5t3.5 219.5l16 17h29q4 -5 29 -14l7 -16l24 -15l26 -34l4 -75l-25 -83q-4 -5 -10 -15l-9 -15l-56 -45q3 -6 5 -6l37 4q34 34 48.5 50.5t43.5 54.5q5 27 10 43q11 37 12 41v136q-11 12 -15 17.5t-7 14.5
q-23 19 -34 28q-22 18 -34 27l-37 -2l-62 -59l-20 -4l-7 23l-20 -3q-13 -17 -43 -46q-22 -21 -45 -44l3 -18q7 -1 15 -1q9 0 34 8l15 -35q0 -56 1.5 -68t8.5 -26q0 -24 1.5 -104t1.5 -181l-6 -10q0 -20 -4 -46q-11 -72 -11 -184z" />
    <glyph glyph-name="q" unicode="q" horiz-adv-x="333" 
d="M15 111q7 -36 10 -46.5t8 -19.5q36 -39 47 -48.5t43 -32.5h32l70 70l19 7q0 -108 3 -178q7 -164 7 -194q8 -2 10 0q6 9 26.5 23t25.5 13q3 12 -1.5 13t-9.5 -1q-12 -3 -14 -3q-9 0 -13.5 9t-4.5 36q0 13 3 41t3 44q0 263 0.5 317.5t3.5 143t3 110.5q-38 6 -71 6l-4 8
q-16 -4 -38 -4l-63 -60q-14 -25 -19.5 -32.5t-20.5 -23.5l-31 -76q-11 -8 -24 -122zM116 111l-3 14l-14 5q-11 27 -16 41t-5 29q7 26 13 46q10 34 25 67q10 7 29 7q19 -12 49 -26t35 -18q9 -17 9 -23q0 -2 -2 -10q3 -15 3.5 -71t0.5 -74l-39 -37h-13z" />
    <glyph glyph-name="r" unicode="r" horiz-adv-x="383" 
d="M66 -200q13 36 17.5 46t11.5 20q4 30 17 87q22 101 39 190l9 175l31 31l42 19h28l20 -64l18 2l16 58q17 43 33 77.5t17 39.5l-75 -5l-39 -13q-37 -29 -47.5 -38.5t-44.5 -41.5q-10 15 -12.5 20.5t-6.5 21.5l-34 -4q-46 -75 -55 -88.5t-32 -38.5l-1 -24l13 3l33 41l21 -1
q2 -13 4 -25q7 -37 7 -40l3 -142q-5 -6 -7.5 -39t-2.5 -87q-10 -58 -21 -103q-16 -70 -18 -81z" />
    <glyph glyph-name="s" unicode="s" horiz-adv-x="344" 
d="M154 -265q16 6 27 12t54 32q33 42 56 75q10 24 19 56l5 123q-3 13 -9 37t-10 43l-71 102l-51 56l-1 15l-15 3l-67 64q-11 23 -12 27t-4 23q9 18 14 24.5t12 12.5l62 4l33 -8l15 -13q8 -16 10 -23t9 -40l16 -1q6 5 10 16t17 56l36 70q-8 0 -80 -10.5t-113 -14.5l-48 -25
l-39 -52q-5 -9 -10 -22t-9 -24v-43l19 -47l46 -43l3 -15l13 -1q29 -27 58 -58q43 -45 51 -53l40 -60l14 -43l4 -56l-8 -57q-2 -2 -11 -23t-20 -40l-14 -3l-9 -26l-52 -36h-89q-35 12 -48.5 18t-36.5 18l-51 50q-3 14 -5.5 31.5t-4.5 34.5l-19 -4l-16 -20v-23l45 -59
q44 -30 89 -56l56 -10z" />
    <glyph glyph-name="t" unicode="t" horiz-adv-x="501" 
d="M243 -34q28 29 33 33.5t30 19.5q8 15 11 19t17 18q7 23 7 38l-22 -1l-24 -29q-7 2 -19 2q-17 11 -29 20t-53 50q-9 13 -13 19q-8 12 -12 19v51l14 45q15 25 17.5 28.5t19.5 19.5l128 8l38 12l89 66l3 19q-26 -8 -114.5 -14t-233.5 -6l-70 -57l-37 -17q3 -15 5 -21
q37 4 75 7.5t65 3.5q-3 -8 -12.5 -25t-14.5 -31q-6 -6 -10 -22t-18 -81v-80l45 -67l62 -47h23z" />
    <glyph glyph-name="u" unicode="u" horiz-adv-x="356" 
d="M16 325l57 -10q0 -54 3.5 -149.5t3.5 -124.5l16 -36l19 -9l39 3l60 75h14l5 -71q17 0 52 -1t51 -1l4 8q-3 5 -7.5 7.5t-33.5 14.5l-18 43l-8 361h-17q-20 -30 -40.5 -53t-46.5 -41v-15l47 -3l9 -53v-131l-47 -49l-20 3l-18 32l-14 113q4 17 4 41q0 29 -0.5 59t-0.5 61v31
l-18 3q-19 -27 -39 -49q-29 -32 -48 -40q-8 -17 -8 -19z" />
    <glyph glyph-name="v" unicode="v" horiz-adv-x="519" 
d="M278 -6q45 97 51.5 110t14.5 21q10 30 56.5 127.5t49.5 107.5l39 51l7 34h-141q-5 -5 -26 -40q-13 -22 -34 -55q4 -7 4 -15q48 12 57 13.5t37 1.5l-7 -24q-6 -8 -51 -91q-15 -27 -41 -70l-14 -2q-16 32 -35 76q-42 98 -74 171l-22 28l-28 -3l-97 -122v-23l26 -4l29 28h22
l32 -44q31 -63 40 -84.5t25 -65.5q10 -18 20 -43q25 -64 35 -83h25z" />
    <glyph glyph-name="w" unicode="w" horiz-adv-x="731" 
d="M266 -34l22 28l8 32q3 3 17 35q6 14 12 22q5 19 13 39q13 34 22 59l25 -13l31 -85q4 -2 26 -63q11 -31 21 -51l17 1q53 126 61 144t14 21q31 77 47 113q28 57 52 108q9 8 16 20q4 6 21 37q4 16 6 25t2 11l-24 -1q-3 -3 -11 -3q-6 0 -30.5 2.5t-52.5 5.5q-13 -7 -23 -8
q-6 -5 -20 -30q-22 -40 -39 -69l2 -11q11 0 34 5q34 8 46 9q12 -6 12 -16q-59 -107 -72.5 -129.5t-29.5 -39.5q-3 2 -40 83q-42 91 -91 191q-9 -2 -20 -2h-17q-13 -14 -19 -24t-26 -47l-29 -29l-1 -32q34 3 45 4.5t15 1.5l26 -34v-46l-50 -66q-18 36 -22 47t-7 27
q-6 5 -22 41q-19 43 -34 86q-15 22 -19.5 30t-21.5 46l-14 8q-15 -6 -19 -9t-21 -19q-5 -7 -11 -19.5t-8 -16.5l-47 -57l-4 -38l21 -1q7 7 23 13t33 12l57 -113q30 -80 61 -160q20 -51 32 -70z" />
    <glyph glyph-name="x" unicode="x" horiz-adv-x="425" 
d="M-69 -156l39 38q8 13 25 35q14 18 15 25q12 4 15 4q4 13 15.5 26.5t32.5 36.5q17 29 29.5 53.5t25.5 50.5h13q11 -31 22 -53q19 -36 35 -69q10 -6 15 -8.5t17 -2.5q29 44 35.5 53t38.5 47v14q-7 4 -13.5 6t-26.5 4l-50 121v24l16 24l63 40q16 0 20.5 -1t11.5 -7l11 -52
l17 -14q5 5 7 18.5t4 33.5l27 78q8 10 14 19q3 4 23 36q-10 5 -26 7t-34 4q-11 -4 -20.5 -6t-18.5 -4l-94 -74l-42 -60q-4 6 -40 75q-14 27 -22 37l-27 -3q-40 -54 -47 -63q-19 -24 -54 -61q-1 -5 -2 -14.5t-1 -16.5l39 6q3 7 9 10l33 7q2 -15 10 -38q16 -42 29 -80
q-9 -10 -14 -19.5t-28 -60.5q-10 -13 -22 -22l-6 -24q-9 -13 -38 -50q-19 -24 -38 -49q-31 -31 -40.5 -39.5t-27.5 -21.5v-22q9 2 25 2z" />
    <glyph glyph-name="y" unicode="y" horiz-adv-x="519" 
d="M256 -503l8 50q0 35 -3 88t-3 54q6 51 13 109.5t10 96.5l10 19l9 109l10 8q4 11 28 66q41 93 47 108l19 29q3 11 7 22q18 42 22 57q28 42 56 85l7 23q-35 0 -71.5 -0.5t-74.5 -0.5l-12 -9l-14 -42q-7 -6 -12 -12.5t-21 -30.5q2 -7 2 -22l16 -6l36 23h43l2 -12l-20 -43
q-2 -1 -41 -77q-18 -35 -35 -61l-14 -3q-22 55 -35 90q-9 26 -12 28q-19 43 -31 70t-14 38q-3 3 -18.5 33t-21.5 36h-23l-62 -87q-11 -10 -21 -20t-18 -19v-41q5 -3 16 -3l38 33l20 5q7 -7 11 -8l84 -182q5 -32 7 -41q12 -42 25 -91q0 -170 2.5 -266t5.5 -209z" />
    <glyph glyph-name="z" unicode="z" horiz-adv-x="659" 
d="M485 -56l48 20l43 33l43 53q7 20 10 28l-3 25q-9 -4 -18 -4l-33 -63q-12 -11 -32 -21t-24 -15h-70l-109 63l-95 36l-80 -3q-6 7 -6 24q32 40 86 106q67 81 159 190l2 14q-19 0 -23 -1l-24 -10q-53 0 -110.5 2.5t-77.5 2.5l-33 -21q-16 -21 -25.5 -31.5t-42.5 -43.5
q-5 -16 -7 -34l23 2l4 22q11 2 14.5 3t14.5 9q50 0 81 -1t60 -2h19q6 1 9 1l-7 -24q-48 -58 -48 -59q-16 -19 -55 -59q-50 -61 -110 -136q-28 -36 -37 -42l-1 -24q22 0 38 6q25 11 47 20q47 0 78 -6q43 -10 81 -18q54 -21 109 -42h102z" />
    <glyph glyph-name="braceleft" unicode="{" horiz-adv-x="397" 
d="M281 782q-12 -2 -33 -11q-7 -3 -22 -10q-43 -29 -57.5 -70t-14.5 -99q0 -22 3 -70t3 -72q0 -52 -21 -110q1 -6 3 -12q15 6 49.5 -28.5t34.5 -53.5v-98t1 -118q0 -39 -1 -43t-1 -15q0 -27 9 -66t17.5 -54t19.5 -21.5t24 -6.5q12 0 25 6.5t23 16.5t18 10q7 0 12 -5t5 -13
t-6 -17q-11 -15 -17.5 -18t-24.5 -3h-18q-61 0 -87 23q-23 24 -36.5 38t-16 43.5t-4 48t-2.5 35.5t-1 44v33t1 35q0 31 -2 58t-8.5 55t-23.5 44q-13 12 -42 25q-9 4 -15 4q-2 0 -9 -3t-18 -3q-30 0 -30 13q0 11 27 16q11 1 27 10t23 13q15 10 15 44q0 24 -8 61
q-4 17 -8.5 34t-4.5 54q0 63 14 114q19 70 63 105q29 22 59 36.5t61 18.5q3 -7 3 -10q0 -7 -8 -8z" />
    <glyph glyph-name="bar" unicode="|" horiz-adv-x="73" 
d="M62 -171v942l7 29h-66l8 -29v-942l-8 -29h66z" />
    <glyph glyph-name="braceright" unicode="}" horiz-adv-x="397" 
d="M116 -182q12 2 33 11q7 3 22 10q41 29 58 75q14 38 14 92q0 17 -3.5 68t-3.5 76q0 54 21 110l-2 12q-15 -6 -49.5 28.5t-34.5 53.5q0 39 -0.5 88t-0.5 109v40.5t1 20.5t1 14q0 27 -9 67t-17.5 55t-19.5 21.5t-24 6.5q-12 0 -25 -6.5t-23 -16.5t-19 -10q-7 0 -12 5t-5 13
t6 17q11 13 18.5 17t23.5 4h18q42 0 60 -7t66 -56q11 -11 13.5 -41t4.5 -52t3 -42t1 -38t-0.5 -36t-0.5 -36q0 -29 2.5 -55t7.5 -51q7 -27 24 -43q13 -12 42 -25q9 -4 14 -4q2 0 10 3t18 3q30 0 30 -12t-27 -17q-11 -1 -27 -10t-23 -13q-15 -10 -15 -45q0 -26 7 -60
q3 -13 10 -40q4 -16 4 -51q0 -63 -14 -113q-19 -69 -63 -103q-29 -22 -59 -36.5t-61 -18.5q-4 7 -4 10q0 7 9 8z" />
    <glyph glyph-name="asciitilde" unicode="~" horiz-adv-x="434" 
d="M62 735l-11 -14q-7 -7 -19 -25t-12 -22l10 6l11 17q16 14 30 22t32 8q24 -3 49 -19.5t48 -32.5q10 -7 18.5 -11.5t24.5 -10.5q16 -4 20 -4.5t18 -0.5l13 2l14 4l14 6q14 8 26 17.5t28 25.5l17 13q16 17 21 37q-1 5 -1 10q-2 0 -6 -4q-17 -28 -38 -43q-26 -19 -54 -19
q-6 1 -14 3.5t-20 7.5q-53 31 -106 63q-16 5 -36 5q-29 -4 -53 -20l-13 -10z" />
    <glyph glyph-name="ellipsis" unicode="&#x2026;" horiz-adv-x="201" 
d="M99 -9q20 17 61 40q32 18 33 19l-29 9l-45 49l-1 13l-19 -2l-41 -33l-49 -21l24 -7l52 -67h14zM374 -9q20 17 61 40q32 18 33 19l-29 9l-45 49l-1 13l-19 -2l-41 -33l-49 -21l24 -7l52 -67h14zM661 -9q15 12 36 25l58 34l-29 9l-45 49l-1 13l-19 -2l-41 -33l-49 -21
l24 -7l53 -67h13z" />
    <glyph glyph-name="dagger" unicode="&#x2020;" horiz-adv-x="764" 
d="M435 504q0 -98 3 -202.5t7 -225.5t4 -186q-19 136 -24 176q-12 101 -20.5 214t-8.5 224h39zM572 483q58 -33 58 -79q0 80 -58 141q-26 24 -52.5 36.5t-55.5 12.5v59q0 58 2.5 92.5t12.5 76.5q-15 31 -21 43q-19 35 -35 35q-13 0 -26.5 -17.5t-31.5 -60.5
q10 -61 17 -119.5t7 -105.5q-55 -10 -96 -54q-59 -56 -59 -139q0 47 59 79q34 21 84 29q0 -200 17 -377q14 -145 35 -251q17 -84 30 -109q16 15 24 204.5t8 532.5q48 -10 81 -29zM380 530q-53 -7 -105 -36q22 32 46.5 52t53 28.5t58.5 8.5q61 0 104 -34q15 -11 26.5 -23.5
t23.5 -31.5q-14 8 -24.5 13.5t-23.5 10.5q-24 7 -44.5 11t-41.5 4h-37t-36 -3z" />
    <glyph glyph-name="quoteleft" unicode="&#x2018;" horiz-adv-x="183" 
d="M68 483q29 29 40 38.5t35 23.5l27 4l5 16l-15 3q-19 14 -26 24q-1 2 -19 29l-4 57q14 26 37 59q17 24 18 31l-20 -3q-28 -21 -37 -27.5t-19 -9.5q-1 -2 -12 -15q-25 -29 -54 -68l-15 -42v-75l11 -38l19 -7h29z" />
    <glyph glyph-name="quoteright" unicode="&#x2019;" horiz-adv-x="181" 
d="M70 504q28 26 49 48q37 39 40 41l14 52v80l-12 35l-41 5q-10 -6 -13.5 -7.5t-11.5 -3.5l-27 -35l-57 -18l-2 -13q7 -4 20 -10q5 -2 10 -5l31 -42v-56l-47 -71l-7 -24q18 3 26 7q15 10 28 17z" />
    <glyph glyph-name="quotedblleft" unicode="&#x201c;" horiz-adv-x="415" 
d="M83 483q9 11 19.5 23t22.5 25q32 9 42.5 12t23.5 13l-41 23l-21 37v75q2 2 18 27.5t29 39.5l-23 2l-40 -26l-65 -65q-12 -25 -18.5 -39t-10.5 -31l4 -105l17 -11h43zM290 483l41 42l57 20l8 11l-22 12q-17 18 -22.5 26.5t-17.5 31.5v47l49 85l-23 2l-65 -49l-42 -47
q-4 -11 -14 -31t-14 -34q0 -57 1 -71t7 -42l15 -3h42z" />
    <glyph glyph-name="quotedblright" unicode="&#x201d;" horiz-adv-x="415" 
d="M58 483l31 20q32 30 42 40.5t40 45.5l19 56v80l-12 36l-50 -1q-6 -2 -28 -26q-16 -17 -25 -25q-30 -6 -39.5 -8.5t-16.5 -7.5l10 -13l32 -7v-18l15 -6q3 -5 6 -14t4 -14v-14q0 -29 -10 -61q-8 -6 -24 -29t-23 -31zM269 483q24 18 35 27q21 16 36 26l39 53l17 56v80
q-5 19 -6.5 22.5t-8.5 12.5h-47l-43 -46q-15 -7 -25.5 -9.5t-39.5 -6.5l9 -18q14 -5 19 -9t30 -26l10 -24v-14q0 -29 -10 -61q-17 -20 -24 -30t-20 -36z" />
    <glyph glyph-name="bullet" unicode="&#x2022;" horiz-adv-x="1219" 
d="M700 299q10 2 21 5t22 7q5 5 11.5 14t9.5 13q-24 13 -29 16q-23 13 -30 16l-56 66h-24l-80 -57q-32 -15 -60 -25q22 -12 33 -20t38 -34q7 -14 16 -25l32 -36q13 0 33 14q2 1 63 46z" />
    <glyph glyph-name="trademark" unicode="&#x2122;" horiz-adv-x="1131" 
d="M506 100q-55 -19 -116 -19q-20 0 -40 3q-91 14 -139 60q-44 42 -44 99q0 56 34.5 106t88.5 70q-9 0 -35 4.5t-49 9.5q-21 3 -40 3q-23 0 -44 -4t-38 -10q-5 -1 -14 -15q-4 -7 -8 -7q-5 0 -10 6q0 13 16.5 26.5t37.5 21t50.5 16.5t57.5 9q39 0 159.5 -18.5t152.5 -18.5
q34 0 65 6t36 15q11 17 22 17q7 0 7 -7q0 -3 -3 -8q0 -21 -60.5 -40t-95.5 -19q-31 0 -73 4.5t-49 4.5q-36 0 -61.5 -16.5t-53.5 -66.5q-15 -26 -15 -52q0 -28 16.5 -53t45.5 -46q48 -34 116 -51q4 -1 11 -1.5t17 -0.5q42 0 93 13.5t51 21.5t9 13q1 13 2.5 25.5t1.5 29.5
q0 16 -1.5 23.5t-8.5 16t-28 8.5q-6 0 -28 -4q-2 1 3 9q25 7 70 31q20 13 41 26q13 -2 18 -21q4 -27 16 -61.5t29 -70.5q34 -73 77 -122q3 4 17 26q31 51 49 90q13 28 20.5 50t7.5 35q0 15 -13 14q-4 -1 -7.5 -1h-4.5q-9 0 -9 4t6 8q-1 -1 -1 -2q26 10 74 31q35 15 39 14
q2 -5 2 -8q5 -21 5 -43l11 -111q5 -35 11.5 -60t17 -49t23.5 -37t32 -13q3 -2 4 -3.5t-1 -2.5q-16 -10 -40 -26l-20 -14q-6 -2 -11 -2q-13 0 -21 8q-30 32 -46.5 92t-26.5 149q-56 -79 -78 -116q-55 -91 -55 -134l-2 6q-9 -9 -13 -3q-7 10 -76 129q-29 50 -52 85
q-5 -29 -17 -65.5t-33 -84.5q-40 -86 -82 -136q-13 -16 -17 -16q-1 2 -0.5 5.5t5.5 14.5q20 37 40 76q25 48 36 77q8 20 16 44t13 50q-19 -15 -42.5 -27t-50.5 -20z" />
    <glyph glyph-name="copyright" unicode="&#xa9;" horiz-adv-x="1100" 
d="M50 300q0 -206 147 -353t353 -147t353 147t147 353t-147 353t-353 147t-353 -147t-147 -353zM993 300q0 -183 -130 -313t-313 -130t-313 130t-130 313t130 313t313 130t313 -130t130 -313zM685 419q7 -6 11 -1t4 18q0 19 -7 41q-2 8 -2 12q0 19 17 51q17 28 26 45
q-5 2 -13 2t-13 1q-8 0 -27 -2t-31 -2q-156 0 -258 -70q-119 -81 -119 -234q0 -108 84.5 -196.5t199.5 -88.5q117 0 232 77q15 14 15 25q0 13 -15 13q-12 0 -25 -7.5t-29 -25.5q-12 -15 -47.5 -26.5t-82.5 -16.5q-52 0 -95 19t-79 55t-56.5 93.5t-20.5 116.5q0 50 14 84
q23 56 79 95t113 39q46 0 80 -28.5t45 -88.5z" />
    <glyph glyph-name="onequarter" unicode="&#xbc;" horiz-adv-x="936" 
d="M415 418q-12 0 -12 10q0 6 6 8q41 16 70 47q52 56 63 56l11 -22q0 -69 -93 -179q-89 -95 -177 -189q-98 -108 -106 -167q-3 -28 -10 -28t-7 36q0 19 70 116q65 89 131 178q71 101 71 126q0 12 -17 8zM452 65q44 0 92.5 -10t98.5 -27v173q-2 18 -3 26q-4 26 -8 26
q-42 -57 -102 -118q-50 -51 -78 -70zM508 0q-17 0 -52 2.5t-45 2.5q-31 0 -64 -6l-2 4q2 7 8 13q37 13 118 106q28 32 136 168q69 86 77 85q4 4 6.5 -4t6.5 -18l2 -339q35 -5 67 -5q24 0 41.5 2t38.5 9l19 48q1 4 8 4q8 0 14 -9.5t6 -30.5q-9 -10 -30.5 -30t-31.5 -32
q-22 -11 -44.5 -14.5t-52.5 -3.5h-34l1 -79q0 -16 10 -37l12 -22q0 -10 -2 -10q-3 0 -13 2.5t-20.5 4t-21.5 1.5q-24 0 -58 -9q-13 -3 -14 -2q0 4 9.5 12t11.5 9q11 11 19.5 27t8.5 27v89q-19 0 -48 10q-72 25 -87 25zM54 684q17 9 30 9q17 0 32 -11q23 -17 23 -29
q4 -28 5 -46q5 -54 5 -95v-46q0 -63 -4 -97q-7 -56 -24 -82q-6 -9 -12 -17q0 -3 3 -4t13 1q26 5 45 8.5t28 3.5q19 0 33 -7q8 -4 15 -4q8 0 8 8q0 9 -6 13.5t-15 15.5q-13 16 -14 27q-14 97 -14 217q0 35 5 85q12 119 12 160q-3 6 -11 6q-6 0 -12 -6q-42 -34 -80.5 -54.5
t-73.5 -27.5q-2 -3 -2 -10t4 -13.5t7 -4.5z" />
    <glyph glyph-name="onehalf" unicode="&#xbd;" horiz-adv-x="964" 
d="M873 -116l19 47q1 4 9 4q7 0 13 -9t6 -30q-36 -35 -71 -70q-26 -13 -49.5 -19.5t-44.5 -6.5t-122 26q-51 13 -94 13q-22 0 -45.5 -2.5t-47.5 -7.5l-2 4q2 6 8 12q42 15 151.5 143.5t109.5 169.5v13q0 35 -5 58q-8 37 -27.5 56t-34.5 27q-20 11 -42 11q-18 0 -34.5 -6.5
t-37.5 -23.5q-10 -9 -10 -21q0 -11 7.5 -32.5t7.5 -28.5q0 -8 -4 -13q-13 -17 -24 -17q-20 0 -20 38q0 30 17.5 62t54.5 53q20 11 48.5 18t60.5 7q35 0 64 -9.5t48 -32.5q12 -14 18 -32t6 -38q0 -83 -97 -202q-81 -100 -150 -142q64 0 132 -17t97 -17q20 0 39 3t46 12z
M408 426q-11 0 -11 10q0 7 5 9q46 18 94 76q20 24 36 24l10 -21q0 -68 -90 -175q-86 -93 -172 -185q-97 -106 -104 -163q-3 -28 -10 -28t-7 36q0 18 69 113q64 87 128 175q69 98 69 121q0 12 -17 8zM55 687q6 4 14.5 6t14.5 2q21 0 39 -17q15 -14 15 -22q4 -28 5 -45
q5 -53 5 -92v-45q0 -61 -4 -95q-7 -55 -24 -80q-6 -9 -12 -17q0 -3 4 -3.5t12 0.5q25 5 43.5 8.5t28.5 3.5q19 0 32 -7q8 -4 14 -4q8 0 8 8t-5 12.5t-15 16.5q-13 16 -14 26q-13 97 -13 212q0 34 8 114t8 125q-3 6 -10 6q-6 0 -12 -6q-43 -35 -78.5 -53.5t-72.5 -26.5
q-2 -3 -2 -9q0 -7 4 -13.5t7 -4.5z" />
    <glyph glyph-name="threequarters" unicode="&#xbe;" horiz-adv-x="1015" 
d="M517 389q-10 0 -10 9q0 6 4 7q34 13 60 41q45 48 55 48l10 -19q0 -60 -80 -155l-154 -164q-85 -93 -92 -144q-3 -25 -8 -25q-6 0 -6 32q0 16 61 100q56 77 113 155q62 88 62 108q0 12 -15 7zM587 30q35 0 79.5 -9.5t85.5 -22.5v150q-1 15 -3 30t-7 15q-37 -51 -88 -103
q-41 -42 -67 -60zM635 -26q-12 0 -44.5 2t-40.5 2q-12 0 -26.5 -1t-28.5 -4l-2 4q1 5 7 10q32 11 103 92q27 31 118 145q60 75 67 74q3 3 5.5 -3.5t5.5 -15.5l2 -293q24 -3 32 -3.5t26 -0.5q13 0 29 0.5t40 8.5l16 41q2 4 7 4q10 0 14 -9t4 -26q-27 -26 -54 -53
q-23 -12 -49 -14.5t-64 -2.5v-68q0 -13 9 -31l10 -20q0 -3 1 -7q-1 -4 -14 1q-7 2 -17.5 3t-18.5 1q-20 0 -40.5 -5.5t-22.5 -3.5q0 3 8 9.5t10 8.5q11 11 18 24t7 23v77q-12 0 -73 21q-29 10 -44 10zM311 715q-71 0 -108 24q-18 12 -36 12t-47 -7l-17 -42q-2 -4 -7 -4
q-10 0 -14 9t-4 26l54 54q18 7 33 10t26 3q20 0 56 -19.5t75 -19.5q34 0 81 11q0 -2 1 -4q-1 -5 -6 -10q-16 -6 -57 -43q-37 -34 -82 -83q69 -25 114 -87t45 -130q0 -122 -96 -188q-83 -57 -208 -57q-9 0 -25 -2t-23 -2q-9 0 -20 3q20 36 28 55t5 32q-3 9 -4 18.5t-1 14.5
q0 11 3 15t9 -1q9 -49 43 -75q30 -23 73 -23q27 0 52.5 9t47.5 25q30 22 44.5 57t14.5 77q0 51 -19 99t-52 82q-11 10 -57.5 23t-46.5 23q0 4 5 9l32 32l6 -1q23 24 48 47q21 19 34 28z" />
    <glyph glyph-name="Igrave" unicode="&#xcc;" horiz-adv-x="113" 
d="M68 -6q10 100 10 102q4 34 12 63q11 74 22 149q7 69 7 174v183l-9 67l-21 18q-5 -5 -21 -20q-38 -34 -77 -75l-1 -18q22 4 29 5t13 1q7 0 12 -1l10 -14l14 -146v-254q-5 -51 -11.5 -130t-6.5 -95q0 -9 1 -13q3 -3 6 -2t11 6z" />
    <glyph glyph-name="igrave" unicode="&#xec;" horiz-adv-x="1000" 
 />
  </font>
</defs>
</svg>
